<svg height="512" viewBox="0 0 60 54" width="512" xmlns="http://www.w3.org/2000/svg"><g id="Page-1" fill="none" fill-rule="evenodd"><g id="037---Floor-Plans" fill="rgb(0,0,0)" fill-rule="nonzero"><path id="Shape" d="m3.414 8c-.57198851-.57181583-1.43207323-.74284381-2.17930912-.43335596-.74723588.30948786-1.23451818 1.03856416-1.23469088 1.84735596v42.586c0 1.1045695.8954305 2 2 2h42.586c.8087918-.0001727 1.5378681-.487455 1.847356-1.2346909.3094878-.7472359.1384598-1.6073206-.433356-2.1793091zm41.172 44h-6.586v-2c0-.5522847-.4477153-1-1-1s-1 .4477153-1 1v2h-4v-2c0-.5522847-.4477153-1-1-1s-1 .4477153-1 1v2h-4v-2c0-.5522847-.4477153-1-1-1s-1 .4477153-1 1v2h-4v-2c0-.5522847-.4477153-1-1-1s-1 .4477153-1 1v2h-4v-2c0-.5522847-.4477153-1-1-1s-1 .4477153-1 1v2h-4v-2c0-.5522847-.44771525-1-1-1s-1 .4477153-1 1v2h-4v-4h2c.55228475 0 1-.4477153 1-1s-.44771525-1-1-1h-2v-4h2c.55228475 0 1-.4477153 1-1s-.44771525-1-1-1h-2v-4h2c.55228475 0 1-.4477153 1-1s-.44771525-1-1-1h-2v-4h2c.55228475 0 1-.4477153 1-1s-.44771525-1-1-1h-2v-4h2c.55228475 0 1-.4477153 1-1s-.44771525-1-1-1h-2v-4h2c.55228475 0 1-.4477153 1-1s-.44771525-1-1-1h-2v-6.586l42.6 42.586z"/><path id="Shape" d="m9 46h18.687c.4043959-.0000863.7689341-.2437275.923678-.6173454.1547439-.373618.0692299-.8036603-.216678-1.0896546l-18.687-18.687c-.28599425-.2859079-.71603662-.3714219-1.08965456-.216678s-.61725909.5192821-.61734544.923678v18.687c0 .5522847.44771525 1 1 1zm1-17.272 15.272 15.272h-15.272z"/><path id="Shape" d="m45.53.152c-.2249034-.14056528-.4964349-.18603056-.7548601-.12639395-.2584253.0596366-.4825755.21948995-.6231399.44439395l-4.707 7.53h-30.445c-.55228475 0-1 .44771525-1 1s.44771525 1 1 1h19v18c0 .5522847.4477153 1 1 1s1-.4477153 1-1v-18h10c.3447904.0000008.6652611-.17761853.848-.47l5-8c.1405653-.22490344.1860306-.49643485.126394-.75486014-.0596367-.25842529-.21949-.48257548-.444394-.62313986z"/><path id="Shape" d="m59 8h-8c-.5522847 0-1 .44771525-1 1s.4477153 1 1 1h7v20.045l-16.923-.029c-.0253466-.0067721-.0510538-.0121138-.077-.016-.027 0-.049.013-.076.015l-8.924-.015c-.5522847 0-1 .4477153-1 1s.4477153 1 1 1l8 .014v8.986c0 .5522847.4477153 1 1 1s1-.4477153 1-1v-8.983l16 .028v19.955h-8c-.5522847 0-1 .4477153-1 1s.4477153 1 1 1h9c.5522847 0 1-.4477153 1-1v-44c0-.55228475-.4477153-1-1-1z"/><path id="Shape" d="m49.707 14.293c-.3904999-.3903819-1.0235001-.3903819-1.414 0l-4.293 4.293-4.293-4.293c-.3923789-.3789722-1.0160848-.3735524-1.4018186.0121814s-.3911536 1.0094397-.0121814 1.4018186l4.293 4.293-4.293 4.293c-.2599566.2510745-.3642126.6228779-.2726972.9725073.0915155.3496295.3645604.6226744.7141899.7141899.3496294.0915154.7214328-.0127406.9725073-.2726972l4.293-4.293 4.293 4.293c.3923789.3789722 1.0160848.3735524 1.4018186-.0121814s.3911536-1.0094397.0121814-1.4018186l-4.293-4.293 4.293-4.293c.3903819-.3904999.3903819-1.0235001 0-1.414z"/></g></g></svg>