<?xml version="1.0" encoding="utf-8"?>
<!-- Generator: Adobe Illustrator 23.0.3, SVG Export Plug-In . SVG Version: 6.00 Build 0)  -->
<svg version="1.1" id="Слой_1" xmlns="http://www.w3.org/2000/svg" xmlns:xlink="http://www.w3.org/1999/xlink" x="0px" y="0px"
	 viewBox="0 0 664 398" style="enable-background:new 0 0 664 398;" xml:space="preserve">
<style type="text/css">
	.st0{fill-rule:evenodd;clip-rule:evenodd;fill:#E1E8F6;}
	.st1{fill-rule:evenodd;clip-rule:evenodd;fill:#B4C5E6;}
	.st2{fill-rule:evenodd;clip-rule:evenodd;fill:#FFFFFF;}
	.st3{fill-rule:evenodd;clip-rule:evenodd;fill:#9FB2D9;}
	.st4{fill-rule:evenodd;clip-rule:evenodd;fill:#00000F;}
	.st5{fill-rule:evenodd;clip-rule:evenodd;fill:url(#SVGID_1_);}
	.st6{fill-rule:evenodd;clip-rule:evenodd;fill:#101537;}
	.st7{fill-rule:evenodd;clip-rule:evenodd;fill:#B32720;}
	.st8{fill-rule:evenodd;clip-rule:evenodd;fill:#D64C47;}
	.st9{fill-rule:evenodd;clip-rule:evenodd;fill:#3B405F;}
	.st10{fill-rule:evenodd;clip-rule:evenodd;fill:#674834;}
	.st11{fill-rule:evenodd;clip-rule:evenodd;fill:#B56B41;}
	.st12{fill-rule:evenodd;clip-rule:evenodd;fill:#D58750;}
	.st13{fill-rule:evenodd;clip-rule:evenodd;fill:#EA5756;}
	.st14{fill-rule:evenodd;clip-rule:evenodd;fill:#DB4141;}
	.st15{fill-rule:evenodd;clip-rule:evenodd;fill:#FFFAF9;}
	.st16{fill-rule:evenodd;clip-rule:evenodd;fill:#131936;}
	.st17{fill-rule:evenodd;clip-rule:evenodd;fill:#050A25;}
	.st18{fill-rule:evenodd;clip-rule:evenodd;fill:#F5AC83;}
	.st19{fill-rule:evenodd;clip-rule:evenodd;fill:#F2D8CD;}
	.st20{fill-rule:evenodd;clip-rule:evenodd;fill:#DCDCEE;}
	.st21{fill-rule:evenodd;clip-rule:evenodd;fill:#B5B6D3;}
	.st22{fill-rule:evenodd;clip-rule:evenodd;fill:#D0D0E6;}
	.st23{fill-rule:evenodd;clip-rule:evenodd;fill:#9295BC;}
	.st24{fill-rule:evenodd;clip-rule:evenodd;fill:#C0CDEA;}
	.st25{fill-rule:evenodd;clip-rule:evenodd;fill:#FDC930;}
	.st26{fill:#FFFFFF;}
	.st27{font-family: "Rajdhani-Bold", sans-serif;}
	.st28{font-size:23.9153px;}
	.st29{fill-rule:evenodd;clip-rule:evenodd;fill:#294D3C;}
	.st30{fill-rule:evenodd;clip-rule:evenodd;fill:#4A9075;}
	.st31{fill-rule:evenodd;clip-rule:evenodd;fill:#1B7154;}
	.st32{fill-rule:evenodd;clip-rule:evenodd;fill:#A6C86B;}
	.st33{fill-rule:evenodd;clip-rule:evenodd;fill:#5F9850;}
	.st34{fill-rule:evenodd;clip-rule:evenodd;fill:#151D3D;}
	.st35{fill-rule:evenodd;clip-rule:evenodd;fill:#33385C;}
	.st36{fill-rule:evenodd;clip-rule:evenodd;fill:#484E78;}
	.st37{fill-rule:evenodd;clip-rule:evenodd;fill:#CDCDE2;}
	.st38{fill-rule:evenodd;clip-rule:evenodd;fill:#EDEDF6;}
</style>
<g>
	<path class="st0" d="M514.2,278.2h55.3h1.4c30.5,0,55.5,25,55.5,55.5l0,0c0,30.5-25,55.5-55.5,55.5H408.8h-27.9H91.2
		c-49.4,0-89.9-40.5-89.9-89.9l0,0c0-49.4,40.5-89.9,89.9-89.9l0,0c20.9,0,38-17.1,38-38l0,0c0-20.9-17.1-38-38-38H45.4
		c-21.7,0-39.5-17.8-39.5-39.5l0,0c0-21.7,17.8-39.5,39.5-39.5h57.9c8.5,0,15.4-6.9,15.4-15.4l0,0c0-8.5-6.9-15.4-15.4-15.4H93.1
		c-5.8,0-10.6-4.8-10.6-10.6l0,0c0-5.8,4.8-10.6,10.6-10.6h38.2c0,0,14.6,0,28.7,0c14.1,0,15.7,16.6,51.3,16.6c55,0,27.5,0,82.5,0
		c7.6,0,13.9,6.2,13.9,13.9l0,0c0,7.6-6.2,13.9-13.9,13.9h-13.3c-11,0-20.1,9-20.1,20.1l0,0c0,11,9,20.1,20.1,20.1h40
		c54.1,0,61.7,14.1,71.2,42.2s58.7,30.4,58.7,30.4h67.3c16.6,0,30.3,13.6,30.3,30.3l0,0c0,16.6-13.6,30.3-30.3,30.3h-3.5
		c-16,0-29.1,13.1-29.1,29.1l0,0C485.1,265.1,498.2,278.2,514.2,278.2L514.2,278.2z M63.3,23.5c5.9,0,10.6-4.8,10.6-10.6
		c0-5.9-4.8-10.6-10.6-10.6c-5.9,0-10.6,4.8-10.6,10.6C52.6,18.8,57.4,23.5,63.3,23.5z"/>
	<g>
		<path class="st1" d="M462.9,389.8c5.8-8.3,17.8-22.2,40.8-36c36.4-21.8,64-50.8,51.9-67.9c-11.9-16.8-65.3,15.6-109.6,96.8
			C452.5,386.1,458.1,388.4,462.9,389.8z"/>
		<path class="st2" d="M455.8,382.4c1-0.1,3.7,0,7.2,1c0.2,0.1,0.5-0.1,0.6-0.3c0.1-0.2-0.1-0.5-0.3-0.6c-3.1-0.9-5.6-1-6.9-1
			c0.8-1.3,1.6-2.7,2.4-4c1.6,0,6.8-0.1,8.7,0c0.3,0,0.5-0.2,0.5-0.4c0-0.3-0.2-0.5-0.4-0.5c-1.8-0.1-6.2,0-8.2,0
			c1.5-2.4,3-4.8,4.4-7.1c1.6,0,6.4,0.2,11.7,0.9c0.3,0,0.5-0.1,0.5-0.4s-0.1-0.5-0.4-0.5c-4.8-0.7-9.3-0.8-11.3-0.9
			c1.5-2.3,3-4.5,4.5-6.7c2.1,0,9.1,0.2,16.7,1.3c0.3,0,0.5-0.1,0.5-0.4s-0.1-0.5-0.4-0.5c-7.1-1-13.6-1.2-16.2-1.3
			c2-2.8,3.9-5.6,5.9-8.2c2.2-0.1,11.5-0.3,18.4,1.9c0.2,0.1,0.5-0.1,0.6-0.3c0.1-0.2-0.1-0.5-0.3-0.6c-6.5-2.1-14.9-2.1-18-2
			c2.4-3.2,4.8-6.2,7.1-9.1c3,0.2,15.3,1.1,21,5.2c0.2,0.1,0.5,0.1,0.6-0.1s0.1-0.5-0.1-0.6c-5.6-3.9-16.9-5-20.8-5.3
			c2.5-3,5-5.9,7.4-8.6c2.2,0.5,11.5,2.8,20.3,7.2c0.2,0.1,0.5,0,0.6-0.2s0-0.5-0.2-0.6c-8.3-4.2-17-6.4-20-7.1
			c1.4-1.6,2.9-3.1,4.3-4.6c2.1,0.4,11.2,2.5,23.2,8.3c0.2,0.1,0.5,0,0.6-0.2s0-0.5-0.2-0.6c-11.2-5.4-19.9-7.6-22.8-8.3
			c3.4-3.4,6.7-6.6,9.8-9.4c2.7,0.9,16.3,5.5,23.5,10.1c0.2,0.1,0.5,0.1,0.6-0.1s0.1-0.5-0.1-0.6c-6.9-4.4-19.5-8.8-23.2-10
			c1.9-1.6,3.7-3.2,5.4-4.6c2.3,0.8,12.9,4.5,22.5,10.1c0.2,0.1,0.5,0.1,0.6-0.2c0.1-0.2,0.1-0.5-0.2-0.6c-9.1-5.3-19-8.9-22.1-10
			c4.1-3.3,8.1-6.2,11.7-8.5c2.3,0.5,12.6,3.1,20.3,7.6c0.2,0.1,0.5,0.1,0.6-0.2c0.1-0.2,0.1-0.5-0.2-0.6
			c-7.1-4.1-16.3-6.6-19.7-7.5c1.5-1,2.9-1.9,4.3-2.7c1.8,0.2,8.7,1.1,17.5,4.5c0.2,0.1,0.5,0,0.6-0.3c0.1-0.2,0-0.5-0.3-0.6
			c-7.5-2.9-13.7-4-16.5-4.4c11.1-6.4,18-8,18-8c0.4-0.1,0.6-0.5,0.5-0.8c-0.1-0.4-0.5-0.6-0.8-0.5c0,0-3.1,0.7-8.3,3.1
			c1.4-1.8,3.5-4.3,4-4.7c0.2-0.1,0.3-0.4,0.2-0.6s-0.4-0.3-0.6-0.2c-0.8,0.5-4.2,4.8-5.4,6.3c-2.1,1-4.6,2.2-7.2,3.8l4.6-9.1
			c0.1-0.2,0-0.5-0.2-0.6s-0.5,0-0.6,0.2l-5.2,10.3c-1.8,1.1-3.8,2.3-5.9,3.6l4.9-10.8c0.1-0.2,0-0.5-0.2-0.6s-0.5,0-0.6,0.2
			l-5.5,12.1c-3.1,2.1-6.3,4.4-9.8,7.2l4.3-11.2c0.1-0.2,0-0.5-0.3-0.6c-0.2-0.1-0.5,0-0.6,0.3l-4.8,12.6c-1.6,1.3-3.2,2.6-4.8,4
			l3.6-10.1c0.1-0.2,0-0.5-0.3-0.6c-0.2-0.1-0.5,0-0.6,0.3l-4.2,11.6c-3,2.7-6.2,5.7-9.4,8.9l2.7-9.8c0.1-0.2-0.1-0.5-0.3-0.6
			c-0.2-0.1-0.5,0.1-0.6,0.3l-3.2,11.4c-1.3,1.3-2.6,2.7-3.9,4.1l1.5-7.5c0-0.2-0.1-0.5-0.4-0.5c-0.3-0.1-0.5,0.1-0.5,0.4l-1.8,9
			c-2.4,2.6-4.8,5.4-7.3,8.4l1.4-8.4c0-0.3-0.1-0.5-0.4-0.5s-0.5,0.1-0.5,0.4l-1.7,9.9c-2.2,2.6-4.3,5.4-6.5,8.3l0.9-7.4
			c0-0.3-0.1-0.5-0.4-0.5s-0.5,0.1-0.5,0.4l-1.1,9c-1.9,2.6-3.8,5.2-5.8,8V353c0-0.3-0.2-0.5-0.5-0.5s-0.5,0.2-0.5,0.5l-0.1,8.1
			c-1.4,2-2.8,4.1-4.2,6.3l-0.7-5.7c0-0.3-0.3-0.4-0.5-0.4c-0.3,0-0.4,0.3-0.4,0.5l0.9,6.8c-1.3,2-2.6,4-3.9,6.1l-0.7-3.7
			c0-0.3-0.3-0.4-0.5-0.4c-0.3,0-0.4,0.3-0.4,0.5l0.9,4.7c-1,1.6-1.9,3.2-2.9,4.8l-1.5-3c-0.1-0.2-0.4-0.3-0.6-0.2
			c-0.2,0.1-0.3,0.4-0.2,0.6l1.8,3.6c-0.8,1.3-1.6,2.7-2.4,4.1c0.4,0.2,0.9,0.4,1.3,0.6C454.3,384.9,455,383.6,455.8,382.4z"/>
	</g>
	<g>
		<path class="st3" d="M456.3,394.5c6.2-3.9,17-9.1,33.4-11.4c27.8-4,52.7-15.4,50.8-30.6c-1.8-14.7-41.3-9-90.4,30.8L456.3,394.5
			L456.3,394.5z"/>
		<path class="st1" d="M533,354.7c0.5,0,1-0.4,0.9-1c0-0.5-0.4-1-1-0.9c0,0-3.1,0-8.4,0.7l4.5-3.1c0.3-0.2,0.4-0.6,0.2-0.9
			s-0.6-0.4-0.9-0.2l-6.8,4.6c-2.5,0.4-5.3,1-8.4,1.7l4.8-4.6c0.3-0.2,0.3-0.6,0-0.9c-0.2-0.3-0.6-0.3-0.9,0l-6.4,6.1
			c-3.2,0.8-6.7,1.9-10.4,3.2l4-4.1c0.2-0.3,0.2-0.7,0-0.9c-0.3-0.2-0.7-0.2-0.9,0l-5.8,6c-3.9,1.5-7.9,3.2-12.1,5.2l3.4-4.3
			c0.2-0.3,0.2-0.7-0.1-0.9c-0.3-0.2-0.7-0.2-0.9,0.1l-5,6.4c-3.9,2-8,4.3-12.1,7l1.4-3c0.1-0.3,0-0.7-0.3-0.8
			c-0.3-0.1-0.7,0-0.8,0.3l-2.3,4.8c-3.1,2.1-6.3,4.3-9.4,6.8l1.3-3c0.1-0.3,0-0.7-0.3-0.8c-0.3-0.1-0.7,0-0.8,0.3l-2.2,5.2
			c-1.5,1.3-3.1,2.6-4.6,3.9l0.9,1.7c1.5-1.4,3.1-2.7,4.6-3.9c1.6,0.1,5.3,0.4,6.9,1.3c0.3,0.2,0.7,0,0.9-0.3c0.2-0.3,0-0.7-0.3-0.9
			c-1.4-0.7-4.2-1.1-6.1-1.3c1.2-1,2.4-1.9,3.6-2.8c1.5,0.3,5.3,1,7.9,2.4c0.3,0.2,0.7,0.1,0.9-0.2c0.2-0.3,0.1-0.7-0.2-0.9
			c-2.2-1.2-5.2-2-7.1-2.4c2.5-1.8,5-3.5,7.5-5.1c2.1,0.9,8.8,3.7,11.5,5.9c0.3,0.2,0.7,0.2,0.9-0.1c0.2-0.3,0.2-0.7-0.1-0.9
			c-2.5-2-8.2-4.6-11-5.7c2.6-1.7,5.3-3.2,7.8-4.6c2.1,0.8,9,3.6,13.6,7.2c0.3,0.2,0.7,0.2,0.9-0.1c0.2-0.3,0.2-0.7-0.1-0.9
			c-4.1-3.2-10-5.8-12.9-7c1.3-0.7,2.5-1.3,3.8-1.9c2.2,0.7,9.6,3.3,16.5,8.3c0.3,0.2,0.7,0.1,0.9-0.1c0.2-0.3,0.1-0.7-0.1-0.9
			c-6-4.4-12.5-6.9-15.6-8c4.5-2.1,8.9-3.9,13-5.3c2.4,1.5,11.8,7.4,16,11.3c0.3,0.2,0.7,0.2,0.9,0c0.2-0.3,0.2-0.7,0-0.9
			c-3.8-3.6-12-8.9-15.3-11c3.1-1,6-1.9,8.7-2.6c2.2,1.7,10.3,7.8,12.1,9.5c0.3,0.2,0.7,0.2,0.9-0.1c0.2-0.3,0.2-0.7-0.1-0.9
			c-1.7-1.5-8.5-6.7-11.4-8.9c3.5-0.9,6.7-1.5,9.5-1.9c2,1.7,6.7,5.8,7.8,6.9c0.2,0.2,0.7,0.2,0.9,0s0.2-0.7,0-0.9
			c-1-1-4.8-4.3-7-6.3C529.6,354.7,533,354.7,533,354.7z"/>
	</g>
	<path class="st3" d="M365,309.6c-0.4-5.5-0.6-10.9-0.6-16.2c0-5.3,0.3-10.4,0.7-15.4c1.6-18.4,6.1-34.3,12.8-47.9
		c7.2-14.7,17-26.7,28.6-36.2c10.7-8.8,22.9-15.6,36-20.4c14-5.2,29.1-8.2,44.3-9.3c5.1-0.4,10.3-0.5,15.5-0.5
		c5.3,0,10.5,0.3,15.7,0.8l0,0c0.6,0.1,1.1,0.3,1.5,0.8c0.4,0.4,0.5,1,0.5,1.6v0.1c-0.2,2-4.9,45.6-26.1,85
		c-21.5,39.8-59.8,75.4-127.3,59.7c-0.5-0.1-0.9-0.4-1.2-0.7C365.2,310.5,365,310.1,365,309.6L365,309.6L365,309.6z M517.7,167.9
		c-2.5,1-12.9,5.2-27.5,13.4c5.7,1,18.6,3.4,24.3,5.3C516.5,177.3,517.4,170.6,517.7,167.9L517.7,167.9z M514.2,188.6L514.2,188.6
		c-6.7-2.2-24.1-5.2-26.7-5.7c-7.2,4.2-15.4,9.3-24.1,15.5l45.2,11.9C511,202.4,512.8,195,514.2,188.6L514.2,188.6z M508,212.3
		L461.2,200c-8.1,5.8-16.5,12.5-25.1,20.2c9.3,2.8,53.6,16.4,61.1,20.2C501.7,230.8,505.2,221.2,508,212.3L508,212.3z M496.4,242.2
		c-7.6-3.9-56.5-18.8-62-20.5c-6.8,6.2-13.7,13-20.5,20.5l69.7,22.2c0.1,0,0.2,0.1,0.2,0.1c3-4.5,5.7-9,8.2-13.7
		C493.5,248,495,245.1,496.4,242.2L496.4,242.2z M482.5,266.3l-70.2-22.4c-5.3,5.9-10.4,12.1-15.5,18.8c11.3,3.8,69.5,21.9,69.7,22
		s0.3,0.1,0.4,0.2C472.8,279.2,477.9,272.9,482.5,266.3L482.5,266.3z M465.3,286.5c-6.2-1.9-60.6-18.9-69.8-22
		c-4.3,5.8-8.5,11.9-12.5,18.3c13.7,6.8,59.9,18.8,60,18.8c0.3,0.1,0.5,0.2,0.6,0.5C451.8,297.8,458.9,292.5,465.3,286.5
		L465.3,286.5z M441.4,303.3c-7.4-1.9-46.9-12.5-59.4-18.7c-2.6,4.2-5,8.5-7.4,12.9c5.3,2.1,28.9,11.1,44.2,12.7
		c0.4,0,0.8,0.3,0.9,0.7C427.5,309.2,434.7,306.6,441.4,303.3L441.4,303.3z M415.1,311.7c-15.6-2.4-37-10.7-41.5-12.5
		c-1.8,3.4-3.6,6.9-5.3,10.4C385.8,313.6,401.4,314,415.1,311.7L415.1,311.7z M367.1,307.5c1.6-3.3,3.2-6.5,4.9-9.6
		c-2.1-5.8-3.7-16-4.4-21.7c-0.1,0.7-0.1,1.4-0.2,2.1c-0.4,4.9-0.7,9.9-0.7,15.2C366.6,298,366.8,302.6,367.1,307.5L367.1,307.5z
		 M368.2,270.9c0.5,0.1,0.8,0.4,0.9,0.9c0,0,1.6,14.9,4.3,23.6c2.3-4.2,4.7-8.4,7.2-12.3c-0.8-2.8-5.3-18.7-6.8-36.5
		C371.2,254,369.4,262.2,368.2,270.9L368.2,270.9z M374.9,243.1c0.4,0.1,0.7,0.5,0.7,0.9c1.1,16.2,4.9,31.2,6.4,36.7
		c3.9-6.2,7.9-12,12.1-17.6c-1.2-3.6-8.2-24.9-9.2-40.8c-1.8,2.9-3.4,5.8-4.9,8.9C378,235,376.4,238.9,374.9,243.1L374.9,243.1z
		 M386.3,219.9c0.3,0.2,0.5,0.5,0.5,0.8c0.5,14.4,6.7,34.2,8.7,40.4c5-6.6,10.1-12.7,15.2-18.5c-9.3-19.6-10.6-35.6-10.9-39.6
		C394.9,208,390.4,213.6,386.3,219.9L386.3,219.9z M401.7,201.3c0.2,0.2,0.3,0.4,0.3,0.7c0,0,0.2,17,10.3,38.9
		c6.8-7.5,13.7-14.3,20.5-20.5c-4.2-9.4-8.2-32.6-8.7-35.8c-5.7,3.3-11.1,7-16.2,11.2C405.8,197.5,403.7,199.3,401.7,201.3
		L401.7,201.3z M426,183.5c0.1,0.1,0.1,0.2,0.1,0.3s4.1,24.9,8.3,35.1c8.7-7.8,17.2-14.6,25.4-20.5c-3-12-2.9-25-2.9-27.1
		c-4.6,1.2-9.2,2.6-13.7,4.3C437.3,177.9,431.5,180.5,426,183.5L426,183.5z M459,170.8c0,0.1,0,0.2,0,0.3c0,0-0.4,13.5,2.6,26
		c8.8-6.3,17.1-11.5,24.5-15.8c-0.9-6.7-0.4-13.6-0.3-14.8C476.8,167.3,467.7,168.7,459,170.8L459,170.8z M487.9,166.4
		c0,0.1,0,0.1,0,0.2c0,0-0.7,6.9,0.2,13.7c13.4-7.7,23.5-12,27.5-13.7c-4.4-0.3-8.8-0.5-13.3-0.6C497.6,165.9,492.8,166,487.9,166.4
		z"/>
	<path class="st4" d="M614.5,397.7H47.9c-2.2,0-3.9-1.8-3.9-3.9l0,0c0-2.1,1.8-3.9,3.9-3.9h566.6c2.2,0,3.9,1.8,3.9,3.9l0,0
		C618.4,395.9,616.7,397.7,614.5,397.7z"/>
	<path class="st4" d="M34.5,397.7h-8c-2.1,0-3.9-1.8-3.9-3.9l0,0c0-2.1,1.8-3.9,3.9-3.9h8c2.1,0,3.9,1.8,3.9,3.9l0,0
		C38.4,395.9,36.6,397.7,34.5,397.7z"/>
	<path class="st4" d="M658.8,397.7h-23.6c-2.2,0-3.9-1.8-3.9-3.9l0,0c0-2.1,1.8-3.9,3.9-3.9h23.6c2.2,0,3.9,1.8,3.9,3.9l0,0
		C662.7,395.9,661,397.7,658.8,397.7z"/>
	<g>
		
			<linearGradient id="SVGID_1_" gradientUnits="userSpaceOnUse" x1="174.8827" y1="263.2873" x2="153.7672" y2="274.7544" gradientTransform="matrix(1 0 0 -1 0 397)">
			<stop  offset="0" style="stop-color:#E1E8F6"/>
			<stop  offset="1" style="stop-color:#FFFFFF"/>
		</linearGradient>
		<polygon class="st5" points="143.2,129.5 158.6,170.4 193.3,146.7 203,109.3 198.3,100.9 159.2,104.6 146.8,114.5 		"/>
		<path class="st2" d="M151.1,122.5c2.8,0,5.2-2.3,5.2-5.2c0-2.8-2.3-5.2-5.2-5.2c-2.8,0-5.2,2.3-5.2,5.2
			C145.9,120.2,148.3,122.5,151.1,122.5z"/>
		<g>
			<path class="st6" d="M102.6,137l29.6-33.7c0.2-0.2,0.5-0.2,0.8-0.1l1.8,1.5c0.2,0.2,0.2,0.5,0.1,0.8l-29.6,33.7
				c-0.2,0.2-0.5,0.2-0.8,0.1l-1.8-1.5C102.4,137.6,102.4,137.3,102.6,137L102.6,137z M132.7,104.4l-28.9,32.9l1,0.8l28.9-32.9
				L132.7,104.4z"/>
			<path class="st4" d="M132.3,102.4c1.6-0.2,3.1,0.9,3.3,2.6c0.2,1.6-0.9,3.1-2.6,3.3c-1.6,0.2-3.1-0.9-3.3-2.6
				C129.5,104.1,130.7,102.6,132.3,102.4z"/>
			<path class="st6" d="M102.6,137.2l20.8,39.7c0.1,0.3,0.5,0.4,0.7,0.2l2.1-1.1c0.3-0.1,0.4-0.5,0.2-0.7l-20.8-39.7
				c-0.1-0.3-0.5-0.4-0.7-0.2l-2.1,1.1C102.6,136.6,102.5,136.9,102.6,137.2L102.6,137.2z M124.1,176l-20.3-38.8l1.1-0.6l20.3,38.8
				L124.1,176z"/>
			<path class="st4" d="M123.3,177.9c1.5,0.6,3.3-0.2,3.8-1.7c0.6-1.5-0.2-3.3-1.7-3.8c-1.5-0.6-3.3,0.2-3.8,1.7
				C121,175.6,121.8,177.3,123.3,177.9z"/>
			<path class="st4" d="M104.3,134.3c1.6-0.2,3.1,0.9,3.3,2.6c0.2,1.6-0.9,3.1-2.6,3.3c-1.6,0.2-3.1-0.9-3.3-2.6
				C101.5,136,102.7,134.5,104.3,134.3z"/>
		</g>
		<path class="st7" d="M122.6,186.2h38.3c3,0,5.5-2.5,5.5-5.5l0,0c0-3-2.5-5.5-5.5-5.5h-38.3c-3,0-5.5,2.5-5.5,5.5l0,0
			C117,183.7,119.5,186.2,122.6,186.2z"/>
		<path class="st8" d="M97.1,186.2h38.3c3.1,0,5.5-2.5,5.5-5.5l0,0c0-3-2.5-5.5-5.5-5.5H97.1c-3,0-5.5,2.5-5.5,5.5l0,0
			C91.6,183.7,94.1,186.2,97.1,186.2z"/>
		<g>
			<path class="st8" d="M159,105.1l-15.8,24.4c-0.2,0.3-0.4,0.4-0.7,0.4s-0.5-0.2-0.6-0.5l-9.2-23.3c-0.1-0.2-0.1-0.5,0.1-0.7
				c0.1-0.2,0.4-0.3,0.6-0.4l25-1.1c0.3,0,0.6,0.1,0.7,0.4S159.2,104.9,159,105.1z"/>
			<polygon class="st2" points="141.4,128.3 140.1,124.9 153.5,104.1 157.2,104 			"/>
			<path class="st8" d="M135.2,102.4l6.5,4.2c1.8,1.2,2.3,3.6,1.1,5.4l0,0c-1.2,1.8-3.6,2.3-5.4,1.1l-6.5-4.2
				c-1.8-1.2-2.3-3.6-1.1-5.4l0,0C131,101.7,133.4,101.2,135.2,102.4z"/>
			<path class="st4" d="M132.2,105c0.6,0.4,0.7,1.1,0.4,1.7c-0.4,0.6-1.1,0.7-1.7,0.4c-0.6-0.4-0.7-1.1-0.4-1.7
				S131.6,104.6,132.2,105z"/>
		</g>
		<path class="st2" d="M170.6,130.9c0-0.6-0.5-1.1-1.1-1.1s-1.1,0.5-1.1,1.1v2.5h-2.5c-0.6,0-1.1,0.5-1.1,1.1s0.5,1.1,1.1,1.1h2.5
			v2.5c0,0.6,0.5,1.1,1.1,1.1s1.1-0.5,1.1-1.1v-2.5h2.5c0.6,0,1.1-0.5,1.1-1.1s-0.5-1.1-1.1-1.1h-2.5V130.9z"/>
		<path class="st2" d="M155.5,126.3c0-0.6-0.5-1.1-1.1-1.1s-1.1,0.5-1.1,1.1v2.5h-2.5c-0.6,0-1.1,0.5-1.1,1.1s0.5,1.1,1.1,1.1h2.5
			v2.5c0,0.6,0.5,1.1,1.1,1.1s1.1-0.5,1.1-1.1V131h2.5c0.6,0,1.1-0.5,1.1-1.1s-0.5-1.1-1.1-1.1h-2.5V126.3z"/>
		<path class="st2" d="M191.5,109.3c0-0.6-0.5-1.1-1.1-1.1s-1.1,0.5-1.1,1.1v2.5h-2.5c-0.6,0-1.1,0.5-1.1,1.1s0.5,1.1,1.1,1.1h2.5
			v2.5c0,0.6,0.5,1.1,1.1,1.1s1.1-0.5,1.1-1.1V114h2.5c0.6,0,1.1-0.5,1.1-1.1s-0.5-1.1-1.1-1.1h-2.5V109.3z"/>
		<path class="st2" d="M171.1,113.9c0-0.3-0.2-0.5-0.5-0.5s-0.5,0.2-0.5,0.5v1.1H169c-0.3,0-0.5,0.2-0.5,0.5s0.2,0.5,0.5,0.5h1.1
			v1.1c0,0.3,0.2,0.5,0.5,0.5s0.5-0.2,0.5-0.5V116h1.1c0.3,0,0.5-0.2,0.5-0.5s-0.2-0.5-0.5-0.5h-1.1V113.9z"/>
		<path class="st2" d="M160.1,139.1c0-0.3-0.2-0.5-0.5-0.5s-0.5,0.2-0.5,0.5v1.1H158c-0.3,0-0.5,0.2-0.5,0.5s0.2,0.5,0.5,0.5h1.1
			v1.1c0,0.3,0.2,0.5,0.5,0.5s0.5-0.2,0.5-0.5v-1.1h1.1c0.3,0,0.5-0.2,0.5-0.5s-0.2-0.5-0.5-0.5h-1.1V139.1z"/>
		<path class="st2" d="M182.7,126.9c0-0.3-0.2-0.5-0.5-0.5s-0.5,0.2-0.5,0.5v1.1h-1.1c-0.3,0-0.5,0.2-0.5,0.5s0.2,0.5,0.5,0.5h1.1
			v1.1c0,0.3,0.2,0.5,0.5,0.5s0.5-0.2,0.5-0.5V129h1.1c0.3,0,0.5-0.2,0.5-0.5s-0.2-0.5-0.5-0.5h-1.1V126.9z"/>
		<path class="st2" d="M159.4,116.6c0-0.3-0.2-0.5-0.5-0.5s-0.5,0.2-0.5,0.5v1.1h-1.1c-0.3,0-0.5,0.2-0.5,0.5s0.2,0.5,0.5,0.5h1.1
			v1.1c0,0.3,0.2,0.5,0.5,0.5s0.5-0.2,0.5-0.5v-1.1h1.1c0.3,0,0.5-0.2,0.5-0.5s-0.2-0.5-0.5-0.5h-1.1V116.6z"/>
		<path class="st2" d="M180.6,105.3c0-0.3-0.2-0.5-0.5-0.5s-0.5,0.2-0.5,0.5v1.1h-1.1c-0.3,0-0.5,0.2-0.5,0.5s0.2,0.5,0.5,0.5h1.1
			v1.1c0,0.3,0.2,0.5,0.5,0.5s0.5-0.2,0.5-0.5v-1.1h1.1c0.3,0,0.5-0.2,0.5-0.5s-0.2-0.5-0.5-0.5h-1.1V105.3z"/>
		<path class="st2" d="M200.1,129.8c0-0.3-0.2-0.5-0.5-0.5s-0.5,0.2-0.5,0.5v1.1H198c-0.3,0-0.5,0.2-0.5,0.5s0.2,0.5,0.5,0.5h1.1
			v1.1c0,0.3,0.2,0.5,0.5,0.5s0.5-0.2,0.5-0.5v-1.1h1.1c0.3,0,0.5-0.2,0.5-0.5s-0.2-0.5-0.5-0.5h-1.1V129.8z"/>
		<path class="st2" d="M173.7,157.3c0-0.3-0.2-0.5-0.5-0.5s-0.5,0.2-0.5,0.5v1.1h-1.1c-0.3,0-0.5,0.2-0.5,0.5s0.2,0.5,0.5,0.5h1.1
			v1.1c0,0.3,0.2,0.5,0.5,0.5s0.5-0.2,0.5-0.5v-1.1h1.1c0.3,0,0.5-0.2,0.5-0.5s-0.2-0.5-0.5-0.5h-1.1V157.3z"/>
		<path class="st2" d="M193.3,145.6c0-0.3-0.2-0.5-0.5-0.5s-0.5,0.2-0.5,0.5v1.1h-1.1c-0.3,0-0.5,0.2-0.5,0.5s0.2,0.5,0.5,0.5h1.1
			v1.1c0,0.3,0.2,0.5,0.5,0.5s0.5-0.2,0.5-0.5v-1.1h1.1c0.3,0,0.5-0.2,0.5-0.5s-0.2-0.5-0.5-0.5h-1.1V145.6z"/>
	</g>
	<g>
		<path class="st9" d="M447.3,198.2c-0.2-3.2-2.9-5.5-6.1-5.3s-5.5,2.9-5.3,6.1c0.8,12.1,2.1,25.5,4.1,40.5H336.2
			c2.1-14.8,3.7-28.2,5-40.3c0.3-3.1-1.9-6-5.1-6.3c-3.1-0.3-6,1.9-6.3,5.1c-2.6,23.8-6.5,52.8-12.3,88c-4.9,30-11.3,64.4-19.3,104
			h11.6c7.9-38.8,14.1-72.7,18.9-102.1c2.2-13.1,4.1-25.4,5.7-36.9h107c1.7,11.5,3.7,23.8,6.1,37c5.4,29.5,12.8,63.3,22.9,102h11.8
			c-10.3-39.6-17.9-74.1-23.4-104.1c-2.7-14.8-4.9-28.4-6.7-41c0-0.3-0.1-0.6-0.1-0.8C449.8,226.9,448.3,211.7,447.3,198.2z"/>
		<g>
			<path class="st4" d="M210.9,254c0-1.7-1.4-3-3-3c-1.7,0-3,1.4-3,3v92.7v43.2h6.1v-40.2h46.4v40.2h6.1v-43.2V254c0-1.7-1.4-3-3-3
				c-1.7,0-3,1.4-3,3v78.6h-46.4V254H210.9z M257.3,343.6h-46.4v-7.3h46.4V343.6z"/>
			<path class="st10" d="M158.5,254c0-1.7-1.4-3-3-3c-1.7,0-3,1.4-3,3v92.7v43.2h6.1v-40.2H205v40.2h6.1v-43.2V254c0-1.7-1.4-3-3-3
				c-1.7,0-3,1.4-3,3v78.6h-46.4V254H158.5z M204.9,343.6h-46.4v-7.3h46.4V343.6z"/>
			<path class="st4" d="M269,254H150.6c-2.1,0-3.8,1.7-3.8,3.8l0,0c0,2.1,1.7,3.8,3.8,3.8H269c2.1,0,3.8-1.7,3.8-3.8l0,0
				C272.8,255.7,271.1,254,269,254z"/>
			<path class="st11" d="M273.4,250.2H145.5c-2.1,0-3.8,1.7-3.8,3.8l0,0c0,2.1,1.7,3.8,3.8,3.8h127.8c2.1,0,3.8-1.7,3.8-3.8l0,0
				C277.2,251.9,275.4,250.2,273.4,250.2z"/>
			<path class="st12" d="M195.9,250.2h-50.4c-2.1,0-3.8,1.7-3.8,3.8l0,0c0,2.1,1.7,3.8,3.8,3.8h50.4c2.1,0,3.8-1.7,3.8-3.8l0,0
				C199.7,251.9,198,250.2,195.9,250.2z"/>
		</g>
		<path class="st8" d="M269.9,151.4c11,2.7,33.1,7.1,40.2,16.2c4.6,5.9,5.2,13-2.4,13s-38.7,0-38.7,0L269.9,151.4z"/>
		<path class="st8" d="M191.9,200L177,213c0,0-8.6-23.6-0.1-44.3s40.6-22.2,53.9-23.5c13.3-1.3,30.2,35.5,30.2,35.5L191.9,200z"/>
		<path class="st4" d="M246.4,216.6c0,0,28.2,6.4,31.8,7.2c3.6,0.8,13.2,10.4,14.9,19.7c1.7,9.2,17.3,126.5,17.3,126.5s-4,7-4.6,7.1
			c-0.5,0.1-8.2-3.5-8.2-3.5s-27.2-99.4-30.3-108.2c-3.1-8.8-2.3-15.3-11.9-15.3s-28.9,0-28.9,0l-7.5-25.4l3-2.9
			c-3.3,0.2-5.8,0.2-6.3-0.1c-1.4-0.8-22.8-8.7-22.8-8.7s15.4-4.6,16.7-5.1c1.4-0.5,23.5-2.4,23.5-2.4s0.1,6.1,1.2,7.4
			c1.1,1.3,3.4,1.8,3.4,1.8l0,0L246.4,216.6z"/>
		<path class="st8" d="M178.8,186.9c-0.2,8-0.5,16.4-1.8,20.7c0.5,2.8,0,5.4,0,5.4l-0.2,0.6c0.2,0.6,0.3,1,0.3,1
			c3.5,2.7,7.3,2.8,11.6,4.4v-0.6l-0.2-0.8l12.6,6.1c4.3-0.4,31.4-2.2,38.1-8.7c-0.6-6.4,26.5-24.3,33.9-26L178.8,186.9z"/>
		<path class="st13" d="M307.1,372c0,0,1.2-2.7,4.1-1.9c2.9,0.8,20.3,10.4,23,11.5c2.7,1.2,5.6,5.7,3.4,8.3h-41.3
			c-2.4-1.5-4.8-6.5-2.3-15.3C296.7,365.8,296,375,307.1,372z"/>
		<path class="st14" d="M307.1,372c0,0,1.2-2.7,4.1-1.9c1.8,0.5,9.2,4.4,15.2,7.6c-1.8,1.3-5.5,2.5-6.3,2.3
			C319.1,379.7,307.1,372,307.1,372z"/>
		<path class="st15" d="M293.7,389.9h44.6c0.7,0,1.2-0.5,1.2-1.2v-2.2c0-0.7-0.5-1.2-1.2-1.2h-44.6c-0.7,0-1.2,0.5-1.2,1.2v2.2
			C292.5,389.3,293.1,389.9,293.7,389.9z"/>
		<path class="st16" d="M185.6,250.1c-16.2,0-16.9-28.3-8.5-37.1c0,0,4.2,3.3,10.9,3.3c11-0.1,36.8-6.3,44.7,4.2s10.8,28.2,6.2,53.9
			C234.3,300.1,223,374,223,374l-13-1.1c0,0,1.9-104.2,2.1-109.7c0.2-5.5-2.7-12.9-8.7-12.9C197.5,250.2,185.6,250.1,185.6,250.1z"
			/>
		<path class="st13" d="M220.4,372.8c0,0-4.9-6.1-10.9-1.3c0,0-3.3,1.3-4.5,4.4s-3.6,4.5-4,7.9s0.5,6,4.9,6c4.3,0,3.9,0,7,0
			s7.7,0.5,9.2-3.6c1.6-4.1,0-7.9,0.5-10C223.1,374.1,220.4,372.8,220.4,372.8z"/>
		<path class="st14" d="M220.4,372.8c0,0-4.9-6.1-10.9-1.3c0,0-0.6,0.3-1.4,0.8c-0.4,2.7-0.6,5.5-0.4,6.3c0.5,1.5,8.3,1.1,9.4,0.6
			c0.8-0.4,2.7-4.4,3.6-6.3C220.4,372.8,220.4,372.8,220.4,372.8z"/>
		<path class="st15" d="M201.4,389.9h20.4c0.7,0,1.2-0.5,1.2-1.2v-2.2c0-0.7-0.5-1.2-1.2-1.2h-20.4c-0.7,0-1.2,0.5-1.2,1.2v2.2
			C200.2,389.3,200.7,389.9,201.4,389.9z"/>
		<path class="st9" d="M255.4,218.7c-0.4,0.5-0.8,1-1.3,1.5c-1.8,2-3.5,4.6-4.6,7.8c-0.1,0.2,0,0.4,0.3,0.5c0.2,0.1,0.4,0,0.5-0.3
			c0.1-0.4,0.3-0.8,0.4-1.2c0,0,0.1,0.1,0.2,0.1c0.2,0.1,0.4,0,0.5-0.3c0.8-2.4,2-4.5,3.4-6.2c0.6-0.6,1.2-1.2,1.7-1.7L255.4,218.7
			L255.4,218.7z M257.7,219.2l1.4,0.3c-0.7,0.6-1.4,1.4-2,2.2c-1.3,1.7-2.5,3.8-3.3,6.2c-0.1,0.2-0.2,0.3-0.4,0.3
			c0,0.1-0.1,0.3-0.1,0.4c-0.1,0.2-0.3,0.3-0.5,0.3c-0.1,0-0.2-0.1-0.2-0.2v0.1c-0.1,0.2-0.3,0.3-0.5,0.3c-0.2-0.1-0.3-0.3-0.3-0.5
			C253.1,224.4,255.6,221.3,257.7,219.2L257.7,219.2z M259.4,219.6l1.4,0.3c-1.9,1.6-4.3,4.2-5.9,7.6c-0.2,0.4-0.3,0.8-0.5,1.3
			c0,0.1-0.1,0.2-0.2,0.2c-0.1,0.2-0.2,0.5-0.3,0.8c-0.1,0.2-0.3,0.3-0.5,0.3c-0.2-0.1-0.3-0.3-0.3-0.5c0.3-0.8,0.6-1.6,0.9-2.3
			C255.6,224,257.6,221.4,259.4,219.6L259.4,219.6z M261.2,220l1.1,0.2c-1,0.9-2.2,2.1-3.3,3.5c-1.2,1.6-2.3,3.5-3,5.8
			c0,0.1-0.1,0.2-0.3,0.3c0,0.1,0,0.1-0.1,0.2c-0.1,0.2-0.3,0.3-0.5,0.3c-0.2-0.1-0.3-0.3-0.3-0.5c0.8-2.5,2.1-4.7,3.5-6.4
			C259.3,222,260.3,220.9,261.2,220L261.2,220z M263.9,220.6c-2.4,2-5.6,5.5-7.2,10.4c-0.1,0.2,0,0.4,0.3,0.5c0.2,0.1,0.4,0,0.5-0.3
			c1.6-4.8,4.7-8.1,7-10c-0.9,0.9-2,1.9-2.9,3.2c-1.4,1.8-2.8,4-3.6,6.7c-0.1,0.2,0,0.4,0.3,0.5c0,0,0,0,0.1,0l0,0l0,0l0,0l0,0
			c0,0.1-0.1,0.2-0.1,0.3l0,0l0,0c-0.1,0.2,0,0.4,0.3,0.5c0.2,0.1,0.4,0,0.5-0.2c0-0.1,0.1-0.2,0.1-0.4l0,0l0,0
			c0-0.1,0.1-0.2,0.1-0.3l0,0c0.1-0.2,0.2-0.5,0.3-0.7l0,0c0-0.1,0.1-0.2,0.1-0.3l0,0l0,0c0-0.1,0.1-0.2,0.1-0.3l0,0l0,0
			c0.1-0.1,0.1-0.2,0.2-0.3l0,0c0.1-0.1,0.1-0.2,0.2-0.3l0,0c0-0.1,0.1-0.2,0.1-0.3v-0.1c0-0.1,0.1-0.2,0.1-0.2v-0.1
			c0-0.1,0.1-0.2,0.1-0.2v-0.1c0-0.1,0.1-0.1,0.1-0.2l0.1-0.1c0-0.1,0.1-0.1,0.1-0.2l0.1-0.1l0.1-0.2l0.1-0.1l0.1-0.2l0.1-0.1
			l0.1-0.2l0.1-0.1l0.1-0.1l0,0c-0.9,1.4-1.6,2.9-2.2,4.6c-0.1,0.2,0,0.4,0.3,0.5l0,0c-0.1,0.2-0.2,0.5-0.2,0.7
			c-0.1,0.2,0,0.4,0.2,0.5s0.4,0,0.5-0.3c0-0.1,0-0.1,0.1-0.2c0.1,0,0.2-0.1,0.3-0.3c0.1-0.3,0.2-0.6,0.3-0.9c0,0.2,0.1,0.4,0.3,0.5
			c0.2,0.1,0.4,0,0.5-0.3c1.5-4.5,4.4-7.7,6.7-9.7l0.2-0.1l-1.2-0.3c-0.1,0.1-0.3,0.2-0.4,0.4c0.1-0.1,0.3-0.2,0.4-0.4L263.9,220.6
			L263.9,220.6z M268.5,221.7c-2.3,2-5.3,5.4-6.9,10.1c-0.1,0.2,0,0.4,0.3,0.5c0.2,0.1,0.4,0,0.5-0.3c0-0.1,0.1-0.2,0.1-0.3
			c0,0.1,0.1,0.2,0.2,0.2c0.2,0.1,0.4,0,0.5-0.3c1.5-4.5,4.4-7.7,6.6-9.7L268.5,221.7L268.5,221.7z M270.2,222l3.3,0.8
			c-2.3,1.8-5.9,5.3-7.6,10.5c-0.1,0.2-0.3,0.3-0.5,0.3c-0.1,0-0.2-0.1-0.2-0.2c-0.1,0.1-0.3,0.1-0.4,0.1c-0.2-0.1-0.3-0.3-0.3-0.5
			c1.2-3.6,3.2-6.4,5.2-8.4c-2,2-4.2,4.8-5.4,8.6c-0.1,0.2-0.3,0.3-0.5,0.3c-0.2-0.1-0.3-0.3-0.3-0.5v-0.1c-0.1,0.1-0.2,0.1-0.3,0
			c-0.2-0.1-0.3-0.3-0.2-0.5C264.7,227.5,267.8,224.1,270.2,222L270.2,222z M273.8,222.8l1,0.2c-2.3,1.7-6.2,5.3-8,10.8
			c-0.1,0.2-0.3,0.3-0.5,0.3c-0.2-0.1-0.3-0.3-0.3-0.5C267.8,228.4,271.4,224.8,273.8,222.8z"/>
		<path class="st9" d="M234.3,302c-1-0.3-2.2-0.5-3.5-0.6c-2.6-0.4-5.9-0.5-9.5,0.5c-0.2,0.1-0.4,0.3-0.4,0.5s0.2,0.4,0.4,0.3
			c0.5-0.1,0.9-0.2,1.3-0.3c0,0.1-0.1,0.1,0,0.2c0,0.2,0.2,0.4,0.4,0.3c2.8-0.7,5.3-0.9,7.5-0.7c1.4,0.2,2.6,0.6,3.6,0.9L234.3,302
			L234.3,302z M233.9,304.4l-0.2,1.4c-1-0.3-2.2-0.6-3.5-0.7c-2.2-0.2-4.7,0-7.5,0.7c-0.2,0.1-0.4,0-0.4-0.2c-0.1,0-0.3,0.1-0.4,0.1
			c-0.2,0.1-0.4-0.1-0.4-0.3c0-0.1,0-0.2,0.1-0.3h-0.1c-0.2,0.1-0.4-0.1-0.4-0.3c0-0.2,0.2-0.5,0.4-0.5
			C226.6,302.9,231,303.5,233.9,304.4L233.9,304.4z M233.6,306.1c-2.6-0.7-6-1.1-10-0.3c-0.8,0.1-1.7,0.3-2.6,0.6
			c-0.2,0.1-0.4,0.3-0.4,0.5s0.2,0.4,0.4,0.3c0.3-0.1,0.6-0.1,0.9-0.2c0.1,0,0.2,0,0.3,0c0.5-0.1,1-0.2,1.4-0.3
			c4.1-0.6,7.5,0.1,9.8,0.8L233.6,306.1L233.6,306.1z M233.3,307.9l-0.2,1c-1.2-0.4-2.7-0.7-4.3-0.8c-2-0.1-4.4,0.1-6.9,0.7
			c-0.1,0-0.3,0-0.4-0.1c-0.1,0-0.1,0-0.2,0.1c-0.2,0.1-0.4-0.1-0.4-0.3c0-0.2,0.2-0.5,0.4-0.5c2.9-0.8,5.5-0.9,7.7-0.7
			C230.7,307.4,232.1,307.6,233.3,307.9L233.3,307.9z M232.9,310.5l-0.1,0.9c-2.8-0.9-7-1.6-12.1-0.2c-0.2,0.1-0.4-0.1-0.4-0.3
			c0-0.2,0.2-0.5,0.4-0.5C225.7,309.1,230,309.7,232.9,310.5L232.9,310.5z M232.7,311.5c-1.1-0.3-2.3-0.5-3.7-0.6
			c-2.3-0.2-5-0.1-8,0.7c-0.2,0.1-0.4,0.3-0.4,0.5v0.1l0,0l0,0l0,0l0,0c-0.1,0-0.2,0.1-0.3,0.1l0,0l0,0c-0.2,0.1-0.4,0.3-0.4,0.5
			s0.2,0.4,0.4,0.3c0.1,0,0.3-0.1,0.4-0.1l0,0l0,0c0.1,0,0.3-0.1,0.4-0.1l0,0c0.3-0.1,0.5-0.1,0.8-0.2l0,0c0.1,0,0.3,0,0.4-0.1l0,0
			l0,0c0.1,0,0.3,0,0.4-0.1l0,0l0,0c0.1,0,0.3,0,0.4-0.1l0,0c0.1,0,0.2,0,0.4,0l0,0c0.1,0,0.2,0,0.3,0h0.1c0.1,0,0.2,0,0.3,0h0.1
			c0.1,0,0.2,0,0.3,0h0.1c0.1,0,0.2,0,0.3,0h0.1c0.1,0,0.2,0,0.3,0h0.1h0.2h0.1h0.2h0.1h0.2h0.2h0.2l0,0c-1.7,0-3.5,0.3-5.4,0.8
			c-0.2,0.1-0.4,0.3-0.4,0.5l0,0c-0.3,0.1-0.5,0.1-0.8,0.2c-0.2,0.1-0.4,0.3-0.4,0.5s0.2,0.4,0.4,0.3c0.1,0,0.1,0,0.2-0.1
			c0.1,0.1,0.2,0.1,0.4,0.1c0.4-0.1,0.7-0.2,1.1-0.3c-0.2,0.1-0.4,0.3-0.4,0.5s0.2,0.4,0.4,0.3c4-1.1,7.6-0.9,10.3-0.3L232.7,311.5
			L232.7,311.5z M232.2,315.2l-0.2,1.4c-2.6-0.5-5.9-0.6-9.7,0.4c-0.2,0.1-0.4-0.1-0.4-0.3c0-0.1,0.1-0.3,0.1-0.4
			c-0.1,0-0.2,0.1-0.3,0.1c-0.2,0.1-0.4-0.1-0.4-0.3c0-0.2,0.2-0.5,0.4-0.5C225.8,314.4,229.4,314.6,232.2,315.2L232.2,315.2z
			 M231.9,316.9c-2.7-0.6-6.3-0.7-10.3,0.4c-0.2,0.1-0.4,0.3-0.4,0.5c0,0.1,0.1,0.2,0.1,0.3h-0.1c-0.2,0.1-0.4,0.3-0.4,0.5
			s0.2,0.4,0.4,0.3c4.1-1.1,7.7-0.9,10.4-0.2L231.9,316.9L231.9,316.9z M231.6,318.7l-0.2,1.5c-2.6-0.5-6-0.7-9.8,0.4
			c-0.2,0.1-0.4-0.1-0.4-0.3c0-0.1,0-0.2,0.1-0.3c-0.1,0-0.2-0.2-0.2-0.3c0-0.2,0.2-0.5,0.4-0.5C225.4,318,228.9,318.1,231.6,318.7
			L231.6,318.7z M231.3,320.4c-2.7-0.5-6.2-0.7-10.1,0.4c-0.2,0.1-0.4,0.3-0.4,0.5s0.2,0.4,0.4,0.3c3.9-1,7.3-0.9,9.9-0.4
			L231.3,320.4z"/>
		<path class="st9" d="M294.2,251c-1.5-0.2-3.3-0.4-5.5-0.2c-2.7,0-5.9,0.6-9.3,2.2c-0.2,0.1-0.4,0.4-0.3,0.6c0,0.2,0.3,0.3,0.5,0.2
			c0.4-0.2,0.8-0.4,1.3-0.6c0,0.1,0,0.2,0,0.2c0,0.2,0.3,0.3,0.5,0.2c2.6-1.2,5.1-1.8,7.2-2c2.6,0,4.7,0.4,5.8,0.7L294.2,251
			L294.2,251z M294.5,253.7l0.2,1.4c-1.3-0.3-3.4-0.7-5.9-0.5c-2.2,0.2-4.6,0.8-7.2,2c-0.2,0.1-0.4,0-0.4-0.1
			c-0.1,0.1-0.3,0.1-0.4,0.2c-0.2,0.1-0.4,0-0.5-0.2c0-0.1,0-0.2,0-0.3h-0.1c-0.2,0.1-0.4,0-0.5-0.2c0-0.2,0.1-0.5,0.3-0.6
			C286.3,252.3,291.8,253,294.5,253.7L294.5,253.7z M294.8,255.3c-2.7-0.5-7.2-0.8-12.3,1.2c-0.8,0.3-1.6,0.6-2.5,1
			c-0.2,0.1-0.4,0.4-0.3,0.6c0,0.2,0.3,0.3,0.5,0.2c0.3-0.1,0.5-0.2,0.8-0.4c0.1,0,0.2,0,0.3,0c0.5-0.2,0.9-0.4,1.4-0.6
			c5.8-2,10.6-0.9,12.5-0.4L294.8,255.3L294.8,255.3z M295,257.1c-1.7-0.3-4.1-0.6-7-0.2c-2.3,0.2-4.8,0.8-7.5,2.1
			c-0.2,0.1-0.4,0.4-0.3,0.6c0,0.2,0.3,0.3,0.5,0.2c0.1,0,0.1-0.1,0.2-0.1c0.1,0.1,0.2,0.1,0.4,0c2.4-1.1,4.6-1.7,6.6-2
			c3.2-0.3,5.8,0.2,7.2,0.5L295,257.1L295,257.1z M295.4,260l0.3,2c-0.3-0.1-0.7-0.2-1.2-0.3h0.1l0,0h0.1h0.1h0.1l0,0h0.1h0.1l0,0
			h0.1h0.1l0,0l0,0h0.1h0.1l0,0l0,0l0,0l0,0l0,0l0,0l0,0l0,0l0,0l0,0l0,0l0,0l0,0l0.2,1.4c-0.6-0.1-1.3-0.3-2.1-0.4
			c0.8,0.1,1.5,0.3,2.1,0.4l0.4,2.5c-2.8-0.5-7.7-0.8-13.1,1.8c-0.2,0.1-0.4,0-0.5-0.2c0-0.1,0-0.3,0.1-0.4c-0.1,0-0.2,0.1-0.3,0.1
			c-0.2,0.1-0.4,0-0.5-0.2c0-0.2,0.1-0.5,0.3-0.6c5.3-2.5,10.1-2.4,13.1-1.9c-0.2-0.1-0.5-0.1-0.8-0.2c-2.9-0.4-7.3-0.3-12,1.9
			c-0.2,0.1-0.4,0-0.5-0.2c0-0.2,0.1-0.5,0.3-0.6c-0.3,0.1-0.7,0.3-1,0.4c-0.1,0.1-0.3,0-0.4,0s-0.1,0.1-0.2,0.1
			c-0.2,0.1-0.4,0-0.5-0.2c0-0.2,0.1-0.5,0.3-0.6c0.2-0.1,0.5-0.2,0.7-0.3l0,0c0-0.2,0.1-0.5,0.3-0.6c1.8-0.9,3.6-1.4,5.2-1.8l0,0
			h-0.2h-0.2H286h-0.1h-0.2h-0.1h-0.2h-0.1c-0.1,0-0.2,0-0.2,0.1H285c-0.1,0-0.2,0-0.3,0.1h-0.1c-0.1,0-0.2,0-0.3,0.1h-0.1
			c-0.1,0-0.2,0.1-0.3,0.1h-0.1c-0.1,0-0.2,0.1-0.3,0.1l0,0c-0.1,0-0.2,0.1-0.4,0.1l0,0c-0.1,0-0.2,0.1-0.4,0.1l0,0l0,0
			c-0.1,0-0.2,0.1-0.4,0.1l0,0l0,0c-0.1,0-0.3,0.1-0.4,0.1l0,0c-0.3,0.1-0.5,0.2-0.8,0.3l0,0c-0.1,0.1-0.2,0.1-0.4,0.2l0,0l0,0
			c-0.1,0.1-0.3,0.1-0.4,0.2c-0.2,0.1-0.4,0-0.5-0.2c0-0.2,0.1-0.5,0.3-0.6l0,0l0,0c0.1,0,0.2-0.1,0.3-0.1l0,0l0,0l0,0l0,0v-0.1
			c0-0.2,0.1-0.5,0.3-0.6c2.8-1.3,5.4-1.9,7.8-2.1c1.6-0.2,3.1-0.1,4.3,0c-2.9-0.4-7.5-0.5-12.5,1.9c-0.2,0.1-0.4,0-0.5-0.2
			c0-0.2,0.1-0.5,0.3-0.6C287.1,258.3,293,259.3,295.4,260L295.4,260z M296.3,266.3c-2.9-0.6-8.1-0.9-13.8,1.8
			c-0.2,0.1-0.4,0.4-0.3,0.6c0,0.1,0.1,0.2,0.2,0.2l-0.1,0.1c-0.2,0.1-0.4,0.4-0.3,0.6c0,0.2,0.3,0.3,0.5,0.2
			c3.9-1.9,7.6-2.2,10.4-2.1c-2.8-0.1-6.3,0.4-10.1,2.2c-0.2,0.1-0.4,0.4-0.3,0.6c0,0.2,0.1,0.3,0.3,0.3c0,0.1-0.1,0.2,0,0.3
			c0,0.2,0.3,0.3,0.5,0.2c5.8-2.7,11-2.2,13.7-1.6L296.3,266.3L296.3,266.3z M296.8,269.8l0.1,1c-2.6-0.6-8-1.2-14,1.6
			c-0.2,0.1-0.4,0-0.5-0.2c0-0.2,0.1-0.5,0.3-0.6C288.7,268.8,293.9,269.2,296.8,269.8z"/>
		<path class="st9" d="M209.3,198.2c-0.2-3.2-2.9-5.5-6.1-5.3c-3.1,0.2-5.5,2.9-5.3,6.1c0.8,12.1,2.1,25.5,4.1,40.5H98.3
			c2.1-14.8,3.7-28.2,5-40.3c0.3-3.1-1.9-6-5.1-6.3c-3.1-0.3-6,1.9-6.3,5.1c-2.6,23.8-6.5,52.8-12.3,88c-4.9,30-11.3,64.4-19.3,104
			H72c7.9-38.8,14.1-72.7,18.9-102.1c2.2-13.1,4.1-25.4,5.7-36.9h107c1.7,11.5,3.7,23.8,6.1,37c5.4,29.5,12.8,63.3,22.9,102h11.8
			c-10.3-39.6-17.9-74.1-23.4-104.1c-2.7-14.8-4.9-28.4-6.7-41c0-0.3-0.1-0.6-0.1-0.8C211.8,226.9,210.3,211.7,209.3,198.2z"/>
		<path class="st11" d="M454.4,184.9H194.1c-3,0-5.5,2.5-5.5,5.5v12.4c0,3,2.5,5.5,5.5,5.5h260.3c3,0,5.5-2.5,5.5-5.5v-12.4
			C459.9,187.4,457.4,184.9,454.4,184.9z"/>
		<path class="st4" d="M454.3,184.9H136.6c-3,0-5.5,2.5-5.5,5.5v7.3H240h219.9v-7.3C459.9,187.4,457.4,184.9,454.3,184.9z"/>
		<path class="st11" d="M459.8,180.7H188.6c-3.3,0-6,2.7-6,6l0,0c0,3.3,2.7,6,6,6h271.2c3.3,0,6-2.7,6-6l0,0
			C465.8,183.3,463.1,180.7,459.8,180.7z"/>
		<path class="st12" d="M210.9,184.9H91.6c-3,0-5.5,2.5-5.5,5.5v12.4c0,3,2.5,5.5,5.5,5.5H211c3,0,5.5-2.5,5.5-5.5v-12.4
			C216.5,187.4,214,184.9,210.9,184.9z"/>
		<path class="st9" d="M208.3,184.9H94.2c-4.5,0-8.1,2.5-8.1,5.5v7.3h130.4v-7.3C216.5,187.4,212.8,184.9,208.3,184.9z"/>
		<path class="st12" d="M216.5,180.7H82.8c-3.3,0-6,2.7-6,6l0,0c0,3.3,2.7,6,6,6h133.7c3.3,0,6-2.7,6-6l0,0
			C222.4,183.3,219.7,180.7,216.5,180.7z"/>
		<path class="st17" d="M280.5,180.7c0,0-5.8-6.6-4.4-14.3c1.4-7.8,1.6-22.7-6.6-26.9s-18.2-3.7-22.6,2.4c0,0-2.3-3.3-4.9-3.2
			c-2.6,0.1-0.4,4.3,0.2,4.8c-26.8-8.3-2.9,31.8-21.9,37.3h60.2V180.7z"/>
		<path class="st4" d="M280.5,180.7c0,0-5.8-6.6-4.4-14.3c0.2-1,0.4-2.2,0.5-3.5c-8.9,3.2-29.6,9.2-39.1-0.4c-5-5-7.4-10.4-8.4-15.1
			c-2.5,8.2,2.5,24.3-4.4,30.9c2.2,0.6,4.7,1.4,7.5,2.4L280.5,180.7L280.5,180.7z"/>
		<path class="st18" d="M309.1,180.7c5.4-4.2,2.2-18.3-10.8-14.4c-9.3,2.7-25.1,8.2-27,8.7c-2.7,0.6-8.6,0-10.1,0s-5.4,1.5-5.4,5.8
			h52.7h0.6V180.7z"/>
		<path class="st18" d="M182.5,180.7c0,0-3.9-1.9-3.5-6.8c0.4-4.9,6.3-9.7,10.7-10.2s52.2,10.2,56.7,10.8s14.5,0,17.1,0
			c2.5,0,9,1.6,9,6.1h-88.9L182.5,180.7L182.5,180.7z"/>
	</g>
	<g>
		<path class="st19" d="M315.6,142.3c0,0-0.7-2.6-2.9-2.7c-2.2-0.1-3,2.6-2.4,2.9C311,142.9,315.6,142.3,315.6,142.3z"/>
		<path class="st19" d="M313.7,146.9l0.6-0.1l0,0l2-0.4c-2.4,6.6-9.1,5.6-6.5,0.6l3.3-0.7v0.3c0,0.2,0.2,0.4,0.4,0.3L313.7,146.9z"
			/>
		<path class="st2" d="M417.1,83.9h-94.2c-2.6,0-5.1,2.1-5.7,4.7L304,152.4c-0.5,2.6,1.1,4.7,3.7,4.7h94.2c2.6,0,5.1-2.1,5.7-4.7
			l13.3-63.8C421.4,86.1,419.7,83.9,417.1,83.9z"/>
		<path class="st20" d="M417.1,83.9H326c-2.6,0-5.1,2.1-5.7,4.7L307,152.4c-0.5,2.6,1.1,4.7,3.7,4.7h91.1c2.6,0,5.1-2.1,5.7-4.7
			l13.3-63.8C421.4,86.1,419.7,83.9,417.1,83.9z"/>
		<path class="st21" d="M342.1,157.1h23.1c0.4-0.9,0.7-1.5,0.7-1.7c0-0.9-5.3-16.8-13-19.3l-4.5-0.1L342.1,157.1z"/>
		<path class="st22" d="M408.4,128.4h-91.5c-1,0-2,0.8-2.2,1.8l0,0c-0.2,1,0.4,1.8,1.4,1.8h91.5c1,0,2-0.8,2.2-1.8l0,0
			C410,129.2,409.4,128.4,408.4,128.4z"/>
		<path class="st22" d="M406.2,133.9h-89.4c-1.6,0-3.1,1.3-3.4,2.9l-3.1,14.9c-0.3,1.6,0.7,2.9,2.3,2.9H402c1.6,0,3.1-1.3,3.4-2.9
			l3.1-14.9C408.8,135.2,407.8,133.9,406.2,133.9z"/>
		<path class="st21" d="M342.9,154.5h22.7c-1.1-3.6-6-16.2-12.8-18.4l-4.5-0.1L342.9,154.5z"/>
		<path class="st21" d="M405.5,98.8H390c-1,0-1.9,0.8-2.1,1.7l-4.7,22.5c-0.2,1,0.4,1.7,1.4,1.7h15.5c1,0,1.9-0.8,2.1-1.7l4.7-22.5
			C407.1,99.6,406.5,98.8,405.5,98.8z"/>
		<path class="st22" d="M407.6,98.8H392c-1,0-1.9,0.8-2.1,1.7l-4.7,22.5c-0.2,1,0.4,1.7,1.4,1.7h15.5c1,0,1.9-0.8,2.1-1.7l4.7-22.5
			C409.1,99.6,408.5,98.8,407.6,98.8z"/>
		<path class="st21" d="M403.6,111.8L403.6,111.8c-0.5,0-1,0.4-1.1,0.9l-1.6,7.8c-0.1,0.5,0.2,0.9,0.7,0.9l0,0c0.5,0,1-0.4,1.1-0.9
			l1.6-7.8C404.4,112.2,404.1,111.8,403.6,111.8z"/>
		<path class="st21" d="M399.2,111.8L399.2,111.8c-0.5,0-1,0.4-1.1,0.9l-1.6,7.8c-0.1,0.5,0.2,0.9,0.7,0.9l0,0c0.5,0,1-0.4,1.1-0.9
			l1.6-7.8C400.1,112.2,399.7,111.8,399.2,111.8z"/>
		<path class="st21" d="M394.8,111.8L394.8,111.8c-0.5,0-1,0.4-1.1,0.9l-1.6,7.8c-0.1,0.5,0.2,0.9,0.7,0.9l0,0c0.5,0,1-0.4,1.1-0.9
			l1.6-7.8C395.7,112.2,395.3,111.8,394.8,111.8z"/>
		<path class="st21" d="M390.5,111.8L390.5,111.8c-0.5,0-1,0.4-1.1,0.9l-1.6,7.8c-0.1,0.5,0.2,0.9,0.7,0.9l0,0c0.5,0,1-0.4,1.1-0.9
			l1.6-7.8C391.3,112.2,391,111.8,390.5,111.8z"/>
		<path class="st22" d="M416.5,89.6H325c-1,0-2,0.8-2.2,1.8l0,0c-0.2,1,0.4,1.8,1.4,1.8h91.5c1,0,2-0.8,2.2-1.8l0,0
			C418.1,90.4,417.5,89.6,416.5,89.6z"/>
		<path class="st21" d="M405.4,135.6H317c-0.4,0-0.8,0.3-0.9,0.7l0,0c-0.1,0.4,0.2,0.7,0.6,0.7h88.4c0.4,0,0.8-0.3,0.9-0.7l0,0
			C406,135.9,405.8,135.6,405.4,135.6L405.4,135.6z M402.2,150.8h-88.4c-0.4,0-0.8,0.3-0.9,0.7l0,0c-0.1,0.4,0.2,0.7,0.6,0.7h88.4
			c0.4,0,0.8-0.3,0.9-0.7l0,0C402.8,151.1,402.6,150.8,402.2,150.8L402.2,150.8z M402.8,147.8h-88.4c-0.4,0-0.8,0.3-0.9,0.7l0,0
			c-0.1,0.4,0.2,0.7,0.6,0.7h88.4c0.4,0,0.8-0.3,0.9-0.7l0,0C403.5,148.1,403.2,147.8,402.8,147.8L402.8,147.8z M403.5,144.7h-88.4
			c-0.4,0-0.8,0.3-0.9,0.7l0,0c-0.1,0.4,0.2,0.7,0.6,0.7h88.4c0.4,0,0.8-0.3,0.9-0.7l0,0C404.1,145,403.8,144.7,403.5,144.7
			L403.5,144.7z M404.1,141.7h-88.4c-0.4,0-0.8,0.3-0.9,0.7l0,0c-0.1,0.4,0.2,0.7,0.6,0.7h88.4c0.4,0,0.8-0.3,0.9-0.7l0,0
			C404.7,142,404.5,141.7,404.1,141.7L404.1,141.7z M404.7,138.6h-88.4c-0.4,0-0.8,0.3-0.9,0.7l0,0c-0.1,0.4,0.2,0.7,0.6,0.7h88.4
			c0.4,0,0.8-0.3,0.9-0.7l0,0C405.4,138.9,405.1,138.6,404.7,138.6z"/>
		<path class="st23" d="M348.1,137h6.6c-0.6-0.4-1.2-0.7-1.8-0.9l-4.5-0.1L348.1,137L348.1,137z M347.6,138.6l-0.4,1.4h10.9
			c-0.4-0.5-0.9-1-1.3-1.4H347.6L347.6,138.6z M346.7,141.7l-0.4,1.4h14.1c-0.3-0.5-0.6-1-1-1.4H346.7L346.7,141.7z M345.8,144.7
			l-0.4,1.4h16.8c-0.2-0.5-0.5-1-0.8-1.4H345.8L345.8,144.7z M344.9,147.8l-0.4,1.4h19.1c-0.2-0.5-0.4-0.9-0.7-1.4H344.9
			L344.9,147.8z M344,150.8l-0.4,1.4h21.3c-0.2-0.4-0.4-0.9-0.6-1.4H344z"/>
		<path class="st21" d="M328,110.2h-1.6c-0.6,0-1.2,0.5-1.3,1.1l-1,4.7c-0.1,0.6,0.3,1.1,0.8,1.1h1.6c0.6,0,1.2-0.5,1.3-1.1l1-4.7
			C329,110.6,328.6,110.2,328,110.2z"/>
		<path class="st22" d="M330.8,100.2h-3c-1.1,0-2.2,0.9-2.4,2l-1.8,8.7c-0.2,1.1,0.5,2,1.6,2h3c1.1,0,2.2-0.9,2.4-2l1.8-8.7
			C332.6,101.1,331.9,100.2,330.8,100.2z"/>
		<path class="st22" d="M381.6,97.1h-40.1c-0.8,0-1.6,0.7-1.8,1.5l-5,24.1c-0.2,0.8,0.4,1.5,1.2,1.5H376c0.8,0,1.6-0.7,1.8-1.5
			l5-24.1C383,97.8,382.4,97.1,381.6,97.1z"/>
		<path class="st2" d="M378.7,100.6h-21.5c-0.4,0-0.9,0.4-1,0.8l0,0c-0.1,0.4,0.2,0.8,0.6,0.8h21.5c0.4,0,0.9-0.4,1-0.8l0,0
			C379.5,100.9,379.2,100.6,378.7,100.6z"/>
		<path class="st21" d="M377.9,104.5h-34c-0.4,0-0.9,0.4-1,0.8l0,0c-0.1,0.4,0.2,0.8,0.6,0.8h34c0.4,0,0.9-0.4,1-0.8l0,0
			C378.6,104.9,378.4,104.5,377.9,104.5z"/>
		<path class="st21" d="M377.1,108.6h-34c-0.4,0-0.9,0.4-1,0.8l0,0c-0.1,0.4,0.2,0.8,0.6,0.8h34c0.4,0,0.9-0.4,1-0.8l0,0
			C377.8,108.9,377.5,108.6,377.1,108.6z"/>
		<path class="st21" d="M376.2,112.6h-34c-0.4,0-0.9,0.4-1,0.8l0,0c-0.1,0.4,0.2,0.8,0.6,0.8h34c0.4,0,0.9-0.4,1-0.8l0,0
			C377,113,376.7,112.6,376.2,112.6z"/>
		<path class="st21" d="M375.4,116.6h-34c-0.4,0-0.9,0.4-1,0.8l0,0c-0.1,0.4,0.2,0.8,0.6,0.8h34c0.4,0,0.9-0.4,1-0.8l0,0
			C376.1,117,375.8,116.6,375.4,116.6z"/>
		<path class="st21" d="M374.6,120.7h-34c-0.4,0-0.9,0.4-1,0.8l0,0c-0.1,0.4,0.2,0.8,0.6,0.8h34c0.4,0,0.9-0.4,1-0.8l0,0
			C375.3,121,375,120.7,374.6,120.7z"/>
		<path class="st21" d="M344.8,100.6h8.5c0.4,0,0.7,0.4,0.6,0.8l0,0c-0.1,0.4-0.5,0.8-1,0.8h-8.5c-0.4,0-0.7-0.4-0.6-0.8l0,0
			C343.9,100.9,344.3,100.6,344.8,100.6z"/>
		<path class="st21" d="M351.7,136.6c-0.7,0-1.9,0.2-1.9-0.6c0-0.7,0.6-1.3,1.3-1.3h26.7c0.8,0,5.2,0.2,5.5,5.3
			c0.1,1.7,0.8,7.1,1.7,13c0.8,5.7,1.7,12.1,2.3,15.6c0.1,1,0.2,2,0.2,3c0,2-0.4,4-1.3,5.6c-1,1.7-2.6,2.9-5.1,3.3
			c-0.5,0.1-1,0.1-1.6,0.1H351c-0.7,0-1.3-0.6-1.3-1.3s1.2-0.4,2-0.4l4.8-0.9c0.4,0,0.8,0,1.2-0.1c1.6-0.2,2.6-1,3.2-2
			c0.7-1.1,0.9-2.6,0.9-4.2c0-0.9-0.1-1.7-0.2-2.6c-0.5-3.4-1.7-9.6-2.6-15.7c-0.8-5.9-1.6-11.4-1.7-13.2c-0.2-2.8-2.4-2.8-2.8-2.8
			h-0.1L351.7,136.6z"/>
		<path class="st2" d="M349.7,137.4c-0.7,0-1.3-0.6-1.3-1.3s0.6-1.3,1.3-1.3h2.7c0.8,0,5.2,0.2,5.5,5.3c0.1,1.7,0.8,7.1,1.7,13
			c0.8,5.7,1.7,12.1,2.3,15.6c0.1,1,0.2,2,0.2,3c0,2-0.4,4-1.3,5.6c-1,1.7-2.6,2.9-5.1,3.3c-0.5,0.1-1,0.1-1.6,0.1h-7.3
			c-0.7,0-1.3-0.6-1.3-1.3s0.6-1.3,1.3-1.3h7.3c0.4,0,0.8,0,1.2-0.1c1.6-0.2,2.6-1,3.2-2c0.7-1.1,0.9-2.6,0.9-4.2
			c0-0.9-0.1-1.7-0.2-2.6c-0.5-3.4-1.4-9.6-2.3-15.7c-0.8-5.9-1.6-11.4-1.7-13.2c-0.2-2.8-2.4-2.8-2.8-2.8h-0.1h-2.6V137.4z"/>
	</g>
	<g>
		<path class="st24" d="M260.9,71c2,9,10,15.9,19.6,15.9h28v24c0,4-3.3,7.3-7.3,7.3h-49l-12.5,12.5c-0.2,0.2-0.6,0.3-0.9,0.2
			c-0.3-0.1-0.5-0.4-0.5-0.8v-19.3v-2.2V78.3c0-4,3.3-7.3,7.3-7.3H260.9z"/>
		<path class="st25" d="M299.4,68.8h-55.6c-4,0-7.3,3.3-7.3,7.3v30.3v2.2V128c0,0.3,0.2,0.6,0.5,0.8c0.3,0.1,0.7,0.1,0.9-0.2
			l12.5-12.5h49c4,0,7.3-3.3,7.3-7.3V76.2C306.7,72.1,303.4,68.8,299.4,68.8z"/>
		<text transform="matrix(1 0 0 1 244.4849 101.4302)" class="st26 st27 st28">4</text>
		<text transform="matrix(1 0 0 1 259.3849 101.4302)" class="st26 st27 st28">0</text>
		<text transform="matrix(1 0 0 1 274.2849 101.4302)" class="st26 st27 st28">4 !</text>
	</g>
	<g>
		<path class="st29" d="M102.5,269.2c14.7-7.8,18.4,9.2,12.7,23.2c-5.7,14-34.9,61.2-36.5,79.9c-0.6,7.3-1.9,6.5-3.1,1.4
			C69.9,348.3,82.4,279.9,102.5,269.2z"/>
		<g>
			<path class="st30" d="M71.5,204.9c-16.8-15.1-27.3,6-24.4,26.5c2.9,20.4,26,92.4,21.8,117.7c-1.6,9.8,0.4,9.2,3.6,2.8
				C88.6,320.3,94.6,225.7,71.5,204.9z"/>
			<path class="st31" d="M68.6,356.1c0.4,0.9,1.2,0.5,2.2-1.1C88.3,296.7,61,209.5,61,209.3c-0.1-0.5-0.7-0.7-1.1-0.6
				c-0.5,0.1-0.7,0.7-0.6,1.1C59.3,210.1,86.9,298.4,68.6,356.1z"/>
		</g>
		<g>
			<path class="st32" d="M34.8,253.4c-16.3-7.1-18.8,11.3-11.6,25.8s42.4,62.4,45.5,82.2c1.2,7.7,2.6,6.7,3.4,1.2
				C76.2,335.1,57.2,263.1,34.8,253.4z"/>
			<path class="st33" d="M70.3,366.7c0.5,0.6,1,0.1,1.4-1.4C70.2,317.5,28.2,259.4,28,259.2c-0.2-0.3-0.7-0.4-1-0.2
				c-0.3,0.2-0.4,0.7-0.2,1C27,260.3,69.6,319.2,70.3,366.7z"/>
		</g>
		<g>
			<polygon class="st9" points="57.7,357.3 89,357.3 97.2,364.7 90.5,390.4 73.4,390.4 56.2,390.4 49.6,364.7 			"/>
			<path class="st9" d="M49.6,346.6h47.6c1.4,0,2.6,1.2,2.6,2.6V361c0,1.4-1.2,2.6-2.6,2.6H49.6c-1.4,0-2.6-1.2-2.6-2.6v-11.8
				C47,347.7,48.1,346.6,49.6,346.6z"/>
			<polygon class="st6" points="97.2,364.7 95.8,370 50.9,370 49.6,364.7 			"/>
		</g>
	</g>
	<path class="st24" d="M133.1,35.3L133.1,35.3L133.1,35.3z M136.4,22.9c1.1-1.1,2.7-1.8,4.4-1.8s3.3,0.7,4.5,1.8
		c1.1,1.1,1.8,2.7,1.8,4.4c0,1.7-0.7,3.3-1.8,4.5c-1.1,1.1-2.7,1.8-4.5,1.8c-1.7,0-3.3-0.7-4.4-1.8c-1.1-1.1-1.8-2.7-1.8-4.5
		C134.5,25.6,135.2,24,136.4,22.9L136.4,22.9z M137.7,16.6c-0.9,0.3-1.7,0.6-2.5,1c-0.8,0.5-1.5,1-2.2,1.6c-0.1,0.1-0.3,0.1-0.5,0.1
		l-2.9-1.7l0,0c-0.2-0.1-0.4-0.1-0.5-0.1c-0.2,0-0.3,0.2-0.4,0.3l0,0l-2.1,3.6c-0.1,0.2-0.1,0.4-0.1,0.5c0,0.2,0.2,0.3,0.3,0.4l0,0
		l2.9,1.7c0.2,0.1,0.2,0.3,0.2,0.4l0,0c-0.1,0.4-0.2,0.9-0.2,1.3c-0.1,0.4-0.1,0.9-0.1,1.4s0,0.9,0.1,1.4s0.1,0.9,0.2,1.3
		c0,0.2,0,0.4-0.2,0.4l-2.9,1.7l0,0c-0.2,0.1-0.3,0.3-0.3,0.4c0,0.2,0,0.4,0.1,0.6l2.1,3.6l0,0c0.1,0.2,0.3,0.3,0.4,0.3
		c0.2,0,0.4,0,0.5-0.1l0,0l2.9-1.7c0.2-0.1,0.3-0.1,0.5,0.1c0.6,0.6,1.4,1.2,2.2,1.6c0.8,0.4,1.6,0.8,2.5,1.1c0.2,0,0.3,0.2,0.3,0.4
		v3.4c0,0.2,0.1,0.4,0.2,0.5c0.1,0.1,0.3,0.2,0.5,0.2h4.1c0.2,0,0.4-0.1,0.5-0.2c0.1-0.1,0.2-0.3,0.2-0.5v-3.4
		c0-0.2,0.1-0.3,0.3-0.4c0.9-0.3,1.7-0.6,2.5-1.1s1.5-1,2.2-1.6c0.1-0.1,0.3-0.1,0.5,0l2.9,1.7c0.2,0.1,0.4,0.1,0.6,0.1
		c0.2,0,0.3-0.2,0.4-0.3l0,0L155,33l0,0c0.1-0.2,0.1-0.4,0.1-0.5c0-0.2-0.2-0.3-0.3-0.4l-2.9-1.7c-0.2-0.1-0.2-0.3-0.2-0.4l0,0
		c0.1-0.4,0.2-0.9,0.2-1.3c0.1-0.4,0.1-0.9,0.1-1.4s0-0.9-0.1-1.4s-0.1-0.9-0.2-1.3c0-0.2,0-0.4,0.2-0.4l2.9-1.7
		c0.2-0.1,0.3-0.3,0.3-0.4c0-0.2,0-0.4-0.1-0.5l0,0l-2.1-3.6l0,0c-0.1-0.2-0.3-0.3-0.4-0.3c-0.2,0-0.4,0-0.6,0.1l0,0l-2.9,1.7
		c-0.2,0.1-0.3,0.1-0.5-0.1c-0.6-0.6-1.4-1.2-2.2-1.6s-1.6-0.8-2.5-1.1c-0.2,0-0.3-0.2-0.3-0.4v-3.4c0-0.2-0.1-0.4-0.2-0.5
		c-0.1-0.1-0.3-0.2-0.5-0.2h-4.1c-0.2,0-0.4,0.1-0.5,0.2c-0.1,0.1-0.2,0.3-0.2,0.5v3.4C138,16.4,137.9,16.6,137.7,16.6z"/>
	<path class="st24" d="M178.1,52.6c1.4-1.4,3-2.5,4.8-3.2s3.7-1.1,5.7-1.1s3.9,0.4,5.7,1.1c1.8,0.8,3.5,1.9,4.8,3.2
		c1.4,1.4,2.5,3,3.2,4.8c0.7,1.7,1.1,3.7,1.1,5.7s-0.4,3.9-1.1,5.7c-0.8,1.8-1.9,3.5-3.2,4.8c-1.4,1.4-3,2.5-4.8,3.2
		c-1.7,0.7-3.7,1.1-5.7,1.1s-3.9-0.4-5.7-1.1c-1.8-0.8-3.5-1.9-4.8-3.2c-1.4-1.4-2.5-3-3.2-4.8c-0.7-1.7-1.1-3.7-1.1-5.7
		c0-2,0.4-3.9,1.1-5.7C175.6,55.6,176.7,54,178.1,52.6L178.1,52.6z M183.4,50.7c-1.6,0.7-3.1,1.7-4.4,2.9c-1.2,1.2-2.2,2.7-2.9,4.4
		c-0.7,1.6-1,3.3-1,5.1s0.4,3.6,1,5.1c0.7,1.6,1.7,3.1,2.9,4.4c1.2,1.2,2.7,2.2,4.4,2.9c1.6,0.7,3.3,1,5.1,1s3.6-0.4,5.1-1
		c1.6-0.7,3.1-1.7,4.4-2.9c1.2-1.2,2.2-2.7,2.9-4.4c0.7-1.6,1-3.3,1-5.1c0-1.8-0.4-3.6-1-5.1c-0.7-1.6-1.7-3.1-2.9-4.4
		c-1.2-1.2-2.7-2.2-4.4-2.9c-1.6-0.7-3.3-1-5.1-1C186.7,49.7,185,50,183.4,50.7L183.4,50.7z M181.8,39.8c-0.9,0.3-1.8,0.6-2.7,1
		s-1.8,0.8-2.6,1.3c-0.9,0.5-1.7,1-2.5,1.6s-1.5,1.2-2.3,1.9c-0.3,0.2-0.6,0.4-0.9,0.4c-0.3,0-0.7,0-1-0.2c-2.2-1.3-4.5-2.5-6.6-3.8
		c-0.1-0.1-0.2-0.1-0.3-0.1s-0.2,0-0.4,0c-0.1,0-0.2,0.1-0.3,0.2c-0.1,0.1-0.2,0.2-0.2,0.3c-1.6,2.4-3.2,5.5-4.6,8.1
		c-0.1,0.1-0.1,0.2-0.1,0.3s0,0.3,0,0.4c0,0.1,0.1,0.2,0.2,0.3c0.1,0.1,0.2,0.2,0.3,0.2c2,1.3,4.5,2.6,6.6,3.8
		c0.3,0.2,0.5,0.4,0.7,0.7c0,0.1,0.1,0.2,0.1,0.3h0.1l-0.2,0.6c-0.1,0.5-0.2,1-0.3,1.4c-0.1,0.5-0.2,1-0.2,1.5
		c-0.1,0.5-0.1,1-0.1,1.5s0,1,0,1.5s0,1,0,1.5s0.1,1,0.1,1.5c0.1,0.5,0.1,1,0.2,1.5c0.1,0.5,0.2,1,0.3,1.4s0,0.7-0.1,1
		s-0.4,0.6-0.7,0.7l-5.8,3.4l0,0l-0.7,0.4c-0.1,0.1-0.2,0.1-0.3,0.2s-0.1,0.2-0.2,0.3c0,0.1,0,0.3,0,0.4s0.1,0.2,0.1,0.3l4.3,7.5
		l0,0l0.3,0.6c0.1,0.1,0.1,0.2,0.2,0.3c0.1,0.1,0.2,0.1,0.3,0.2c0.1,0,0.3,0,0.4,0c0.1,0,0.2-0.1,0.3-0.1c2.1-1.3,4.4-2.6,6.6-3.8
		c0.3-0.2,0.6-0.2,1-0.2c0.3,0,0.6,0.2,0.9,0.4l0,0c0.7,0.7,1.5,1.3,2.3,1.9s1.6,1.1,2.5,1.6c0.8,0.5,1.7,0.9,2.6,1.3
		c0.9,0.4,1.8,0.7,2.8,1c0.3,0.1,0.6,0.3,0.8,0.6c0.2,0.3,0.3,0.6,0.3,0.9v7.6c0,0.1,0,0.2,0.1,0.4c0,0.1,0.1,0.2,0.2,0.3
		c0.1,0.1,0.2,0.2,0.3,0.2s0.2,0.1,0.4,0.1h9.3c0.1,0,0.2,0,0.4-0.1c0.1,0,0.2-0.1,0.3-0.2s0.2-0.2,0.2-0.3c0-0.1,0.1-0.2,0.1-0.4
		V88c0-0.4,0.1-0.7,0.3-1s0.5-0.5,0.9-0.6c0.9-0.3,1.8-0.6,2.7-1s1.8-0.8,2.6-1.3c0.9-0.5,1.7-1,2.5-1.6s1.5-1.2,2.3-1.9
		c0.3-0.3,0.6-0.4,0.9-0.4c0.3,0,0.7,0.1,1,0.2l6.5,3.7c0.1,0.1,0.2,0.1,0.3,0.1s0.2,0,0.4,0c0.1,0,0.2-0.1,0.3-0.2s0.2-0.2,0.2-0.3
		c1.5-2.7,3.1-5.4,4.7-8.1c0.1-0.1,0.1-0.2,0.1-0.3c0-0.1,0-0.2,0-0.4c0-0.1-0.1-0.2-0.2-0.3c-0.1-0.1-0.2-0.2-0.3-0.2l-6.6-3.8
		c-0.3-0.2-0.5-0.4-0.7-0.7c0-0.1-0.1-0.2-0.1-0.3h-0.2l0.2-0.7c0.1-0.5,0.2-1,0.3-1.4c0.1-0.5,0.2-1,0.2-1.5c0.1-0.5,0.1-1,0.1-1.5
		s0-1,0-1.5s0-1,0-1.5s-0.1-1-0.1-1.5c-0.1-0.5-0.1-1-0.2-1.5c-0.1-0.5-0.2-1-0.3-1.4s0-0.7,0.1-1s0.4-0.6,0.7-0.7l6.5-3.8
		c0.1-0.1,0.2-0.1,0.3-0.2c0.1-0.1,0.1-0.2,0.2-0.3c0-0.1,0-0.3,0-0.4c0-0.1-0.1-0.2-0.1-0.3c-1.6-2.4-3.2-5.5-4.7-8.1
		c-0.1-0.1-0.1-0.2-0.2-0.3c-0.1-0.1-0.2-0.1-0.3-0.2c-0.1,0-0.3,0-0.4,0c-0.1,0-0.2,0.1-0.3,0.1l-6.6,3.8c-0.3,0.2-0.7,0.2-1,0.2
		s-0.6-0.2-0.9-0.4c-0.7-0.7-1.5-1.3-2.2-1.9c-0.8-0.6-1.6-1.1-2.5-1.6c-0.8-0.5-1.7-0.9-2.6-1.3c-0.9-0.4-1.8-0.7-2.8-1
		c-0.3-0.1-0.6-0.3-0.8-0.6s-0.3-0.6-0.3-0.9v-7.6c0-0.1,0-0.2-0.1-0.4c0-0.1-0.1-0.2-0.2-0.3c-0.1-0.1-0.2-0.2-0.3-0.2
		s-0.2-0.1-0.4-0.1h-9.3c-0.1,0-0.2,0-0.4,0.1c-0.1,0-0.2,0.1-0.3,0.2c-0.2,0.2-0.3,0.4-0.3,0.7v7.6c0,0.4-0.1,0.7-0.3,1
		C182.4,39.5,182.1,39.7,181.8,39.8L181.8,39.8z M178.5,39.5c-1,0.4-1.9,0.9-2.8,1.4c-0.9,0.5-1.8,1.1-2.6,1.7
		c-0.8,0.6-1.6,1.3-2.4,2h-0.1h-0.1c-2.2-1.3-4.4-2.5-6.6-3.8c-0.3-0.1-0.5-0.2-0.8-0.3c-0.3,0-0.6,0-0.9,0.1
		c-0.3,0.1-0.6,0.2-0.8,0.4s-0.4,0.4-0.6,0.7c-1.6,2.6-3.1,5.4-4.6,8.1c-0.2,0.3-0.3,0.6-0.3,0.9c0,0.3,0,0.6,0.1,0.9
		c0.1,0.3,0.2,0.6,0.4,0.8s0.4,0.4,0.7,0.6c2.1,1.3,4.4,2.5,6.6,3.8l0.1,0.1V57l-0.2,0.6l0,0c-0.1,0.3-0.1,0.6-0.2,0.9
		c-0.1,0.5-0.2,1-0.2,1.5c-0.1,0.5-0.1,1-0.1,1.6c0,0.5,0,1.1,0,1.6s0,1,0,1.6c0,0.5,0.1,1.1,0.1,1.6c0.1,0.5,0.1,1,0.2,1.5
		c0.1,0.5,0.2,1,0.3,1.5v0.1c0,0,0,0.1-0.1,0.1c-2.4,1.3-4.9,2.8-7.2,4.2l0.1,0.1l-0.1,0.1c-0.2,0.2-0.3,0.5-0.4,0.8
		c-0.1,0.3-0.1,0.6-0.1,0.9s0.1,0.6,0.3,0.9l5,8.7l0.1-0.1c0,0,0.1,0.1,0.2,0.1c0.2,0.2,0.5,0.3,0.8,0.4s0.6,0.1,0.9,0.1
		c0.3,0,0.6-0.1,0.8-0.3c2.2-1.2,4.4-2.6,6.6-3.8h0.1h0.1c0.8,0.7,1.5,1.4,2.4,2c0.8,0.6,1.7,1.2,2.6,1.7c0.9,0.5,1.8,1,2.8,1.4
		s1.9,0.8,2.9,1c0,0,0.1,0,0.1,0.1V88v7.6c0,0.3,0.1,0.6,0.2,0.9c0.1,0.3,0.3,0.5,0.5,0.8c0.2,0.2,0.5,0.4,0.7,0.5
		c0.3,0.1,0.6,0.2,0.9,0.2h9.3c0.3,0,0.6-0.1,0.9-0.2c0.3-0.1,0.5-0.3,0.8-0.5c0.2-0.2,0.4-0.5,0.5-0.8s0.2-0.6,0.2-0.9V88v-0.1
		l0.1-0.1l0,0c1-0.3,2-0.6,2.9-1c1-0.4,1.9-0.9,2.8-1.4c0.9-0.5,1.8-1.1,2.6-1.7s1.6-1.3,2.4-2c0,0,0.1,0,0.1-0.1h0.1l6.6,3.8
		c0.3,0.2,0.6,0.3,0.9,0.3c0.3,0,0.6,0,0.9-0.1c0.3-0.1,0.6-0.2,0.8-0.4c0.2-0.2,0.4-0.4,0.6-0.7c1.7-2.8,3.4-5.8,5-8.7l-0.1-0.1
		c0-0.1,0-0.1,0-0.2c0-0.3,0-0.6-0.1-0.9s-0.2-0.6-0.4-0.8c-0.2-0.2-0.4-0.4-0.7-0.6l-6.6-3.8c0,0-0.1,0-0.1-0.1v-0.1l0.2-0.7l0,0
		c0.1-0.3,0.1-0.5,0.2-0.8c0.1-0.5,0.2-1,0.2-1.5c0.1-0.5,0.1-1,0.1-1.6c0-0.5,0-1.1,0-1.6s0-1,0-1.6c0-0.5-0.1-1.1-0.1-1.6
		c-0.1-0.5-0.1-1-0.2-1.5c-0.1-0.5-0.2-1-0.3-1.5v-0.1c0,0,0-0.1,0.1-0.1l6.6-3.8c0.3-0.2,0.5-0.4,0.7-0.6c0.2-0.2,0.3-0.5,0.4-0.8
		c0.1-0.3,0.1-0.6,0.1-0.9c0-0.3-0.1-0.6-0.3-0.8c-1.6-2.9-3.4-5.8-5-8.7l-0.1,0.1c0,0-0.1-0.1-0.2-0.1c-0.2-0.2-0.5-0.3-0.8-0.4
		c-0.3-0.1-0.6-0.1-0.9-0.1c-0.3,0-0.6,0.1-0.9,0.3l-0.5,0.3l0,0l-6.1,3.5h-0.1c0,0-0.1,0-0.1-0.1l0,0c-0.7-0.7-1.5-1.4-2.4-2
		c-0.8-0.6-1.7-1.2-2.6-1.7c-0.9-0.5-1.8-1-2.8-1.4s-1.9-0.8-2.9-1c0,0-0.1,0-0.1-0.1v-0.1v-7.6c0-0.3-0.1-0.6-0.2-0.9
		c-0.1-0.3-0.3-0.5-0.5-0.8c-0.2-0.2-0.5-0.4-0.7-0.5c-0.3-0.1-0.6-0.2-0.9-0.2H184c-0.3,0-0.6,0.1-0.9,0.2
		c-0.3,0.1-0.5,0.3-0.8,0.5c-0.4,0.4-0.7,1-0.7,1.6v7.6v0.1l-0.1,0.1l0,0C180.4,38.7,179.4,39.1,178.5,39.5z"/>
	<path class="st24" d="M467,140.9L467,140.9L467,140.9z M470.3,128.5c1.1-1.1,2.7-1.8,4.4-1.8c1.7,0,3.3,0.7,4.5,1.8
		c1.1,1.1,1.8,2.7,1.8,4.5c0,1.7-0.7,3.3-1.8,4.4c-1.1,1.1-2.7,1.8-4.5,1.8c-1.7,0-3.3-0.7-4.4-1.8s-1.8-2.7-1.8-4.4
		C468.4,131.2,469.2,129.6,470.3,128.5L470.3,128.5z M471.7,122.2c-0.9,0.3-1.7,0.6-2.5,1c-0.8,0.5-1.5,1-2.2,1.6
		c-0.1,0.1-0.3,0.1-0.5,0.1l-2.9-1.7l0,0c-0.2-0.1-0.4-0.1-0.5-0.1c-0.2,0-0.3,0.2-0.4,0.3l0,0l-2.1,3.6c-0.1,0.2-0.1,0.4-0.1,0.5
		c0,0.2,0.2,0.3,0.3,0.4l0,0l2.9,1.7c0.2,0.1,0.2,0.3,0.2,0.4l0,0c-0.1,0.4-0.2,0.9-0.2,1.3c-0.1,0.4-0.1,0.9-0.1,1.4s0,0.9,0.1,1.4
		s0.1,0.9,0.2,1.3c0,0.2,0,0.4-0.2,0.4l-2.9,1.7l0,0c-0.2,0.1-0.3,0.3-0.3,0.4c0,0.2,0,0.4,0.1,0.6l2.1,3.6l0,0
		c0.1,0.2,0.3,0.3,0.4,0.3c0.2,0,0.4,0,0.5-0.1l0,0l2.9-1.7c0.2-0.1,0.3-0.1,0.5,0.1c0.6,0.6,1.4,1.2,2.2,1.6
		c0.8,0.4,1.6,0.8,2.5,1.1c0.2,0,0.3,0.2,0.3,0.4v3.4c0,0.2,0.1,0.4,0.2,0.5s0.3,0.2,0.5,0.2h4.1c0.2,0,0.4-0.1,0.5-0.2
		c0.1-0.1,0.2-0.3,0.2-0.5V144c0-0.2,0.1-0.3,0.3-0.4c0.9-0.3,1.7-0.6,2.5-1.1s1.5-1,2.2-1.6c0.1-0.1,0.3-0.1,0.5,0l2.9,1.7
		c0.2,0.1,0.4,0.1,0.5,0.1c0.2,0,0.3-0.2,0.4-0.3l0,0l2.1-3.6l0,0c0.1-0.2,0.1-0.4,0.1-0.5c0-0.2-0.2-0.3-0.3-0.4l-2.9-1.7
		c-0.2-0.1-0.2-0.3-0.2-0.4l0,0c0.1-0.4,0.2-0.9,0.2-1.3c0.1-0.4,0.1-0.9,0.1-1.4s0-0.9-0.1-1.4s-0.1-0.9-0.2-1.3
		c0-0.2,0-0.4,0.2-0.4l2.9-1.7c0.2-0.1,0.3-0.3,0.3-0.4c0-0.2,0-0.4-0.1-0.5l0,0l-2.1-3.6l0,0c-0.1-0.2-0.3-0.3-0.4-0.3
		c-0.2,0-0.4,0-0.5,0.1l0,0l-2.9,1.7c-0.2,0.1-0.3,0.1-0.5-0.1c-0.6-0.6-1.4-1.2-2.2-1.6c-0.8-0.4-1.6-0.8-2.5-1.1
		c-0.2,0-0.3-0.2-0.3-0.4v-3.4c0-0.2-0.1-0.4-0.2-0.5s-0.3-0.2-0.5-0.2h-4.1c-0.2,0-0.4,0.1-0.5,0.2s-0.2,0.3-0.2,0.5v3.4
		C471.9,122,471.8,122.2,471.7,122.2z"/>
	<path class="st24" d="M598.4,225.4c1.4-1.4,3-2.5,4.8-3.2c1.7-0.7,3.7-1.1,5.7-1.1s3.9,0.4,5.7,1.1c1.8,0.8,3.5,1.9,4.8,3.2
		c1.4,1.4,2.5,3,3.2,4.8s1.1,3.7,1.1,5.7s-0.4,3.9-1.1,5.7c-0.8,1.8-1.9,3.5-3.2,4.8c-1.4,1.4-3,2.5-4.8,3.2
		c-1.7,0.7-3.7,1.1-5.7,1.1s-3.9-0.4-5.7-1.1c-1.8-0.8-3.5-1.9-4.8-3.2c-1.4-1.4-2.5-3-3.2-4.8c-0.7-1.7-1.1-3.7-1.1-5.7
		s0.4-3.9,1.1-5.7C595.9,228.4,597,226.8,598.4,225.4L598.4,225.4z M603.7,223.4c-1.6,0.7-3.1,1.7-4.4,2.9c-1.2,1.2-2.2,2.7-2.9,4.4
		c-0.7,1.6-1,3.3-1,5.1s0.4,3.6,1,5.1c0.7,1.6,1.7,3.1,2.9,4.4c1.2,1.2,2.7,2.2,4.4,2.9c1.6,0.7,3.3,1,5.1,1s3.6-0.4,5.1-1
		c1.6-0.7,3.1-1.7,4.4-2.9c1.2-1.2,2.2-2.7,2.9-4.4c0.7-1.6,1-3.3,1-5.1s-0.4-3.6-1-5.1c-0.7-1.6-1.7-3.1-2.9-4.4
		c-1.2-1.2-2.7-2.2-4.4-2.9c-1.6-0.7-3.3-1-5.1-1S605.3,222.8,603.7,223.4L603.7,223.4z M602.1,212.5c-0.9,0.3-1.8,0.6-2.7,1
		s-1.8,0.8-2.6,1.3c-0.9,0.5-1.7,1-2.5,1.6s-1.5,1.2-2.3,1.9c-0.3,0.2-0.6,0.4-0.9,0.4c-0.3,0-0.7,0-1-0.2c-2.2-1.3-4.5-2.5-6.6-3.8
		c-0.1-0.1-0.2-0.1-0.3-0.1s-0.2,0-0.4,0c-0.1,0-0.2,0.1-0.3,0.2c-0.1,0.1-0.2,0.2-0.2,0.3c-1.6,2.4-3.2,5.5-4.7,8.1
		c-0.1,0.1-0.1,0.2-0.1,0.3s0,0.3,0,0.4c0,0.1,0.1,0.2,0.2,0.3c0.1,0.1,0.2,0.2,0.3,0.2c2,1.3,4.5,2.6,6.6,3.8
		c0.3,0.2,0.5,0.4,0.7,0.7c0,0.1,0.1,0.2,0.1,0.3h0.1l-0.2,0.6c-0.1,0.5-0.2,1-0.3,1.4c-0.1,0.5-0.2,1-0.2,1.5
		c-0.1,0.5-0.1,1-0.1,1.5s0,1,0,1.5s0,1,0,1.5s0.1,1,0.1,1.5c0.1,0.5,0.1,1,0.2,1.5c0.1,0.5,0.2,1,0.3,1.4s0,0.7-0.1,1
		s-0.4,0.6-0.7,0.7l-5.8,3.4l0,0l-0.7,0.4c-0.1,0.1-0.2,0.1-0.3,0.2c-0.1,0.1-0.1,0.2-0.2,0.3c0,0.1,0,0.3,0,0.4
		c0,0.1,0.1,0.2,0.1,0.3l4.3,7.5l0,0l0.3,0.6c0.1,0.1,0.1,0.2,0.2,0.3c0.1,0.1,0.2,0.1,0.3,0.2c0.1,0,0.3,0,0.4,0
		c0.1,0,0.2-0.1,0.3-0.1c2.1-1.3,4.4-2.6,6.6-3.8c0.3-0.2,0.6-0.2,1-0.2c0.3,0,0.6,0.2,0.9,0.4l0,0c0.7,0.7,1.5,1.3,2.3,1.9
		c0.8,0.6,1.6,1.1,2.5,1.6c0.8,0.5,1.7,0.9,2.6,1.3c0.9,0.4,1.8,0.7,2.8,1c0.3,0.1,0.6,0.3,0.8,0.6c0.2,0.3,0.3,0.6,0.3,0.9v7.6
		c0,0.1,0,0.2,0.1,0.4c0,0.1,0.1,0.2,0.2,0.3c0.1,0.1,0.2,0.2,0.3,0.2s0.2,0.1,0.4,0.1h9.3c0.1,0,0.2,0,0.4-0.1
		c0.1,0,0.2-0.1,0.3-0.2s0.2-0.2,0.2-0.3c0-0.1,0.1-0.2,0.1-0.4v-7.6c0-0.4,0.1-0.7,0.3-1s0.5-0.5,0.9-0.6c0.9-0.3,1.8-0.6,2.7-1
		s1.8-0.8,2.6-1.3c0.9-0.5,1.7-1,2.5-1.6s1.6-1.2,2.3-1.9c0.3-0.3,0.6-0.4,0.9-0.4c0.3,0,0.7,0.1,1,0.3l6.5,3.7
		c0.1,0.1,0.2,0.1,0.3,0.1s0.3,0,0.4,0c0.1,0,0.2-0.1,0.3-0.2s0.2-0.2,0.2-0.3c1.5-2.7,3.1-5.4,4.6-8.1c0.1-0.1,0.1-0.2,0.1-0.3
		s0-0.3,0-0.4c0-0.1-0.1-0.2-0.2-0.3c-0.1-0.1-0.2-0.2-0.3-0.2l-6.6-3.8c-0.3-0.2-0.5-0.4-0.7-0.7c0-0.1-0.1-0.2-0.1-0.3H632
		l0.2-0.7c0.1-0.5,0.2-1,0.3-1.4c0.1-0.5,0.2-1,0.2-1.5c0.1-0.5,0.1-1,0.1-1.5s0-1,0-1.5s0-1,0-1.5s-0.1-1-0.1-1.5
		c-0.1-0.5-0.1-1-0.2-1.5c-0.1-0.5-0.2-1-0.3-1.4s0-0.7,0.1-1s0.4-0.6,0.7-0.7l6.5-3.8c0.1-0.1,0.2-0.1,0.3-0.2
		c0.1-0.1,0.1-0.2,0.2-0.3c0-0.1,0-0.3,0-0.4c0-0.1-0.1-0.2-0.1-0.3c-1.6-2.4-3.2-5.5-4.6-8.1c-0.1-0.1-0.1-0.2-0.2-0.3
		c-0.1-0.1-0.2-0.1-0.3-0.2c-0.1,0-0.3,0-0.4,0c-0.1,0-0.2,0.1-0.3,0.1l-6.6,3.8c-0.3,0.2-0.7,0.2-1,0.2s-0.6-0.2-0.9-0.4
		c-0.7-0.7-1.5-1.3-2.2-1.9c-0.8-0.6-1.6-1.1-2.5-1.6c-0.8-0.5-1.7-0.9-2.6-1.3c-0.9-0.4-1.8-0.7-2.8-1c-0.3-0.1-0.6-0.3-0.8-0.6
		s-0.3-0.6-0.3-0.9v-7.6c0-0.1,0-0.2-0.1-0.4c0-0.1-0.1-0.2-0.2-0.3c-0.1-0.1-0.2-0.2-0.3-0.2s-0.2-0.1-0.4-0.1h-9.3
		c-0.1,0-0.2,0-0.4,0.1c-0.1,0-0.2,0.1-0.3,0.2c-0.2,0.2-0.3,0.4-0.3,0.7v7.6c0,0.4-0.1,0.7-0.3,1
		C602.7,212.3,602.4,212.4,602.1,212.5L602.1,212.5z M598.8,212.2c-1,0.4-1.9,0.9-2.8,1.4c-0.9,0.5-1.8,1.1-2.6,1.7
		c-0.8,0.6-1.6,1.3-2.4,2h-0.1h-0.1c-2.2-1.3-4.4-2.5-6.6-3.8c-0.3-0.1-0.5-0.2-0.8-0.3c-0.3,0-0.6,0-0.9,0.1
		c-0.3,0.1-0.6,0.2-0.8,0.4s-0.4,0.4-0.6,0.7c-1.6,2.6-3.1,5.4-4.7,8.1c-0.2,0.3-0.2,0.6-0.3,0.9c0,0.3,0,0.6,0.1,0.9
		c0.1,0.3,0.2,0.6,0.4,0.8s0.4,0.4,0.7,0.6c2.1,1.3,4.4,2.5,6.6,3.8c0,0,0.1,0,0.1,0.1v0.1l-0.2,0.6l0,0c-0.1,0.3-0.1,0.6-0.2,0.9
		c-0.1,0.5-0.2,1-0.2,1.5c-0.1,0.5-0.1,1-0.1,1.6c0,0.5,0,1.1,0,1.6s0,1,0,1.6c0,0.5,0.1,1.1,0.1,1.6c0.1,0.5,0.1,1,0.2,1.5
		c0.1,0.5,0.2,1,0.3,1.5v0.1c0,0,0,0.1-0.1,0.1c-2.4,1.3-4.9,2.8-7.2,4.2l0.1,0.1l-0.1,0.1c-0.2,0.2-0.3,0.5-0.4,0.8
		c-0.1,0.3-0.1,0.6-0.1,0.9c0,0.3,0.1,0.6,0.3,0.9l5,8.7l0.1-0.1c0,0,0.1,0.1,0.2,0.1c0.2,0.2,0.5,0.3,0.8,0.4s0.6,0.1,0.9,0.1
		c0.3,0,0.6-0.1,0.8-0.3c2.2-1.2,4.4-2.6,6.6-3.8h0.1h0.1c0.8,0.7,1.5,1.4,2.4,2c0.8,0.6,1.7,1.2,2.6,1.7c0.9,0.5,1.8,1,2.8,1.4
		s1.9,0.8,2.9,1c0,0,0.1,0,0.1,0.1v0.1v7.6c0,0.3,0.1,0.6,0.2,0.9c0.1,0.3,0.3,0.5,0.5,0.8c0.2,0.2,0.5,0.4,0.7,0.5
		c0.3,0.1,0.6,0.2,0.9,0.2h9.3c0.3,0,0.6-0.1,0.9-0.2c0.3-0.1,0.5-0.3,0.8-0.5c0.2-0.2,0.4-0.5,0.5-0.8s0.2-0.6,0.2-0.9v-7.6v-0.1
		l0.1-0.1l0,0c1-0.3,2-0.6,2.9-1c1-0.4,1.9-0.9,2.8-1.4c0.9-0.5,1.8-1.1,2.6-1.7s1.6-1.3,2.4-2c0,0,0.1,0,0.1-0.1h0.1l6.6,3.8
		c0.3,0.2,0.6,0.3,0.9,0.3c0.3,0,0.6,0,0.9-0.1c0.3-0.1,0.6-0.2,0.8-0.4c0.2-0.2,0.4-0.4,0.6-0.7c1.7-2.8,3.4-5.8,5-8.7l-0.1-0.1
		c0-0.1,0-0.1,0-0.2c0-0.3,0-0.6-0.1-0.9c-0.1-0.3-0.2-0.6-0.4-0.8s-0.4-0.4-0.7-0.6l-6.6-3.8l-0.1-0.1v-0.1l0.2-0.7l0,0
		c0.1-0.3,0.1-0.5,0.2-0.8c0.1-0.5,0.2-1,0.2-1.5c0.1-0.5,0.1-1,0.1-1.6c0-0.5,0-1.1,0-1.6s0-1,0-1.6c0-0.5-0.1-1.1-0.1-1.6
		c-0.1-0.5-0.1-1-0.2-1.5c-0.1-0.5-0.2-1-0.3-1.5v-0.1c0,0,0-0.1,0.1-0.1l6.6-3.8c0.3-0.2,0.5-0.4,0.7-0.6c0.2-0.2,0.3-0.5,0.4-0.8
		c0.1-0.3,0.1-0.6,0.1-0.9c0-0.3-0.1-0.6-0.3-0.8c-1.6-2.9-3.4-5.8-5-8.7l-0.1,0.1c0,0-0.1-0.1-0.2-0.1c-0.2-0.2-0.5-0.3-0.8-0.4
		c-0.3-0.1-0.6-0.1-0.9-0.1c-0.3,0-0.6,0.1-0.9,0.3l-0.5,0.3l0,0l-6.1,3.5h-0.1c0,0-0.1,0-0.1-0.1l0,0c-0.7-0.7-1.5-1.4-2.4-2
		c-0.8-0.6-1.7-1.2-2.6-1.7c-0.9-0.5-1.8-1-2.8-1.4s-1.9-0.8-2.9-1c0,0-0.1,0-0.1-0.1v-0.1v-7.6c0-0.3-0.1-0.6-0.2-0.9
		c-0.1-0.3-0.3-0.5-0.5-0.8c-0.2-0.2-0.5-0.4-0.7-0.5c-0.3-0.1-0.6-0.2-0.9-0.2h-9.3c-0.3,0-0.6,0.1-0.9,0.2
		c-0.3,0.1-0.5,0.3-0.8,0.5c-0.4,0.4-0.7,1-0.7,1.6v7.6v0.1l-0.1,0.1l0,0C600.7,211.5,599.7,211.8,598.8,212.2z"/>
	<path class="st3" d="M70.2,96.9c0-0.6-0.5-1.1-1.1-1.1S68,96.3,68,96.9v2.5h-2.5c-0.6,0-1.1,0.5-1.1,1.1s0.5,1.1,1.1,1.1H68v2.5
		c0,0.6,0.5,1.1,1.1,1.1s1.1-0.5,1.1-1.1v-2.5h2.5c0.6,0,1.1-0.5,1.1-1.1s-0.5-1.1-1.1-1.1h-2.5V96.9z"/>
	<path class="st3" d="M257.1,34.6c0-0.6-0.5-1.1-1.1-1.1s-1.1,0.5-1.1,1.1v2.5h-2.5c-0.6,0-1.1,0.5-1.1,1.1s0.5,1.1,1.1,1.1h2.5v2.5
		c0,0.6,0.5,1.1,1.1,1.1s1.1-0.5,1.1-1.1v-2.5h2.5c0.6,0,1.1-0.5,1.1-1.1s-0.5-1.1-1.1-1.1h-2.5V34.6z"/>
	<path class="st3" d="M356.1,27.3c0-0.6-0.5-1.1-1.1-1.1s-1.1,0.5-1.1,1.1v2.5h-2.5c-0.6,0-1.1,0.5-1.1,1.1s0.5,1.1,1.1,1.1h2.5v2.5
		c0,0.6,0.5,1.1,1.1,1.1s1.1-0.5,1.1-1.1V32h2.5c0.6,0,1.1-0.5,1.1-1.1s-0.5-1.1-1.1-1.1h-2.5V27.3z"/>
	<path class="st3" d="M539.4,249.7c0-0.6-0.5-1.1-1.1-1.1s-1.1,0.5-1.1,1.1v2.5h-2.5c-0.6,0-1.1,0.5-1.1,1.1s0.5,1.1,1.1,1.1h2.5
		v2.5c0,0.6,0.5,1.1,1.1,1.1s1.1-0.5,1.1-1.1v-2.5h2.5c0.6,0,1.1-0.5,1.1-1.1s-0.5-1.1-1.1-1.1h-2.5V249.7z"/>
	<path class="st3" d="M121.5,346.2c0-0.6-0.5-1.1-1.1-1.1s-1.1,0.5-1.1,1.1v2.5h-2.5c-0.6,0-1.1,0.5-1.1,1.1s0.5,1.1,1.1,1.1h2.5
		v2.5c0,0.6,0.5,1.1,1.1,1.1s1.1-0.5,1.1-1.1v-2.5h2.5c0.6,0,1.1-0.5,1.1-1.1s-0.5-1.1-1.1-1.1h-2.5V346.2z"/>
	<path class="st3" d="M71.3,166.6c0-0.6-0.5-1.1-1.1-1.1s-1.1,0.5-1.1,1.1v2.5h-2.5c-0.6,0-1.1,0.5-1.1,1.1s0.5,1.1,1.1,1.1h2.5v2.5
		c0,0.6,0.5,1.1,1.1,1.1s1.1-0.5,1.1-1.1v-2.5h2.5c0.6,0,1.1-0.5,1.1-1.1s-0.5-1.1-1.1-1.1h-2.5V166.6z"/>
	<g>
		<path class="st2" d="M459.6,389.9H353.8c-2.1,0-3.9-1.7-3.9-3.9V277.6c0-2.1,1.7-3.9,3.9-3.9h105.8c2.1,0,3.9,1.7,3.9,3.9V386
			C463.5,388.1,461.7,389.9,459.6,389.9z"/>
		<path class="st21" d="M481.5,389.9h-38.3c-2.1,0-3.9-1.7-3.9-3.9V277.6c0-2.1,1.7-3.9,3.9-3.9h38.3c2.1,0,3.9,1.7,3.9,3.9V386
			C485.3,388.1,483.6,389.9,481.5,389.9z"/>
		<path class="st34" d="M476.1,283.2h-27.5c-1.2,0-2.1,0.9-2.1,2.1v1.9c0,1.2,1,2.1,2.1,2.1h27.5c1.2,0,2.1-1,2.1-2.1v-1.9
			C478.2,284.1,477.2,283.2,476.1,283.2z"/>
		<path class="st35" d="M475.4,285.3c0-1.2-1-2.1-2.1-2.1h2.7c1.2,0,2.1,0.9,2.1,2.1v1.9c0,1.2-0.9,2.1-2.1,2.1h-2.7
			c0.1,0,2.1-1,2.1-2.1V285.3z"/>
		<path class="st34" d="M476.1,292.6h-27.5c-1.2,0-2.1,1-2.1,2.1v1.9c0,1.2,1,2.1,2.1,2.1h27.5c1.2,0,2.1-0.9,2.1-2.1v-1.9
			C478.2,293.5,477.2,292.6,476.1,292.6z"/>
		<path class="st35" d="M475.4,294.7c0-1.2-1-2.1-2.1-2.1h2.7c1.2,0,2.1,1,2.1,2.1v1.9c0,1.2-0.9,2.1-2.1,2.1h-2.7
			c0.1,0,2.1-0.9,2.1-2.1V294.7z"/>
		<path class="st34" d="M476.1,302h-27.5c-1.2,0-2.1,0.9-2.1,2.1v1.9c0,1.2,1,2.1,2.1,2.1h27.5c1.2,0,2.1-1,2.1-2.1v-1.9
			C478.2,303,477.2,302,476.1,302z"/>
		<path class="st35" d="M475.4,304.1c0-1.2-1-2.1-2.1-2.1h2.7c1.2,0,2.1,0.9,2.1,2.1v1.9c0,1.2-0.9,2.1-2.1,2.1h-2.7
			c0.1,0,2.1-1,2.1-2.1V304.1z"/>
		<path class="st34" d="M476.1,311.4h-27.5c-1.2,0-2.1,1-2.1,2.1v1.9c0,1.2,1,2.1,2.1,2.1h27.5c1.2,0,2.1-0.9,2.1-2.1v-1.9
			C478.2,312.4,477.2,311.4,476.1,311.4z"/>
		<path class="st35" d="M475.4,313.6c0-1.2-1-2.1-2.1-2.1h2.7c1.2,0,2.1,1,2.1,2.1v1.9c0,1.2-0.9,2.1-2.1,2.1h-2.7
			c0.1,0,2.1-0.9,2.1-2.1V313.6z"/>
		<path class="st34" d="M470.3,339.7h-16c-4.7,0-8.6,3.9-8.6,8.6v16.2c0,4.7,3.9,8.6,8.6,8.6h16c4.7,0,8.6-3.9,8.6-8.6v-16.2
			C478.9,343.6,475.1,339.7,470.3,339.7z"/>
		<path class="st35" d="M475.7,348.3c0-4.7-3.9-8.6-8.6-8.6h3.2c4.7,0,8.6,3.9,8.6,8.6v16.2c0,4.7-3.9,8.6-8.6,8.6h-3.2
			c4.7,0,8.6-3.9,8.6-8.6V348.3z"/>
		<path class="st36" d="M463.3,339.7h-1.9v9.7c-3.1,0.4-5.6,2.9-6,6h-9.7v1.9h9.7c0.4,3.1,2.9,5.6,6,6v9.7h1.9v-9.7
			c3.1-0.4,5.6-2.9,6-6h9.7v-1.9h-9.7c-0.4-3.1-2.9-5.6-6-6V339.7L463.3,339.7z M462.3,361.5c-2.8,0-5.2-2.3-5.2-5.2
			c0-2.9,2.3-5.2,5.2-5.2c2.8,0,5.2,2.3,5.2,5.2S465.2,361.5,462.3,361.5z"/>
		<g>
			<path class="st34" d="M458.1,330.7h-10.3c-1.2,0-2.1,1-2.1,2.1v1.9c0,1.2,1,2.1,2.1,2.1h10.3c1.2,0,2.1-0.9,2.1-2.1v-1.9
				C460.3,331.6,459.3,330.7,458.1,330.7z"/>
			<path class="st35" d="M457.5,332.8c0-1.2-1-2.1-2.1-2.1h2.7c1.2,0,2.1,1,2.1,2.1v1.9c0,1.2-1,2.1-2.1,2.1h-2.7
				c0.1,0,2.1-0.9,2.1-2.1V332.8z"/>
		</g>
		<g>
			<path class="st34" d="M458.1,321.5h-10.3c-1.2,0-2.1,1-2.1,2.1v1.9c0,1.2,1,2.1,2.1,2.1h10.3c1.2,0,2.1-0.9,2.1-2.1v-1.9
				C460.3,322.5,459.3,321.5,458.1,321.5z"/>
			<path class="st35" d="M457.5,323.6c0-1.2-1-2.1-2.1-2.1h2.7c1.2,0,2.1,1,2.1,2.1v1.9c0,1.2-1,2.1-2.1,2.1h-2.7
				c0.1,0,2.1-0.9,2.1-2.1V323.6z"/>
		</g>
		<path class="st21" d="M399.1,285.5h-25.7c-7.6,0-13.8,6.2-13.8,13.8v26c0,7.6,6.2,13.8,13.8,13.8h25.7c7.6,0,13.8-6.2,13.8-13.8
			v-26C412.9,291.8,406.7,285.5,399.1,285.5z"/>
		<path class="st20" d="M398.3,287.3h-23.9c-7.1,0-12.9,5.8-12.9,12.9v24.2c0,7.1,5.8,12.9,12.9,12.9h23.9c7.1,0,12.9-5.8,12.9-12.9
			v-24.2C411.1,293.1,405.3,287.3,398.3,287.3z"/>
		<path class="st37" d="M365.6,333.9c2.3,2.1,5.4,3.5,8.8,3.5h23.9c7.1,0,12.9-5.8,12.9-12.9v-19.2h-11.1v-13.6h-26.4v28.8h-8.1
			L365.6,333.9L365.6,333.9z"/>
		<path class="st21" d="M423.7,348.7h-1.6c0.2,0.5,0.7,0.8,1.3,0.8c0.5,0,1-0.3,1.3-0.8C424.4,348.8,424.1,348.7,423.7,348.7
			L423.7,348.7z M421,348.7h-2.6c0.2,0.5,0.7,0.8,1.3,0.8C420.3,349.5,420.8,349.2,421,348.7L421,348.7z M417.3,348.7h-2.6
			c0.2,0.5,0.7,0.8,1.3,0.8C416.5,349.5,417,349.2,417.3,348.7L417.3,348.7z M413.5,348.7h-2.6c0.2,0.5,0.7,0.8,1.3,0.8
			C412.8,349.5,413.3,349.2,413.5,348.7L413.5,348.7z M409.8,348.7h-1.6c-0.3,0-0.7,0-1,0.1c0.2,0.5,0.7,0.8,1.3,0.8
			C409,349.5,409.5,349.2,409.8,348.7L409.8,348.7z M405.8,349.1c-0.4,0.1-0.8,0.3-1.2,0.5h0.1C405.1,349.5,405.5,349.4,405.8,349.1
			L405.8,349.1z M402.2,351.2c-0.6,0.6-1.1,1.3-1.5,2.1c0.1,0,0.1,0,0.2,0c0.8,0,1.4-0.6,1.4-1.4
			C402.4,351.6,402.3,351.4,402.2,351.2L402.2,351.2z M400.3,354.4c-0.2,0.7-0.4,1.4-0.4,2.1c0.3,0.3,0.7,0.6,1.1,0.6
			c0.8,0,1.4-0.6,1.4-1.4s-0.6-1.4-1.4-1.4C400.7,354.2,400.5,354.2,400.3,354.4L400.3,354.4z M399.8,358.5v1.7
			c0.3,0.4,0.7,0.6,1.2,0.6c0.8,0,1.4-0.6,1.4-1.4s-0.6-1.4-1.4-1.4C400.5,357.9,400.1,358.2,399.8,358.5L399.8,358.5z M399.8,362.3
			v1.7c0.3,0.4,0.7,0.6,1.2,0.6c0.8,0,1.4-0.6,1.4-1.4s-0.6-1.4-1.4-1.4C400.5,361.7,400.1,361.9,399.8,362.3L399.8,362.3z
			 M399.8,366v1.7c0.3,0.4,0.7,0.6,1.2,0.6c0.8,0,1.4-0.6,1.4-1.4s-0.6-1.4-1.4-1.4C400.5,365.4,400.1,365.7,399.8,366L399.8,366z
			 M399.8,369.8v1.7c0.3,0.4,0.7,0.6,1.2,0.6c0.8,0,1.4-0.6,1.4-1.4s-0.6-1.4-1.4-1.4C400.5,369.2,400.1,369.4,399.8,369.8
			L399.8,369.8z M399.8,373.5c0.1,0.7,0.2,1.5,0.4,2.1c0.2,0.1,0.4,0.2,0.7,0.2c0.8,0,1.4-0.6,1.4-1.4s-0.6-1.4-1.4-1.4
			C400.5,372.9,400.1,373.1,399.8,373.5L399.8,373.5z M400.7,376.7c0.4,0.8,0.9,1.5,1.5,2.1c0.1-0.2,0.2-0.4,0.2-0.6
			c0-0.8-0.6-1.4-1.4-1.4C400.9,376.7,400.8,376.7,400.7,376.7L400.7,376.7z M404.6,380.4c0.4,0.2,0.8,0.3,1.2,0.4
			c-0.3-0.3-0.6-0.5-1-0.5C404.7,380.4,404.6,380.4,404.6,380.4L404.6,380.4z M407.2,381.2c0.3,0,0.6,0.1,1,0.1h1.6
			c-0.2-0.5-0.7-0.8-1.3-0.8C407.9,380.4,407.4,380.7,407.2,381.2L407.2,381.2z M410.9,381.2h2.6c-0.2-0.5-0.7-0.8-1.3-0.8
			C411.6,380.4,411.1,380.7,410.9,381.2L410.9,381.2z M414.7,381.2h2.6c-0.2-0.5-0.7-0.8-1.3-0.8
			C415.4,380.4,414.9,380.7,414.7,381.2L414.7,381.2z M418.4,381.2h2.6c-0.2-0.5-0.7-0.8-1.3-0.8
			C419.1,380.4,418.6,380.7,418.4,381.2L418.4,381.2z M422.2,381.2h1.6c0.3,0,0.7,0,1-0.1c-0.2-0.4-0.7-0.8-1.3-0.8
			C422.9,380.4,422.4,380.7,422.2,381.2L422.2,381.2z M426.2,380.9c0.4-0.1,0.8-0.3,1.2-0.4h-0.1
			C426.8,380.4,426.4,380.6,426.2,380.9L426.2,380.9z M429.7,378.7c0.6-0.6,1.1-1.3,1.5-2.1c-0.1,0-0.2,0-0.2,0
			c-0.8,0-1.4,0.6-1.4,1.4C429.5,378.3,429.6,378.6,429.7,378.7L429.7,378.7z M431.6,375.6c0.2-0.7,0.4-1.4,0.4-2.1
			c-0.3-0.3-0.7-0.6-1.1-0.6c-0.8,0-1.4,0.6-1.4,1.4s0.6,1.4,1.4,1.4C431.2,375.8,431.4,375.7,431.6,375.6L431.6,375.6z
			 M432.1,371.5v-1.7c-0.3-0.4-0.7-0.6-1.2-0.6c-0.8,0-1.4,0.6-1.4,1.4s0.6,1.4,1.4,1.4C431.4,372,431.9,371.8,432.1,371.5
			L432.1,371.5z M432.1,367.7V366c-0.3-0.4-0.7-0.6-1.2-0.6c-0.8,0-1.4,0.6-1.4,1.4s0.6,1.4,1.4,1.4
			C431.4,368.3,431.9,368.1,432.1,367.7L432.1,367.7z M432.1,364v-1.7c-0.3-0.4-0.7-0.6-1.2-0.6c-0.8,0-1.4,0.6-1.4,1.4
			s0.6,1.4,1.4,1.4C431.4,364.5,431.9,364.3,432.1,364L432.1,364z M432.1,360.2v-1.7c-0.3-0.4-0.7-0.6-1.2-0.6
			c-0.8,0-1.4,0.6-1.4,1.4s0.6,1.4,1.4,1.4C431.4,360.8,431.9,360.6,432.1,360.2L432.1,360.2z M432.1,356.5
			c-0.1-0.7-0.2-1.5-0.4-2.1c-0.2-0.1-0.4-0.2-0.7-0.2c-0.8,0-1.4,0.6-1.4,1.4s0.6,1.4,1.4,1.4C431.4,357,431.8,356.8,432.1,356.5
			L432.1,356.5z M431.2,353.3c-0.4-0.8-0.9-1.5-1.5-2.1c-0.1,0.2-0.2,0.4-0.2,0.6c0,0.8,0.6,1.4,1.4,1.4
			C431,353.3,431.1,353.3,431.2,353.3L431.2,353.3z M427.3,349.5c-0.4-0.2-0.8-0.3-1.2-0.5c0.3,0.3,0.6,0.5,1,0.5
			C427.2,349.5,427.3,349.5,427.3,349.5L427.3,349.5z M404.7,379.5c-0.8,0-1.4-0.6-1.4-1.4s0.6-1.4,1.4-1.4s1.4,0.6,1.4,1.4
			S405.5,379.5,404.7,379.5L404.7,379.5z M408.5,379.5c-0.8,0-1.4-0.6-1.4-1.4s0.6-1.4,1.4-1.4s1.4,0.6,1.4,1.4
			S409.3,379.5,408.5,379.5L408.5,379.5z M412.2,379.5c-0.8,0-1.4-0.6-1.4-1.4s0.6-1.4,1.4-1.4s1.4,0.6,1.4,1.4
			S413,379.5,412.2,379.5L412.2,379.5z M416,379.5c-0.8,0-1.4-0.6-1.4-1.4s0.6-1.4,1.4-1.4s1.4,0.6,1.4,1.4S416.8,379.5,416,379.5
			L416,379.5z M419.7,379.5c-0.8,0-1.4-0.6-1.4-1.4s0.6-1.4,1.4-1.4s1.4,0.6,1.4,1.4S420.5,379.5,419.7,379.5L419.7,379.5z
			 M423.5,379.5c-0.8,0-1.4-0.6-1.4-1.4s0.6-1.4,1.4-1.4s1.4,0.6,1.4,1.4S424.3,379.5,423.5,379.5L423.5,379.5z M427.2,379.5
			c-0.8,0-1.4-0.6-1.4-1.4s0.6-1.4,1.4-1.4s1.4,0.6,1.4,1.4S428,379.5,427.2,379.5L427.2,379.5z M404.7,372.9
			c-0.8,0-1.4,0.6-1.4,1.4s0.6,1.4,1.4,1.4s1.4-0.6,1.4-1.4C406.1,373.6,405.5,372.9,404.7,372.9L404.7,372.9z M408.5,372.9
			c-0.8,0-1.4,0.6-1.4,1.4s0.6,1.4,1.4,1.4s1.4-0.6,1.4-1.4C409.9,373.6,409.3,372.9,408.5,372.9L408.5,372.9z M412.2,372.9
			c-0.8,0-1.4,0.6-1.4,1.4s0.6,1.4,1.4,1.4s1.4-0.6,1.4-1.4C413.6,373.6,413,372.9,412.2,372.9L412.2,372.9z M416,372.9
			c-0.8,0-1.4,0.6-1.4,1.4s0.6,1.4,1.4,1.4s1.4-0.6,1.4-1.4C417.4,373.6,416.8,372.9,416,372.9L416,372.9z M419.7,372.9
			c-0.8,0-1.4,0.6-1.4,1.4s0.6,1.4,1.4,1.4s1.4-0.6,1.4-1.4C421.1,373.6,420.5,372.9,419.7,372.9L419.7,372.9z M423.5,372.9
			c-0.8,0-1.4,0.6-1.4,1.4s0.6,1.4,1.4,1.4s1.4-0.6,1.4-1.4C424.9,373.6,424.3,372.9,423.5,372.9L423.5,372.9z M427.2,372.9
			c-0.8,0-1.4,0.6-1.4,1.4s0.6,1.4,1.4,1.4s1.4-0.6,1.4-1.4C428.6,373.6,428,372.9,427.2,372.9L427.2,372.9z M404.7,372
			c-0.8,0-1.4-0.6-1.4-1.4s0.6-1.4,1.4-1.4s1.4,0.6,1.4,1.4S405.5,372,404.7,372L404.7,372z M408.5,372c-0.8,0-1.4-0.6-1.4-1.4
			s0.6-1.4,1.4-1.4s1.4,0.6,1.4,1.4S409.3,372,408.5,372L408.5,372z M412.2,372c-0.8,0-1.4-0.6-1.4-1.4s0.6-1.4,1.4-1.4
			s1.4,0.6,1.4,1.4S413,372,412.2,372L412.2,372z M416,372c-0.8,0-1.4-0.6-1.4-1.4s0.6-1.4,1.4-1.4s1.4,0.6,1.4,1.4
			S416.8,372,416,372L416,372z M419.7,372c-0.8,0-1.4-0.6-1.4-1.4s0.6-1.4,1.4-1.4s1.4,0.6,1.4,1.4S420.5,372,419.7,372L419.7,372z
			 M423.5,372c-0.8,0-1.4-0.6-1.4-1.4s0.6-1.4,1.4-1.4s1.4,0.6,1.4,1.4S424.3,372,423.5,372L423.5,372z M427.2,372
			c-0.8,0-1.4-0.6-1.4-1.4s0.6-1.4,1.4-1.4s1.4,0.6,1.4,1.4S428,372,427.2,372L427.2,372z M404.7,365.4c-0.8,0-1.4,0.6-1.4,1.4
			s0.6,1.4,1.4,1.4s1.4-0.6,1.4-1.4S405.5,365.4,404.7,365.4L404.7,365.4z M408.5,365.4c-0.8,0-1.4,0.6-1.4,1.4s0.6,1.4,1.4,1.4
			s1.4-0.6,1.4-1.4S409.3,365.4,408.5,365.4L408.5,365.4z M412.2,365.4c-0.8,0-1.4,0.6-1.4,1.4s0.6,1.4,1.4,1.4s1.4-0.6,1.4-1.4
			S413,365.4,412.2,365.4L412.2,365.4z M416,365.4c-0.8,0-1.4,0.6-1.4,1.4s0.6,1.4,1.4,1.4s1.4-0.6,1.4-1.4S416.8,365.4,416,365.4
			L416,365.4z M419.7,365.4c-0.8,0-1.4,0.6-1.4,1.4s0.6,1.4,1.4,1.4s1.4-0.6,1.4-1.4S420.5,365.4,419.7,365.4L419.7,365.4z
			 M423.5,365.4c-0.8,0-1.4,0.6-1.4,1.4s0.6,1.4,1.4,1.4s1.4-0.6,1.4-1.4S424.3,365.4,423.5,365.4L423.5,365.4z M427.2,365.4
			c-0.8,0-1.4,0.6-1.4,1.4s0.6,1.4,1.4,1.4s1.4-0.6,1.4-1.4S428,365.4,427.2,365.4L427.2,365.4z M404.7,364.5
			c-0.8,0-1.4-0.6-1.4-1.4s0.6-1.4,1.4-1.4s1.4,0.6,1.4,1.4S405.5,364.5,404.7,364.5L404.7,364.5z M408.5,364.5
			c-0.8,0-1.4-0.6-1.4-1.4s0.6-1.4,1.4-1.4s1.4,0.6,1.4,1.4S409.3,364.5,408.5,364.5L408.5,364.5z M412.2,364.5
			c-0.8,0-1.4-0.6-1.4-1.4s0.6-1.4,1.4-1.4s1.4,0.6,1.4,1.4S413,364.5,412.2,364.5L412.2,364.5z M416,364.5c-0.8,0-1.4-0.6-1.4-1.4
			s0.6-1.4,1.4-1.4s1.4,0.6,1.4,1.4S416.8,364.5,416,364.5L416,364.5z M419.7,364.5c-0.8,0-1.4-0.6-1.4-1.4s0.6-1.4,1.4-1.4
			s1.4,0.6,1.4,1.4S420.5,364.5,419.7,364.5L419.7,364.5z M423.5,364.5c-0.8,0-1.4-0.6-1.4-1.4s0.6-1.4,1.4-1.4s1.4,0.6,1.4,1.4
			S424.3,364.5,423.5,364.5L423.5,364.5z M427.2,364.5c-0.8,0-1.4-0.6-1.4-1.4s0.6-1.4,1.4-1.4s1.4,0.6,1.4,1.4
			S428,364.5,427.2,364.5L427.2,364.5z M404.7,357.9c-0.8,0-1.4,0.6-1.4,1.4s0.6,1.4,1.4,1.4s1.4-0.6,1.4-1.4
			C406.1,358.6,405.5,357.9,404.7,357.9L404.7,357.9z M408.5,357.9c-0.8,0-1.4,0.6-1.4,1.4s0.6,1.4,1.4,1.4s1.4-0.6,1.4-1.4
			C409.9,358.6,409.3,357.9,408.5,357.9L408.5,357.9z M412.2,357.9c-0.8,0-1.4,0.6-1.4,1.4s0.6,1.4,1.4,1.4s1.4-0.6,1.4-1.4
			C413.6,358.6,413,357.9,412.2,357.9L412.2,357.9z M416,357.9c-0.8,0-1.4,0.6-1.4,1.4s0.6,1.4,1.4,1.4s1.4-0.6,1.4-1.4
			C417.4,358.6,416.8,357.9,416,357.9L416,357.9z M419.7,357.9c-0.8,0-1.4,0.6-1.4,1.4s0.6,1.4,1.4,1.4s1.4-0.6,1.4-1.4
			C421.1,358.6,420.5,357.9,419.7,357.9L419.7,357.9z M423.5,357.9c-0.8,0-1.4,0.6-1.4,1.4s0.6,1.4,1.4,1.4s1.4-0.6,1.4-1.4
			C424.9,358.6,424.3,357.9,423.5,357.9L423.5,357.9z M427.2,357.9c-0.8,0-1.4,0.6-1.4,1.4s0.6,1.4,1.4,1.4s1.4-0.6,1.4-1.4
			C428.6,358.6,428,357.9,427.2,357.9L427.2,357.9z M404.7,357c-0.8,0-1.4-0.6-1.4-1.4s0.6-1.4,1.4-1.4s1.4,0.6,1.4,1.4
			S405.5,357,404.7,357L404.7,357z M408.5,357c-0.8,0-1.4-0.6-1.4-1.4s0.6-1.4,1.4-1.4s1.4,0.6,1.4,1.4S409.3,357,408.5,357
			L408.5,357z M412.2,357c-0.8,0-1.4-0.6-1.4-1.4s0.6-1.4,1.4-1.4s1.4,0.6,1.4,1.4S413,357,412.2,357L412.2,357z M416,357
			c-0.8,0-1.4-0.6-1.4-1.4s0.6-1.4,1.4-1.4s1.4,0.6,1.4,1.4S416.8,357,416,357L416,357z M419.7,357c-0.8,0-1.4-0.6-1.4-1.4
			s0.6-1.4,1.4-1.4s1.4,0.6,1.4,1.4S420.5,357,419.7,357L419.7,357z M423.5,357c-0.8,0-1.4-0.6-1.4-1.4s0.6-1.4,1.4-1.4
			s1.4,0.6,1.4,1.4S424.3,357,423.5,357L423.5,357z M427.2,357c-0.8,0-1.4-0.6-1.4-1.4s0.6-1.4,1.4-1.4s1.4,0.6,1.4,1.4
			S428,357,427.2,357L427.2,357z M404.7,350.4c-0.8,0-1.4,0.6-1.4,1.4s0.6,1.4,1.4,1.4s1.4-0.6,1.4-1.4
			C406.1,351.1,405.5,350.4,404.7,350.4L404.7,350.4z M408.5,350.4c-0.8,0-1.4,0.6-1.4,1.4s0.6,1.4,1.4,1.4s1.4-0.6,1.4-1.4
			C409.9,351.1,409.3,350.4,408.5,350.4L408.5,350.4z M412.2,350.4c-0.8,0-1.4,0.6-1.4,1.4s0.6,1.4,1.4,1.4s1.4-0.6,1.4-1.4
			C413.6,351.1,413,350.4,412.2,350.4L412.2,350.4z M416,350.4c-0.8,0-1.4,0.6-1.4,1.4s0.6,1.4,1.4,1.4s1.4-0.6,1.4-1.4
			C417.4,351.1,416.8,350.4,416,350.4L416,350.4z M419.7,350.4c-0.8,0-1.4,0.6-1.4,1.4s0.6,1.4,1.4,1.4s1.4-0.6,1.4-1.4
			C421.1,351.1,420.5,350.4,419.7,350.4L419.7,350.4z M423.5,350.4c-0.8,0-1.4,0.6-1.4,1.4s0.6,1.4,1.4,1.4s1.4-0.6,1.4-1.4
			C424.9,351.1,424.3,350.4,423.5,350.4L423.5,350.4z M427.2,350.4c-0.8,0-1.4,0.6-1.4,1.4s0.6,1.4,1.4,1.4s1.4-0.6,1.4-1.4
			C428.6,351.1,428,350.4,427.2,350.4z"/>
		<g>
			<path class="st21" d="M391.3,379.2h-34.5c-0.6,0-1,0.5-1,1l0,0c0,0.6,0.5,1,1,1h34.5c0.6,0,1-0.5,1-1l0,0
				C392.4,379.6,391.9,379.2,391.3,379.2z"/>
			<path class="st21" d="M391.3,374.8h-34.5c-0.6,0-1,0.5-1,1l0,0c0,0.6,0.5,1,1,1h34.5c0.6,0,1-0.5,1-1l0,0
				C392.4,375.3,391.9,374.8,391.3,374.8z"/>
			<path class="st21" d="M391.3,370.5h-34.5c-0.6,0-1,0.5-1,1l0,0c0,0.6,0.5,1,1,1h34.5c0.6,0,1-0.5,1-1l0,0
				C392.4,370.9,391.9,370.5,391.3,370.5z"/>
			<path class="st21" d="M391.3,366.1h-28.7c-0.6,0-1,0.5-1,1l0,0c0,0.6,0.5,1,1,1h28.7c0.6,0,1-0.5,1-1l0,0
				C392.4,366.6,391.9,366.1,391.3,366.1z"/>
			<path class="st21" d="M391.3,361.8h-34.5c-0.6,0-1,0.5-1,1l0,0c0,0.6,0.5,1,1,1h34.5c0.6,0,1-0.5,1-1l0,0
				C392.4,362.2,391.9,361.8,391.3,361.8z"/>
			<path class="st21" d="M391.3,357.4h-34.5c-0.6,0-1,0.5-1,1l0,0c0,0.6,0.5,1,1,1h34.5c0.6,0,1-0.5,1-1l0,0
				C392.4,357.9,391.9,357.4,391.3,357.4z"/>
			<path class="st21" d="M384.9,353.1h-28.1c-0.6,0-1,0.5-1,1l0,0c0,0.6,0.5,1,1,1h28.1c0.6,0,1-0.5,1-1l0,0
				C385.9,353.5,385.5,353.1,384.9,353.1z"/>
			<path class="st21" d="M391.3,348.7h-34.5c-0.6,0-1,0.5-1,1l0,0c0,0.6,0.5,1,1,1h34.5c0.6,0,1-0.5,1-1l0,0
				C392.4,349.2,391.9,348.7,391.3,348.7z"/>
			<path class="st21" d="M358.3,366.1h-1.5c-0.6,0-1,0.5-1,1l0,0c0,0.6,0.5,1,1,1h1.5c0.6,0,1-0.5,1-1l0,0
				C359.4,366.6,358.9,366.1,358.3,366.1z"/>
			<path class="st21" d="M391.3,353.1h-2.5c-0.6,0-1,0.5-1,1l0,0c0,0.6,0.5,1,1,1h2.5c0.6,0,1-0.5,1-1l0,0
				C392.4,353.5,391.9,353.1,391.3,353.1z"/>
		</g>
		<path class="st38" d="M378.9,287.3h-4.5c-3.8,0-7.3,1.7-9.6,4.3l42.3,42.3c2.6-2.4,4.2-5.7,4.2-9.5v-4.8L378.9,287.3L378.9,287.3z
			 M362.4,295.4l40.9,40.9c-1.5,0.7-3.2,1-5,1h-1.4l-35.5-35.5v-1.6C361.4,298.5,361.8,296.9,362.4,295.4z"/>
	</g>
</g>
</svg>
