<svg id="Outline" enable-background="new 0 0 512 512" height="512" viewBox="0 0 512 512" width="512" xmlns="http://www.w3.org/2000/svg">
    <g>
        <path d="m472 16h-432c-13.2333984 0-24 10.7666016-24 24v304 32c0 13.2333984 10.7666016 24 24 24h167.3057861l-6.666687 80h-8.6390991v16h16 96 16v-16h-8.6390991l-6.666687-80h167.3057861c13.2333984 0 24-10.7666016 24-24v-32-304c0-13.2333984-10.7666016-24-24-24zm-440 24c0-4.4111328 3.5888672-8 8-8h432c4.4111328 0 8 3.5888672 8 8v296h-448zm263.3056641 440h-78.6113281l6.6665039-80h65.2783203zm184.6943359-104c0 4.4111328-3.5888672 8-8 8h-432c-4.4111328 0-8-3.5888672-8-8v-24h448z"/>
        <path d="m256 464c13.2338867 0 24-10.7661133 24-24s-10.7661133-24-24-24-24 10.7661133-24 24 10.7661133 24 24 24zm0-32c4.4111328 0 8 3.5888672 8 8s-3.5888672 8-8 8-8-3.5888672-8-8 3.5888672-8 8-8z"/>
        <path d="m208 264h-16v24h-112v-96h32v-16h-32v-96h112v96h-32v16h32v24h16v-136h96v32h16v-32h112v96h-112v-8h-16v48h16v-24h112v8h16v-128c0-4.418457-3.581543-8-8-8h-368c-4.418457 0-8 3.581543-8 8v224c0 4.418457 3.581543 8 8 8h264v-16h-128z"/>
        <path d="m435.3134766 248 10.3432617-10.3432617c2.2880859-2.2880859 2.9726563-5.7290039 1.734375-8.7182617s-4.1552735-4.9384766-7.3911133-4.9384766h-64c-4.418457 0-8 3.581543-8 8v64c0 3.2358398 1.9492188 6.152832 4.9384766 7.3911133 2.9902344 1.2397461 6.4301758.5532227 8.7182617-1.734375l10.3432617-10.3432617 26.3432617 26.3432617c1.5620117 1.5620117 3.609375 2.3432617 5.6567383 2.3432617s4.0947266-.78125 5.6567383-2.3432617l32-32c3.1245117-3.1240234 3.1245117-8.1894531 0-11.3134766zm-11.3134766 52.6865234-26.3432617-26.3432617c-1.5620117-1.5620117-3.609375-2.3432617-5.6567383-2.3432617s-4.0947266.78125-5.6567383 2.3432617l-2.3432617 2.3432617v-36.6865234h36.6865234l-2.3432617 2.3432617c-3.1245117 3.1240234-3.1245117 8.1894531 0 11.3134766l26.3432617 26.3432617z"/>
    </g>
</svg>
