<?xml version="1.0" encoding="utf-8"?><svg xmlns="http://www.w3.org/2000/svg" xmlns:xlink="http://www.w3.org/1999/xlink"><symbol viewBox="0 0 30 30" id="fb" xmlns="http://www.w3.org/2000/svg"><path d="M3.571 0A3.582 3.582 0 000 3.571V26.43A3.582 3.582 0 003.571 30H26.43A3.582 3.582 0 0030 26.429V3.57A3.582 3.582 0 0026.429 0H3.57zm0 1.429H26.43c1.191 0 2.142.95 2.142 2.142V26.43a2.132 2.132 0 01-2.142 2.142H3.57A2.132 2.132 0 011.43 26.43V3.57c0-1.191.95-2.142 2.142-2.142z"/><path fill-rule="evenodd" clip-rule="evenodd" d="M13.19 5.456C14.296 4.476 15.827 4 17.563 4c1.588 0 2.714.108 3.123.155a.61.61 0 01.54.607V8.19a.61.61 0 01-.61.611h-2.021c-.822 0-1.14.179-1.277.324-.14.15-.228.412-.228.93v2.118h3.526a.611.611 0 01.604.698l-.549 3.832a.61.61 0 01-.604.524H17.09v8.762a.61.61 0 01-.61.611h-4.408a.61.61 0 01-.611-.61v-8.763h-2.85a.61.61 0 01-.611-.61v-3.833a.61.61 0 01.61-.61h2.851V9.675c0-1.787.614-3.23 1.73-4.22zm.81.914c-.815.723-1.317 1.813-1.317 3.306v3.108a.61.61 0 01-.611.611h-2.85v2.61h2.85a.61.61 0 01.61.611v8.762h3.187v-8.762a.61.61 0 01.61-.61h3.058l.374-2.611H16.48a.61.61 0 01-.611-.61v-2.73c0-.59.084-1.26.558-1.765.478-.51 1.217-.71 2.168-.71h1.41V5.315a29.938 29.938 0 00-2.442-.094c-1.523 0-2.737.416-3.562 1.148z"/></symbol><symbol viewBox="0 0 30 30" id="inst" xmlns="http://www.w3.org/2000/svg"><path fill-rule="evenodd" clip-rule="evenodd" d="M8.2 15a6.8 6.8 0 1113.6 0 6.8 6.8 0 11-13.6 0zM15 9.8a5.2 5.2 0 100 10.4 5.2 5.2 0 000-10.4zm10-3.3a1.5 1.5 0 11-3.001-.001 1.5 1.5 0 013.001 0z"/><path d="M3.571 0A3.582 3.582 0 000 3.571V26.43A3.582 3.582 0 003.571 30H26.43A3.582 3.582 0 0030 26.429V3.57A3.582 3.582 0 0026.429 0H3.57zm0 1.429H26.43c1.191 0 2.142.95 2.142 2.142V26.43a2.132 2.132 0 01-2.142 2.142H3.57A2.132 2.132 0 011.43 26.43V3.57c0-1.191.95-2.142 2.142-2.142z"/></symbol><symbol viewBox="0 0 30 30" id="tg" xmlns="http://www.w3.org/2000/svg"><path d="M23.792 6.001c-.221.01-.437.072-.63.15-.193.077-1.3.549-2.933 1.247l-5.864 2.51-8.349 3.58.03-.011s-.25.083-.503.26a1.398 1.398 0 00-.374.368.974.974 0 00-.162.65c.107.874 1.013 1.122 1.013 1.122l.004.002 4.043 1.383c.103.344 1.226 4.093 1.474 4.887.136.44.264.692.397.865a.84.84 0 00.214.203c.03.019.063.034.095.047h.002l.011.003-.01-.003.021.011c.015.005.024.005.042.009.463.162.846-.139.846-.139l.016-.012 2.484-2.304 4.031 3.143.05.023c.706.314 1.344.139 1.698-.149.353-.287.492-.658.492-.658l.015-.039 2.962-15.437c.076-.346.086-.644.015-.914a1.061 1.061 0 00-.463-.634A1.175 1.175 0 0023.792 6zm.024.924a.416.416 0 01.177.018c.021.013.03.011.05.087.02.076.032.237-.023.487l-.002.006-2.945 15.348c-.007.015-.068.157-.209.271-.143.116-.301.207-.723.03l-4.408-3.437-.124-.098-.003.003-1.318-.99 7.408-8.715a.454.454 0 00-.598-.672l-10.72 7.146-4.049-1.386s-.402-.224-.421-.38c-.001-.009-.006 0 .015-.032a.596.596 0 01.14-.13c.13-.091.281-.147.281-.147l.015-.005.015-.006 8.35-3.58a8928.76 8928.76 0 015.862-2.509 628.23 628.23 0 012.913-1.24.99.99 0 01.317-.07zm-4.913 4.893l-5.617 6.61-.003.002a.434.434 0 00-.05.07.454.454 0 00-.06.176v.003l-.731 3.291c-.012-.035-.02-.048-.034-.09v-.001c-.232-.747-1.292-4.283-1.439-4.772l7.934-5.29zM13.92 19.51l1.01.758-1.484 1.375.474-2.133z"/><path d="M3.571 0A3.582 3.582 0 000 3.571V26.43A3.582 3.582 0 003.571 30H26.43A3.582 3.582 0 0030 26.429V3.57A3.582 3.582 0 0026.429 0H3.57zm0 1.429H26.43c1.191 0 2.142.95 2.142 2.142V26.43a2.132 2.132 0 01-2.142 2.142H3.57A2.132 2.132 0 011.43 26.43V3.57c0-1.191.95-2.142 2.142-2.142z"/></symbol><symbol viewBox="0 0 30 30" id="vk" xmlns="http://www.w3.org/2000/svg"><path d="M3.571 0A3.582 3.582 0 000 3.571V26.43A3.582 3.582 0 003.571 30H26.43A3.582 3.582 0 0030 26.429V3.57A3.582 3.582 0 0026.429 0H3.57zm0 1.429H26.43c1.191 0 2.142.95 2.142 2.142V26.43a2.132 2.132 0 01-2.142 2.142H3.57A2.132 2.132 0 011.43 26.43V3.57c0-1.191.95-2.142 2.142-2.142zm10.284 7.137c-.756-.002-1.43.04-2.032.336l-.001.001c-.294.145-.5.329-.665.547-.083.11-.167.208-.213.457a.763.763 0 00.095.544c.13.217.392.341.56.364.116.015.379.127.403.16l.001.003s.102.266.131.502c.03.237.028.428.028.428a13.096 13.096 0 00.015 1.317 5.44 5.44 0 01-.077.685c-.255-.28-.63-.789-1.17-1.727a50.546 50.546 0 01-1.08-1.974c-.024-.081-.113-.334-.46-.588-.378-.28-.745-.321-.745-.321a.714.714 0 00-.14-.014l-2.814.001s-.17-.01-.372.018c-.202.028-.506.05-.8.4h-.002c-.262.314-.246.661-.215.857a1.405 1.405 0 00.108.353s2.303 4.842 4.905 7.693c1.89 2.07 3.83 2.105 5.43 2.105h1.194c.305 0 .58-.012.886-.19.305-.178.51-.61.51-.91 0-.316.047-.563.105-.69.04-.09.073-.122.123-.148l.033.024c.12.083.316.274.529.512.427.475.912 1.128 1.563 1.575.466.32.906.463 1.241.515.21.032.373.026.488.016l2.668.012c.016 0 .031 0 .047-.002 0 0 .46.006.938-.28.239-.143.52-.414.612-.81.092-.395-.023-.804-.248-1.178v-.002a5.905 5.905 0 00-.458-.692c-.318-.415-.827-.997-1.65-1.763h-.002c-.418-.389-.7-.664-.816-.818-.115-.153-.077-.072-.07-.111.017-.078.518-.802 1.54-2.165.62-.83 1.056-1.453 1.343-1.972.287-.518.494-.967.35-1.516l-.001-.003a1.08 1.08 0 00-.419-.584 1.3 1.3 0 00-.502-.198c-.305-.06-.57-.05-.818-.05-.517 0-2.814.019-3.003.019-.224 0-.593.101-.756.2-.411.247-.53.571-.53.571a.682.682 0 00-.02.042s-.474 1.05-1.084 2.089c-.618 1.052-1.075 1.554-1.35 1.787-.008-.042-.007-.008-.012-.066-.024-.294.003-.7.003-1.096 0-1.068.09-1.815.042-2.475-.024-.33-.085-.67-.303-.984-.217-.313-.578-.516-.936-.602-.214-.052-.459-.187-1.343-.196h-.002c-.27-.002-.53-.008-.782-.008zm.768 1.437c.783.008.588.05 1.023.156.135.033.102.032.099.028-.003-.005.036.07.052.275.03.411-.046 1.229-.046 2.369 0 .31-.038.754.001 1.216.039.462.153 1.056.706 1.413.262.17.566.18.826.116.26-.065.496-.2.743-.397.496-.397 1.048-1.066 1.743-2.25.649-1.103 1.121-2.155 1.137-2.19l.01-.007h.01c.267 0 2.522-.018 3.004-.018.113 0 .154.007.243.01-.024.081.003.03-.103.22-.222.401-.632.997-1.238 1.807-.995 1.33-1.612 1.85-1.794 2.733-.09.441.08.93.33 1.261.25.33.565.614.983 1.003.775.722 1.23 1.246 1.49 1.586.13.17.213.294.264.377.05.083.038.075.104.184.044.073.028.029.035.05L24.05 20l-2.627-.011a.717.717 0 00-.14.014s.006.008-.135-.014c-.14-.022-.364-.083-.651-.28-.347-.239-.833-.822-1.309-1.352-.238-.265-.475-.52-.77-.727-.295-.208-.736-.403-1.212-.253-.495.155-.88.541-1.068.956-.14.308-.15.63-.173.951-.023.002.004 0-.026 0h-1.194c-1.623 0-2.775.113-4.375-1.64-2.153-2.358-4.125-6.282-4.446-6.928l2.477-.002c.044.017.137.052.143.056l.002.003c-.09-.066.005.026.005.026a.721.721 0 00.029.063s.49.96 1.112 2.036c.609 1.055 1.053 1.714 1.481 2.15.215.217.431.392.72.49.29.1.663.063.914-.075.513-.28.582-.695.665-1.057.084-.363.117-.75.133-1.12.03-.717-.013-1.338-.015-1.376 0-.014.003-.273-.038-.604-.042-.34-.09-.755-.396-1.173l-.002-.002c-.002-.003-.005-.003-.007-.005.407-.059.754-.13 1.476-.123zm6.302.7l-.01.022h-.003l.013-.022z"/></symbol><symbol viewBox="0 0 30 30" id="wsapp" xmlns="http://www.w3.org/2000/svg"><path fill-rule="evenodd" clip-rule="evenodd" d="M15.69 5.237a9.055 9.055 0 00-7.61 13.962L6.71 22.23a.788.788 0 00.928 1.09l3.792-1.04a9.055 9.055 0 104.266-17.054l-.005.01zm0 16.53a7.466 7.466 0 01-3.763-1.019.807.807 0 00-.61-.078l-2.474.68.862-1.902a.791.791 0 00-.079-.788 7.473 7.473 0 116.065 3.106z"/><path fill-rule="evenodd" clip-rule="evenodd" d="M19.172 15.657c-.378-.226-.873-.48-1.32-.296-.341.14-.56.676-.783.95a.33.33 0 01-.425.093 5.994 5.994 0 01-2.983-2.564.367.367 0 01.039-.5c.26-.24.454-.544.56-.881a1.921 1.921 0 00-.241-1.04c-.18-.386-.38-.94-.77-1.158a1.054 1.054 0 00-1.143.168 2.324 2.324 0 00-.805 1.84c-.003.199.018.398.062.592.121.456.31.891.559 1.292.18.306.374.603.584.889a9.048 9.048 0 002.536 2.354 7.533 7.533 0 001.582.752c.618.204 1.172.42 1.84.28a2.237 2.237 0 001.678-1.242c.09-.198.116-.42.078-.634-.09-.434-.693-.694-1.048-.895z"/><path d="M3.571 0A3.582 3.582 0 000 3.571V26.43A3.582 3.582 0 003.571 30H26.43A3.582 3.582 0 0030 26.429V3.57A3.582 3.582 0 0026.429 0H3.57zm0 1.429H26.43c1.191 0 2.142.95 2.142 2.142V26.43a2.132 2.132 0 01-2.142 2.142H3.57A2.132 2.132 0 011.43 26.43V3.57c0-1.191.95-2.142 2.142-2.142z"/></symbol></svg>