<?xml version="1.0" encoding="utf-8"?><svg viewBox="0 0 551 170" xmlns="http://www.w3.org/2000/svg" xmlns:xlink="http://www.w3.org/1999/xlink"><style>:root>svg{display:none}:root>svg:target{display:block}</style><svg fill="none" viewBox="0 0 24 24" id="icon-arrow-down" xmlns="http://www.w3.org/2000/svg"><path d="M12 5v14m0 0l7-7m-7 7l-7-7" stroke="#F8FBFC" stroke-width="2" stroke-linecap="round" stroke-linejoin="round"/></svg><svg fill="none" viewBox="0 0 8 14" id="icon-arrow-next" xmlns="http://www.w3.org/2000/svg"><path fill-rule="evenodd" clip-rule="evenodd" d="M.646.646a.5.5 0 01.708 0l6 6a.5.5 0 010 .708l-6 6a.5.5 0 01-.708-.708L6.293 7 .646 1.354a.5.5 0 010-.708z" fill="currentColor"/></svg><svg fill="none" viewBox="0 0 8 14" id="icon-arrow-prev" xmlns="http://www.w3.org/2000/svg"><path fill-rule="evenodd" clip-rule="evenodd" d="M7.354.646a.5.5 0 010 .708L1.707 7l5.647 5.646a.5.5 0 01-.708.708l-6-6a.5.5 0 010-.708l6-6a.5.5 0 01.708 0z" fill="currentColor"/></svg><svg viewBox="0 0 11 9" fill="none" id="icon-arrow-section-animation-right" xmlns="http://www.w3.org/2000/svg"><path fill-rule="evenodd" clip-rule="evenodd" d="M.772 4.003v1.295h7.323l-3.469 3.32H6.69l4.082-4-4.081-4H4.626l3.469 3.318H.772" fill="#000"/></svg><svg fill="none" viewBox="0 0 18 18" id="icon-blog-open-arrow-back" xmlns="http://www.w3.org/2000/svg"><path fill-rule="evenodd" clip-rule="evenodd" d="M9 0L0 9l9 9 1.002-1.002-7.29-7.29H18V8.292H2.712l7.29-7.29L9 0z" fill="currentColor"/></svg><svg viewBox="0 0 25 14" id="icon-blog-open-arrow-down" xmlns="http://www.w3.org/2000/svg"><path clip-rule="evenodd" d="M24.183.661l.726.72-12.382 12.566-1.48-1.467L24.183.66z"/><path clip-rule="evenodd" d="M.559.917l.726-.72L13.951 12.48l-1.479 1.468L.559.917z"/></svg><svg fill="none" viewBox="0 0 22 16" id="icon-check" xmlns="http://www.w3.org/2000/svg"><path d="M7.34 15.463a.925.925 0 01-.663-.312L.427 8.9a.937.937 0 111.325-1.25L7.34 13.2 20.427.15a.937.937 0 011.326 1.25L8.003 15.15a.926.926 0 01-.663.312z" fill="currentColor"/></svg><svg viewBox="0 0 10 8" id="icon-checkbox-check" xmlns="http://www.w3.org/2000/svg"><path d="M9.707.293a1 1 0 00-1.414 0L3 5.586 1.707 4.293A1 1 0 10.293 5.707l2 2a1 1 0 001.414 0l6-6a1 1 0 000-1.414z" fill="#fff"/></svg><svg fill="none" viewBox="0 0 13 8" id="icon-chevron-down" xmlns="http://www.w3.org/2000/svg"><path fill-rule="evenodd" clip-rule="evenodd" d="M.082 1.474a.281.281 0 010-.397l.995-.995c.11-.11.288-.11.397 0l4.73 4.73 4.73-4.73c.11-.11.289-.11.398 0l.995.995c.11.11.11.288 0 .397L6.403 7.399a.281.281 0 01-.397 0L.082 1.475z" fill="currentColor"/></svg><svg fill="none" viewBox="0 0 16 16" id="icon-corner-up-left" xmlns="http://www.w3.org/2000/svg"><path d="M6 9.333L2.667 6m0 0L6 2.667M2.667 6h4.266c2.24 0 3.36 0 4.216.436a4 4 0 011.748 1.748c.436.856.436 1.976.436 4.216v.933" stroke="#F8FBFC" stroke-width="2" stroke-linecap="round" stroke-linejoin="round"/></svg><svg fill="none" viewBox="0 0 20 20" id="icon-header-mail" xmlns="http://www.w3.org/2000/svg"><path d="M1.398 6.5l8.6 4.5 8.6-4.5" stroke="currentColor"/><path d="M1 4v12h18V4H1zm17 11H2V5h16v10z" stroke="currentColor"/></svg><svg fill="none" viewBox="0 0 16 14" id="icon-home" xmlns="http://www.w3.org/2000/svg"><path d="M8.707.5a1 1 0 00-1.414 0L.646 7.146a.5.5 0 00.708.708L8 1.207l6.646 6.647a.5.5 0 00.708-.708L13 4.793V1.5a.5.5 0 00-.5-.5h-1a.5.5 0 00-.5.5v1.293L8.707.5z" fill="currentColor"/><path d="M8 2.293l6 6V12.5a1.5 1.5 0 01-1.5 1.5h-9A1.5 1.5 0 012 12.5V8.293l6-6z" fill="currentColor"/></svg><svg fill="none" viewBox="0 0 16 16" id="icon-increase" xmlns="http://www.w3.org/2000/svg"><path d="M11.742 10.344a6.5 6.5 0 10-1.397 1.398h-.001c.03.04.062.078.098.115l3.85 3.85a1 1 0 001.415-1.414l-3.85-3.85a1.007 1.007 0 00-.115-.1zM12 6.5a5.5 5.5 0 11-11 0 5.5 5.5 0 0111 0z" fill="currentcolor"/></svg><svg fill="none" viewBox="0 0 24 24" id="icon-list-circle-mark" xmlns="http://www.w3.org/2000/svg"><path fill-rule="evenodd" clip-rule="evenodd" d="M12 24c6.627 0 12-5.373 12-12S18.627 0 12 0 0 5.373 0 12s5.373 12 12 12zM4 12.325l5.7 5.7 10.6-10.6L18.875 6 9.7 15.175 5.425 10.9 4 12.325z" fill="#B2B3B3"/></svg><svg fill="none" viewBox="0 0 5 1" id="icon-minus-sm" xmlns="http://www.w3.org/2000/svg"><path d="M0 .5A.5.5 0 01.5 0h4a.5.5 0 010 1h-4A.5.5 0 010 .5z" fill="#fff"/></svg><svg fill="none" viewBox="0 0 16 16" id="icon-pinterest" xmlns="http://www.w3.org/2000/svg"><path d="M8 0a8 8 0 00-2.915 15.452c-.07-.633-.134-1.606.027-2.297.146-.624.938-3.977.938-3.977s-.239-.479-.239-1.187c0-1.113.645-1.943 1.448-1.943.682 0 1.012.512 1.012 1.127 0 .686-.437 1.712-.663 2.663-.188.796.4 1.446 1.185 1.446 1.422 0 2.515-1.5 2.515-3.664 0-1.915-1.377-3.254-3.342-3.254-2.276 0-3.612 1.707-3.612 3.472 0 .687.265 1.424.595 1.825.066.08.075.149.056.23-.061.252-.196.796-.222.907-.035.146-.116.177-.268.107-1-.465-1.624-1.926-1.624-3.1 0-2.523 1.834-4.84 5.286-4.84 2.775 0 4.932 1.977 4.932 4.62 0 2.757-1.739 4.976-4.151 4.976-.811 0-1.573-.421-1.834-.919l-.498 1.902c-.181.695-.669 1.566-.995 2.097A8 8 0 108 0z" fill="currentColor"/></svg><svg fill="none" viewBox="0 0 17 13" id="icon-price-list-mark" xmlns="http://www.w3.org/2000/svg"><path d="M5.7 12.025L0 6.325 1.425 4.9 5.7 9.175 14.875 0 16.3 1.425l-10.6 10.6z" fill="#000"/></svg><svg fill="none" viewBox="0 0 9 17" id="icon-slider-contact-arrow-right" xmlns="http://www.w3.org/2000/svg"><path fill-rule="evenodd" clip-rule="evenodd" d="M7.202 8.29L0 1.09l.8-.8 7.998 7.998.003.004-7.998 7.998-.8-.8 7.199-7.198z" fill="currentColor"/></svg><svg fill="none" viewBox="0 0 16 16" id="icon-telegram" xmlns="http://www.w3.org/2000/svg"><path d="M16 8A8 8 0 110 8a8 8 0 0116 0zM8.287 5.906c-.778.324-2.334.994-4.666 2.01-.378.15-.577.298-.595.442-.03.243.275.339.69.47l.175.055c.408.133.958.288 1.243.294.26.006.549-.1.868-.32 2.179-1.471 3.304-2.214 3.374-2.23.05-.012.12-.026.166.016.047.041.042.12.037.141-.03.129-1.227 1.241-1.846 1.817-.193.18-.33.307-.358.336-.063.065-.127.127-.188.186-.38.366-.664.64.015 1.088.327.216.589.393.85.571.284.194.568.387.936.629.093.06.183.125.27.187.331.236.63.448.997.414.214-.02.435-.22.547-.82.265-1.417.786-4.486.906-5.751.01-.111-.002-.253-.013-.315a.337.337 0 00-.114-.217.526.526 0 00-.31-.093c-.3.005-.763.166-2.984 1.09z" fill="currentColor"/></svg><svg fill="none" viewBox="0 0 48 48" id="icon-vk" xmlns="http://www.w3.org/2000/svg"><path fill-rule="evenodd" clip-rule="evenodd" d="M3.374 3.374C0 6.748 0 12.18 0 23.04v1.92c0 10.861 0 16.292 3.374 19.666C6.748 48 12.18 48 23.04 48h1.92c10.861 0 16.292 0 19.666-3.374C48 41.252 48 35.82 48 24.96v-1.92c0-10.861 0-16.292-3.374-19.666C41.252 0 35.82 0 24.96 0h-1.92C12.179 0 6.748 0 3.374 3.374zM8.1 14.6c.26 12.48 6.5 19.98 17.44 19.98h.62v-7.14c4.02.4 7.06 3.34 8.28 7.14h5.68c-1.56-5.68-5.66-8.82-8.22-10.02 2.56-1.48 6.16-5.08 7.02-9.96h-5.16c-1.12 3.96-4.44 7.56-7.6 7.9v-7.9H21v13.84c-3.2-.8-7.24-4.68-7.42-13.84H8.1z" fill="currentColor"/></svg><svg fill="none" viewBox="0 0 16 16" id="icon-whatsapp" xmlns="http://www.w3.org/2000/svg"><path d="M13.601 2.326A7.854 7.854 0 007.994 0C3.627 0 .068 3.558.064 7.926c0 1.399.366 2.76 1.057 3.965L0 16l4.204-1.102a7.933 7.933 0 003.79.965h.004c4.368 0 7.926-3.558 7.93-7.93A7.898 7.898 0 0013.6 2.326zM7.994 14.521a6.573 6.573 0 01-3.356-.92l-.24-.144-2.494.654.666-2.433-.156-.251a6.56 6.56 0 01-1.007-3.505c0-3.626 2.957-6.584 6.591-6.584a6.56 6.56 0 014.66 1.931 6.557 6.557 0 011.928 4.66c-.004 3.639-2.961 6.592-6.592 6.592zm3.615-4.934c-.197-.099-1.17-.578-1.353-.646-.182-.065-.315-.099-.445.099-.133.197-.513.646-.627.775-.114.133-.232.148-.43.05-.197-.1-.836-.308-1.592-.985-.59-.525-.985-1.175-1.103-1.372-.114-.198-.011-.304.088-.403.087-.088.197-.232.296-.346.1-.114.133-.198.198-.33.065-.134.034-.248-.015-.347-.05-.099-.445-1.076-.612-1.47-.16-.389-.323-.335-.445-.34-.114-.007-.247-.007-.38-.007a.729.729 0 00-.529.247c-.182.198-.691.677-.691 1.654 0 .977.71 1.916.81 2.049.098.133 1.394 2.132 3.383 2.992.47.205.84.326 1.129.418.475.152.904.129 1.246.08.38-.058 1.171-.48 1.338-.943.164-.464.164-.86.114-.943-.049-.084-.182-.133-.38-.232z" fill="currentColor"/></svg><svg fill="none" viewBox="0 0 42 42" id="instagram" xmlns="http://www.w3.org/2000/svg"><path d="M28.875 0h-15.75C5.877 0 0 5.877 0 13.125v15.75C0 36.123 5.877 42 13.125 42h15.75C36.123 42 42 36.123 42 28.875v-15.75C42 5.877 36.123 0 28.875 0zm9.188 28.875c0 5.066-4.122 9.188-9.188 9.188h-15.75c-5.066 0-9.188-4.122-9.188-9.188v-15.75c0-5.066 4.122-9.188 9.188-9.188h15.75c5.066 0 9.188 4.122 9.188 9.188v15.75z" fill="url(#vpaint0_linear_1390_10)"/><path d="M21 10.5c-5.8 0-10.5 4.701-10.5 10.5S15.2 31.5 21 31.5c5.798 0 10.5-4.701 10.5-10.5S26.797 10.5 21 10.5zm0 17.063A6.572 6.572 0 0114.436 21a6.57 6.57 0 016.562-6.562A6.57 6.57 0 0127.562 21a6.572 6.572 0 01-6.563 6.563z" fill="url(#vpaint1_linear_1390_10)"/><path d="M32.289 11.111a1.4 1.4 0 100-2.798 1.4 1.4 0 000 2.798z" fill="url(#vpaint2_linear_1390_10)"/><defs><linearGradient id="vpaint0_linear_1390_10" x1="6.151" y1="35.849" x2="35.849" y2="6.151" gradientUnits="userSpaceOnUse"><stop stop-color="#FFC107"/><stop offset=".507" stop-color="#F44336"/><stop offset=".99" stop-color="#9C27B0"/></linearGradient><linearGradient id="vpaint1_linear_1390_10" x1="13.575" y1="28.424" x2="28.424" y2="13.576" gradientUnits="userSpaceOnUse"><stop stop-color="#FFC107"/><stop offset=".507" stop-color="#F44336"/><stop offset=".99" stop-color="#9C27B0"/></linearGradient><linearGradient id="vpaint2_linear_1390_10" x1="31.299" y1="10.702" x2="33.278" y2="8.723" gradientUnits="userSpaceOnUse"><stop stop-color="#FFC107"/><stop offset=".507" stop-color="#F44336"/><stop offset=".99" stop-color="#9C27B0"/></linearGradient></defs></svg><svg fill="none" viewBox="0 0 551 170" id="logo" xmlns="http://www.w3.org/2000/svg"><path d="M2.147 50.22a1.07 1.07 0 01-.76-1.83l40.58-40.58a1.075 1.075 0 111.52 1.52L2.907 49.91a1.07 1.07 0 01-.76.31zM120.857 169.47a1.075 1.075 0 01-.995-.66 1.064 1.064 0 01.235-1.17l41.3-41.3a1.072 1.072 0 011.52 0 1.078 1.078 0 010 1.52l-41.34 41.29a1.072 1.072 0 01-.72.32zM91.897 169.47a1.076 1.076 0 01-.995-.66 1.07 1.07 0 01.235-1.17l71-71a1.074 1.074 0 111.52 1.52l-71 71a1.069 1.069 0 01-.76.31zM5.367 77.04a1.07 1.07 0 01-.79-1.83l70.29-70.26a1.075 1.075 0 011.52 1.52L6.127 76.72a1.07 1.07 0 01-.76.32zM6.797 104.57a1.07 1.07 0 01-.76-1.83l90.64-90.64a1.075 1.075 0 011.52 1.52l-90.62 90.64a1.076 1.076 0 01-.78.31zM61.317 169.47a1.076 1.076 0 01-.995-.66 1.07 1.07 0 01.235-1.17l102.27-102.27a1.072 1.072 0 011.171-.233 1.072 1.072 0 01.582 1.404c-.054.13-.133.25-.233.349L62.077 169.15a1.07 1.07 0 01-.76.32zM31.647 169.81a1.076 1.076 0 01-.995-.66 1.07 1.07 0 01.235-1.17l130.51-130.49a1.074 1.074 0 111.52 1.52l-130.51 130.5a1.07 1.07 0 01-.76.3zM1.077 169.47a1.07 1.07 0 01-.76-1.83L160.857 7.09a1.072 1.072 0 011.171-.233 1.072 1.072 0 01.582 1.404c-.054.13-.133.25-.233.349L1.827 169.15a1.07 1.07 0 01-.75.32zM7.867 133.71a1.07 1.07 0 01-.76-1.83l121.57-121.57a1.07 1.07 0 011.52 1.5L8.577 133.4c-.19.188-.443.299-.71.31zM207.937.94h4.45l8.87 23.06h-4.56l-1.8-4.75h-9.42l-1.9 4.75h-4.56l8.92-23.06zm2.25 6.11l-3.09 7.92h6.17l-3.08-7.92zM228.427 6.95v1.86a7.994 7.994 0 012.51-1.74 7.218 7.218 0 012.88-.58 7.451 7.451 0 015.67 2.52 9.162 9.162 0 012.34 6.47 8.93 8.93 0 01-2.41 6.37 7.608 7.608 0 01-5.72 2.56 7.11 7.11 0 01-2.74-.52 8.367 8.367 0 01-2.52-1.72v8h-4.26V6.95h4.25zm4.5 3.51a4.471 4.471 0 00-3.35 1.35 4.996 4.996 0 00-1.33 3.61 5.108 5.108 0 001.33 3.7 4.427 4.427 0 003.35 1.4 4.354 4.354 0 003.3-1.43 5.098 5.098 0 001.35-3.63 5.004 5.004 0 00-1.32-3.6 4.365 4.365 0 00-3.33-1.4zM243.837 6.95h5l3.37 4.65 3.37-4.65h4.89l-5.79 8 6.55 9h-5l-4.06-5.59-4 5.59h-4.89l6.47-9-5.91-8zM265.577 24h-2.27V6.95h4.17v10l8.73-10h2.05V24h-4.17v-9.81l-8.51 9.81zM281.107 6.95h15.9v4.08h-5.68v13h-4.28v-13h-5.94V6.95zM316.897 16.71h-13.75a4.572 4.572 0 001.59 2.89 4.999 4.999 0 003.3 1.07 5.704 5.704 0 004.12-1.68l3.61 1.69a8.5 8.5 0 01-3.19 2.85c-1.401.643-2.93.958-4.47.92a8.832 8.832 0 01-6.53-2.54 8.606 8.606 0 01-2.52-6.34 8.905 8.905 0 012.52-6.48 8.454 8.454 0 016.31-2.58 8.767 8.767 0 016.55 2.58 9.326 9.326 0 012.52 6.81l-.06.81zm-4.32-3.37a4.3 4.3 0 00-1.67-2.32 4.841 4.841 0 00-2.9-.89 5.12 5.12 0 00-3.14 1 5.587 5.587 0 00-1.57 2.21h9.28zM320.357 6.95h4.28v6.38l5.94-6.38h5.23l-7.6 8.31 7.69 8.75h-5.72l-5.08-6-.45.54v5.49h-4.28l-.01-17.09zM336.087 6.95h15.9v4.08h-5.68v13h-4.28v-13h-5.94V6.95zM352.897 6.95h4.37l4.43 10.7 4.88-10.7h4.39l-10.68 23.3h-4.42l3.51-7.51-6.48-15.79zM377.657 6.95v1.86a7.994 7.994 0 012.51-1.74 7.218 7.218 0 012.88-.58 7.45 7.45 0 015.68 2.52 9.162 9.162 0 012.34 6.47 8.94 8.94 0 01-2.42 6.37 7.608 7.608 0 01-5.72 2.56 7.118 7.118 0 01-2.74-.52 8.347 8.347 0 01-2.52-1.72v8h-4.25V6.95h4.24zm4.5 3.51a4.471 4.471 0 00-3.35 1.35 4.996 4.996 0 00-1.33 3.61 5.118 5.118 0 001.33 3.68 4.427 4.427 0 003.35 1.4 4.354 4.354 0 003.3-1.43 5.104 5.104 0 001.34-3.64 5.004 5.004 0 00-1.32-3.6 4.377 4.377 0 00-3.32-1.37zM398.867 13.09h6.4V6.95h4.31V24h-4.28v-7.07h-6.4V24h-4.32V6.95h4.28l.01 6.14zM421.887 6.51a9 9 0 014.54 1.21 8.841 8.841 0 014.51 7.74 9.006 9.006 0 01-1.2 4.52 8.665 8.665 0 01-3.27 3.28 8.999 8.999 0 01-4.56 1.18 8.51 8.51 0 01-6.27-2.63 8.996 8.996 0 01-1.791-10.088 8.99 8.99 0 012.131-2.912 8.569 8.569 0 015.91-2.3zm.07 4a4.409 4.409 0 00-3.32 1.39 4.926 4.926 0 00-1.33 3.55 4.988 4.988 0 001.27 3.63 4.695 4.695 0 005.141 1.027 4.706 4.706 0 001.529-1.027 4.997 4.997 0 001.33-3.61 5.002 5.002 0 00-1.31-3.57 4.437 4.437 0 00-3.31-1.36v-.03zM451.517 16.71h-13.75a4.572 4.572 0 001.59 2.89 4.999 4.999 0 003.3 1.07 5.704 5.704 0 004.12-1.68l3.61 1.69a8.504 8.504 0 01-3.23 2.83c-1.401.643-2.93.958-4.47.92a8.83 8.83 0 01-6.54-2.53 8.606 8.606 0 01-2.52-6.34 8.887 8.887 0 012.52-6.48 8.454 8.454 0 016.31-2.58 8.767 8.767 0 016.55 2.58 9.32 9.32 0 012.57 6.82l-.06.81zm-4.28-3.37a4.3 4.3 0 00-1.66-2.32 4.841 4.841 0 00-2.9-.89 5.12 5.12 0 00-3.14 1 5.587 5.587 0 00-1.57 2.21h9.27zM480.287 0v4a35.268 35.268 0 01-3.57.22 36.247 36.247 0 00-4.73.27 6.257 6.257 0 00-2.8 1.13 4.993 4.993 0 00-1.71 2 9.852 9.852 0 00-.61 3.32c1.233-2.96 3.353-4.44 6.36-4.44a7.849 7.849 0 015.74 2.42 8.448 8.448 0 012.43 6.25 8.937 8.937 0 01-2.6 6.57 8.719 8.719 0 01-6.43 2.62 8.91 8.91 0 01-8.55-6.47 22.664 22.664 0 01-.67-5.64 17.119 17.119 0 011-6.25 8.312 8.312 0 012.43-3.52 8.55 8.55 0 013.62-1.61 43.13 43.13 0 016-.58c1.847-.087 3.21-.183 4.09-.29zm-3.2 15.47a5 5 0 00-1.28-3.53 4.733 4.733 0 00-6.74 0 5 5 0 00-1.32 3.53 5.004 5.004 0 001.32 3.6 4.419 4.419 0 003.33 1.37 4.511 4.511 0 003.34-1.37 4.902 4.902 0 001.35-3.6zM489.157 24h-4.28V6.95h4.28v6.76h2.27a8.937 8.937 0 013.29-5.29 8.92 8.92 0 0111.8.69 8.574 8.574 0 011.988 2.903 8.573 8.573 0 01.652 3.457 8.773 8.773 0 01-2.58 6.34 8.624 8.624 0 01-6.45 2.65 8.741 8.741 0 01-5.56-2 8.508 8.508 0 01-3.15-4.87h-2.27l.01 6.41zm15.69-8.53a4.998 4.998 0 00-1.27-3.56 4.458 4.458 0 00-3.37-1.37 4.323 4.323 0 00-3.32 1.42 5 5 0 00-1.31 3.5 5.003 5.003 0 001.31 3.61 4.386 4.386 0 003.32 1.37 4.49 4.49 0 003.33-1.37 4.914 4.914 0 001.31-3.6zM516.907 6.95v1.86a7.994 7.994 0 012.51-1.74 7.218 7.218 0 012.88-.58 7.45 7.45 0 015.68 2.52 9.162 9.162 0 012.34 6.47 8.94 8.94 0 01-2.42 6.37 7.608 7.608 0 01-5.72 2.56 7.118 7.118 0 01-2.74-.52 8.347 8.347 0 01-2.52-1.72v8h-4.25V6.95h4.24zm4.5 3.51a4.473 4.473 0 00-3.36 1.35 4.996 4.996 0 00-1.33 3.61 5.118 5.118 0 001.33 3.68 4.427 4.427 0 003.35 1.4 4.354 4.354 0 003.3-1.43 5.104 5.104 0 001.34-3.64 5.004 5.004 0 00-1.32-3.6 4.38 4.38 0 00-3.31-1.37zM541.867 6.51a9 9 0 014.54 1.21 8.841 8.841 0 014.51 7.74 9.006 9.006 0 01-1.2 4.52 8.665 8.665 0 01-3.27 3.28 8.999 8.999 0 01-4.56 1.18 8.51 8.51 0 01-6.31-2.63 8.996 8.996 0 01-1.791-10.088 8.99 8.99 0 012.131-2.912 8.568 8.568 0 015.95-2.3zm.07 4a4.415 4.415 0 00-3.36 1.41 4.926 4.926 0 00-1.33 3.55 4.997 4.997 0 001.33 3.61 4.695 4.695 0 005.141 1.027 4.706 4.706 0 001.529-1.027 4.997 4.997 0 001.33-3.61 5.002 5.002 0 00-1.31-3.57 4.448 4.448 0 00-3.33-1.36v-.03zM203.577 60.47h12.43c2.052-.02 4.099.221 6.09.72a13.462 13.462 0 014.69 2.17 9.792 9.792 0 013 3.67 11.898 11.898 0 011.06 5.19 11.607 11.607 0 01-1.09 5.19 10.012 10.012 0 01-3 3.67 13.823 13.823 0 01-4.72 2.21 23.46 23.46 0 01-6.12.75h-7.83v20.44h-4.51V60.47zm4.47 19.76h7.53c3.52 0 6.186-.667 8-2a6.996 6.996 0 002.73-6c0-2.733-.944-4.733-2.83-6-1.887-1.267-4.52-1.9-7.9-1.9h-7.58l.05 15.9zM244.327 100.48h23.55v4h-28v-44h27.27v4h-22.8v15.1h21.31v4h-21.33v16.9zM281.347 104.46h-4.47v-44h25v4h-20.5l-.03 40zM313.787 97.94l25.6-37.46h5.59v44h-4.47V66.62h-.13l-25.6 37.84h-5.59v-44h4.47v37.46l.13.02zM356.897 60.47h4.47v19.07h24V60.47h4.47v44h-4.47V83.65h-24v20.81h-4.47V60.47zM406.227 60.47v17.9h7.7a17.671 17.671 0 016.09 1 13.778 13.778 0 014.69 2.8 12.318 12.318 0 013 4.3 13.9 13.9 0 011.06 5.48 12.298 12.298 0 01-1.09 5.29 11.329 11.329 0 01-3 3.92 13.47 13.47 0 01-4.72 2.46c-1.988.58-4.05.863-6.12.84h-12.08v-44l4.47.01zm0 40h7.35c3.52 0 6.187-.713 8-2.14 1.813-1.427 2.723-3.76 2.73-7a8.246 8.246 0 00-2.83-6.52c-1.887-1.633-4.527-2.45-7.92-2.45h-7.33v18.11zm31.56-40v44h-4.48v-44h4.48zM211.897 135.76h1.93c1.398 0 2.792-.148 4.16-.44a11.517 11.517 0 003.63-1.4 7.885 7.885 0 002.58-2.52 6.773 6.773 0 001-3.73 7.433 7.433 0 00-2.61-6.18 10.642 10.642 0 00-6.83-2.08 9.524 9.524 0 00-5.56 1.62 11.217 11.217 0 00-3.63 4.16l-3.48-2.61a13.075 13.075 0 015.37-5.25 16.543 16.543 0 017.67-1.71 18.588 18.588 0 015.5.78 12.272 12.272 0 014.3 2.27 10.073 10.073 0 012.76 3.7 12.373 12.373 0 011 5.06 8.277 8.277 0 01-.78 3.57 10.807 10.807 0 01-2 3 12.85 12.85 0 01-2.86 2.2 13.616 13.616 0 01-3.2 1.34v.12c1.317.185 2.616.486 3.88.9a12.385 12.385 0 013.67 1.9 9.997 9.997 0 012.73 3.23 10.137 10.137 0 011.09 4.91 12.007 12.007 0 01-1.24 5.5 12.63 12.63 0 01-3.42 4.19 15.684 15.684 0 01-5.13 2.67 20.797 20.797 0 01-6.31.93 19.996 19.996 0 01-5.34-.65 14.137 14.137 0 01-4.16-1.86 13.556 13.556 0 01-3.14-2.92 20.804 20.804 0 01-2.33-3.76l3.85-2.3a17.944 17.944 0 001.71 3.14 9.796 9.796 0 002.33 2.39 10.697 10.697 0 003.2 1.55c1.384.396 2.82.584 4.26.56 3.606 0 6.383-.86 8.33-2.58a8.705 8.705 0 002.92-6.86 8.005 8.005 0 00-1.17-4.39 7.887 7.887 0 00-3-2.77 13.812 13.812 0 00-4.41-1.43 33.995 33.995 0 00-5.37-.4h-1.93l.03-3.85zM247.117 154.21l25.6-37.46h5.59v44h-4.47V122.9h-.12l-25.6 37.84h-5.59v-44h4.47v37.47h.12zM311.977 153.15h.06l14.73-36.41h6.81v44h-4.47v-38.21h-.13l-15.9 38.21h-2.36l-15.91-38.21h-.13v38.21h-4.47v-44h6.84l14.93 36.41zM350.127 154.21l25.6-37.46h5.59v44h-4.47V122.9h-.13l-25.6 37.84h-5.54v-44h4.47v37.47h.08zM393.247 116.75h4.47v19.06h24v-19.06h4.47v44h-4.47v-20.83h-24v20.81h-4.47v-43.98zM481.577 138.74a24.128 24.128 0 01-1.74 9.26 21.821 21.821 0 01-4.805 7.287 21.816 21.816 0 01-7.275 4.823 24.656 24.656 0 01-18.2 0 21.83 21.83 0 01-12.08-12.11 25.504 25.504 0 010-18.51 21.823 21.823 0 0112.1-12.12 24.656 24.656 0 0118.2 0 21.822 21.822 0 0112.08 12.12 24.108 24.108 0 011.72 9.25zm-4.72 0a21.6 21.6 0 00-1.24-7.32 18.292 18.292 0 00-3.6-6.11 17.255 17.255 0 00-5.75-4.19 19.439 19.439 0 00-15.22 0 17.245 17.245 0 00-5.75 4.19 18.258 18.258 0 00-3.6 6.11 22.142 22.142 0 000 14.64 17.894 17.894 0 003.6 6.08 17.446 17.446 0 005.75 4.16 19.452 19.452 0 0015.22 0 17.485 17.485 0 005.75-4.16 17.945 17.945 0 003.6-6.08 21.604 21.604 0 001.25-7.25l-.01-.07zM521.347 116.75h5.59v44h-4.47V122.9h-.13l-25.6 37.84h-5.59v-44h4.47v37.47h.12l25.61-37.46zm-20.13-12.3a8.36 8.36 0 0015.66 0l3.17 1.49a10.26 10.26 0 01-1.46 2.73 10.59 10.59 0 01-5.5 3.85 14.866 14.866 0 01-8.08 0 10.587 10.587 0 01-5.5-3.85 10.203 10.203 0 01-1.46-2.73l3.17-1.49z" fill="currentColor"/></svg><svg fill="none" viewBox="0 0 55 56" id="success" xmlns="http://www.w3.org/2000/svg"><path fill-rule="evenodd" clip-rule="evenodd" d="M27.5 2.289c-14.363 0-26 11.614-26 25.933 0 14.32 11.637 25.934 26 25.934s26-11.614 26-25.933c0-14.32-11.637-25.934-26-25.934zM0 28.222C0 13.072 12.312.79 27.5.79S55 13.07 55 28.222c0 15.152-12.312 27.434-27.5 27.434S0 43.374 0 28.223z" fill="#C1C1C1"/><path fill-rule="evenodd" clip-rule="evenodd" d="M42.411 21.16L23.976 39.525 13.59 29.177l2.822-2.834 7.565 7.536L39.59 18.326l2.822 2.834z" fill="#fff"/></svg></svg>