<svg xmlns="http://www.w3.org/2000/svg" width="434" height="350" viewBox="0 0 434 350"><defs><clipPath id="wqp5a"><path d="M200.023 345.97c34.336 9.348 95.178.845 148.558-19.004 26.291-10.77 49.767-26.38 64.978-48.68 15.369-21.977 22.472-50.644 19.658-80.092-7.2-62.354-36.931-105.18-74.159-136.938C321.202 29.913 275.85 9.638 222.894 1.99c-51.92-5.321-99.22 7.936-125.13 31.303C71.07 56.9 65.766 90.615 79.767 131.715c14.225 39.409 48.441 75.907 64.054 118.685 19.443 40.534 20.284 87.348 56.202 95.57z"/></clipPath><clipPath id="wqp5b"><path d="M67 212c37.003 0 67 29.997 67 67s-29.997 67-67 67-67-29.997-67-67 29.997-67 67-67z"/></clipPath></defs><g><g><g><path fill="#2e356b" d="M200.023 345.97c34.336 9.348 95.178.845 148.558-19.004 26.291-10.77 49.767-26.38 64.978-48.68 15.369-21.977 22.472-50.644 19.658-80.092-7.2-62.354-36.931-105.18-74.159-136.938C321.202 29.913 275.85 9.638 222.894 1.99c-51.92-5.321-99.22 7.936-125.13 31.303C71.07 56.9 65.766 90.615 79.767 131.715c14.225 39.409 48.441 75.907 64.054 118.685 19.443 40.534 20.284 87.348 56.202 95.57z"/></g><g clip-path="url(#wqp5a)"><path fill="#1f254f" d="M359.294 322.447S457.736.963 88.764 114.969c-368.97 114.005-43.537 165.86-43.537 165.86s243.146 140.588 246.354 138.199c3.207-2.39 67.713-96.581 67.713-96.581z"/></g><g clip-path="url(#wqp5a)"><path fill="#14193d" d="M358.083 325.843S282.957-6.003 106.476 204.027s20.142 326.667 45.6 308.95c25.457-17.719 207.572-114.73 207.572-114.73z"/></g><g><path fill="#2e356b" d="M67 212c37.003 0 67 29.997 67 67s-29.997 67-67 67-67-29.997-67-67 29.997-67 67-67z"/></g><g clip-path="url(#wqp5b)"><path fill="#1f254f" d="M124 314s-69 26-69-50-74-74-74-74 27-39 34-37 143 31 154 34 29 68 27 75-67 51-67 51z"/></g></g></g></svg>