<svg xmlns="http://www.w3.org/2000/svg" width="340" height="460" viewBox="0 0 340 460"><defs><clipPath id="rqvna"><path d="M255.068 116.053c-32.271-14.998-93.675-16.864-149.636-6.289-27.73 6.188-53.5 17.62-72.25 37.04-18.85 19.074-30.68 46.135-32.866 75.636-3.406 62.676 18.687 109.898 50.034 147.473 32.036 37.271 73.325 64.895 124.236 81.354 50.282 13.99 99.138 8.889 128.615-9.78 30.288-18.773 41.196-51.113 34.318-93.985-7.385-41.242-34.964-82.982-43.15-127.778-12.337-43.23-5.28-89.516-39.301-103.671z"/></clipPath><clipPath id="rqvnb"><path d="M220.233 4.8c19.666-10.304 43.961-2.713 54.264 16.953 10.303 19.667 2.713 43.962-16.954 54.265-19.666 10.302-43.961 2.712-54.264-16.955-10.303-19.666-2.713-43.961 16.954-54.264z"/></clipPath></defs><g><g><g><path fill="#e35447" d="M255.068 116.053c-32.271-14.998-93.675-16.864-149.636-6.289-27.73 6.188-53.5 17.62-72.25 37.04-18.85 19.074-30.68 46.135-32.866 75.636-3.406 62.676 18.687 109.898 50.034 147.473 32.036 37.271 73.325 64.895 124.236 81.354 50.282 13.99 99.138 8.889 128.615-9.78 30.288-18.773 41.196-51.113 34.318-93.985-7.385-41.242-34.964-82.982-43.15-127.778-12.337-43.23-5.28-89.516-39.301-103.671z"/></g><g clip-path="url(#rqvna)"><path fill="#cb4738" d="M94.11 112.414s-151.183 300.31 231.719 250.08c382.902-50.23 70.852-156.157 70.852-156.157S180.688 26.803 177.124 28.618c-3.564 1.815-83.013 83.796-83.013 83.796z"/></g><g clip-path="url(#rqvna)"><path fill="#a73e34" d="M95.876 109.27s18.159 339.758 227.495 162.455C532.706 94.421 358.538-53.668 330.46-40.491c-28.078 13.177-223.931 78.127-223.931 78.127z"/></g><g><path fill="#ea594b" d="M220.233 4.8c19.666-10.304 43.961-2.713 54.264 16.953 10.303 19.667 2.713 43.962-16.954 54.265-19.666 10.302-43.961 2.712-54.264-16.955-10.303-19.666-2.713-43.961 16.954-54.264z"/></g><g clip-path="url(#rqvnb)"><path fill="#cb4738" d="M198.848 37.677s29.433-33.03 50.594 7.362c21.161 40.393 59.934 18.726 59.934 18.726s-3.49 28.246-7.768 29.132c-4.277.886-84.634 23.34-91.315 24.808-6.682 1.469-34.347-28.066-35.233-32.343-.886-4.278 21.41-45.761 21.41-45.761z"/></g></g></g></svg>