<svg xmlns="http://www.w3.org/2000/svg" width="434" height="350" viewBox="0 0 434 350"><defs><clipPath id="vekja"><path d="M200.023 4.03c34.337-9.35 95.178-.845 148.557 19.004 26.292 10.77 49.768 26.38 64.979 48.68 15.369 21.976 22.472 50.644 19.657 80.091-7.199 62.354-36.93 105.18-74.158 136.94-37.856 31.341-83.207 51.616-136.164 59.265-51.92 5.321-99.22-7.937-125.13-31.304-26.694-23.606-31.998-57.321-17.997-98.422 14.225-39.408 48.441-75.907 64.054-118.684 19.443-40.534 20.284-87.348 56.202-95.57z"/></clipPath><clipPath id="vekjb"><path d="M67 4c37.003 0 67 29.997 67 67s-29.997 67-67 67S0 108.003 0 71 29.997 4 67 4z"/></clipPath></defs><g><g><g><path fill="#ef584a" d="M200.023 4.03c34.337-9.35 95.178-.845 148.557 19.004 26.292 10.77 49.768 26.38 64.979 48.68 15.369 21.976 22.472 50.644 19.657 80.091-7.199 62.354-36.93 105.18-74.158 136.94-37.856 31.341-83.207 51.616-136.164 59.265-51.92 5.321-99.22-7.937-125.13-31.304-26.694-23.606-31.998-57.321-17.997-98.422 14.225-39.408 48.441-75.907 64.054-118.684 19.443-40.534 20.284-87.348 56.202-95.57z"/></g><g clip-path="url(#vekja)"><path fill="#cb4639" d="M359.294 27.553s98.442 321.483-270.53 207.478C-280.206 121.025 45.227 69.17 45.227 69.17S288.373-71.418 291.58-69.028c3.207 2.39 67.713 96.581 67.713 96.581z"/></g><g clip-path="url(#vekja)"><path fill="#a63e34" d="M358.083 24.157s-75.126 331.845-251.607 121.816c-176.481-210.03 20.142-326.667 45.6-308.95 25.457 17.718 207.572 114.728 207.572 114.728z"/></g><g><path fill="#ef584a" d="M67 4c37.003 0 67 29.997 67 67s-29.997 67-67 67S0 108.003 0 71 29.997 4 67 4z"/></g><g clip-path="url(#vekjb)"><path fill="#cb4639" d="M124 36S55 10 55 86s-74 74-74 74 27 39 34 37 143-31 154-34 29-68 27-75-67-51-67-51z"/></g></g></g></svg>