<svg xmlns="http://www.w3.org/2000/svg" width="434" height="350" viewBox="0 0 434 350"><defs><clipPath id="57kma"><path d="M233.977 4.03C199.64-5.32 138.799 3.184 85.419 23.033c-26.291 10.77-49.767 26.38-64.978 48.68C5.072 93.69-2.031 122.357.783 151.804c7.2 62.354 36.931 105.18 74.159 136.939 37.856 31.343 83.207 51.617 136.164 59.266 51.92 5.32 99.219-7.937 125.13-31.304 26.694-23.606 31.998-57.322 17.997-98.422-14.225-39.409-48.441-75.907-64.054-118.685-19.443-40.533-20.284-87.347-56.202-95.57z"/></clipPath><clipPath id="57kmb"><path d="M367 4c37.003 0 67 29.997 67 67s-29.997 67-67 67-67-29.997-67-67 29.997-67 67-67z"/></clipPath></defs><g><g><g><path fill="#1a9ae3" d="M233.977 4.03C199.64-5.32 138.799 3.184 85.419 23.033c-26.291 10.77-49.767 26.38-64.978 48.68C5.072 93.69-2.031 122.357.783 151.804c7.2 62.354 36.931 105.18 74.159 136.939 37.856 31.343 83.207 51.617 136.164 59.266 51.92 5.32 99.219-7.937 125.13-31.304 26.694-23.606 31.998-57.322 17.997-98.422-14.225-39.409-48.441-75.907-64.054-118.685-19.443-40.533-20.284-87.347-56.202-95.57z"/></g><g clip-path="url(#57kma)"><path fill="#1a89de" d="M74.706 27.553s-98.442 321.483 270.53 207.477c368.97-114.005 43.537-165.86 43.537-165.86S145.627-71.418 142.419-69.028c-3.207 2.39-67.713 96.58-67.713 96.58z"/></g><g clip-path="url(#57kma)"><path fill="#1d74b6" d="M75.917 24.157s75.126 331.845 251.607 121.815c176.481-210.029-20.142-326.666-45.6-308.949C256.467-145.259 74.352-48.248 74.352-48.248z"/></g><g><path fill="#1a9ae3" d="M367 4c37.003 0 67 29.997 67 67s-29.997 67-67 67-67-29.997-67-67 29.997-67 67-67z"/></g><g clip-path="url(#57kmb)"><path fill="#1a89de" d="M310 36s69-26 69 50 74 74 74 74-27 39-34 37-143-31-154-34-29-68-27-75 67-51 67-51z"/></g></g></g></svg>