<svg xmlns="http://www.w3.org/2000/svg" width="402" height="378" viewBox="0 0 402 378"><defs><clipPath id="6ru7a"><path d="M129.035 54.28C96.054 67.646 52.8 111.27 22.355 159.4 7.963 183.894-1.258 210.536.15 237.493c1.087 26.795 12.803 53.906 32.881 75.63 43.503 45.248 93.103 61.309 141.96 64.023 49.107 2.003 97.472-9.342 144.238-35.338 44.53-27.22 74.131-66.423 80.59-100.711 6.936-34.953-9.268-64.99-45.307-89.208-35.192-22.736-84.526-31.046-122.863-55.62-40.025-20.471-69.054-57.207-102.613-41.99z"/></clipPath><clipPath id="6ru7b"><path d="M257.117 8.652c17.664-13.45 42.887-10.035 56.337 7.63 13.45 17.663 10.035 42.886-7.63 56.336-17.663 13.45-42.886 10.034-56.336-7.63-13.45-17.663-10.035-42.886 7.629-56.337z"/></clipPath></defs><g><g><g><path fill="#e35447" d="M129.035 54.28C96.054 67.646 52.8 111.27 22.355 159.4 7.963 183.894-1.258 210.536.15 237.493c1.087 26.795 12.803 53.906 32.881 75.63 43.503 45.248 93.103 61.309 141.96 64.023 49.107 2.003 97.472-9.342 144.238-35.338 44.53-27.22 74.131-66.423 80.59-100.711 6.936-34.953-9.268-64.99-45.307-89.208-35.192-22.736-84.526-31.046-122.863-55.62-40.025-20.471-69.054-57.207-102.613-41.99z"/></g><g clip-path="url(#6ru7a)"><path fill="#cb4738" d="M16.57 169.485s116.438 315.411 340.927 1.179c224.49-314.232-65.841-158.335-65.841-158.335S13.036 47.78 11.932 51.623c-1.104 3.844 4.638 117.862 4.638 117.862z"/></g><g clip-path="url(#6ru7a)"><path fill="#a73e34" d="M15.476 166.05s260.807 218.505 273.977-55.51c13.17-274.017-213.925-247.696-223.445-218.178-9.52 29.519-95.642 217.03-95.642 217.03z"/></g><g><path fill="#ea594b" d="M257.117 8.652c17.664-13.45 42.887-10.035 56.337 7.63 13.45 17.663 10.035 42.886-7.63 56.336-17.663 13.45-42.886 10.034-56.336-7.63-13.45-17.663-10.035-42.886 7.629-56.337z"/></g><g clip-path="url(#6ru7b)"><path fill="#cb4738" d="M241.539 44.646s23.487-37.492 51.112-1.213c27.626 36.28 62.224 8.427 62.224 8.427s1.287 28.432-2.782 30.021c-4.068 1.59-79.53 37.18-85.872 39.747-6.342 2.566-38.561-21.92-40.15-25.988-1.59-4.068 13.445-48.699 13.445-48.699z"/></g></g></g></svg>