<svg id="Слой_1" data-name="Слой 1" xmlns="http://www.w3.org/2000/svg" viewBox="0 0 600 203"><defs><style>.cls-1{fill:#fff;}</style></defs><title>логотип архитектурное бюро</title><path class="cls-1" d="M17.57,71.41a1.07,1.07,0,0,1-.76-1.83L57.39,29a1.07,1.07,0,1,1,1.52,1.52L18.33,71.1A1.07,1.07,0,0,1,17.57,71.41Z"/><path class="cls-1" d="M136.28,190.66a1.07,1.07,0,0,1-.76-1.83l41.3-41.3a1.07,1.07,0,0,1,1.52,1.52L137,190.34A1.07,1.07,0,0,1,136.28,190.66Z"/><path class="cls-1" d="M107.32,190.66a1.07,1.07,0,0,1-.76-1.83l71-71a1.07,1.07,0,0,1,1.52,1.52l-71,71A1.07,1.07,0,0,1,107.32,190.66Z"/><path class="cls-1" d="M20.79,98.23A1.07,1.07,0,0,1,20,96.4L90.29,26.14a1.07,1.07,0,1,1,1.52,1.52L21.55,97.91A1.07,1.07,0,0,1,20.79,98.23Z"/><path class="cls-1" d="M22.22,125.76a1.07,1.07,0,0,1-.76-1.83L112.1,33.29a1.07,1.07,0,0,1,1.52,1.52L23,125.45A1.07,1.07,0,0,1,22.22,125.76Z"/><path class="cls-1" d="M76.74,190.66a1.07,1.07,0,0,1-.76-1.83L178.25,86.56a1.07,1.07,0,0,1,1.52,1.52L77.5,190.34A1.07,1.07,0,0,1,76.74,190.66Z"/><path class="cls-1" d="M47.07,191a1.07,1.07,0,0,1-.76-1.83L176.82,58.68a1.07,1.07,0,0,1,1.52,1.52L47.83,190.7A1.07,1.07,0,0,1,47.07,191Z"/><path class="cls-1" d="M16.5,190.66a1.07,1.07,0,0,1-.76-1.83L176.28,28.28a1.07,1.07,0,0,1,1.52,1.52L17.25,190.34A1.07,1.07,0,0,1,16.5,190.66Z"/><path class="cls-1" d="M23.29,154.9a1.07,1.07,0,0,1-.76-1.83L144.1,31.5A1.07,1.07,0,0,1,145.62,33L24,154.59A1.07,1.07,0,0,1,23.29,154.9Z"/><path class="cls-1" d="M223.36,22.13h4.45l8.87,23.06h-4.56l-1.8-4.75H220.9L219,45.19h-4.56Zm2.25,6.11-3.09,7.92h6.17Z"/><path class="cls-1" d="M243.85,28.14V30a8,8,0,0,1,2.51-1.74,7.22,7.22,0,0,1,2.88-.58,7.45,7.45,0,0,1,5.67,2.52,9.16,9.16,0,0,1,2.34,6.47,8.93,8.93,0,0,1-2.41,6.37,7.6,7.6,0,0,1-5.72,2.56,7.11,7.11,0,0,1-2.74-.52,8.37,8.37,0,0,1-2.52-1.72v8H239.6V28.14Zm4.5,3.51A4.47,4.47,0,0,0,245,33a5,5,0,0,0-1.33,3.61A5.12,5.12,0,0,0,245,40.31a4.43,4.43,0,0,0,3.35,1.4,4.35,4.35,0,0,0,3.3-1.43A5.1,5.1,0,0,0,253,36.65a5,5,0,0,0-1.32-3.6A4.36,4.36,0,0,0,248.35,31.65Z"/><path class="cls-1" d="M259.26,28.14h5l3.37,4.65L271,28.14h4.89l-5.79,8,6.55,9h-5l-4.06-5.59-4,5.59h-4.89l6.47-9Z"/><path class="cls-1" d="M281,45.19h-2.27V28.14h4.17v10l8.73-10h2.05V45.19h-4.17V35.38Z"/><path class="cls-1" d="M296.53,28.14h15.9v4.08h-5.68v13h-4.28v-13h-5.94Z"/><path class="cls-1" d="M332.32,37.9H318.57a4.57,4.57,0,0,0,1.59,2.89,5,5,0,0,0,3.3,1.07,5.7,5.7,0,0,0,4.12-1.68l3.61,1.69A8.5,8.5,0,0,1,328,44.72a10.12,10.12,0,0,1-4.47.92A8.83,8.83,0,0,1,317,43.1a8.62,8.62,0,0,1-2.52-6.34,8.9,8.9,0,0,1,2.52-6.48,8.45,8.45,0,0,1,6.31-2.58,8.77,8.77,0,0,1,6.55,2.58,9.32,9.32,0,0,1,2.52,6.81ZM328,34.53a4.3,4.3,0,0,0-1.67-2.32,4.84,4.84,0,0,0-2.9-.89,5.12,5.12,0,0,0-3.14,1,5.59,5.59,0,0,0-1.57,2.21Z"/><path class="cls-1" d="M335.78,28.14h4.28v6.38L346,28.14h5.23l-7.6,8.31,7.69,8.75H345.6l-5.08-6-.45.54v5.49h-4.28Z"/><path class="cls-1" d="M351.51,28.14h15.9v4.08h-5.68v13h-4.28v-13h-5.94Z"/><path class="cls-1" d="M368.32,28.14h4.37l4.43,10.7L382,28.14h4.39l-10.68,23.3h-4.42l3.51-7.51Z"/><path class="cls-1" d="M393.08,28.14V30a8,8,0,0,1,2.51-1.74,7.22,7.22,0,0,1,2.88-.58,7.45,7.45,0,0,1,5.68,2.52,9.16,9.16,0,0,1,2.34,6.47,8.94,8.94,0,0,1-2.42,6.37,7.6,7.6,0,0,1-5.72,2.56,7.12,7.12,0,0,1-2.74-.52,8.36,8.36,0,0,1-2.52-1.72v8h-4.25V28.14Zm4.5,3.51A4.47,4.47,0,0,0,394.23,33a5,5,0,0,0-1.33,3.61,5.12,5.12,0,0,0,1.33,3.68,4.43,4.43,0,0,0,3.35,1.4,4.35,4.35,0,0,0,3.3-1.43,5.1,5.1,0,0,0,1.34-3.64,5,5,0,0,0-1.32-3.6A4.37,4.37,0,0,0,397.58,31.65Z"/><path class="cls-1" d="M414.29,34.28h6.4V28.14H425V45.19h-4.28V38.12h-6.4v7.07H410V28.14h4.28Z"/><path class="cls-1" d="M437.31,27.7a9,9,0,0,1,4.54,1.21,8.84,8.84,0,0,1,4.51,7.74,9,9,0,0,1-1.2,4.52,8.66,8.66,0,0,1-3.27,3.28,9,9,0,0,1-4.56,1.18A8.51,8.51,0,0,1,431.06,43a9,9,0,0,1,.34-13A8.57,8.57,0,0,1,437.31,27.7Zm.07,4a4.41,4.41,0,0,0-3.32,1.39,4.93,4.93,0,0,0-1.33,3.55A5,5,0,0,0,434,40.27a4.7,4.7,0,0,0,6.67,0A5,5,0,0,0,442,36.66a5,5,0,0,0-1.31-3.57A4.44,4.44,0,0,0,437.38,31.73Z"/><path class="cls-1" d="M466.94,37.9H453.19a4.57,4.57,0,0,0,1.59,2.89,5,5,0,0,0,3.3,1.07,5.7,5.7,0,0,0,4.12-1.68l3.61,1.69a8.5,8.5,0,0,1-3.23,2.83,10.12,10.12,0,0,1-4.47.92,8.83,8.83,0,0,1-6.54-2.53,8.62,8.62,0,0,1-2.52-6.34,8.9,8.9,0,0,1,2.52-6.48,8.45,8.45,0,0,1,6.31-2.58,8.77,8.77,0,0,1,6.55,2.58A9.32,9.32,0,0,1,467,37.09Zm-4.28-3.37A4.3,4.3,0,0,0,461,32.21a4.84,4.84,0,0,0-2.9-.89,5.12,5.12,0,0,0-3.14,1,5.59,5.59,0,0,0-1.57,2.21Z"/><path class="cls-1" d="M495.71,21.19v4a35.26,35.26,0,0,1-3.57.22,36.25,36.25,0,0,0-4.73.27,6.26,6.26,0,0,0-2.8,1.13,5,5,0,0,0-1.71,2,9.86,9.86,0,0,0-.61,3.32q1.85-4.44,6.36-4.44a7.85,7.85,0,0,1,5.74,2.42,8.44,8.44,0,0,1,2.43,6.25,8.94,8.94,0,0,1-2.6,6.57,8.72,8.72,0,0,1-6.43,2.62,8.91,8.91,0,0,1-8.55-6.47,22.69,22.69,0,0,1-.67-5.64,17.13,17.13,0,0,1,1-6.25A8.31,8.31,0,0,1,482,23.67a8.55,8.55,0,0,1,3.62-1.61,43.13,43.13,0,0,1,6-.58Q494.39,21.35,495.71,21.19Zm-3.2,15.47a5,5,0,0,0-1.28-3.53,4.73,4.73,0,0,0-6.74,0,5,5,0,0,0-1.32,3.53,5,5,0,0,0,1.32,3.6,4.42,4.42,0,0,0,3.33,1.37,4.51,4.51,0,0,0,3.34-1.37A4.9,4.9,0,0,0,492.51,36.66Z"/><path class="cls-1" d="M504.58,45.19H500.3V28.14h4.28v6.76h2.27a8.94,8.94,0,0,1,3.29-5.29,8.92,8.92,0,0,1,11.8.69,8.56,8.56,0,0,1,2.64,6.36A8.77,8.77,0,0,1,522,43a8.62,8.62,0,0,1-6.45,2.65,8.74,8.74,0,0,1-5.56-2,8.51,8.51,0,0,1-3.15-4.87h-2.27Zm15.69-8.53A5,5,0,0,0,519,33.1a4.46,4.46,0,0,0-3.37-1.37,4.32,4.32,0,0,0-3.32,1.42,5,5,0,0,0-1.31,3.5,5,5,0,0,0,1.31,3.61,4.39,4.39,0,0,0,3.32,1.37,4.49,4.49,0,0,0,3.33-1.37A4.91,4.91,0,0,0,520.27,36.66Z"/><path class="cls-1" d="M532.33,28.14V30a8,8,0,0,1,2.51-1.74,7.22,7.22,0,0,1,2.88-.58,7.45,7.45,0,0,1,5.68,2.52,9.16,9.16,0,0,1,2.34,6.47,8.94,8.94,0,0,1-2.42,6.37,7.6,7.6,0,0,1-5.72,2.56,7.12,7.12,0,0,1-2.74-.52,8.36,8.36,0,0,1-2.52-1.72v8h-4.25V28.14Zm4.5,3.51A4.47,4.47,0,0,0,533.47,33a5,5,0,0,0-1.33,3.61,5.12,5.12,0,0,0,1.33,3.68,4.43,4.43,0,0,0,3.35,1.4,4.35,4.35,0,0,0,3.3-1.43,5.1,5.1,0,0,0,1.34-3.64,5,5,0,0,0-1.32-3.6A4.37,4.37,0,0,0,536.83,31.65Z"/><path class="cls-1" d="M557.29,27.7a9,9,0,0,1,4.54,1.21,8.84,8.84,0,0,1,4.51,7.74,9,9,0,0,1-1.2,4.52,8.66,8.66,0,0,1-3.27,3.28,9,9,0,0,1-4.56,1.18A8.51,8.51,0,0,1,551,43a9,9,0,0,1,.34-13A8.57,8.57,0,0,1,557.29,27.7Zm.07,4A4.41,4.41,0,0,0,554,33.11a4.93,4.93,0,0,0-1.33,3.55A5,5,0,0,0,554,40.27a4.7,4.7,0,0,0,6.67,0A5,5,0,0,0,562,36.66a5,5,0,0,0-1.31-3.57A4.44,4.44,0,0,0,557.36,31.73Z"/><path class="cls-1" d="M219,81.66h12.43a24.08,24.08,0,0,1,6.09.72,13.46,13.46,0,0,1,4.69,2.17,9.79,9.79,0,0,1,3,3.67,11.9,11.9,0,0,1,1.06,5.19,11.6,11.6,0,0,1-1.09,5.19,10,10,0,0,1-3,3.67,13.82,13.82,0,0,1-4.72,2.21,23.46,23.46,0,0,1-6.12.75h-7.83v20.44H219Zm4.47,19.76H231q5.28,0,8-2a7,7,0,0,0,2.73-6q0-4.1-2.83-6T231,85.52h-7.58Z"/><path class="cls-1" d="M259.75,121.67h23.55v4h-28v-44h27.27v4h-22.8v15.1h21.31v4H259.75Z"/><path class="cls-1" d="M296.77,125.65H292.3v-44h25v4h-20.5Z"/><path class="cls-1" d="M329.21,119.13l25.6-37.46h5.59v44h-4.47V87.81h-.13l-25.6,37.84h-5.59v-44h4.47v37.46Z"/><path class="cls-1" d="M372.32,81.66h4.47v19.07h24V81.66h4.47v44h-4.47V104.84h-24v20.81h-4.47Z"/><path class="cls-1" d="M421.65,81.66V99.56h7.7a17.67,17.67,0,0,1,6.09,1,13.77,13.77,0,0,1,4.69,2.8,12.31,12.31,0,0,1,3,4.3,13.9,13.9,0,0,1,1.06,5.48,12.3,12.3,0,0,1-1.09,5.29,11.32,11.32,0,0,1-3,3.92,13.46,13.46,0,0,1-4.72,2.46,21,21,0,0,1-6.12.84H417.18v-44Zm0,40H429q5.28,0,8-2.14t2.73-7A8.25,8.25,0,0,0,436.9,106q-2.83-2.45-7.92-2.45h-7.33Zm31.56-40v44h-4.48v-44Z"/><path class="cls-1" d="M227.32,156.95h1.93a19.93,19.93,0,0,0,4.16-.44,11.52,11.52,0,0,0,3.63-1.4,7.88,7.88,0,0,0,2.58-2.52,6.77,6.77,0,0,0,1-3.73,7.43,7.43,0,0,0-2.61-6.18,10.64,10.64,0,0,0-6.83-2.08,9.53,9.53,0,0,0-5.56,1.62,11.22,11.22,0,0,0-3.63,4.16l-3.48-2.61a13.08,13.08,0,0,1,5.37-5.25,16.54,16.54,0,0,1,7.67-1.71,18.58,18.58,0,0,1,5.5.78,12.27,12.27,0,0,1,4.3,2.27,10.07,10.07,0,0,1,2.76,3.7,12.36,12.36,0,0,1,1,5.06,8.27,8.27,0,0,1-.78,3.57,10.8,10.8,0,0,1-2,3,12.83,12.83,0,0,1-2.86,2.2,13.61,13.61,0,0,1-3.2,1.34v.12a22.49,22.49,0,0,1,3.88.9,12.38,12.38,0,0,1,3.67,1.9,10,10,0,0,1,2.73,3.23,10.14,10.14,0,0,1,1.09,4.91,12,12,0,0,1-1.24,5.5,12.63,12.63,0,0,1-3.42,4.19,15.68,15.68,0,0,1-5.13,2.67,20.79,20.79,0,0,1-6.31.93,20,20,0,0,1-5.34-.65,14.14,14.14,0,0,1-4.16-1.86,13.57,13.57,0,0,1-3.14-2.92,20.8,20.8,0,0,1-2.33-3.76l3.85-2.3a18,18,0,0,0,1.71,3.14,9.82,9.82,0,0,0,2.33,2.39,10.7,10.7,0,0,0,3.2,1.55,14.6,14.6,0,0,0,4.26.56q5.41,0,8.33-2.58a8.7,8.7,0,0,0,2.92-6.86A8,8,0,0,0,242,165.4a7.89,7.89,0,0,0-3-2.77,13.81,13.81,0,0,0-4.41-1.43,34.07,34.07,0,0,0-5.37-.4h-1.93Z"/><path class="cls-1" d="M262.54,175.4l25.6-37.46h5.59v44h-4.47V144.09h-.12l-25.6,37.84h-5.59v-44h4.47V175.4Z"/><path class="cls-1" d="M327.4,174.34h.06l14.73-36.41H349v44h-4.47V143.72h-.13l-15.9,38.21h-2.36l-15.91-38.21h-.13v38.21h-4.47v-44h6.84Z"/><path class="cls-1" d="M365.55,175.4l25.6-37.46h5.59v44h-4.47V144.09h-.13l-25.6,37.84H361v-44h4.47V175.4Z"/><path class="cls-1" d="M408.67,137.94h4.47V157h24V137.94h4.47v44h-4.47V161.11h-24v20.81h-4.47Z"/><path class="cls-1" d="M497,159.93a24.11,24.11,0,0,1-1.74,9.26,21.83,21.83,0,0,1-12.08,12.11,24.66,24.66,0,0,1-18.2,0,21.83,21.83,0,0,1-12.08-12.11,25.51,25.51,0,0,1,0-18.51A21.82,21.82,0,0,1,465,138.56a24.66,24.66,0,0,1,18.2,0,21.82,21.82,0,0,1,12.08,12.12A24.1,24.1,0,0,1,497,159.93Zm-4.72,0a21.59,21.59,0,0,0-1.24-7.32,18.29,18.29,0,0,0-3.6-6.11,17.26,17.26,0,0,0-5.75-4.19,19.43,19.43,0,0,0-15.22,0,17.24,17.24,0,0,0-5.75,4.19,18.25,18.25,0,0,0-3.6,6.11,22.15,22.15,0,0,0,0,14.64,17.91,17.91,0,0,0,3.6,6.08,17.46,17.46,0,0,0,5.75,4.16,19.45,19.45,0,0,0,15.22,0,17.48,17.48,0,0,0,5.75-4.16,17.94,17.94,0,0,0,3.6-6.08A21.59,21.59,0,0,0,492.29,160Z"/><path class="cls-1" d="M536.77,137.94h5.59v44h-4.47V144.09h-.13l-25.6,37.84h-5.59v-44h4.47V175.4h.12Zm-20.13-12.3a8.36,8.36,0,0,0,15.66,0l3.17,1.49a10.23,10.23,0,0,1-1.46,2.73,10.59,10.59,0,0,1-5.5,3.85,14.86,14.86,0,0,1-8.08,0,10.59,10.59,0,0,1-5.5-3.85,10.23,10.23,0,0,1-1.46-2.73Z"/></svg>