<?xml version="1.0" encoding="utf-8"?>
<!-- Generator: Adobe Illustrator 27.2.0, SVG Export Plug-In . SVG Version: 6.00 Build 0)  -->
<svg version="1.1" id="Слой_1" xmlns="http://www.w3.org/2000/svg" xmlns:xlink="http://www.w3.org/1999/xlink" x="0px" y="0px"
	 viewBox="0 0 246 256" style="enable-background:new 0 0 246 256;" xml:space="preserve">
<style type="text/css">
	.st0{fill:none;stroke:#FFFFFF;stroke-width:3;stroke-miterlimit:10;}
	.st1{fill:#FFFFFF;}
</style>
<path class="st0" d="M1.6,13.5C1.6,7,7,1.7,13.5,1.7h219c6.5,0,11.8,5.3,11.8,11.8v228.9c0,6.5-5.3,11.8-11.8,11.8h-219
	c-6.5,0-11.8-5.3-11.8-11.8V13.5z"/>
<path class="st1" d="M106,88H64c-6.6,0-12,5.4-12,12v42c0,6.6,5.4,12,12,12h42c6.6,0,12-5.4,12-12v-42C118,93.4,112.6,88,106,88z
	 M114,142c0,4.4-3.6,8-8,8H64c-4.4,0-8-3.6-8-8v-42c0-4.4,3.6-8,8-8h42c4.4,0,8,3.6,8,8V142z"/>
<path class="st1" d="M61.6,175h-1.1c-4.7,0-8.5,3.8-8.5,8.5s3.8,8.5,8.5,8.5h1.1c4.7,0,8.5-3.8,8.5-8.5S66.3,175,61.6,175z
	 M61.6,188h-1.1c-2.5,0-4.5-2-4.5-4.5s2-4.5,4.5-4.5h1.1c2.5,0,4.5,2,4.5,4.5S64,188,61.6,188z"/>
<path class="st1" d="M109.6,175h-1.1c-4.7,0-8.5,3.8-8.5,8.5s3.8,8.5,8.5,8.5h1.1c4.7,0,8.5-3.8,8.5-8.5S114.3,175,109.6,175z
	 M109.6,188h-1.1c-2.5,0-4.5-2-4.5-4.5s2-4.5,4.5-4.5h1.1c2.5,0,4.5,2,4.5,4.5S112,188,109.6,188z"/>
<path class="st1" d="M85.6,175h-1.1c-4.7,0-8.5,3.8-8.5,8.5s3.8,8.5,8.5,8.5h1.1c4.7,0,8.5-3.8,8.5-8.5S90.3,175,85.6,175z
	 M85.6,188h-1.1c-2.5,0-4.5-2-4.5-4.5s2-4.5,4.5-4.5h1.1c2.5,0,4.5,2,4.5,4.5S88,188,85.6,188z"/>
<path class="st1" d="M186.5,55h-124C56.7,55,52,59.7,52,65.5S56.7,76,62.5,76h124c5.8,0,10.5-4.7,10.5-10.5S192.3,55,186.5,55z
	 M186.5,72h-124c-3.6,0-6.5-2.9-6.5-6.5s2.9-6.5,6.5-6.5h124c3.6,0,6.5,2.9,6.5,6.5S190.1,72,186.5,72z"/>
<path class="st1" d="M185,167h-43c-6.6,0-12,5.4-12,12v10c0,6.6,5.4,12,12,12h43c6.6,0,12-5.4,12-12v-10
	C197,172.4,191.6,167,185,167z M193,189c0,4.4-3.6,8-8,8h-43c-4.4,0-8-3.6-8-8v-10c0-4.4,3.6-8,8-8h43c4.4,0,8,3.6,8,8V189z"/>
<path class="st1" d="M195,101h-61c-1.1,0-2-0.9-2-2l0,0c0-1.1,0.9-2,2-2h61c1.1,0,2,0.9,2,2l0,0C197,100.1,196.1,101,195,101z"/>
<path class="st1" d="M195,116h-61c-1.1,0-2-0.9-2-2l0,0c0-1.1,0.9-2,2-2h61c1.1,0,2,0.9,2,2l0,0C197,115.1,196.1,116,195,116z"/>
<path class="st1" d="M195,130h-61c-1.1,0-2-0.9-2-2l0,0c0-1.1,0.9-2,2-2h61c1.1,0,2,0.9,2,2l0,0C197,129.1,196.1,130,195,130z"/>
<path class="st1" d="M195,145h-61c-1.1,0-2-0.9-2-2l0,0c0-1.1,0.9-2,2-2h61c1.1,0,2,0.9,2,2l0,0C197,144.1,196.1,145,195,145z"/>
<path class="st1" d="M84.7,96.1l-20.1,11.6c-0.6,0.3-0.9,1-0.9,1.6v23.2c0,0.7,0.4,1.3,0.9,1.6l20.1,11.6c0.6,0.3,1.3,0.3,1.9,0
	l20.1-11.6c0.6-0.3,0.9-1,0.9-1.6v-23.2c0-0.7-0.4-1.3-0.9-1.6L86.6,96.1C86,95.8,85.3,95.8,84.7,96.1z M71.7,109l13.7-7.9
	c0.2-0.1,0.5-0.1,0.7,0l13.7,7.9c0.5,0.3,0.5,0.9,0,1.2l-13.7,7.9c-0.2,0.1-0.5,0.1-0.7,0l-13.7-7.9C71.2,110,71.2,109.3,71.7,109z
	 M102.7,131.2L89,139.1c-0.5,0.3-1-0.1-1-0.6v-15.8c0-0.2,0.1-0.5,0.3-0.6l13.7-7.9c0.5-0.3,1,0.1,1,0.6v15.8
	C103,130.9,102.9,131.1,102.7,131.2z"/>
</svg>
