<?xml version="1.0" encoding="utf-8"?>
<!-- Generator: Adobe Illustrator 27.2.0, SVG Export Plug-In . SVG Version: 6.00 Build 0)  -->
<svg version="1.1" id="Слой_1" xmlns="http://www.w3.org/2000/svg" xmlns:xlink="http://www.w3.org/1999/xlink" x="0px" y="0px"
	 viewBox="0 0 246 256" style="enable-background:new 0 0 246 256;" xml:space="preserve">
<style type="text/css">
	.st0{fill:none;stroke:#FFFFFF;stroke-width:3;stroke-miterlimit:10;}
	.st1{fill:#FFFFFF;}
</style>
<path class="st0" d="M1.5,13.4c0-6.5,5.3-11.9,11.9-11.9h219.3c6.5,0,11.9,5.3,11.9,11.9v229.2c0,6.5-5.3,11.9-11.9,11.9H13.3
	c-6.5,0-11.9-5.3-11.9-11.9V13.4z"/>
<path class="st1" d="M145.1,70h30.8c1,3.9,4.6,6.7,8.9,6.3c4.2-0.4,7.5-3.9,7.6-8.1c0.1-4.7-3.7-8.6-8.4-8.6c-3.9,0-7.2,2.7-8.1,6.4
	h-44.5v-4.4c0-1.1-0.9-2-2-2h-12.8c-1.1,0-2,0.9-2,2V66H70.1c-1-3.9-4.6-6.7-8.9-6.3c-4.2,0.4-7.5,3.9-7.6,8.1
	c-0.1,4.7,3.7,8.6,8.4,8.6c3.9,0,7.2-2.7,8.1-6.4h30.8c-21,7.9-36.8,26.8-40.2,49.6h-5.1c-1.1,0-2,0.9-2,2v12.8c0,1.1,0.9,2,2,2h4.8
	c3.3,28.5,25.8,51.3,54.2,55.1v4.9c0,1.1,0.9,2,2,2h12.8c1.1,0,2-0.9,2-2v-4.9c28.4-3.8,50.8-26.5,54.2-55.1h4.8c1.1,0,2-0.9,2-2
	v-12.8c0-1.1-0.9-2-2-2h-5.1C181.9,96.8,166.1,77.9,145.1,70z M184,63.6c2.4,0,4.4,2,4.4,4.4s-2,4.4-4.4,4.4s-4.4-2-4.4-4.4
	S181.6,63.6,184,63.6z M62,72.4c-2.4,0-4.4-2-4.4-4.4s2-4.4,4.4-4.4s4.4,2,4.4,4.4S64.4,72.4,62,72.4z M118.6,63.6h8.8v8.8h-8.8
	V63.6z M57.6,132.4v-8.8h8.8v8.8H57.6z M127.4,194.4h-8.8v-8.8h8.8C127.4,185.6,127.4,194.4,127.4,194.4z M131.4,187.4v-3.8
	c0-1.1-0.9-2-2-2h-12.8c-1.1,0-2,0.9-2,2v3.8c-26.2-3.7-46.9-24.7-50.2-51h3.9c1.1,0,2-0.9,2-2v-12.8c0-1.1-0.9-2-2-2h-3.6
	c4.1-25.4,24.4-45.4,49.9-49v3.8c0,1.1,0.9,2,2,2h12.8c1.1,0,2-0.9,2-2v-3.8c25.5,3.6,45.8,23.7,49.9,49h-3.6c-1.1,0-2,0.9-2,2v12.8
	c0,1.1,0.9,2,2,2h3.9C178.2,162.7,157.5,183.7,131.4,187.4z M188.4,132.4h-8.8v-8.8h8.8V132.4z"/>
<path class="st1" d="M143.7,123.2L143.7,123.2c0-0.1-0.1-0.1-0.1-0.2L127,87.4c-0.3-0.7-1-1.1-1.7-1.1h-4.6c-0.7,0-1.4,0.4-1.7,1.1
	L102.4,123c0,0.1-0.1,0.1-0.1,0.2c-0.2,0.4-0.3,0.8-0.3,1.2c0,0.4,0.1,0.9,0.3,1.3c0,0.1,0.1,0.1,0.1,0.2l7.7,16.6h-1.6
	c-1.1,0-2.1,0.4-2.9,1.2c-0.8,0.8-1.2,1.8-1.2,2.9c0,3,1.9,5.7,4.7,6.8v10.9c0,3,2.4,5.4,5.4,5.4h16.6c3,0,5.4-2.4,5.4-5.4v-10.9
	c2.8-1.1,4.7-3.7,4.7-6.8c0-1.1-0.4-2.1-1.2-2.9c-0.8-0.8-1.8-1.2-2.9-1.2h-1.3l7.7-16.6c0-0.1,0.1-0.1,0.1-0.2
	c0.2-0.4,0.3-0.8,0.3-1.2C144.1,124,144,123.6,143.7,123.2z M132.2,164.3c0,0.6-0.5,1.1-1.1,1.1h-16.6c-0.6,0-1.1-0.5-1.1-1.1v-10.4
	h18.7L132.2,164.3L132.2,164.3z M139.4,124.6l-8.3,17.8H115l-7.1-15.3l-1.2-2.6c0-0.1,0-0.2,0-0.2l1.7-4l12.4-26.7V115
	c-3.6,0.9-6.3,4.1-6.6,7.8c0,0.2,0,0.5,0,0.8v0.2c0,0.7,0.1,1.5,0.3,2.2c0.1,0.3,0.2,0.6,0.3,0.9c1.4,3.3,4.6,5.5,8.2,5.5
	c3.6,0,6.8-2.2,8.2-5.5c0.1-0.3,0.2-0.6,0.3-0.9c0.2-0.7,0.3-1.5,0.3-2.2v-0.2c0-0.3,0-0.5,0-0.7c-0.3-3.8-3-6.9-6.6-7.8V93.9
	l12.9,27.7l1.3,2.9C139.4,124.5,139.4,124.6,139.4,124.6z M123,119c2.5,0,4.6,2.1,4.6,4.6s-2.1,4.6-4.6,4.6s-4.6-2.1-4.6-4.6
	S120.5,119,123,119z"/>
</svg>
