<?xml version="1.0" encoding="utf-8"?>
<!-- Generator: Adobe Illustrator 27.2.0, SVG Export Plug-In . SVG Version: 6.00 Build 0)  -->
<svg version="1.1" id="Слой_1" xmlns="http://www.w3.org/2000/svg" xmlns:xlink="http://www.w3.org/1999/xlink" x="0px" y="0px"
	 viewBox="0 0 246 256" style="enable-background:new 0 0 246 256;" xml:space="preserve">
<style type="text/css">
	.st0{fill:none;stroke:#FFFFFF;stroke-width:3;stroke-miterlimit:10;}
	.st1{fill:#FFFFFF;}
</style>
<path class="st0" d="M1.6,13.5C1.6,7,6.9,1.6,13.4,1.6h219.1c6.5,0,11.8,5.3,11.8,11.8v229c0,6.5-5.3,11.8-11.8,11.8H13.4
	c-6.5,0-11.8-5.3-11.8-11.8V13.5z"/>
<path class="st1" d="M186.5,55h-124C56.7,55,52,59.7,52,65.5S56.7,76,62.5,76h124c5.8,0,10.5-4.7,10.5-10.5S192.3,55,186.5,55z
	 M186.5,72h-124c-3.6,0-6.5-2.9-6.5-6.5s2.9-6.5,6.5-6.5h124c3.6,0,6.5,2.9,6.5,6.5S190.1,72,186.5,72z"/>
<path class="st1" d="M184.2,145.3h-61c-1.1,0-2-0.9-2-2l0,0c0-1.1,0.9-2,2-2h61c1.1,0,2,0.9,2,2l0,0
	C186.2,144.4,185.3,145.3,184.2,145.3z"/>
<path class="st1" d="M184.2,160.9h-61c-1.1,0-2-0.9-2-2l0,0c0-1.1,0.9-2,2-2h61c1.1,0,2,0.9,2,2l0,0
	C186.2,160,185.3,160.9,184.2,160.9z"/>
<path class="st1" d="M184.2,176.6h-61c-1.1,0-2-0.9-2-2l0,0c0-1.1,0.9-2,2-2h61c1.1,0,2,0.9,2,2l0,0
	C186.2,175.7,185.3,176.6,184.2,176.6z"/>
<g>
	<path class="st1" d="M184.2,114H65.3c-1.1,0-2-0.9-2-2s0.9-2,2-2h118.9c1.1,0,2,0.9,2,2S185.3,114,184.2,114z"/>
</g>
<g>
	<path class="st1" d="M184.2,129.6H65.3c-1.1,0-2-0.9-2-2s0.9-2,2-2h118.9c1.1,0,2,0.9,2,2S185.3,129.6,184.2,129.6z"/>
</g>
<path class="st1" d="M58.3,203.6c-0.5,0-1-0.2-1.4-0.6l-8.2-8.2c-0.4-0.4-0.6-0.9-0.6-1.4s0.2-1,0.6-1.4l42.6-42.6
	c0.8-0.8,2.1-0.8,2.8,0l8.2,8.3c0.8,0.8,0.8,2,0,2.8L59.7,203C59.3,203.4,58.8,203.6,58.3,203.6z M52.9,193.4l5.4,5.4L98.1,159
	l-5.4-5.4L52.9,193.4z"/>
<path class="st1" d="M185,88H64c-6.6,0-12,5.4-12,12v83.2l4-4V100c0-4.4,3.6-8,8-8h121c4.4,0,8,3.6,8,8v89c0,4.4-3.6,8-8,8H71.2
	l-4,4H185c6.6,0,12-5.4,12-12v-89C197,93.4,191.6,88,185,88z"/>
<path class="st1" d="M100.9,161c-0.5,0-1-0.2-1.4-0.6l-8.2-8.3c-0.5-0.5-0.7-1.1-0.6-1.7s0.5-1.2,1.1-1.5l16.4-8.1
	c0.8-0.4,1.7-0.2,2.3,0.4c0.6,0.6,0.8,1.5,0.4,2.3l-8.1,16.4c-0.3,0.6-0.8,1-1.5,1.1C101.2,161,101,161,100.9,161z M96.1,151.3
	l4.3,4.3l4.3-8.6L96.1,151.3z"/>
<path class="st1" d="M51,208.6c-2.1,0-4.1-0.8-5.5-2.3l0,0c-3.1-3.1-3.1-8,0-11.1l3.2-3.2c0.8-0.8,2-0.8,2.8,0l8.2,8.2
	c0.4,0.4,0.6,0.9,0.6,1.4s-0.2,1-0.6,1.4l-3.2,3.2C55,207.7,53.1,208.6,51,208.6z M48.3,203.4c1.4,1.4,4,1.4,5.4,0l1.8-1.8l-5.4-5.4
	l-1.8,1.8C46.8,199.5,46.8,201.9,48.3,203.4L48.3,203.4z"/>
</svg>
