<?xml version="1.0" standalone="no"?>
<!DOCTYPE svg PUBLIC "-//W3C//DTD SVG 20010904//EN"
 "http://www.w3.org/TR/2001/REC-SVG-20010904/DTD/svg10.dtd">
<svg version="1.0" xmlns="http://www.w3.org/2000/svg"
 width="512.000000pt" height="512.000000pt" viewBox="0 0 512.000000 512.000000"
 preserveAspectRatio="xMidYMid meet">
<metadata>
Created by potrace 1.14, written by Peter Selinger 2001-2017
</metadata>
<g transform="translate(0.000000,512.000000) scale(0.100000,-0.100000)"
fill="#000000" stroke="none">
<path d="M7 5093 c-4 -3 -7 -1144 -7 -2535 l0 -2528 1878 0 c1032 0 2184 3
2560 7 l682 6 -2 2526 -3 2526 -2551 3 c-1403 1 -2554 -1 -2557 -5z m4881
-2540 l-3 -2288 -2312 -3 -2313 -2 0 2290 0 2290 2315 0 2315 0 -2 -2287z"/>
<path d="M3520 4164 c-167 -169 -599 -440 -954 -596 -50 -22 -92 -41 -93 -42
-5 -5 194 -524 206 -538 8 -9 187 52 322 110 97 41 281 138 331 174 l28 19 2
-1193 3 -1193 358 -3 357 -2 -2 1657 -3 1658 -250 3 -250 2 -55 -56z"/>
<path d="M2599 2270 c-31 -4 -82 -19 -115 -34 -126 -58 -196 -167 -202 -318
-6 -130 14 -185 91 -263 79 -78 139 -102 290 -116 l109 -9 62 30 c139 66 204
187 193 359 -9 146 -52 226 -157 290 -85 53 -173 72 -271 61z m147 -235 c30
-19 63 -87 64 -129 0 -48 -22 -107 -53 -137 -24 -25 -37 -29 -80 -29 -98 0
-147 55 -150 169 -2 65 25 114 77 137 38 18 107 12 142 -11z"/>
<path d="M1057 2243 c-4 -3 -7 -307 -7 -675 l0 -668 150 0 150 0 2 416 3 416
40 -41 c22 -22 54 -63 70 -91 17 -29 78 -126 137 -218 59 -91 149 -237 200
-323 l93 -158 133 -1 132 0 -2 673 -3 672 -145 0 -145 0 -5 -370 -5 -370 -64
105 c-100 164 -317 463 -404 556 l-79 84 -122 0 c-68 0 -126 -3 -129 -7z"/>
<path d="M2324 1367 c-2 -7 -3 -60 -2 -118 l3 -104 338 -3 338 -2 -3 117 -3
118 -333 3 c-269 2 -333 0 -338 -11z"/>
</g>
</svg>
