<svg width="192" height="192" viewBox="0 0 192 192" fill="none" xmlns="http://www.w3.org/2000/svg">
<path d="M113.482 123.743V188.236C134.928 184.173 153.731 172.798 167.148 156.751L128.931 117.446C123.341 111.657 113.482 115.618 113.482 123.743Z" fill="#318DE8"/>
<path d="M96 4C44.6721 4 3 45.6409 3 96.9304C3 139.993 32.3738 176.251 72.1148 186.712V53.6644C72.1148 48.6878 76.1803 44.6253 81.1607 44.6253H109.721C112.161 44.6253 114.397 45.5394 116.125 47.266L186.662 117.751C188.187 111.048 189 104.04 189 96.9304C189 45.6409 147.328 4 96 4Z" fill="#318DE8"/>
</svg>
