<svg xmlns="http://www.w3.org/2000/svg" width="189" height="77" viewBox="0 0 189 77">
  <defs>
    <style>
      .a {
        fill: #303030;
      }
    </style>
  </defs>
  <title>2</title>
  <g>
    <path class="a" d="M74.27,61.67c-1.42.45-2.89.94-4.22-.18-.21-1.4-.42-2.7-.72-4.65-3.37,3.06-5.23,6.77-9.46,8.9a23.71,23.71,0,0,1,.9-4.2c1.67-3.88,3.39-7.73,6.58-10.69,1.29-1.2,2.74-2.58,1.94-4.78-2.61.5-3.53,1-5.17,4.19-2.84,5.57-7.7,9-12.38,12.67a12.75,12.75,0,0,1-2.87,1.33L46.46,62c-2.79-.52-3.69,2.25-6.09,3.19.59-1.08,1-1.67,1.24-2.3s.43-1.19.92-2.61c-1.61.74-2.5,1.13-3.37,1.56a24.9,24.9,0,0,1-3.1,1.55c-3.35,1.07-4.53.22-4.71-3.29-.08-1.52.15-3.13-1.78-4.07l-3,.67c.42-.85.64-1.39.94-1.87C33.26,45.31,39,35.74,44.9,26.31c3.85-6.13,7.15-12.68,12.48-17.77A10.39,10.39,0,0,0,59.3,5.61a9.34,9.34,0,0,0,.38-2.39C57,3.29,56,5,54.86,6.68c-2.17,3.19-4.18,6.52-6.6,9.51-8.83,10.91-17.8,21.7-26.71,32.56-3.29,4-6.53,8.08-9.79,12.12A504.62,504.62,0,0,1,40.54,13.31c-.25,4-3.64,6.53-4.86,10.37,2.5-.94,5.73-5.39,7-9.36.45-1.48,1.4-3.12-.46-4.51-2.58.42-4,2.41-5.2,4.32-2.87,4.42-5.55,9-8.25,13.49q-10,16.76-20,33.54C5.85,66,2.91,70.78,0,75.59V77H2.09c2.84-3.87,5.55-7.84,8.52-11.6,8.78-11.11,17.65-22.14,26.51-33.19,1.52-1.9,3.15-3.7,4.73-5.55-4.26,8-8.9,15.57-13.55,23.16-2.38,3.9-4.83,7.76-7.15,11.7-.66,1.13-1.58,2.4-.42,4,3.84-.43,4.5-4.81,7.51-6.41.82,2.45-.24,5.34,2.7,6.69,2.53,1.16,4.66-.4,7-.92.14,1.47-1.22,3,1,4.07l6-4.64,2.75,2.24c4.52-.8,7.48-4.32,11.41-6.75-2,5.25-2,5.25-1.24,8,4.64.8,6.67-3.14,9.41-5.69,2.24,2.84,3.13,3.15,6.32,2.07,1.43-.48,2.79-1.16,4.2-1.71.79-.3,1.61-.53,2.56-.83-.29,1.91-2.65,2.34-2.22,4.92a12.44,12.44,0,0,0,5.63-7.34,30,30,0,0,0-3.85.58C78,60.31,76.15,61.06,74.27,61.67Z"/>
    <path class="a" d="M183.46,46.8c-2.92.6-5.7.83-8.12-1-5.32,2.32-5.32,2.32-9.58.38-2.5.76-3.88,3.77-6.9,3.62-.35-1-.67-2-1.1-3.26l-3.42,2.87c.35-2.17.57-3.57.84-5.24-3.43.33-5.11,4-8.52,3.81.35-1.46.66-2.73,1-4l-.71-.46c-1.78,1.82-3.56,3.63-5.33,5.45l-.54-.48,6.09-8a10.62,10.62,0,0,0-1.49-.85c-3.18-1.14-3.36-1.38-3.32-4.76,0-1.5,0-3,0-4.69,2.2-2.6,2.2-2.6,2.51-5.17-7.34,6.25-15.37,10.2-23.49,14.14a9.8,9.8,0,0,1,1.69-3c5.68-6.51,11.41-13,17.1-19.47.77-.87,2.08-1.47,1.83-3.27-3.81,1.14-5.67,5.66-9.91,5.32-1.3-1.49-.64-2.92,0-4a43.49,43.49,0,0,1,4-5.31c2.71-3.19,5.52-6.3,8.3-9.45h-2.1c-4.32,4.07-8.44,8.41-13,12.16-7.12,5.85-14.55,11.3-21.84,16.93-.74.57-1.38,1.25-2.07,1.88l.56.79c2.35-.48,4-2.42,5.92-3.65s3.81-2.67,5.7-4.05,3.92-2.92,5.89-4.39,3.81-2.83,5.63-4.2c.12,1.55-.16,3.12.43,4.19s2,1.53,2.85,2.09c-5.35,6.56-10.64,13.1-16,19.56a15.71,15.71,0,0,1-3.47,2.86c-4,2.64-8,5.15-12,7.8a14.23,14.23,0,0,0-3.11,2.79c-1.51,1.88-.9,3.48,1.42,4.27A5.09,5.09,0,0,0,104,58a49.73,49.73,0,0,0,6.83-6.46c3.78-4.46,7.28-9.07,12.79-11.66,4.45-2.09,8.65-4.73,13-7.13-2.32,3.22-5,6-7.33,9.05s-5,5.95-6.2,9.66l.58.48L127,50c3.64,2.54,6.48.71,8.81-2a70.48,70.48,0,0,0,4.88-7.2c.19-.29.32-.61.49-.93l2.78,1.77c-2.07,3.88-5.72,6.69-5.72,11.38,2.73.51,3.56-1.71,5.28-2.11l7.33-2.16L152.17,53l3.74-1c4.51,3.1,6.45-1.92,9.74-3.21a10.4,10.4,0,0,0,9.4-.66c2.17,1.82,4.54,1.31,7,.66,1.48-.39,3-1.26,4.72-.09l-.93,3.32c2,.51,2.24-1.26,3.2-1.89V46.62A30.93,30.93,0,0,0,183.46,46.8ZM99.25,56.06c3.28-3.92,7.55-6,11.65-8.6C108.57,53,103.81,56.57,99.25,56.06ZM139.3,38.42a46.16,46.16,0,0,1-4.83,8.39c-2.05,2.71-3.11,2.47-6.11-.61l11.22-13.45A6.48,6.48,0,0,1,139.3,38.42Z"/>
  </g>
</svg>
