<svg xmlns="http://www.w3.org/2000/svg" width="271" height="109" viewBox="0 0 271 109">
  <defs>
    <style>
      .a {
        fill: #ee2034;
      }
    </style>
  </defs>
  <title>1</title>
  <g>
    <path class="a" d="M106.5,87.3c-2,.64-4.16,1.34-6-.25-.32-2-.61-3.82-1-6.59-4.83,4.33-7.49,9.59-13.57,12.6.53-2.57.61-4.39,1.29-6C89.52,81.62,92,76.18,96.58,72c1.84-1.7,3.92-3.65,2.78-6.77-3.75.72-5.06,1.39-7.42,5.94C87.86,79,80.9,83.91,74.19,89.08A18.67,18.67,0,0,1,70.07,91l-3.46-3.21c-4-.73-5.28,3.18-8.72,4.51.84-1.52,1.37-2.36,1.78-3.25s.61-1.68,1.32-3.7c-2.31,1-3.59,1.6-4.84,2.21a36,36,0,0,1-4.45,2.2c-4.79,1.52-6.49.32-6.75-4.65-.11-2.15.21-4.43-2.56-5.77l-4.34.94c.6-1.2.91-1.95,1.33-2.64,8.31-13.47,16.5-27,25-40.35,5.53-8.68,10.25-18,17.89-25.17A14.31,14.31,0,0,0,85,7.94a12.61,12.61,0,0,0,.55-3.39c-3.9.11-5.32,2.59-6.91,4.9-3.11,4.53-6,9.24-9.46,13.47C56.54,38.37,43.67,53.64,30.91,69c-4.73,5.69-9.37,11.44-14,17.16C29.58,63,43,40.39,58.13,18.84c-.37,5.67-5.22,9.24-7,14.68,3.59-1.34,8.22-7.62,10-13.25.65-2.09,2-4.41-.66-6.38C56.77,14.48,54.78,17.3,53,20c-4.12,6.25-7.95,12.69-11.83,19.1C31.6,54.92,22.09,70.76,12.51,86.58,8.38,93.41,4.17,100.2,0,107v2H3c4.06-5.48,8-11.09,12.22-16.41q18.88-23.59,38-47c2.18-2.69,4.52-5.24,6.79-7.86C53.9,49,47.25,59.77,40.58,70.53c-3.42,5.52-6.92,11-10.25,16.56-1,1.59-2.26,3.4-.61,5.6,5.51-.61,6.46-6.8,10.77-9.07,1.18,3.46-.35,7.56,3.87,9.47,3.63,1.64,6.69-.57,10-1.3.2,2.07-1.76,4.23,1.38,5.76L64.4,91l3.94,3.17C74.82,93,79.06,88,84.7,84.6,81.76,92,81.76,92,82.92,95.9c6.65,1.14,9.56-4.44,13.49-8,3.22,4,4.49,4.45,9.06,2.93,2-.69,4-1.65,6-2.42,1.13-.44,2.31-.75,3.67-1.19-.42,2.71-3.8,3.32-3.18,7,3.93-2.64,6.57-5.35,8.07-10.39a45.05,45.05,0,0,0-5.52.82C111.83,85.37,109.2,86.44,106.5,87.3Z"/>
    <path class="a" d="M263.06,66.25c-4.2.85-8.18,1.18-11.64-1.37-7.64,3.28-7.64,3.28-13.74.53-3.58,1.08-5.57,5.34-9.9,5.14-.5-1.5-1-2.82-1.57-4.62l-4.91,4c.5-3.06.82-5,1.21-7.41-4.92.47-7.34,5.63-12.23,5.39.51-2.06.95-3.86,1.39-5.66l-1-.65L203,69.36l-.76-.68L211,57.33a17.17,17.17,0,0,0-2.13-1.21c-4.56-1.61-4.81-1.95-4.77-6.73,0-2.13,0-4.25,0-6.64,3.15-3.68,3.15-3.68,3.6-7.31-10.52,8.84-22,14.44-33.68,20a14,14,0,0,1,2.41-4.17c8.15-9.21,16.37-18.37,24.53-27.56,1.1-1.23,3-2.08,2.62-4.62-5.47,1.61-8.13,8-14.2,7.53-1.87-2.12-.93-4.14.05-5.73a60.82,60.82,0,0,1,5.7-7.51C199,8.86,203,4.45,207,0h-3c-6.2,5.77-12.1,11.9-18.66,17.22-10.21,8.27-20.87,16-31.31,24-1.06.8-2,1.77-3,2.66l.81,1.12c3.37-.68,5.68-3.43,8.49-5.16s5.47-3.79,8.17-5.74,5.63-4.14,8.44-6.21L185,21.91c.17,2.19-.22,4.4.62,5.92s2.9,2.16,4.08,3c-7.67,9.28-15.25,18.54-23,27.69a22.53,22.53,0,0,1-5,4.05c-5.71,3.74-11.54,7.29-17.24,11a20.22,20.22,0,0,0-4.46,3.94c-2.16,2.67-1.29,4.94,2,6a7.34,7.34,0,0,0,7.06-1.45A71.87,71.87,0,0,0,159,73c5.41-6.33,10.43-12.84,18.34-16.51,6.38-3,12.39-6.7,18.57-10.1-3.33,4.57-7.1,8.55-10.51,12.81s-7.1,8.43-8.88,13.68l.83.68L182,70.83c5.23,3.59,9.3,1,12.64-2.85,2.68-3.09,4.7-6.77,7-10.2a13.44,13.44,0,0,0,.7-1.31l4,2.51c-3,5.49-8.2,9.47-8.2,16.1,3.91.72,5.1-2.42,7.56-3L216.23,69l2,6,5.36-1.37c6.46,4.38,9.24-2.73,14-4.56A15,15,0,0,0,251,68.17c3.11,2.58,6.51,1.85,10,1,2.14-.56,4.34-1.79,6.77-.14-.45,1.61-.87,3.09-1.33,4.7,2.86.73,3.21-1.78,4.59-2.68V66C268.35,66.05,265.62,65.73,263.06,66.25ZM142.31,79.36C147,73.8,153.14,70.93,159,67.18,155.68,75,148.85,80.08,142.31,79.36Zm57.43-25a66.29,66.29,0,0,1-6.92,11.88c-2.94,3.82-4.46,3.49-8.76-.87l16.07-19A9.05,9.05,0,0,1,199.74,54.39Z"/>
  </g>
</svg>
