<?xml version="1.0" encoding="utf-8"?>
<!-- Generator: Adobe Illustrator 23.0.3, SVG Export Plug-In . SVG Version: 6.00 Build 0)  -->
<svg version="1.1" id="Слой_1" xmlns="http://www.w3.org/2000/svg" xmlns:xlink="http://www.w3.org/1999/xlink" x="0px" y="0px"
	 viewBox="0 0 127 79" style="enable-background:new 0 0 127 79;" xml:space="preserve">
<path d="M20.5,15.8C26.7,9,34.1,4,42.2,0c0.7,0,1.3,0,2,0c2.6,3,1.1,5.9-0.2,8.8c-3.2,7.3-6.6,14.6-8.2,22.5
	c-0.6,2.8-0.9,5.6,0.8,8.2c0.8,1.2,2,2,3.3,1.8c1.6-0.2,2.2-1.9,1.9-3c-1-4.1,0.2-7.6,2-11.3c1.1-2.2,0.1-5-1.4-7.6
	c3.8,0.2,3.3,3.2,5,4.9C52.9,20,58.6,16,65.3,13.7c2.7-0.9,5.3-2,8.3-1.8c4.5,0.3,5.9,2.6,3.9,6.7c-4.9,10.2-3.9,12,7.4,12.5
	c12.9,0.6,25.7-1.2,38.5-2.3c0.8-0.1,1.6,0,2.6,0.8c-2.1,0.4-4.1,0.8-6.2,1.1c-12.2,2.1-24.5,3.1-36.9,2.7
	c-4.8-0.2-8.8-1.6-11.4-6.4c-6.6,6.5-13.3,12.7-22,15.4c-5.6,1.8-8,4.9-10.1,10.1C30,76,13,80,9,79c-6.2-1.6-9-6-9-12
	c0-1.3,0-3.4,0.1-5.9C1.7,36.8,16.5,20.1,20.5,15.8z M43.4,2.9c-3.8,0.4-6.3,2-8.8,3.7C19,16.7,9.6,31.2,4.1,48.6
	c-2.1,6.5-3.5,13.2-1.9,20.1c1.4,6.1,5,8.7,11.3,8c4.6-0.5,8.6-2.7,11.9-5.9c6.7-6.5,11.1-14.5,14-23.3c0.6-1.9,0.4-3.2-1.5-4
	c-5.3-2.3-5.4-6.8-4.6-11.4c1.1-6.4,3.8-12.4,6.2-18.4C40.8,10.2,42.9,7.1,43.4,2.9z M72,14C62.4,16,53.5,20.7,46.7,29
	c-1.3,1.7-2.4,4.5-0.6,6.5c1.7,1.8,4.1,0.3,6-0.6c7.9-3.6,13.4-10.8,21.7-14c1.7-0.7,3.1-3.3,2.5-5.6C76,13.8,74.2,14.2,72,14z
	 M67.8,26.6c-0.5,0.4-1,0.7-1.5,1.1c-6.3,4.7-11.9,10.9-20.7,10.9c-1.5,0-2,1.4-1.2,3.3C53.9,39.4,61.3,33.8,67.8,26.6z"/>
</svg>
