<?xml version="1.0" encoding="utf-8"?>
<!-- Generator: Adobe Illustrator 23.0.3, SVG Export Plug-In . SVG Version: 6.00 Build 0)  -->
<svg version="1.1" id="Слой_1" xmlns="http://www.w3.org/2000/svg" xmlns:xlink="http://www.w3.org/1999/xlink" x="0px" y="0px"
	 viewBox="0 0 163.2 95" style="enable-background:new 0 0 163.2 95;" xml:space="preserve">
<style type="text/css">
	.st0{fill:#A38A71;}
</style>
<g>
	<path class="st0" d="M62.6,44.1c4.5-7.7,8.8-15,13.1-22.3c-1.4-0.3-2-0.1-2.4,0.4C67.8,29,66.4,39,57,42.7
		c-1.2,5.6-8.7,4.9-9.7,11.6c-2.9-5-3.4-8.7-0.7-12.4c5.8-7.9,11.1-16.3,17.6-23.5C70.4,11.7,78,6.1,85,0c-0.7,0-1.3,0-2,0
		C66.5,10.7,54.5,25.6,43.9,42.3c-1.9-6.4-1.5-8.3,1.7-12.4c2.6-3.4,5.2-6.9,7.5-10.5c0.6-1,0.6-3.5,0-3.9c-1.2-0.7-3.3-0.9-4.5-0.3
		c-1.7,0.9-3.4,2.5-4.1,4.2c-1.5,3.6-2.7,7.5-3.5,11.3c-1.1,5.1-7.7,11.8-11.4,12.1c-0.7,2.2-0.8,4.3-1.9,5.7
		C17.3,61.9,7.2,75.5,0,91c0,1.3,0,2.7,0,4c1.7,0,3.3,0,5,0c1.6-0.9,3.1-1.9,4.7-2.8c10.1-5.7,17.9-13.8,23.2-24.1
		c2.9-5.5,3.7-11.3,2-17.4c-1.9-6.5-0.4-9.8,5.6-13.2c1.6,5.4,0.8,10.4-1.1,15.8c-2.2,6.5-3.1,13.6-3.2,20.5c0,4,2.2,8.2,4.2,11.9
		c1.7,3,4.9,2.9,7.1,0.3c1.3-1.5,2.6-3.8,2.6-5.7c-0.1-5.6-0.4-11.3-1.3-16.8c-1.3-7.4-1.3-7.8,6.1-10.9c4.1-1.8,8-4.1,12-6.2
		c-0.1-0.4-0.2-0.8-0.4-1.2C65.5,44.8,64.3,44.5,62.6,44.1z M51.1,16.5c0.5,0.3,0.9,0.7,1.4,1c-2.6,3.9-5.3,7.8-8.4,12.4
		C43.5,22.5,46.2,17.9,51.1,16.5z M33.7,59.2c-1,13.2-19,31.6-31.9,33.3C8.5,74.9,20,61.6,30.5,47.8c0.6,0,1.1,0.1,1.7,0.1
		C32.8,51.7,34,55.5,33.7,59.2z M48.7,75.7c0.7,4.8-1.9,10-4.3,9.7c-4.7-0.5-5.1-4.8-5.9-8.2c-2-7.9,0.3-20,4.4-26.3
		c0.4,0,0.9,0,1.3-0.1C45.7,59.2,47.5,67.4,48.7,75.7z"/>
	<path class="st0" d="M162.9,28c-14.8,5.7-29.6,11.4-44.4,17.2c-0.4-0.6-0.9-1.1-1.3-1.7c6.8-10.6,13.6-21.1,20.4-31.7
		c-0.5-0.3-0.9-0.6-1.4-0.9c-12.5,15.9-21.6,34.1-32.4,51.2c1.9-1.6,3.3-3.6,5-5.3c4.2-4.2,7-9.7,13.2-11.7
		c8.2-2.6,16.4-5.4,24.5-8.6c5.7-2.3,11.2-5.3,16.7-8C163.1,28.3,163,28.1,162.9,28z"/>
	<path class="st0" d="M75.9,61.1c0.1-1.5,0.2-3,0.8-4.4c6.8-17.3,18.3-30.7,34-40.6c1.6-1,3.8-1.2,6.7-2.1c-1.1,3.2-1.7,5.1-2.3,7
		c2.4-2,5.3-4.3,3.3-7.3c-2-2.9-5.1-0.8-7.7,0.2c-0.2,0.1-0.3,0.1-0.4,0.2C94.6,24.4,82.3,37.5,75.4,54.9c-1.2,3.1-1.4,6.9-1.1,10.2
		c0.5,4.5,3.3,6,7.5,5.1C76.9,68.5,75.6,66.5,75.9,61.1z"/>
	<path class="st0" d="M86.8,61.1c2.5-4.1,5-8.2,7.6-12.1c5.7-8.6,11.5-17.1,17.2-25.8c1.1-1.6,1.7-3.5,2.5-5.3
		c-0.6-0.3-1.1-0.7-1.7-1c-6.4,8.9-12.7,17.8-19.2,26.9c0.9,0.1,1.5,0.1,2.5,0.2c-3,5.8-7.9,10.5-9.8,16.8
		C86.2,61,86.5,61,86.8,61.1z"/>
	<path class="st0" d="M108.8,38.7C102,50.4,92.7,60.4,86.2,72.3c0.4,0.2,0.8,0.4,1.2,0.6c3.9-5.5,8-11,11.8-16.6
		c3.8-5.5,7.4-11.1,11.1-16.6C109.8,39.3,109.3,39,108.8,38.7z"/>
</g>
</svg>
