<?xml version="1.0" encoding="utf-8"?>
<!-- Generator: Adobe Illustrator 23.0.3, SVG Export Plug-In . SVG Version: 6.00 Build 0)  -->
<svg version="1.1" id="Capa_1" xmlns="http://www.w3.org/2000/svg" xmlns:xlink="http://www.w3.org/1999/xlink" x="0px" y="0px"
	 viewBox="0 0 59 59" style="enable-background:new 0 0 59 59;" xml:space="preserve">
<style type="text/css">
	.st0{fill:#FFFFFF;}
</style>
<g>
	<path class="st0" d="M29.1,26c-0.5,0.2-0.8,0.7-0.7,1.2c0,0.1,2.7,9.6,2,30.7c0,0.6,0.4,1,1,1c0,0,0,0,0,0c0.5,0,1-0.4,1-1
		c0.7-21.4-1.9-30.9-2-31.3C30.2,26.2,29.6,25.9,29.1,26z"/>
	<path class="st0" d="M54.2,16.5C50,6.5,40.2,0,29.4,0C25.8,0,22.3,0.7,19,2.1c-1.8,0.8-3.6,1.7-5.2,2.7c-0.5,0.3-0.6,0.9-0.3,1.4
		c0.3,0.5,0.9,0.6,1.4,0.3c1.5-1,3.1-1.8,4.8-2.5C22.8,2.6,26,2,29.4,2c10.1,0,19.1,6,23,15.3c1.6,3.9,2.5,11,2.9,14.8
		c0.1,0.5,0.5,0.9,1,0.9c0,0,0.1,0,0.1,0c0.5-0.1,1-0.5,0.9-1.1C56.8,27,55.9,20.4,54.2,16.5z"/>
	<path class="st0" d="M10.9,9.7c0.4-0.4,0.4-1,0-1.4c-0.4-0.4-1-0.4-1.4,0c-5.4,5.3-10.7,15.2-5.7,32c0.1,0.4,0.5,0.7,1,0.7
		c0.1,0,0.2,0,0.3,0c0.5-0.2,0.8-0.7,0.7-1.2C1.9,27.1,3.7,16.8,10.9,9.7z"/>
	<path class="st0" d="M30.1,6c-3.1-0.1-6,0.4-8.9,1.6c-9.8,4.1-15,14.9-12.1,25.1c0.3,1,0.6,2.1,0.7,3.2c0.4,2.4,0.4,7,0.4,14.1
		c0,0.6,0.4,1,1,1s1-0.4,1-1c0-7.5,0-11.8-0.4-14.4c-0.2-1.2-0.5-2.4-0.8-3.4c-2.6-9.2,2.1-19,11-22.7c2.5-1.1,5.3-1.5,8-1.5
		c7.1,0.3,15.2,6.5,17.6,13.7c2.1,6.2,2.1,16.8,1.9,26.3c0,0.6,0.4,1,1,1c0.5,0,1-0.4,1-1c0.3-9.7,0.2-20.5-2-27
		C46.8,13,38.1,6.3,30.1,6z"/>
	<path class="st0" d="M29.4,12c-1.1,0-2.2,0.1-3.2,0.3c-0.5,0.1-0.9,0.7-0.8,1.2c0.1,0.5,0.6,0.9,1.2,0.8c0.9-0.2,1.8-0.3,2.8-0.3
		c5.2,0,9.9,3.1,12,7.9c2.4,5.7,2.6,15,2,31c0,0.6,0.4,1,1,1c0,0,0,0,0,0c0.5,0,1-0.4,1-1c0.6-16.7,0.4-25.8-2.2-31.9
		C40.8,15.6,35.4,12,29.4,12z"/>
	<path class="st0" d="M21.9,16.3c0.5-0.3,0.6-0.9,0.2-1.4c-0.3-0.5-0.9-0.6-1.4-0.2c-5.1,3.6-7.4,10.6-5.6,17.3
		c0,0.1,2.1,7.5,2.1,19c0,0.6,0.4,1,1,1s1-0.4,1-1c0-11.8-2-19.2-2.1-19.5C15.5,25.5,17.5,19.5,21.9,16.3z"/>
	<path class="st0" d="M39.3,48c0-0.6-0.4-1-1-1c0,0,0,0,0,0c-0.5,0-1,0.4-1,1c0,0.8,0,1.8,0,3c0,1.7,0.1,3.7,0,4.9c0,0.6,0.4,1,1,1
		c0,0,0,0,0,0c0.5,0,1-0.4,1-1c0-1.3,0-3.3,0-5.1C39.3,49.8,39.3,48.7,39.3,48z"/>
	<path class="st0" d="M29.4,19c-1.1,0-2.1,0.2-3.1,0.6c-3.9,1.6-5.8,6-4.4,10.2c0.8,2.3,1.4,14.3,1.4,26.2c0,0.6,0.4,1,1,1
		s1-0.4,1-1c0-10.7-0.6-24-1.5-26.8c-1.1-3.2,0.4-6.5,3.3-7.7c0.7-0.3,1.5-0.5,2.3-0.5c2.4,0,4.6,1.4,5.5,3.7
		c1.9,4.4,2.4,12.4,2.6,18.4c0,0.5,0.5,1,1,1c0,0,0,0,0,0c0.6,0,1-0.5,1-1c-0.1-6.1-0.7-14.4-2.7-19.1C35.5,20.9,32.6,19,29.4,19z"
		/>
</g>
</svg>
