<svg viewBox="0 0 19 19" fill="none" xmlns="http://www.w3.org/2000/svg">
    <path
        d="M1.22824 8.69659C2.06088 8.73279 2.82837 9.01879 3.57413 9.35185C4.41401 9.72473 5.23218 10.1483 6.0612 10.5501C6.15171 10.5936 6.20239 10.59 6.27117 10.5103C7.39706 9.23962 8.50484 7.95445 9.6633 6.71272C10.7349 5.56512 11.8427 4.44648 12.9649 3.35318C13.9279 2.41555 14.9379 1.53222 16.0602 0.786457C16.5453 0.46426 17.0485 0.163783 17.6314 0.0406963C18.0187 -0.0425682 18.3844 -0.00998643 18.7029 0.250668C18.9274 0.435298 19.0107 0.750255 18.8658 1.00005C18.7319 1.23898 18.5726 1.47429 18.3807 1.66617C17.7327 2.32142 17.0521 2.9441 16.4041 3.59935C14.7786 5.24292 13.3125 7.02044 12.0092 8.92828C10.6914 10.8687 9.54021 12.9033 8.54466 15.0211C8.05955 16.0528 7.63237 17.1136 7.18346 18.1598C7.1002 18.3553 6.97711 18.5037 6.75628 18.5327C6.51735 18.5616 6.35806 18.4458 6.24221 18.2467C5.77521 17.4466 5.31544 16.6429 4.83033 15.8537C3.97959 14.4672 3.06368 13.1241 1.95228 11.9294C1.35856 11.2887 0.72141 10.6949 0.105976 10.0759C0.0516731 10.018 0.0118509 9.92746 0.00461052 9.84781C-0.0533127 9.13463 0.439034 8.66763 1.22824 8.69659Z"
        fill="#FDCB38" />
</svg>