<svg viewBox="0 0 134 40" fill="none" xmlns="http://www.w3.org/2000/svg">
    <path
        d="M134 13.6148C134 13.8258 133.894 13.8258 133.681 13.8258C132.083 13.8258 130.592 13.8258 128.994 13.8258C128.674 13.8258 128.674 13.8258 128.781 14.1425C128.994 14.8813 129.526 15.1979 130.272 15.3034C131.231 15.5145 132.083 15.3034 133.041 14.9868C133.148 14.9868 133.255 14.9868 133.255 15.0923C133.361 15.62 133.468 16.0422 133.468 16.5699C133.468 16.6754 133.468 16.781 133.361 16.781C132.296 17.0976 131.231 17.3087 130.059 17.2032C129.526 17.2032 128.994 16.9921 128.461 16.781C127.503 16.3588 126.863 15.62 126.544 14.5646C126.224 13.2981 126.224 12.0316 126.863 10.7652C127.609 9.39313 128.994 8.65434 130.592 8.75988C131.55 8.86542 132.402 9.18204 133.041 9.81529C133.574 10.4485 133.787 11.1873 133.894 12.0316C133.894 12.1372 133.894 12.1372 133.894 12.2427C134 12.6649 134 13.0871 134 13.6148ZM130.272 12.2427C130.698 12.2427 131.231 12.2427 131.657 12.2427C131.763 12.2427 131.763 12.2427 131.763 12.1372C131.657 11.1873 130.911 10.5541 129.952 10.7652C129.313 10.8707 128.781 11.6095 128.781 12.1372C128.781 12.2427 128.887 12.2427 128.887 12.2427C129.42 12.2427 129.846 12.2427 130.272 12.2427Z"
        fill="#262626" />
    <path
        d="M56.3484 29.1293C56.3484 27.8628 56.3484 26.5963 56.3484 25.3298C56.3484 25.1187 56.4549 25.1187 56.5614 25.1187C57.2005 25.1187 57.8396 25.1187 58.4787 25.1187C58.6918 25.1187 58.6918 25.1187 58.6918 25.3298C58.6918 26.1741 58.6918 27.0185 58.6918 27.8628C58.6918 28.0739 58.6918 28.0739 58.9048 28.0739C59.3309 28.0739 59.7569 28.0739 60.183 28.0739C60.396 28.0739 60.396 27.9683 60.396 27.8628C60.7156 26.4907 61.4612 25.5409 62.7395 25.1187C64.8698 24.3799 67.3197 25.4353 67.8523 27.9683C68.0654 29.1293 67.9589 30.3958 67.3197 31.4512C66.4676 32.8232 65.0829 33.4564 63.4851 33.2454C61.7808 33.0343 60.6091 31.8733 60.183 30.0791C60.183 29.9736 60.0765 29.8681 59.97 29.8681C59.5439 29.8681 59.1178 29.8681 58.6918 29.8681C58.5852 29.8681 58.4787 29.9736 58.4787 30.0791C58.4787 31.029 58.4787 31.8733 58.4787 32.8232C58.4787 33.0343 58.4787 33.0343 58.2657 33.0343C57.6266 33.0343 56.9875 33.0343 56.3484 33.0343C56.1353 33.0343 56.1353 33.0343 56.1353 32.8232C56.3484 31.6623 56.3484 30.3958 56.3484 29.1293ZM65.6154 29.1293C65.6154 28.6016 65.5089 28.0739 65.1894 27.5462C64.6568 26.7018 63.4851 26.7018 62.9525 27.5462C62.7394 27.8628 62.6329 28.2849 62.6329 28.7071C62.5264 29.4459 62.6329 30.0791 62.9525 30.7124C63.4851 31.6623 64.6568 31.6623 65.2959 30.7124C65.6154 30.1847 65.6154 29.657 65.6154 29.1293Z"
        fill="#262626" />
    <path
        d="M46.7617 27.7572C46.7617 26.0686 46.7617 24.4855 46.7617 22.7968C46.7617 22.5857 46.7617 22.5857 46.9748 22.5857C49.2116 22.5857 51.4485 22.5857 53.6854 22.5857C53.7919 22.5857 53.8984 22.5857 53.8984 22.7968C53.8984 23.3245 53.8984 23.8522 53.8984 24.3799C53.8984 24.591 53.7919 24.591 53.6854 24.591C52.1942 24.591 50.8094 24.591 49.3182 24.591C49.1051 24.591 48.9986 24.6966 49.1051 24.9076C49.1051 25.3298 49.1051 25.752 49.1051 26.1741C49.1051 26.2797 49.1051 26.3852 49.3182 26.3852C50.0638 26.3852 50.8094 26.3852 51.555 26.4907C52.5137 26.5963 53.3659 26.9129 54.005 27.5462C54.5376 28.0739 54.8571 28.7071 54.8571 29.4459C54.8571 30.0791 54.8571 30.7124 54.6441 31.2401C54.3245 32.0844 53.5789 32.5066 52.8333 32.8232C51.6616 33.2454 50.4899 33.2454 49.3182 33.2454C48.5725 33.2454 47.8269 33.1398 47.0813 32.9287C46.8682 32.9287 46.8682 32.8232 46.8682 32.6121C46.7617 31.029 46.7617 29.3404 46.7617 27.7572ZM49.1051 29.7625C49.1051 30.1847 49.1051 30.6068 49.1051 31.029C49.1051 31.1345 49.1051 31.2401 49.3182 31.2401C49.6377 31.2401 49.9573 31.2401 50.2768 31.2401C50.8094 31.2401 51.342 31.2401 51.7681 30.9235C52.0876 30.7124 52.3007 30.5013 52.4072 30.1847C52.6202 29.4459 52.3007 28.7071 51.342 28.496C50.5964 28.2849 49.9573 28.3905 49.2116 28.3905C49.1051 28.3905 49.1051 28.496 49.1051 28.6016C49.1051 28.9182 49.1051 29.3404 49.1051 29.7625Z"
        fill="#262626" />
    <path
        d="M46.7617 11.6095C46.7617 9.92084 46.7617 8.33772 46.7617 6.64907C46.7617 6.43799 46.7617 6.43799 46.9748 6.43799C49.2116 6.43799 51.4485 6.43799 53.6854 6.43799C53.7919 6.43799 53.8984 6.43799 53.8984 6.64907C53.8984 7.17677 53.8984 7.70448 53.8984 8.23218C53.8984 8.44327 53.7919 8.44327 53.6854 8.44327C52.1942 8.44327 50.8094 8.44327 49.3182 8.44327C49.1051 8.44327 48.9986 8.54881 49.1051 8.75989C49.1051 9.18205 49.1051 9.60422 49.1051 10.0264C49.1051 10.1319 49.1051 10.2375 49.3182 10.2375C50.0638 10.2375 50.8094 10.2375 51.555 10.343C52.4072 10.4485 53.2593 10.6596 53.8984 11.2929C54.5376 11.8206 54.7506 12.5594 54.8571 13.2981C54.9636 14.1425 54.8571 14.9868 54.3245 15.62C53.7919 16.2533 53.1528 16.6755 52.3007 16.8865C51.342 17.2032 50.2768 17.2032 49.3182 17.2032C48.5725 17.2032 47.8269 17.0976 47.0813 16.8865C46.8682 16.8865 46.8682 16.781 46.8682 16.5699C46.7617 14.8813 46.7617 13.2981 46.7617 11.6095ZM49.1051 13.6148C49.1051 14.0369 49.1051 14.4591 49.1051 14.8813C49.1051 15.0923 49.2116 15.0923 49.3182 15.0923C49.7442 15.0923 50.1703 15.0923 50.4899 15.0923C50.9159 15.0923 51.342 14.9868 51.7681 14.7757C52.0876 14.5646 52.3007 14.3536 52.4072 14.0369C52.6202 13.1926 52.1942 12.5594 51.4485 12.3483C50.7029 12.1372 49.9573 12.2427 49.2116 12.1372C49.1051 12.1372 49.1051 12.2427 49.1051 12.3483C49.1051 12.7704 49.1051 13.1926 49.1051 13.6148Z"
        fill="#262626" />
    <path
        d="M69.5566 30.6068C69.5566 28.9182 69.5566 27.2295 69.5566 25.5409C69.5566 25.3298 69.5566 25.3298 69.7696 25.2243C71.0478 24.9076 72.3261 24.6966 73.6043 24.9076C75.3086 25.1187 76.7998 26.0686 77.1194 28.0739C77.3324 29.1293 77.2259 30.2902 76.7998 31.2401C76.1607 32.7177 74.776 33.2454 73.2847 33.1398C72.8587 33.1398 72.5391 33.0343 72.113 32.8232C72.0065 32.7177 72.0065 32.8232 72.0065 32.9288C72.0065 33.7731 72.0065 34.6174 72.0065 35.5673C72.0065 35.7784 71.9 35.7784 71.7935 35.7784C71.1544 35.7784 70.5153 35.7784 69.9827 35.7784C69.7696 35.7784 69.7696 35.7784 69.7696 35.5673C69.5566 33.9842 69.5566 32.2955 69.5566 30.6068ZM71.9 29.0237C71.9 29.657 71.9 30.2902 71.9 30.9235C71.9 31.029 71.9 31.1346 72.113 31.2401C72.4326 31.3456 72.7521 31.4512 73.0717 31.4512C73.9238 31.5567 74.563 31.1346 74.776 30.2902C74.989 29.657 74.989 29.0237 74.776 28.3905C74.563 27.6517 74.2434 27.124 73.3913 26.9129C72.9652 26.8074 72.5391 26.9129 72.2196 26.9129C72.0065 26.9129 72.0065 27.0185 72.0065 27.124C71.9 27.7572 71.9 28.3905 71.9 29.0237Z"
        fill="#262626" />
    <path
        d="M85.0018 16.8865C85.0018 17.6253 85.0018 18.2586 85.0018 18.9973C85.0018 19.314 85.0018 19.525 85.0018 19.8417C85.0018 19.9472 85.0018 19.9472 84.8952 19.9472C84.2561 19.9472 83.5105 19.9472 82.8714 19.9472C82.7649 19.9472 82.7649 19.9472 82.7649 19.8417V19.7361C82.7649 16.3588 82.7649 12.9815 82.7649 9.6042C82.7649 9.39312 82.8714 9.39312 82.9779 9.28758C84.0431 9.0765 85.1083 8.86542 86.1735 8.86542C87.2387 8.86542 88.1973 9.18204 89.0495 9.92083C89.6886 10.4485 90.0081 11.1873 90.1146 11.9261C90.3277 13.0871 90.3277 14.248 89.7951 15.3034C89.2625 16.4644 88.4104 17.0976 87.1321 17.2031C86.3865 17.2031 85.6409 17.0976 85.0018 16.8865ZM85.0018 12.876C85.0018 13.5092 85.0018 14.1425 85.0018 14.7757C85.0018 14.8813 85.0018 14.9868 85.2148 14.9868C85.5344 15.0923 85.8539 15.1979 86.067 15.1979C86.8126 15.1979 87.4517 14.9868 87.6647 14.1425C87.8778 13.4037 87.8778 12.6649 87.6647 11.9261C87.4517 11.2929 87.0256 10.8707 86.3865 10.7652C85.9604 10.6596 85.5344 10.7652 85.2148 10.7652C85.1083 10.7652 85.0018 10.8707 85.0018 10.9762C85.0018 11.6095 85.0018 12.2427 85.0018 12.876Z"
        fill="#262626" />
    <path
        d="M125.266 12.876C125.266 13.7203 125.159 14.4591 124.84 15.1979C124.2 16.4644 123.029 17.0976 121.644 17.2032C120.579 17.3087 119.514 16.9921 118.768 16.2533C118.022 15.62 117.703 14.8813 117.49 13.9314C117.277 12.7704 117.383 11.6095 117.916 10.6596C118.555 9.49867 119.62 8.86542 120.898 8.75988C122.07 8.65434 123.135 8.97096 123.987 9.70975C124.733 10.343 125.053 11.1873 125.266 12.1372C125.266 12.4538 125.266 12.7704 125.266 12.876ZM122.922 12.876C122.922 12.5594 122.922 12.2427 122.816 11.8206C122.603 11.0818 122.07 10.6596 121.431 10.6596C120.685 10.6596 120.153 10.9762 119.94 11.715C119.833 12.0317 119.727 12.3483 119.727 12.6649C119.727 13.2981 119.727 13.8258 120.046 14.4591C120.366 14.9868 120.792 15.1979 121.324 15.1979C121.857 15.1979 122.283 14.8813 122.603 14.4591C122.816 14.0369 122.922 13.5092 122.922 12.876Z"
        fill="#262626" />
    <path
        d="M99.3817 12.876C99.3817 13.8258 99.2752 14.5646 98.8491 15.3034C98.21 16.5699 97.0383 17.0976 95.6536 17.2032C94.5884 17.3087 93.6297 16.9921 92.7776 16.3588C92.032 15.7256 91.6059 14.8813 91.4994 14.0369C91.2863 12.9815 91.3928 11.9261 91.8189 10.9762C92.458 9.70975 93.5232 8.97096 94.9079 8.86542C95.7601 8.75988 96.6122 8.97096 97.3579 9.39313C98.423 10.0264 98.9556 10.9762 99.1687 12.2427C99.2752 12.4538 99.2752 12.6649 99.3817 12.876ZM96.9318 12.9815C96.9318 12.876 96.9318 12.6649 96.9318 12.5594C96.8253 12.0316 96.7188 11.5039 96.2927 11.0818C95.5471 10.4485 94.3754 10.6596 93.9493 11.5039C93.7362 11.9261 93.6297 12.3483 93.6297 12.876C93.6297 13.4037 93.7362 13.9314 93.9493 14.4591C94.2688 14.9868 94.6949 15.1979 95.334 15.1979C95.9731 15.1979 96.2927 14.8813 96.6122 14.3535C96.9318 14.0369 96.9318 13.5092 96.9318 12.9815Z"
        fill="#262626" />
    <path
        d="M86.1735 29.1293C86.1735 29.9736 86.0669 30.8179 85.5343 31.5567C84.8952 32.7177 83.8301 33.2454 82.5518 33.3509C81.4867 33.4564 80.528 33.2454 79.6758 32.6121C78.9302 31.9789 78.5041 31.2401 78.2911 30.2902C78.0781 29.2348 78.0781 28.1794 78.6107 27.2295C79.2498 25.752 80.4215 25.0132 82.0192 24.9076C83.404 24.8021 84.5757 25.3298 85.4278 26.4907C85.9604 27.2295 86.1735 28.1794 86.1735 29.1293ZM83.83 29.1293C83.83 28.496 83.7235 27.9683 83.5105 27.5462C82.9779 26.5963 81.5932 26.5963 81.0606 27.5462C80.8475 27.9683 80.741 28.2849 80.6345 28.8126C80.528 29.4459 80.6345 30.1847 80.9541 30.7124C81.2736 31.2401 81.6997 31.4512 82.2323 31.4512C82.8714 31.4512 83.2975 31.1345 83.5105 30.6068C83.7235 30.0791 83.83 29.657 83.83 29.1293Z"
        fill="#262626" />
    <path
        d="M60.7156 12.1372C60.8221 11.2929 60.396 10.7652 59.4373 10.6596C58.6917 10.6596 57.8396 10.6596 57.0939 10.9762C56.9874 10.9762 56.8809 10.9762 56.8809 10.8707C56.7744 10.343 56.7744 9.81528 56.6679 9.28758C56.6679 9.18204 56.6679 9.18204 56.7744 9.0765C58.0526 8.75988 59.4373 8.54879 60.8221 8.86542C62.1003 9.18204 62.8459 10.0264 62.9524 11.2929C63.059 12.4538 62.9524 13.5092 62.9524 14.6702C62.9524 15.3034 62.9524 15.9367 62.9524 16.5699C62.9524 16.6754 62.9524 16.781 62.7394 16.781C61.5677 16.9921 60.2895 17.2031 59.1178 17.0976C58.4787 17.0976 57.7331 16.9921 57.0939 16.6754C56.3483 16.2533 55.9222 15.62 55.9222 14.6702C55.8157 13.2981 56.5614 12.3483 58.0526 12.0316C58.9048 12.0316 59.6504 12.0316 60.7156 12.1372ZM60.7156 14.5646C60.7156 14.3535 60.7156 14.1425 60.7156 13.9314C60.7156 13.8258 60.609 13.7203 60.5025 13.7203C59.9699 13.6148 59.5439 13.6148 59.0113 13.7203C58.4787 13.8258 58.1591 14.1425 58.1591 14.5646C58.1591 15.0923 58.3722 15.3034 58.9048 15.5145C59.4373 15.62 59.9699 15.5145 60.5025 15.5145C60.609 15.5145 60.609 15.4089 60.609 15.3034C60.7156 14.9868 60.7156 14.7757 60.7156 14.5646Z"
        fill="#262626" />
    <path
        d="M71.7935 12.9815C71.7935 14.248 71.7935 15.5145 71.7935 16.781C71.7935 16.9921 71.7935 16.9921 71.5805 16.9921C70.9414 16.9921 70.3023 16.9921 69.6631 16.9921C69.4501 16.9921 69.4501 16.9921 69.4501 16.781C69.4501 15.8311 69.4501 14.9868 69.4501 14.0369C69.4501 13.8258 69.4501 13.8258 69.2371 13.8258C68.598 13.8258 67.9588 13.8258 67.2132 13.8258C67.1067 13.8258 67.0002 13.8258 67.0002 14.0369C67.0002 14.9868 67.0002 15.9367 67.0002 16.781C67.0002 16.8865 67.0002 16.9921 66.7871 16.9921C66.148 16.9921 65.5089 16.9921 64.8698 16.9921C64.7633 16.9921 64.6568 16.9921 64.6568 16.781C64.6568 14.248 64.6568 11.6095 64.6568 9.0765C64.6568 8.97096 64.6568 8.86542 64.8698 8.86542C65.5089 8.86542 66.148 8.86542 66.7871 8.86542C67.1067 8.97096 67.1067 9.0765 67.1067 9.18204C67.1067 10.0264 67.1067 10.8707 67.1067 11.8206C67.1067 12.0316 67.1067 12.0316 67.3197 12.0316C67.9588 12.0316 68.598 12.0316 69.3436 12.0316C69.4501 12.0316 69.5566 12.0316 69.5566 11.8206C69.5566 10.9762 69.5566 10.0264 69.5566 9.18204C69.5566 9.0765 69.5566 8.97096 69.7697 8.97096C70.4088 8.97096 71.0479 8.97096 71.687 8.97096C71.9 8.97096 71.9 8.97096 71.9 9.18204C71.7935 10.4485 71.7935 11.715 71.7935 12.9815Z"
        fill="#262626" />
    <path
        d="M115.786 12.9815C115.786 14.248 115.786 15.5145 115.786 16.781C115.786 16.9921 115.786 16.9921 115.572 16.9921C114.933 16.9921 114.294 16.9921 113.655 16.9921C113.442 16.9921 113.442 16.9921 113.442 16.781C113.442 15.8311 113.442 14.9868 113.442 14.0369C113.442 13.8258 113.442 13.8258 113.229 13.8258C112.59 13.8258 111.951 13.8258 111.312 13.8258C111.099 13.8258 111.099 13.8258 111.099 14.0369C111.099 14.9868 111.099 15.8311 111.099 16.781C111.099 16.9921 110.992 16.9921 110.886 16.9921C110.247 16.9921 109.607 16.9921 108.968 16.9921C108.862 16.9921 108.755 16.9921 108.755 16.781C108.755 14.248 108.755 11.715 108.755 9.0765C108.755 8.97096 108.755 8.86542 108.968 8.86542C109.607 8.86542 110.247 8.86542 110.886 8.86542C110.992 8.86542 111.099 8.86542 111.099 9.0765C111.099 9.92083 111.099 10.7652 111.099 11.715C111.099 11.9261 111.099 11.9261 111.312 11.9261C111.951 11.9261 112.59 11.9261 113.336 11.9261C113.442 11.9261 113.549 11.9261 113.549 11.715C113.549 10.8707 113.549 9.92083 113.549 9.0765C113.549 8.97096 113.549 8.86542 113.762 8.86542C114.401 8.86542 115.04 8.86542 115.679 8.86542C115.892 8.86542 115.892 8.86542 115.892 9.0765C115.679 10.4485 115.786 11.715 115.786 12.9815Z"
        fill="#262626" />
    <path
        d="M76.1607 11.715C76.4803 11.3984 76.9064 11.0818 77.2259 10.6596C77.7585 10.1319 78.1846 9.60421 78.7172 9.07651C78.8237 8.97096 78.9302 8.97096 79.0367 8.97096C79.8889 8.97096 80.741 8.97096 81.6997 8.97096C80.528 10.2375 79.2498 11.5039 77.9715 12.6649C79.4628 13.9314 80.6345 15.409 81.6997 16.9921C80.8475 16.9921 79.9954 16.9921 79.1432 16.9921C79.0367 16.9921 79.0367 16.8865 78.9302 16.8865C78.1846 15.8311 77.3324 14.7757 76.2672 13.9314L76.1607 13.8258C76.0542 13.8258 76.1607 13.9314 76.1607 14.0369C76.1607 14.9868 76.1607 15.9367 76.1607 16.8865C76.1607 16.9921 76.1607 17.0976 75.9477 17.0976C75.3086 17.0976 74.6695 17.0976 74.0304 17.0976C73.9238 17.0976 73.8173 17.0976 73.8173 16.8865C73.8173 14.3536 73.8173 11.8206 73.8173 9.18205C73.8173 9.07651 73.8173 8.97096 74.0304 8.97096C74.6695 8.97096 75.3086 8.97096 75.9477 8.97096C76.1607 8.97096 76.1607 9.07651 76.1607 9.18205C76.1607 9.92083 76.1607 10.7652 76.1607 11.5039C76.0542 11.6095 76.0542 11.6095 76.1607 11.715Z"
        fill="#262626" />
    <path
        d="M103.855 8.97096C105.027 8.97096 106.199 8.97096 107.371 8.97096C107.584 8.97096 107.584 8.97096 107.584 9.18205C107.584 9.70975 107.584 10.1319 107.584 10.6596C107.584 10.8707 107.477 10.8707 107.371 10.8707C106.625 10.8707 105.879 10.8707 105.24 10.8707C105.027 10.8707 105.027 10.8707 105.027 11.0818C105.027 12.9815 105.027 14.8813 105.027 16.781C105.027 16.9921 105.027 16.9921 104.814 16.9921C104.175 16.9921 103.536 16.9921 102.897 16.9921C102.684 16.9921 102.684 16.9921 102.684 16.781C102.684 14.8813 102.684 12.9815 102.684 11.0818C102.684 10.8707 102.684 10.8707 102.471 10.8707C101.725 10.8707 100.979 10.8707 100.34 10.8707C100.234 10.8707 100.127 10.8707 100.127 10.6596C100.127 10.1319 100.127 9.70975 100.127 9.18205C100.127 8.97096 100.127 8.97096 100.34 8.97096C101.512 8.97096 102.684 8.97096 103.855 8.97096Z"
        fill="#262626" />
    <path
        d="M20.2381 38.2059C14.273 38.2059 8.2015 38.2059 2.23647 38.2059C2.02344 38.2059 2.02344 38.1004 2.02344 37.8893C2.02344 25.9632 2.02344 14.037 2.02344 2.21645C2.02344 2.00537 2.02344 2.00537 2.23647 2.00537C14.273 2.00537 26.3096 2.00537 38.3462 2.00537C38.5592 2.00537 38.5592 2.11091 38.5592 2.21645C38.5592 14.1426 38.5592 26.0687 38.5592 37.8893C38.5592 38.1004 38.4527 38.2059 38.2397 38.2059C32.1681 38.2059 26.2031 38.2059 20.2381 38.2059ZM26.5226 14.2481C26.5226 14.3537 26.5226 14.4592 26.5226 14.5647C26.5226 20.6861 26.5226 26.7019 26.5226 32.8233C26.5226 33.0344 26.5226 33.0344 26.7357 33.0344C28.44 33.0344 30.2508 33.0344 31.9551 33.0344C32.0616 33.0344 32.1681 33.0344 32.1681 32.8233C32.1681 24.2745 32.1681 15.7257 32.1681 7.07133C32.1681 6.96579 32.1681 6.86025 31.9551 6.86025C30.7834 6.86025 29.5052 6.86025 28.3335 6.86025C28.2269 6.86025 28.1204 6.86025 28.0139 6.96579C27.6943 7.28242 27.3748 7.59904 27.0552 7.91566C26.0966 8.65445 25.0314 9.39323 23.9662 10.0265C22.5815 10.8708 21.0902 11.6096 19.599 12.2428C19.4924 12.2428 19.3859 12.3484 19.4924 12.4539C19.4924 12.4539 19.4924 12.5595 19.599 12.5595C20.1315 13.826 20.6641 15.198 21.0902 16.4645C21.0902 16.57 21.1967 16.6756 21.3032 16.57C21.3032 16.57 21.4098 16.57 21.5163 16.4645C22.901 15.9368 24.1792 15.4091 25.4575 14.7758C25.777 14.6703 26.0966 14.4592 26.5226 14.2481ZM10.6514 26.4909C10.7579 26.4909 10.7579 26.4909 10.6514 26.4909C11.0775 27.0186 11.5036 27.5463 11.9296 28.074C13.1013 29.6571 14.06 31.3457 15.0187 33.0344C15.1252 33.1399 15.1252 33.1399 15.2317 33.1399C15.7643 33.1399 16.2969 33.1399 16.936 33.1399C17.0425 33.1399 17.149 33.1399 17.149 32.9289C17.149 29.5515 17.149 26.0687 17.149 22.6914C17.149 22.4803 17.0425 22.4803 16.936 22.4803C16.2969 22.4803 15.6578 22.4803 15.0187 22.4803C14.8056 22.4803 14.8056 22.4803 14.8056 22.6914C14.8056 24.4856 14.8056 26.3853 14.8056 28.1795C14.8056 28.2851 14.8056 28.2851 14.8056 28.3906L14.6991 28.2851C14.06 27.2296 13.4209 26.1742 12.6753 25.2244C12.0362 24.2745 11.2905 23.4302 10.5449 22.5858C10.4384 22.4803 10.4384 22.4803 10.2253 22.4803C9.69275 22.4803 9.16016 22.4803 8.62757 22.4803C8.52105 22.4803 8.41454 22.5858 8.41454 22.6914C8.41454 26.0687 8.41454 29.5515 8.41454 32.9289C8.41454 33.0344 8.41454 33.1399 8.62757 33.1399C9.26668 33.1399 9.90579 33.1399 10.5449 33.1399C10.7579 33.1399 10.7579 33.0344 10.7579 32.9289C10.7579 30.818 10.7579 28.8128 10.7579 26.7019C10.6514 26.5964 10.6514 26.4909 10.6514 26.4909ZM20.9837 28.074C21.1967 28.074 21.4098 28.074 21.6228 28.074C22.3684 27.8629 23.0075 27.5463 23.4336 26.913C23.8597 26.2798 23.9662 25.541 23.8597 24.6967C23.7532 23.7468 23.3271 23.1136 22.475 22.5858C21.7293 22.1637 20.8772 22.1637 20.1315 22.2692C19.2794 22.4803 18.5338 23.008 18.2142 23.8523C18.0012 24.38 17.8947 24.9077 18.0012 25.4355C18.1077 26.0687 18.3207 26.5964 18.6403 27.0186C19.3859 27.8629 20.1315 28.1795 20.9837 28.074ZM20.9837 31.2402C21.8358 31.2402 22.5815 31.2402 23.4336 31.2402C23.5401 31.2402 23.6467 31.2402 23.6467 31.0291C23.6467 30.5014 23.6467 29.9737 23.6467 29.5515C23.6467 29.446 23.6467 29.3405 23.4336 29.3405C21.8358 29.3405 20.1315 29.3405 18.5338 29.3405C18.4273 29.3405 18.3207 29.3405 18.3207 29.5515C18.3207 30.0792 18.3207 30.607 18.3207 31.0291C18.3207 31.2402 18.3207 31.2402 18.5338 31.2402C19.3859 31.2402 20.2381 31.2402 20.9837 31.2402Z"
        fill="#F1CA49" />
    <path
        d="M0 40C0 26.8074 0 13.5092 0 0.211082C0 0.105541 0 0 0.213037 0C13.5278 0 26.8426 0 40.1574 0C40.3704 0 40.3704 0.105541 40.3704 0.211082C40.3704 13.4037 40.3704 26.5963 40.3704 39.6834C40.3704 39.7889 40.3704 39.8945 40.3704 39.8945C26.9491 40 13.4213 40 0 40ZM20.2385 38.2058C26.2035 38.2058 32.275 38.2058 38.2401 38.2058C38.4531 38.2058 38.5596 38.2058 38.5596 37.8892C38.5596 25.9631 38.5596 14.0369 38.5596 2.21636C38.5596 2.00528 38.5596 2.00528 38.3466 2.00528C26.31 2.00528 14.2734 2.00528 2.23688 2.00528C2.02385 2.00528 2.02385 2.11082 2.02385 2.21636C2.02385 14.1425 2.02385 26.0686 2.02385 37.8892C2.02385 38.1003 2.02385 38.2058 2.23688 38.2058C8.20191 38.2058 14.1669 38.2058 20.2385 38.2058Z"
        fill="#262626" />
    <path
        d="M26.5235 14.2481C26.204 14.4592 25.8844 14.6703 25.4584 14.8814C24.1801 15.6202 22.9019 16.1479 21.5172 16.57C21.4107 16.57 21.4107 16.57 21.3042 16.6756C21.1976 16.7811 21.0911 16.6756 21.0911 16.57C20.5585 15.3036 20.0259 13.9315 19.5999 12.665C19.5999 12.665 19.5999 12.5595 19.4933 12.5595C19.3868 12.4539 19.4933 12.3484 19.5999 12.3484C21.0911 11.7152 22.5824 10.9764 23.9671 10.132C25.0323 9.4988 26.0975 8.76002 27.0561 8.02123C27.3757 7.70461 27.6952 7.38798 28.0148 7.07136C28.1213 6.96582 28.1213 6.96582 28.3344 6.96582C29.5061 6.96582 30.7843 6.96582 31.956 6.96582C32.169 6.96582 32.169 7.07136 32.169 7.1769C32.169 15.7257 32.169 24.2745 32.169 32.9289C32.169 33.0344 32.169 33.14 31.956 33.14C30.2517 33.14 28.4409 33.14 26.7366 33.14C26.5235 33.14 26.5235 33.0344 26.5235 32.9289C26.5235 26.8075 26.5235 20.7917 26.5235 14.6703C26.5235 14.4592 26.5235 14.3537 26.5235 14.2481Z"
        fill="#262626" />
    <path
        d="M10.652 26.4905C10.652 26.5961 10.652 26.5961 10.652 26.7016C10.652 28.8124 10.652 30.8177 10.652 32.9285C10.652 33.1396 10.652 33.1396 10.439 33.1396C9.79985 33.1396 9.16074 33.1396 8.52163 33.1396C8.30859 33.1396 8.30859 33.1396 8.30859 32.9285C8.30859 29.5512 8.30859 26.0684 8.30859 22.6911C8.30859 22.5855 8.30859 22.48 8.52163 22.48C9.05422 22.48 9.58681 22.48 10.1194 22.48C10.2259 22.48 10.3324 22.48 10.439 22.5855C11.2911 23.4298 11.9302 24.2742 12.5693 25.224C13.315 26.1739 13.9541 27.2293 14.5932 28.2847L14.6997 28.3903C14.6997 28.2847 14.6997 28.1792 14.6997 28.1792C14.6997 26.385 14.6997 24.4853 14.6997 22.6911C14.6997 22.48 14.8062 22.48 14.9127 22.48C15.5518 22.48 16.1909 22.48 16.8301 22.48C16.9366 22.48 17.0431 22.48 17.0431 22.6911C17.0431 26.0684 17.0431 29.5512 17.0431 32.9285C17.0431 33.0341 17.0431 33.1396 16.8301 33.1396C16.2975 33.1396 15.7649 33.1396 15.1258 33.1396C15.0192 33.1396 14.9127 33.1396 14.9127 33.0341C13.9541 31.3454 12.8889 29.6568 11.8237 28.0736C11.6107 27.5459 11.1846 27.0182 10.652 26.4905C10.7585 26.4905 10.7585 26.4905 10.652 26.4905Z"
        fill="#262626" />
    <path
        d="M20.9833 28.0738C20.0246 28.0738 19.279 27.7572 18.6399 27.1239C18.2138 26.7018 18.0008 26.1741 18.0008 25.5408C17.8943 25.0131 18.0008 24.4854 18.2138 23.9577C18.5334 23.1134 19.279 22.5857 20.1311 22.3746C20.9833 22.1635 21.7289 22.269 22.4745 22.6912C23.3267 23.1134 23.7528 23.8522 23.8593 24.802C23.9658 25.5408 23.8593 26.2796 23.4332 27.0184C23.0071 27.6516 22.368 27.9683 21.6224 28.1793C21.5159 28.0738 21.3028 28.0738 20.9833 28.0738ZM22.155 25.2242C22.155 25.0131 22.155 24.9076 22.0485 24.6965C21.8354 23.9577 20.7702 23.7466 20.2377 24.2743C19.9181 24.5909 19.8116 25.0131 19.9181 25.3297C20.0246 26.2796 20.5572 26.5962 21.4094 26.3851C21.8354 26.3851 22.155 25.8574 22.155 25.2242Z"
        fill="#262626" />
    <path
        d="M20.9833 31.2401C20.1311 31.2401 19.3855 31.2401 18.5333 31.2401C18.4268 31.2401 18.3203 31.2401 18.3203 31.029C18.3203 30.5013 18.3203 29.9736 18.3203 29.5514C18.3203 29.4459 18.3203 29.3403 18.5333 29.3403C20.1311 29.3403 21.8354 29.3403 23.4332 29.3403C23.5397 29.3403 23.6462 29.3403 23.6462 29.5514C23.6462 30.0791 23.6462 30.6068 23.6462 31.029C23.6462 31.1345 23.6462 31.2401 23.4332 31.2401C22.6876 31.2401 21.8354 31.2401 20.9833 31.2401Z"
        fill="#262626" />
    <path
        d="M22.1549 25.2244C22.1549 25.8576 21.8353 26.3853 21.4092 26.4909C20.6636 26.5964 20.0245 26.3853 19.918 25.4355C19.918 25.0133 19.918 24.5911 20.2375 24.3801C20.7701 23.8523 21.7288 24.0634 22.0483 24.8022C22.1549 24.8022 22.1549 25.0133 22.1549 25.2244Z"
        fill="#F1CA49" />
</svg>