<?xml version="1.0" encoding="utf-8"?><svg viewBox="0 0 548 512" xmlns="http://www.w3.org/2000/svg" xmlns:xlink="http://www.w3.org/1999/xlink"><style>:root>svg{display:none}:root>svg:target{display:block}</style><svg viewBox="0 0 15 9" fill="none" id="arrow-down-icon" xmlns="http://www.w3.org/2000/svg"><path d="M6.89 8.01L.506 1.006a.59.59 0 010-.833c.228-.23.6-.23.828 0l6 6.584 6-6.583c.229-.23.6-.23.828 0a.591.591 0 010 .833L7.778 8.01a.577.577 0 01-.443.167.582.582 0 01-.445-.167z" fill="currentColor"/></svg><svg viewBox="0 0 34 32" fill="none" id="bag-icon" xmlns="http://www.w3.org/2000/svg"><path d="M32.3 5.8h-7.367V3.534A2.837 2.837 0 0022.1.7H11.9a2.837 2.837 0 00-2.833 2.834V5.8H1.7A1.7 1.7 0 000 7.5v12.614a1.707 1.707 0 001.133 1.6V29.6a1.7 1.7 0 001.7 1.7h28.334a1.7 1.7 0 001.7-1.7v-7.886a1.708 1.708 0 001.133-1.6V7.5a1.7 1.7 0 00-1.7-1.7zM10.2 3.534a1.7 1.7 0 011.7-1.7h10.2a1.7 1.7 0 011.7 1.7V5.8h-1.133V3.534a.567.567 0 00-.567-.567H11.9a.567.567 0 00-.567.567V5.8H10.2V3.534zM21.533 5.8h-9.066V4.1h9.066v1.7zm10.2 23.8a.567.567 0 01-.566.567H2.833a.567.567 0 01-.566-.567v-7.69l12.466 1.72v1.438a1.7 1.7 0 001.7 1.7h1.134a1.7 1.7 0 001.7-1.7v-1.439l12.466-1.72V29.6zm-13.6-4.533a.567.567 0 01-.566.567h-1.134a.567.567 0 01-.566-.567v-3.4c0-.313.253-.567.566-.567h1.134c.313 0 .566.254.566.567v3.4zm14.734-4.953a.567.567 0 01-.488.562l-13.112 1.808v-.817a1.7 1.7 0 00-1.7-1.7h-1.134a1.7 1.7 0 00-1.7 1.7v.817L1.621 20.676a.567.567 0 01-.488-.562V7.5c0-.313.254-.566.567-.566h30.6c.313 0 .567.253.567.566v12.614z" fill="currentColor"/></svg><svg fill="none" viewBox="0 0 19 19" id="check-icon" xmlns="http://www.w3.org/2000/svg"><path d="M1.228 8.697c.833.036 1.6.322 2.346.655.84.373 1.658.796 2.487 1.198.09.044.141.04.21-.04 1.126-1.27 2.234-2.556 3.392-3.797a99.754 99.754 0 013.302-3.36c.963-.937 1.973-1.82 3.095-2.567.485-.322.989-.622 1.571-.745.388-.084.753-.051 1.072.21.224.184.308.5.163.75a3.049 3.049 0 01-.485.665c-.648.655-1.329 1.278-1.977 1.933a38.244 38.244 0 00-4.395 5.33 44.59 44.59 0 00-3.464 6.092c-.485 1.032-.913 2.093-1.362 3.139-.083.195-.206.344-.427.373-.239.029-.398-.087-.514-.286-.467-.8-.927-1.604-1.412-2.393-.85-1.387-1.766-2.73-2.878-3.925-.593-.64-1.23-1.234-1.846-1.853a.41.41 0 01-.101-.228c-.058-.713.434-1.18 1.223-1.151z" fill="#FDCB38"/></svg><svg viewBox="0 0 34 22" fill="none" id="collective-icon" xmlns="http://www.w3.org/2000/svg"><path d="M22.858 12.378l-2.895-1.286a.567.567 0 01-.336-.518V9.78a4.218 4.218 0 001.597-3.304v-1.12c.32-.177.532-.518.532-.902v-.108A4.23 4.23 0 0017.532.122h-1.065a4.23 4.23 0 00-4.224 4.224v.985c0 .337.145.642.397.837a.98.98 0 00.135.087v.22c0 1.337.625 2.53 1.597 3.304v.795a.567.567 0 01-.336.518l-2.894 1.286a2.63 2.63 0 00-1.56 2.401v6.601a.498.498 0 10.995 0v-6.6c0-.059.005-.116.01-.172l1.334 1.333c.208.208.322.484.322.777v4.662a.498.498 0 00.996 0v-4.662c0-.56-.218-1.085-.613-1.48l-1.59-1.59a1.61 1.61 0 01.51-.36l2.846-1.264 2.11 2.11v7.246a.498.498 0 10.996 0v-7.246l2.11-2.11 2.845 1.264c.196.087.367.21.51.36l-1.59 1.59a2.081 2.081 0 00-.613 1.48v4.662a.498.498 0 00.996 0v-4.662c0-.293.115-.569.322-.777l1.334-1.333c.006.056.01.113.01.171v6.601a.498.498 0 10.996 0v-6.6a2.63 2.63 0 00-1.56-2.402zM17 13.223l-1.852-1.851c.14-.237.22-.511.22-.798v-.203A4.2 4.2 0 0017 10.7a4.19 4.19 0 001.63-.328v.202c0 .287.08.56.221.798L17 13.223zm0-3.52a3.232 3.232 0 01-3.229-3.228v-.224c.311-.123.615-.319.905-.587A.498.498 0 0014 4.932c-.249.23-.498.379-.74.442a.081.081 0 01-.012.002.103.103 0 01-.009-.045v-.985a3.232 3.232 0 013.228-3.228h1.065a3.232 3.232 0 013.228 3.228v.109c0 .016-.01.03-.022.032-2.983.59-4.479-.52-4.983-1.026a.498.498 0 10-.705.705c1.547 1.546 3.804 1.574 5.178 1.41v.9A3.232 3.232 0 0117 9.702zM8.98 9.67V8.603a3.689 3.689 0 00-1.692-3.101 2.097 2.097 0 00-2-2.72 2.097 2.097 0 00-1.999 2.72 3.691 3.691 0 00-1.692 3.101V9.67a3.69 3.69 0 001.597 3.038v1.095c0 .216-.12.41-.313.507l-1.723.86A2.084 2.084 0 000 17.045v4.336a.498.498 0 10.996 0v-4.12l.811.81c.208.208.322.484.322.778v2.532a.498.498 0 10.996 0v-2.532c0-.56-.218-1.086-.613-1.482l-1.13-1.129-.016-.015c.07-.063.15-.117.238-.161l1.722-.861a1.59 1.59 0 00.247-.154l1.218 1.217v5.117a.498.498 0 00.996 0v-5.117l1.218-1.218c.076.058.158.11.247.155l.475.237a.496.496 0 00.668-.223.498.498 0 00-.223-.668l-.475-.237a.564.564 0 01-.313-.507v-1.095A3.69 3.69 0 008.981 9.67zM5.29 3.78a1.1 1.1 0 011.08 1.293 3.68 3.68 0 00-2.161 0 1.1 1.1 0 011.08-1.295zm0 2.128a2.699 2.699 0 012.696 2.696v.18c-2.074.636-3.31-.942-3.362-1.01a.498.498 0 00-.75-.054c-.476.475-.942.705-1.278.815A2.698 2.698 0 015.29 5.908zm0 9.444l-1.151-1.15c.034-.129.052-.263.052-.4v-.608a3.679 3.679 0 002.198 0v.608c0 .137.018.271.052.4l-1.151 1.15zm0-2.987a2.699 2.699 0 01-2.696-2.696v-.103a3.994 3.994 0 001.6-.798c.218.205.528.457.924.673a3.961 3.961 0 002.864.376 2.7 2.7 0 01-2.692 2.548zm27.552 1.741l-2.788-1.394a.564.564 0 01-.313-.507V11.5a3.152 3.152 0 001.065-2.362V8.57h.034a.498.498 0 00.498-.498V7.008a3.163 3.163 0 00-3.16-3.16h-1.064a3.163 3.163 0 00-3.16 3.16v1.064a.498.498 0 00.532.497v.568c0 .939.413 1.783 1.065 2.362v.706c0 .216-.12.41-.313.507a.498.498 0 10.445.89c.089-.043.17-.095.247-.153l1.218 1.217v6.714a.498.498 0 00.996 0v-6.714l1.218-1.217c.077.058.159.11.247.154l2.697 1.348-.818.819a2.081 2.081 0 00-.614 1.48v4.13a.498.498 0 10.997 0v-4.13c0-.293.114-.569.321-.776l.775-.775c.024.09.037.184.037.28v5.401a.498.498 0 00.996 0v-5.4c0-.8-.444-1.517-1.158-1.874zM24.95 7.472v-.464c0-1.193.97-2.164 2.164-2.164h1.064c1.194 0 2.164.97 2.164 2.164v.553c-2.165-.117-3.471-.96-3.484-.968a.497.497 0 00-.629.062c-.476.477-.943.706-1.279.817zm2.696 6.284l-1.15-1.151c.033-.129.051-.263.051-.4V12.1a3.145 3.145 0 002.198 0v.106c0 .137.018.271.052.4l-1.15 1.15zm0-2.456a2.166 2.166 0 01-2.163-2.163v-.803c.348-.14.755-.361 1.168-.713.523.272 1.618.742 3.159.898v.618c0 1.193-.97 2.163-2.164 2.163z" fill="currentColor"/></svg><svg viewBox="0 0 276 512" fill="none" id="facebook-f-brands" xmlns="http://www.w3.org/2000/svg"><path d="M257.141 288l14.22-92.66h-88.91v-60.13c0-25.35 12.42-50.06 52.24-50.06h40.42V6.26S238.431 0 203.361 0c-73.22 0-121.08 44.38-121.08 124.72v70.62H.89V288h81.39v224h100.17V288h74.69z" fill="currentColor"/></svg><svg viewBox="0 0 448 449" fill="none" id="instagram-brands" xmlns="http://www.w3.org/2000/svg"><path d="M224.101 110c-63.6 0-114.9 51.3-114.9 114.9 0 63.6 51.3 114.9 114.9 114.9 63.6 0 114.9-51.3 114.9-114.9 0-63.6-51.3-114.9-114.9-114.9zm0 189.6c-41.1 0-74.7-33.5-74.7-74.7s33.5-74.7 74.7-74.7 74.7 33.5 74.7 74.7-33.6 74.7-74.7 74.7zm146.4-194.3c0 14.9-12 26.8-26.8 26.8-14.9 0-26.8-12-26.8-26.8s12-26.8 26.8-26.8 26.8 12 26.8 26.8zm76.1 27.2c-1.7-35.9-9.9-67.7-36.2-93.9-26.2-26.2-58-34.4-93.9-36.2-37-2.1-147.9-2.1-184.9 0-35.8 1.7-67.6 9.9-93.9 36.1-26.3 26.2-34.4 58-36.2 93.9-2.1 37-2.1 147.9 0 184.9 1.7 35.9 9.9 67.7 36.2 93.9 26.3 26.2 58 34.4 93.9 36.2 37 2.1 147.9 2.1 184.9 0 35.9-1.7 67.7-9.9 93.9-36.2 26.2-26.2 34.4-58 36.2-93.9 2.1-37 2.1-147.8 0-184.8zm-47.8 224.5c-7.8 19.6-22.9 34.7-42.6 42.6-29.5 11.7-99.5 9-132.1 9-32.6 0-102.7 2.6-132.1-9-19.6-7.8-34.7-22.9-42.6-42.6-11.7-29.5-9-99.5-9-132.1 0-32.6-2.6-102.7 9-132.1C57.2 73.2 72.3 58.1 92 50.2c29.5-11.7 99.5-9 132.1-9 32.6 0 102.7-2.6 132.1 9 19.6 7.8 34.7 22.9 42.6 42.6 11.7 29.5 9 99.5 9 132.1 0 32.6 2.7 102.7-9 132.1z" fill="currentColor"/></svg><svg viewBox="0 0 13 18" fill="none" id="marker" xmlns="http://www.w3.org/2000/svg"><path d="M6.5 0A6.507 6.507 0 000 6.5c0 4.448 5.817 10.978 6.065 11.254a.585.585 0 00.87 0C7.183 17.478 13 10.948 13 6.5 13 2.916 10.084 0 6.5 0zm0 9.77A3.274 3.274 0 013.23 6.5 3.274 3.274 0 016.5 3.23 3.274 3.274 0 019.77 6.5 3.274 3.274 0 016.5 9.77z" fill="currentColor"/></svg><svg viewBox="0 0 33 33" fill="none" id="money-icon" xmlns="http://www.w3.org/2000/svg"><path d="M28.04 11.027H.471a.472.472 0 00-.472.472v13.233c0 .26.21.472.471.472h18.746a.472.472 0 100-.945H.945V11.972h26.62v1.182c0 .26.211.472.472.472h.001c.26 0 .472-.21.473-.47V11.5a.474.474 0 00-.472-.473zm-3.207-2.193L2.781 3.872a.475.475 0 00-.566.358L1.113 9.192a.473.473 0 00.923.205l1-4.499 21.59 4.858a.473.473 0 00.207-.922zM22.156 6.1L8.925.587a.474.474 0 00-.607.225L7.215 3.018a.474.474 0 10.848.423v.001l.905-1.81 12.823 5.342a.474.474 0 00.365-.874z" fill="currentColor"/><path d="M22.49 13.233h-4.375a.472.472 0 100 .945h4.375a.473.473 0 000-.945zm-8.785.031a4.852 4.852 0 100 9.703 4.852 4.852 0 000-9.703zm0 8.821a3.97 3.97 0 110-7.939 3.97 3.97 0 010 7.94zm13.231-7.277c-2.922 0-6.064.69-6.064 2.205v13.232c0 1.515 3.142 2.205 6.064 2.205s6.065-.69 6.065-2.205V17.013c0-1.515-3.143-2.205-6.065-2.205zm4.962 15.428c-.083.306-1.737 1.111-4.962 1.111-3.225 0-4.879-.805-4.962-1.102v-.867c1.173.591 3.111.867 4.962.867 1.85 0 3.79-.279 4.962-.867v.858zm0-2.205c-.083.306-1.737 1.111-4.962 1.111-3.225 0-4.879-.805-4.962-1.102v-.867c1.173.59 3.111.867 4.962.867 1.85 0 3.79-.279 4.962-.868v.86zm0-2.205c-.083.306-1.737 1.11-4.962 1.11-3.225 0-4.879-.804-4.962-1.102v-.866c1.173.59 3.111.866 4.962.866 1.85 0 3.79-.278 4.962-.867v.859zm0-2.205c-.083.306-1.737 1.11-4.962 1.11-3.225 0-4.879-.804-4.962-1.102v-.867c1.173.591 3.111.867 4.962.867 1.85 0 3.79-.279 4.962-.867v.859zm0-2.206c-.083.306-1.737 1.111-4.962 1.111-3.225 0-4.879-.805-4.962-1.102v-.867c1.173.588 3.111.867 4.962.867 1.85 0 3.79-.279 4.962-.867v.858zm0-2.205c-.083.306-1.737 1.111-4.962 1.111-3.225 0-4.879-.805-4.962-1.103v-.866c1.173.588 3.111.866 4.962.866 1.85 0 3.79-.278 4.962-.867v.86zm-4.962-1.094c-3.22 0-4.873-.803-4.962-1.093v-.003c.089-.307 1.742-1.11 4.962-1.11 3.198 0 4.852.791 4.962 1.103-.11.312-1.764 1.103-4.962 1.103z" fill="currentColor"/><path d="M9.293 22.053H5.126l-1.976-2.16v-3.585l2.182-2.13h3.961a.473.473 0 000-.945H5.14a.473.473 0 00-.33.134l-2.463 2.402a.592.592 0 00-.142.386v3.92c0 .119.044.232.123.32l2.24 2.45c.09.097.216.153.349.153h4.376a.473.473 0 000-.945zm4.687-4.489h-.551c-.172 0-.276-.096-.276-.137 0-.042.104-.138.276-.138h1.378a.551.551 0 000-1.103h-.551a.551.551 0 10-1.103 0v.025a1.283 1.283 0 00-1.103 1.213c.04.723.655 1.278 1.379 1.243h.551c.171 0 .276.096.276.138 0 .042-.105.138-.276.138h-1.378a.551.551 0 000 1.102h.551a.551.551 0 001.103 0v-.024a1.284 1.284 0 001.102-1.213 1.317 1.317 0 00-1.378-1.244z" fill="currentColor"/></svg><svg viewBox="0 0 309 512" fill="none" id="odnoklassniki-brands" xmlns="http://www.w3.org/2000/svg"><path d="M269.1 334c-27.4 17.4-65.1 24.3-90 26.9l20.9 20.6 76.3 76.3c27.9 28.6-17.5 73.3-45.7 45.7-19.1-19.4-47.1-47.4-76.3-76.6L78 503.4c-28.2 27.5-73.6-17.6-45.4-45.7 19.4-19.4 47.1-47.4 76.3-76.3l20.6-20.6c-24.6-2.6-62.9-9.1-90.6-26.9-32.6-21-46.9-33.3-34.3-59 7.4-14.6 27.7-26.9 54.6-5.7 0 0 36.3 28.9 94.9 28.9 58.6 0 94.9-28.9 94.9-28.9 26.9-21.1 47.1-8.9 54.6 5.7 12.4 25.7-1.9 38-34.5 59.1zM24.3 129.7C24.3 58 82.6 0 154 0c71.4 0 129.7 58 129.7 129.7 0 71.4-58.3 129.4-129.7 129.4-71.4 0-129.7-58-129.7-129.4zm66 0c0 35.1 28.6 63.7 63.7 63.7s63.7-28.6 63.7-63.7c0-35.4-28.6-64-63.7-64s-63.7 28.6-63.7 64z" fill="currentColor"/></svg><svg viewBox="0 0 32 32" fill="none" id="schedule-icon" xmlns="http://www.w3.org/2000/svg"><path d="M12.688 23.5a.625.625 0 11-1.25 0 .625.625 0 011.25 0zm15.562.375h-3.125V20.75a.625.625 0 10-1.25 0v3.75c0 .345.28.625.625.625h3.75a.625.625 0 100-1.25zm-23.875-11h3.938a.625.625 0 100-1.25H4.374a.625.625 0 100 1.25zM16 11.625h-3.938a.625.625 0 100 1.25H16a.625.625 0 100-1.25zm-11.625 5h3.938a.625.625 0 100-1.25H4.374a.625.625 0 100 1.25zm5.188 6.25H4.375a.625.625 0 100 1.25h5.188a.625.625 0 100-1.25zm6.437-7.5h-3.938a.625.625 0 100 1.25H16a.625.625 0 100-1.25zm-11.625 5h3.938a.625.625 0 100-1.25H4.374a.625.625 0 100 1.25zM16 19.125h-3.938a.625.625 0 100 1.25H16a.625.625 0 100-1.25zm3.75-6.25h3.75a.625.625 0 100-1.25h-3.75a.625.625 0 100 1.25z" fill="currentColor"/><path d="M27.875 17.802V4.375A1.877 1.877 0 0026 2.5h-1.875v-.625a1.875 1.875 0 10-3.75 0V2.5h-5.188v-.625a1.875 1.875 0 10-3.75 0V2.5H6.25v-.625a1.875 1.875 0 10-3.75 0V2.5h-.625A1.877 1.877 0 000 4.375V24.75c0 1.034.841 1.875 1.875 1.875h15.433A7.502 7.502 0 0024.5 32c4.136 0 7.5-3.364 7.5-7.5a7.501 7.501 0 00-4.125-6.698zm-6.25-15.927a.626.626 0 011.25 0v2.5a.626.626 0 01-1.25 0v-2.5zm-8.938 0a.626.626 0 011.25 0v2.5a.626.626 0 01-1.25 0v-2.5zm-8.937 0a.626.626 0 011.25 0v2.5a.626.626 0 01-1.25 0v-2.5zM1.875 3.75H2.5v.625c0 1.034.841 1.875 1.875 1.875A1.877 1.877 0 006.25 4.375V3.75h5.188v.625c0 1.034.84 1.875 1.874 1.875a1.877 1.877 0 001.876-1.875V3.75h5.187v.625c0 1.034.841 1.875 1.875 1.875a1.877 1.877 0 001.875-1.875V3.75H26c.345 0 .625.28.625.625v3.313H1.25V4.374c0-.345.28-.625.625-.625zm-.625 21V8.937h25.375v8.369A7.467 7.467 0 0024.5 17c-4.136 0-7.5 3.364-7.5 7.5 0 .293.018.585.051.875H1.875a.626.626 0 01-.625-.625zm23.25 6c-3.35 0-6.25-2.73-6.25-6.25a6.257 6.257 0 016.25-6.25 6.25 6.25 0 016.25 6.25 6.257 6.257 0 01-6.25 6.25z" fill="currentColor"/></svg><svg viewBox="0 0 23 23" fill="none" id="times-icon" xmlns="http://www.w3.org/2000/svg"><path d="M1.19 23a1.182 1.182 0 01-.836-2.019L20.987.348a1.187 1.187 0 011.672 0 1.187 1.187 0 010 1.67L2.024 22.653a1.18 1.18 0 01-.836.348z" fill="currentColor"/><path d="M21.823 23a1.18 1.18 0 01-.836-.348L.354 2.02a1.187 1.187 0 010-1.671 1.187 1.187 0 011.671 0L22.658 20.98a1.187 1.187 0 010 1.671 1.19 1.19 0 01-.835.348z" fill="currentColor"/></svg><svg viewBox="0 0 32 32" fill="none" id="training-icon" xmlns="http://www.w3.org/2000/svg"><path d="M31 15.5h-.5v-3.086a3.885 3.885 0 00-1.146-2.768A3.889 3.889 0 0026.585 8.5H26v-.541A4 4 0 0028 4.5c0-2.205-1.794-4-4-4s-4 1.795-4 4a4 4 0 002 3.459V8.5h-.585a3.889 3.889 0 00-2.768 1.146 3.886 3.886 0 00-1.147 2.768V15.5h-1V14a.5.5 0 00-.5-.5h-1.5v-.171a6.28 6.28 0 011.393-3.96c.186.083.391.131.607.131.827 0 1.5-.673 1.5-1.5s-.673-1.5-1.5-1.5S15 7.173 15 8c0 .244.064.47.168.675a7.274 7.274 0 00-1.668 4.653v.172H12a.5.5 0 00-.5.5v1.5H11a.5.5 0 00-.5.5v2a.5.5 0 00.5.5h.5v3A2.503 2.503 0 009 24c0 .742.332 1.403.848 1.861A4.02 4.02 0 008 27.569a4.025 4.025 0 00-1.848-1.707A2.486 2.486 0 007 24c0-1.378-1.122-2.5-2.5-2.5A2.503 2.503 0 002 24c0 .742.332 1.403.848 1.861A4.003 4.003 0 00.5 29.5V31a.5.5 0 00.5.5h21a.5.5 0 00.5-.5v-.5H30a.5.5 0 00.5-.5V18.5h.5a.5.5 0 00.5-.5v-2a.5.5 0 00-.5-.5zm-14.5-8a.5.5 0 11-.001 1.001A.5.5 0 0116.5 7.5zm13 4.914V15.5h-1v-2h-1v2h-3v-3.691l1.276.638a.495.495 0 00.416.015.501.501 0 00.282-.303l.854-2.56a2.89 2.89 0 011.319.755c.55.55.853 1.282.853 2.06zM22.25 9.5l.99 1.32-.948.475-.598-1.795h.556zm3.5 0h.556l-.598 1.795-.948-.475.99-1.32zM24 1.5a3.003 3.003 0 012.949 2.461 4.293 4.293 0 01-2.509-1.228l-.085-.087a.514.514 0 00-.709 0l-.085.086a4.29 4.29 0 01-2.509 1.228A3.001 3.001 0 0124 1.5zm-2.962 3.473A5.277 5.277 0 0024 3.69a5.28 5.28 0 002.962 1.283A3.005 3.005 0 0124 7.5a3.005 3.005 0 01-2.962-2.527zM24 8.5c.346 0 .68-.049 1-.132v.466l-1 1.332-1-1.332v-.466c.32.083.654.132 1 .132zm-5.5 3.914c0-.778.303-1.51.854-2.06a2.9 2.9 0 011.319-.756l.853 2.56a.501.501 0 00.698.29l1.276-.639V15.5h-3v-2h-1v2h-1v-3.086zm-6 2.086h3v1h-3v-1zM10 24c0-.827.673-1.5 1.5-1.5s1.5.673 1.5 1.5-.673 1.5-1.5 1.5S10 24.827 10 24zm-7 0c0-.827.673-1.5 1.5-1.5S6 23.173 6 24s-.673 1.5-1.5 1.5S3 24.827 3 24zm-1.5 5.5c0-1.654 1.345-3 3-3 1.654 0 3 1.346 3 3v1h-6v-1zm7 0c0-1.654 1.345-3 3-3s3 1.346 3 3v1h-6v-1zm13 1h-6v-1c0-1.654 1.346-3 3-3s3 1.346 3 3v1zM17 24c0-.827.673-1.5 1.5-1.5s1.5.673 1.5 1.5-.673 1.5-1.5 1.5S17 24.827 17 24zm12.5 5.5h-7a4.003 4.003 0 00-2.348-3.639A2.486 2.486 0 0021 24c0-1.378-1.122-2.5-2.5-2.5A2.503 2.503 0 0016 24c0 .742.332 1.403.848 1.861A4.02 4.02 0 0015 27.569a4.025 4.025 0 00-1.848-1.707A2.486 2.486 0 0014 24a2.501 2.501 0 00-1.5-2.288V18.5h17v11zm1-12h-19v-1h19v1zM2 10.5h8c.827 0 1.5-.673 1.5-1.5v-.793l1.854-1.854a.5.5 0 000-.707L11.5 3.793V3c0-.827-.673-1.5-1.5-1.5H2C1.173 1.5.5 2.173.5 3v6c0 .827.673 1.5 1.5 1.5zM1.5 3a.5.5 0 01.5-.5h8a.5.5 0 01.5.5v1c0 .133.053.26.146.354L12.293 6l-1.646 1.646A.498.498 0 0010.5 8v1a.5.5 0 01-.5.5H2a.5.5 0 01-.5-.5V3z" fill="currentColor"/><path d="M2.5 3.5h7v1h-7v-1zm0 4h7v1h-7v-1zm1-2h5v1h-5v-1z" fill="currentColor"/></svg><svg viewBox="0 0 540 320" fill="none" id="vk-brands" xmlns="http://www.w3.org/2000/svg"><path d="M527 21.7C530.7 9.2 527 0 509.2 0h-58.9c-15 0-21.9 7.9-25.6 16.7 0 0-30 73.1-72.4 120.5-13.7 13.7-20 18.1-27.5 18.1-3.7 0-9.4-4.4-9.4-16.9V21.7c0-15-4.2-21.7-16.6-21.7h-92.6c-9.4 0-15 7-15 13.5 0 14.2 21.2 17.5 23.4 57.5v86.8c0 19-3.4 22.5-10.9 22.5-20 0-68.6-73.4-97.4-157.4C100.5 6.6 94.8 0 79.7 0H20.8C4 0 .6 7.9.6 16.7c0 15.6 20 93.1 93.1 195.5C142.4 282.1 211 320 273.4 320c37.5 0 42.1-8.4 42.1-22.9 0-66.8-3.4-73.1 15.4-73.1 8.7 0 23.7 4.4 58.7 38.1 40 40 46.6 57.9 69 57.9h58.9c16.8 0 25.3-8.4 20.4-25-11.2-34.9-86.9-106.7-90.3-111.5-8.7-11.2-6.2-16.2 0-26.2.1-.1 72-101.3 79.4-135.6z" fill="currentColor"/></svg><svg viewBox="0 0 34 34" fill="none" id="work-icon" xmlns="http://www.w3.org/2000/svg"><path d="M6.146 12.291a6.153 6.153 0 006.145-6.145A6.153 6.153 0 006.146 0 6.153 6.153 0 000 6.146a6.153 6.153 0 006.146 6.145zm0-10.963a4.823 4.823 0 014.817 4.818 4.823 4.823 0 01-4.817 4.817 4.823 4.823 0 01-4.818-4.817 4.823 4.823 0 014.818-4.818z" fill="currentColor"/><path d="M6.674 7.605a.662.662 0 00.939-.001.664.664 0 00-.002-.94l-.797-.794V2.922a.664.664 0 00-1.328 0v3.224c0 .176.07.345.195.47l.993.99zm26.662 14.442h-4.087a3.922 3.922 0 00-2.369-1.576l-2.92-.638a4.48 4.48 0 001.983-3.718v-2.54a4.487 4.487 0 00-4.482-4.482 4.487 4.487 0 00-4.481 4.481v2.54a4.48 4.48 0 001.977 3.716l-2.918.64a3.55 3.55 0 00-.367.1v-5.496a.664.664 0 00-.664-.664h-4.516a.664.664 0 000 1.328h3.852v9.297H9.828v-3.32a1.994 1.994 0 00-1.992-1.993 1.994 1.994 0 00-1.992 1.993v3.32H1.328v-9.297H5.18a.664.664 0 000-1.328H.664a.664.664 0 00-.664.664v10.625c0 .367.297.664.664.664h5.18v1.262h-.067a2.06 2.06 0 00-2.058 2.058v.332H.664A.664.664 0 000 30.68v2.657c0 .366.297.664.664.664h32.672a.664.664 0 00.664-.664V22.71a.664.664 0 00-.664-.664zM25.5 30.015v-1.328h7.172v1.328H25.5zm7.172-2.656H25.5v-1.328h7.172v1.328zm0-2.656H25.5v-1.328h7.172v1.328zM18.308 13.574a3.157 3.157 0 013.153-3.153 3.158 3.158 0 013.144 2.906l-1.544-.907a.664.664 0 00-.845.146 3.522 3.522 0 01-2.706 1.263h-1.202v-.255zm0 1.583h1.202c1.25 0 2.437-.476 3.334-1.324l1.77 1.04v1.242a3.157 3.157 0 01-3.153 3.153 3.157 3.157 0 01-3.153-3.153v-.958zm4.193 5.316l-1.05 2.809-1.052-2.814a4.476 4.476 0 002.102.005zm-7.493 5.89a.664.664 0 00.664-.664v-3.694a2.58 2.58 0 01.652-.238l2.905-.637 1.6 4.28a.664.664 0 001.244 0l1.6-4.28 2.923.639c.257.056.5.15.724.278h-2.484a.664.664 0 00-.664.664v7.304h-9.883v-3.652h.719zm-2.047 0v3.652h-1.008v-.332a2.06 2.06 0 00-2.058-2.058h-.067v-1.262h3.133zm-5.79-4.648a.665.665 0 011.329 0v5.91H7.172v-5.91zm-2.124 7.968c0-.402.328-.73.73-.73h4.118c.402 0 .73.328.73.73v.332H5.047v-.332zm27.625 2.989H1.328v-1.328h31.344v1.328z" fill="currentColor"/><path d="M7.366 14.605a.67.67 0 00-.194.47.668.668 0 00.664.663.669.669 0 00.664-.664.669.669 0 00-.195-.47.669.669 0 00-.47-.194.669.669 0 00-.469.195z" fill="currentColor"/></svg><svg viewBox="0 0 548 384" fill="none" id="youtube-brands" xmlns="http://www.w3.org/2000/svg"><path d="M535.656 60.083c-6.281-23.65-24.787-42.276-48.284-48.597C444.782 0 274.001 0 274.001 0S103.221 0 60.63 11.486c-23.497 6.322-42.003 24.947-48.284 48.597C.934 102.95.934 192.388.934 192.388s0 89.438 11.412 132.305c6.28 23.65 24.787 41.5 48.284 47.821C103.22 384 274 384 274 384s170.78 0 213.371-11.486c23.497-6.321 42.003-24.171 48.284-47.821 11.412-42.867 11.412-132.305 11.412-132.305s0-89.438-11.412-132.305zm-317.51 213.508V111.185l142.739 81.205-142.739 81.201z" fill="currentColor"/></svg></svg>