<svg width="24" height="38" viewBox="0 0 24 38" fill="none" xmlns="http://www.w3.org/2000/svg">
<path fill-rule="evenodd" clip-rule="evenodd" d="M13 18V5H13.0118H13.0442H13.0767H13.1091H13.1415H13.174H13.2064H13.2389H13.2714H13.3039H13.3364H13.3689H13.4014H13.4339H13.4664H13.4989H13.5315H13.564H13.5966H13.6291H13.6616H13.6942H13.7267H13.7593H13.7919H13.8244H13.857H13.8895H13.9221H13.9546H13.9871H14.0197H14.0522H14.0847H14.1173H14.1498H14.1823H14.2148H14.2473H14.2798H14.3123H14.3448H14.3772H14.4097H14.4421H14.4745H14.507H14.5394H14.5718H14.6041H14.6365H14.6689H14.7012H14.7335H14.7658H14.7981H14.8304H14.8626H14.8948H14.9271H14.9592H14.9914H15.0236H15.0557H15.0878H15.1199H15.1519H15.184H15.216H15.248H15.2799H15.3119H15.3438H15.3757H15.4075H15.4394H15.4711H15.5029H15.5347H15.5664H15.598H15.6297H15.6613H15.6929H15.7244H15.7559H15.7874H15.8189H15.8503H15.8816H15.913H15.9443H15.9755H16.0067H16.0379H16.0691H16.1002H16.1312H16.1622H16.1932H16.2242H16.2551H16.2859H16.3167H16.3475H16.3782H16.4089H16.4395H16.4701H16.5006H16.5311H16.5615H16.5919H16.6222H16.6525H16.6827H16.7129H16.7431H16.7731H16.8032H16.8331H16.863H16.8929H16.9227H16.9525H16.9822H17.0118H17.0414H17.0709H17.1004H17.1298H17.1591H17.1884H17.2176H17.2468H17.2759H17.3049H17.3339H17.3628H17.3916H17.4204H17.4491H17.4778H17.5064H17.5349H17.5633H17.5917H17.62H17.6483H17.6765H17.7046H17.7326H17.7605H17.7884H17.8162H17.844H17.8717H17.8993H17.9268H17.9542H17.9816H18.0089H18.0361H18.0632H18.0903H18.1173H18.1442H18.171H18.1977H18.2244H18.2509H18.2774H18.3038H18.3302H18.3564H18.3826H18.4086H18.4346H18.4605H18.4863H18.5121H18.5377H18.5633H18.5887H18.6141H18.6394H18.6646H18.6897H18.7147H18.7396H18.7644H18.7892H18.8138H18.8383H18.8628H18.8871H18.9114H18.9355H18.9596H18.9836H19.0074H19.0312H19.0548H19.0784H19.1019H19.1252H19.1485H19.1717H19.1947H19.2177H19.2405H19.2633H19.2859H19.3084H19.3308H19.3532H19.3754H19.3975H19.4195H19.4413H19.4631H19.4848H19.5063H19.5278H19.5491H19.5703H19.5914H19.6124H19.6333H19.6541H19.6747H19.6952H19.7156H19.7359H19.7561H19.7762H19.7961H19.8159H19.8356H19.8552H19.8747H19.894H19.9132H19.9323H19.9513H19.9701H19.9889H20.0075H20.0259H20.0443H20.0625H20.0806H20.0986H20.1164H20.1341H20.1517H20.1691H20.1864H20.2036H20.2207H20.2376H20.2544H20.271H20.2876H20.3039H20.3202H20.3363H20.3523H20.3681H20.3838H20.3994H20.4148H20.4301H20.4453H20.4603H20.4752H20.4899H20.5045H20.5189H20.5332H20.5474H20.5614H20.5753H20.589H20.6026H20.616H20.6293H20.6424H20.6554H20.6682H20.6809H20.6935H20.7059H20.7181H20.7302H20.7421H20.7539H20.7656H20.777H20.7884H20.7995H20.8105H20.8214H20.8321H20.8426H20.853H20.8633H20.8733H20.8832H20.893H20.9026H20.912H20.9213H20.9304H20.9393H20.9481H20.9567H20.9652H20.9735H20.9816H20.9896H20.9973H21.005H21.0124H21.0197H21.0268H21.0338H21.0406H21.0472H21.0536H21.0599H21.066H21.0719H21.0776H21.0832H21.0886H21.0938H21.0989H21.1037H21.1084H21.1129H21.1173H21.1215H21.1254H21.1292H21.1329H21.1363H21.1396H21.1426H21.1455H21.1483H21.1508H21.1531H21.1553H21.1573H21.1591H21.1607H21.1621H21.1633H21.1644H21.1652H21.1659H21.1664H21.1667L21.1667 4L21.1667 3H21.1664H21.1659H21.1652H21.1644H21.1633H21.1621H21.1607H21.1591H21.1573H21.1553H21.1531H21.1508H21.1483H21.1455H21.1426H21.1396H21.1363H21.1329H21.1292H21.1254H21.1215H21.1173H21.1129H21.1084H21.1037H21.0989H21.0938H21.0886H21.0832H21.0776H21.0719H21.066H21.0599H21.0536H21.0472H21.0406H21.0338H21.0268H21.0197H21.0124H21.005H20.9973H20.9896H20.9816H20.9735H20.9652H20.9567H20.9481H20.9393H20.9304H20.9213H20.912H20.9026H20.893H20.8832H20.8733H20.8633H20.853H20.8426H20.8321H20.8214H20.8105H20.7995H20.7884H20.777H20.7656H20.7539H20.7421H20.7302H20.7181H20.7059H20.6935H20.6809H20.6682H20.6554H20.6424H20.6293H20.616H20.6026H20.589H20.5753H20.5614H20.5474H20.5332H20.5189H20.5045H20.4899H20.4752H20.4603H20.4453H20.4301H20.4148H20.3994H20.3838H20.3681H20.3523H20.3363H20.3202H20.3039H20.2876H20.271H20.2544H20.2376H20.2207H20.2036H20.1864H20.1691H20.1517H20.1341H20.1164H20.0986H20.0806H20.0625H20.0443H20.0259H20.0075H19.9889H19.9701H19.9513H19.9323H19.9132H19.894H19.8747H19.8552H19.8356H19.8159H19.7961H19.7762H19.7561H19.7359H19.7156H19.6952H19.6747H19.6541H19.6333H19.6124H19.5914H19.5703H19.5491H19.5278H19.5063H19.4848H19.4631H19.4413H19.4195H19.3975H19.3754H19.3532H19.3308H19.3084H19.2859H19.2633H19.2405H19.2177H19.1947H19.1717H19.1485H19.1252H19.1019H19.0784H19.0548H19.0312H19.0074H18.9836H18.9596H18.9355H18.9114H18.8871H18.8628H18.8383H18.8138H18.7892H18.7644H18.7396H18.7147H18.6897H18.6646H18.6394H18.6141H18.5887H18.5633H18.5377H18.5121H18.4863H18.4605H18.4346H18.4086H18.3826H18.3564H18.3302H18.3038H18.2774H18.2509H18.2244H18.1977H18.171H18.1442H18.1173H18.0903H18.0632H18.0361H18.0089H17.9816H17.9542H17.9268H17.8993H17.8717H17.844H17.8162H17.7884H17.7605H17.7326H17.7046H17.6765H17.6483H17.62H17.5917H17.5633H17.5349H17.5064H17.4778H17.4491H17.4204H17.3916H17.3628H17.3339H17.3049H17.2759H17.2468H17.2176H17.1884H17.1591H17.1298H17.1004H17.0709H17.0414H17.0118H16.9822H16.9525H16.9227H16.8929H16.863H16.8331H16.8032H16.7731H16.7431H16.7129H16.6827H16.6525H16.6222H16.5919H16.5615H16.5311H16.5006H16.4701H16.4395H16.4089H16.3782H16.3475H16.3167H16.2859H16.2551H16.2242H16.1932H16.1622H16.1312H16.1002H16.0691H16.0379H16.0067H15.9755H15.9443H15.913H15.8816H15.8503H15.8189H15.7874H15.7559H15.7244H15.6929H15.6613H15.6297H15.598H15.5664H15.5347H15.5029H15.4711H15.4394H15.4075H15.3757H15.3438H15.3119H15.2799H15.248H15.216H15.184H15.1519H15.1199H15.0878H15.0557H15.0236H14.9914H14.9592H14.9271H14.8948H14.8626H14.8304H14.7981H14.7658H14.7335H14.7012H14.6689H14.6365H14.6041H14.5718H14.5394H14.507H14.4745H14.4421H14.4097H14.3772H14.3448H14.3123H14.2798H14.2473H14.2148H14.1823H14.1498H14.1173H14.0847H14.0522H14.0197H13.9871H13.9546H13.9221H13.8895H13.857H13.8244H13.7919H13.7593H13.7267H13.6942H13.6616H13.6291H13.5966H13.564H13.5315H13.4989H13.4664H13.4339H13.4014H13.3689H13.3364H13.3039H13.2714H13.2389H13.2064H13.174H13.1415H13.1091H13.0767H13.0442H13.0118H13V0.666748H11V3H10.9904H10.96H10.9297H10.8994H10.8692H10.839H10.8089H10.7789H10.7488H10.7189H10.689H10.6591H10.6294H10.5996H10.57H10.5403H10.5108H10.4813H10.4518H10.4224H10.3931H10.3638H10.3346H10.3055H10.2764H10.2474H10.2185H10.1896H10.1607H10.132H10.1033H10.0747H10.0461H10.0176H9.98917H9.96082H9.93253H9.90431H9.87616H9.84808H9.82007H9.79214H9.76427H9.73648H9.70876H9.68112H9.65355H9.62606H9.59864H9.5713H9.54403H9.51685H9.48974H9.46271H9.43575H9.40888H9.38209H9.35538H9.32875H9.3022H9.27573H9.24935H9.22305H9.19684H9.17071H9.14466H9.1187H9.09283H9.06704H9.04134H9.01573H8.99021H8.96478H8.93944H8.91418H8.88902H8.86395H8.83897H8.81409H8.7893H8.7646H8.73999H8.71548H8.69107H8.66675C3.9723 3 0.166748 6.80555 0.166748 11.5C0.166748 16.1944 3.97221 19.9999 8.66658 20C8.66664 20 8.66669 20 8.66675 20H11V33H10.9882H10.9558H10.9233H10.8909H10.8585H10.826H10.7936H10.7611H10.7286H10.6961H10.6636H10.6311H10.5986H10.5661H10.5336H10.5011H10.4685H10.436H10.4034H10.3709H10.3383H10.3058H10.2732H10.2407H10.2081H10.1756H10.143H10.1105H10.0779H10.0454H10.0129H9.98031H9.94778H9.91525H9.88272H9.8502H9.81769H9.78519H9.75269H9.7202H9.68772H9.65524H9.62278H9.59033H9.55788H9.52546H9.49304H9.46063H9.42824H9.39586H9.36349H9.33114H9.29881H9.26649H9.23419H9.2019H9.16964H9.13739H9.10516H9.07294H9.04075H9.00858H8.97643H8.9443H8.9122H8.88011H8.84805H8.81602H8.784H8.75202H8.72005H8.68812H8.65621H8.62433H8.59247H8.56065H8.52885H8.49708H8.46535H8.43364H8.40196H8.37032H8.33871H8.30713H8.27558H8.24407H8.21259H8.18115H8.14974H8.11837H8.08703H8.05574H8.02448H7.99326H7.96208H7.93093H7.89983H7.86877H7.83775H7.80677H7.77584H7.74494H7.71409H7.68329H7.65253H7.62181H7.59114H7.56052H7.52994H7.49941H7.46893H7.43849H7.40811H7.37778H7.34749H7.31726H7.28708H7.25695H7.22687H7.19684H7.16687H7.13696H7.10709H7.07729H7.04753H7.01784H6.9882H6.95862H6.9291H6.89964H6.87023H6.84089H6.8116H6.78238H6.75322H6.72412H6.69508H6.66611H6.6372H6.60835H6.57957H6.55085H6.5222H6.49362H6.4651H6.43665H6.40827H6.37996H6.35172H6.32355H6.29544H6.26741H6.23945H6.21157H6.18375H6.15601H6.12834H6.10075H6.07323H6.04579H6.01842H5.99113H5.96392H5.93678H5.90973H5.88275H5.85585H5.82903H5.80229H5.77563H5.74906H5.72257H5.69616H5.66983H5.64359H5.61743H5.59136H5.56537H5.53947H5.51365H5.48792H5.46229H5.43673H5.41127H5.3859H5.36062H5.33543H5.31033H5.28532H5.2604H5.23558H5.21085H5.18621H5.16167H5.13722H5.11287H5.08862H5.06446H5.0404H5.01644H4.99258H4.96881H4.94515H4.92159H4.89812H4.87476H4.8515H4.82834H4.80529H4.78234H4.75949H4.73675H4.71411H4.69158H4.66916H4.64684H4.62463H4.60253H4.58054H4.55865H4.53688H4.51521H4.49366H4.47222H4.45089H4.42968H4.40857H4.38758H4.36671H4.34595H4.3253H4.30477H4.28436H4.26406H4.24389H4.22383H4.20388H4.18406H4.16436H4.14478H4.12532H4.10598H4.08677H4.06767H4.0487H4.02985H4.01113H3.99254H3.97406H3.95572H3.9375H3.91941H3.90144H3.88361H3.8659H3.84833H3.83088H3.81356H3.79638H3.77932H3.7624H3.74561H3.72896H3.71244H3.69605H3.6798H3.66368H3.6477H3.63186H3.61615H3.60059H3.58516H3.56987H3.55472H3.53971H3.52484H3.51011H3.49552H3.48108H3.46678H3.45262H3.4386H3.42474H3.41101H3.39743H3.384H3.37072H3.35758H3.34459H3.33175H3.31906H3.30652H3.29412H3.28188H3.26979H3.25786H3.24607H3.23444H3.22296H3.21164H3.20047H3.18945H3.1786H3.16789H3.15735H3.14696H3.13673H3.12666H3.11675H3.107H3.09741H3.08798H3.07871H3.0696H3.06066H3.05188H3.04326H3.03481H3.02652H3.0184H3.01045H3.00266H2.99503H2.98758H2.98029H2.97318H2.96623H2.95945H2.95284H2.9464H2.94014H2.93405H2.92813H2.92238H2.91681H2.91141H2.90618H2.90114H2.89626H2.89157H2.88705H2.88271H2.87855H2.87457H2.87076H2.86714H2.8637H2.86043H2.85735H2.85446H2.85174H2.84921H2.84686H2.8447H2.84272H2.84093H2.83933H2.83791H2.83667H2.83563H2.83478H2.83411H2.83363H2.83335L2.83325 34L2.83335 35H2.83363H2.83411H2.83478H2.83563H2.83667H2.83791H2.83933H2.84093H2.84272H2.8447H2.84686H2.84921H2.85174H2.85446H2.85735H2.86043H2.8637H2.86714H2.87076H2.87457H2.87855H2.88271H2.88705H2.89157H2.89626H2.90114H2.90618H2.91141H2.91681H2.92238H2.92813H2.93405H2.94014H2.9464H2.95284H2.95945H2.96623H2.97318H2.98029H2.98758H2.99503H3.00266H3.01045H3.0184H3.02652H3.03481H3.04326H3.05188H3.06066H3.0696H3.07871H3.08798H3.09741H3.107H3.11675H3.12666H3.13673H3.14696H3.15735H3.16789H3.1786H3.18945H3.20047H3.21164H3.22296H3.23444H3.24607H3.25786H3.26979H3.28188H3.29412H3.30652H3.31906H3.33175H3.34459H3.35758H3.37072H3.384H3.39743H3.41101H3.42474H3.4386H3.45262H3.46678H3.48108H3.49552H3.51011H3.52484H3.53971H3.55472H3.56987H3.58516H3.60059H3.61615H3.63186H3.6477H3.66368H3.6798H3.69605H3.71244H3.72896H3.74561H3.7624H3.77932H3.79638H3.81356H3.83088H3.84833H3.8659H3.88361H3.90144H3.91941H3.9375H3.95572H3.97406H3.99254H4.01113H4.02985H4.0487H4.06767H4.08677H4.10598H4.12532H4.14478H4.16436H4.18406H4.20388H4.22383H4.24389H4.26406H4.28436H4.30477H4.3253H4.34595H4.36671H4.38758H4.40857H4.42968H4.45089H4.47222H4.49366H4.51521H4.53688H4.55865H4.58054H4.60253H4.62463H4.64684H4.66916H4.69158H4.71411H4.73675H4.75949H4.78234H4.80529H4.82834H4.8515H4.87476H4.89812H4.92159H4.94515H4.96881H4.99258H5.01644H5.0404H5.06446H5.08862H5.11287H5.13722H5.16167H5.18621H5.21085H5.23558H5.2604H5.28532H5.31033H5.33543H5.36062H5.3859H5.41127H5.43673H5.46229H5.48792H5.51365H5.53947H5.56537H5.59136H5.61743H5.64359H5.66983H5.69616H5.72257H5.74906H5.77563H5.80229H5.82903H5.85585H5.88275H5.90973H5.93678H5.96392H5.99113H6.01842H6.04579H6.07323H6.10075H6.12834H6.15601H6.18375H6.21157H6.23945H6.26741H6.29544H6.32355H6.35172H6.37996H6.40827H6.43665H6.4651H6.49362H6.5222H6.55085H6.57957H6.60835H6.6372H6.66611H6.69508H6.72412H6.75322H6.78238H6.8116H6.84089H6.87023H6.89964H6.9291H6.95862H6.9882H7.01784H7.04753H7.07729H7.10709H7.13696H7.16687H7.19684H7.22687H7.25695H7.28708H7.31726H7.34749H7.37778H7.40811H7.43849H7.46893H7.49941H7.52994H7.56052H7.59114H7.62181H7.65253H7.68329H7.71409H7.74494H7.77584H7.80677H7.83775H7.86877H7.89983H7.93093H7.96208H7.99326H8.02448H8.05574H8.08703H8.11837H8.14974H8.18115H8.21259H8.24407H8.27558H8.30713H8.33871H8.37032H8.40196H8.43364H8.46535H8.49708H8.52885H8.56065H8.59247H8.62433H8.65621H8.68812H8.72005H8.75202H8.784H8.81602H8.84805H8.88011H8.9122H8.9443H8.97643H9.00858H9.04075H9.07294H9.10516H9.13739H9.16964H9.2019H9.23419H9.26649H9.29881H9.33114H9.36349H9.39586H9.42824H9.46063H9.49304H9.52546H9.55788H9.59033H9.62278H9.65524H9.68772H9.7202H9.75269H9.78519H9.81769H9.8502H9.88272H9.91525H9.94778H9.98031H10.0129H10.0454H10.0779H10.1105H10.143H10.1756H10.2081H10.2407H10.2732H10.3058H10.3383H10.3709H10.4034H10.436H10.4685H10.5011H10.5336H10.5661H10.5986H10.6311H10.6636H10.6961H10.7286H10.7611H10.7936H10.826H10.8585H10.8909H10.9233H10.9558H10.9882H11V37.3334H13V35H13.0096H13.04H13.0703H13.1006H13.1308H13.161H13.1911H13.2211H13.2512H13.2811H13.311H13.3409H13.3706H13.4004H13.43H13.4597H13.4892H13.5187H13.5482H13.5776H13.6069H13.6362H13.6654H13.6945H13.7236H13.7526H13.7815H13.8104H13.8393H13.868H13.8967H13.9253H13.9539H13.9824H14.0108H14.0392H14.0675H14.0957H14.1238H14.1519H14.1799H14.2079H14.2357H14.2635H14.2912H14.3189H14.3464H14.3739H14.4014H14.4287H14.456H14.4832H14.5103H14.5373H14.5642H14.5911H14.6179H14.6446H14.6713H14.6978H14.7243H14.7506H14.7769H14.8032H14.8293H14.8553H14.8813H14.9072H14.933H14.9587H14.9843H15.0098H15.0352H15.0606H15.0858H15.111H15.136H15.161H15.1859H15.2107H15.2354H15.26H15.2845H15.3089H15.3333C20.0277 35 23.8333 31.1945 23.8333 26.5C23.8333 21.8055 20.0277 18 15.3333 18H13ZM13 20V33H13.0096H13.04H13.0703H13.1006H13.1308H13.161H13.1911H13.2211H13.2512H13.2811H13.311H13.3409H13.3706H13.4004H13.43H13.4597H13.4892H13.5187H13.5482H13.5776H13.6069H13.6362H13.6654H13.6945H13.7236H13.7526H13.7815H13.8104H13.8393H13.868H13.8967H13.9253H13.9539H13.9824H14.0108H14.0392H14.0675H14.0957H14.1238H14.1519H14.1799H14.2079H14.2357H14.2635H14.2912H14.3189H14.3464H14.3739H14.4014H14.4287H14.456H14.4832H14.5103H14.5373H14.5642H14.5911H14.6179H14.6446H14.6713H14.6978H14.7243H14.7506H14.7769H14.8032H14.8293H14.8553H14.8813H14.9072H14.933H14.9587H14.9843H15.0098H15.0352H15.0606H15.0858H15.111H15.136H15.161H15.1859H15.2107H15.2354H15.26H15.2845H15.3089H15.3333C18.9231 33 21.8333 30.0899 21.8333 26.5C21.8333 22.9101 18.9231 20 15.3333 20H13ZM11 18H8.66675C8.66669 18 8.66664 18 8.66658 18C5.07678 17.9999 2.16675 15.0898 2.16675 11.5C2.16675 7.91012 5.07687 5 8.66675 5H8.69107H8.71548H8.73999H8.7646H8.7893H8.81409H8.83897H8.86395H8.88902H8.91418H8.93944H8.96478H8.99021H9.01573H9.04134H9.06704H9.09283H9.1187H9.14466H9.17071H9.19684H9.22305H9.24935H9.27573H9.3022H9.32875H9.35538H9.38209H9.40888H9.43575H9.46271H9.48974H9.51685H9.54403H9.5713H9.59864H9.62606H9.65355H9.68112H9.70876H9.73648H9.76427H9.79214H9.82007H9.84808H9.87616H9.90431H9.93253H9.96082H9.98917H10.0176H10.0461H10.0747H10.1033H10.132H10.1607H10.1896H10.2185H10.2474H10.2764H10.3055H10.3346H10.3638H10.3931H10.4224H10.4518H10.4813H10.5108H10.5403H10.57H10.5996H10.6294H10.6591H10.689H10.7189H10.7488H10.7789H10.8089H10.839H10.8692H10.8994H10.9297H10.96H10.9904H11V18Z" fill="white"/>
</svg>
