<svg width="33" height="33" viewBox="0 0 33 33" fill="none" xmlns="http://www.w3.org/2000/svg">
<path fill-rule="evenodd" clip-rule="evenodd" d="M19.2445 0.282988C20.7991 0.0512549 22.3908 0.127198 23.9216 0.511058C25.945 1.01844 27.8614 2.06371 29.442 3.64429C31.0225 5.22486 32.0679 7.14123 32.5752 9.16475C32.9591 10.6956 33.035 12.2871 32.8033 13.8417L30.9773 13.5695C31.1734 12.2543 31.109 10.9079 30.7845 9.61376L30.7845 9.61373C30.3562 7.90538 29.4743 6.28753 28.1365 4.94972C26.7987 3.61193 25.1809 2.73014 23.4726 2.30177C22.1784 1.97727 20.8319 1.91292 19.5167 2.10897L19.2445 0.282988ZM19.5585 6.33928C21.3725 6.06886 23.2908 6.632 24.6897 8.0308L24.6897 8.03082C26.0886 9.42969 26.6516 11.3481 26.3812 13.1621L24.5552 12.8899C24.7431 11.6296 24.352 10.3039 23.3843 9.33628L23.3843 9.33625C23.1397 9.09164 22.8722 8.88387 22.5887 8.71298C21.7505 8.2078 20.7723 8.02488 19.8307 8.16526L19.5585 6.33928ZM2.21858 7.51744C1.7386 6.09494 2.80105 4.63351 4.41016 4.63351H8.70245C8.98178 4.63351 9.23931 4.78504 9.37502 5.02945L11.445 8.75819L11.445 8.75821C11.5682 8.98018 11.574 9.24859 11.4605 9.47556L11.4605 9.47562L9.46624 13.464C9.37519 13.6461 9.3469 13.8532 9.38577 14.0531L10.2919 13.8769C9.38577 14.0531 9.38583 14.0534 9.38588 14.0537L9.38601 14.0544L9.38631 14.0559L9.38708 14.0598L9.38932 14.0708L9.39664 14.1055C9.40283 14.1342 9.41171 14.1739 9.42358 14.2236C9.44733 14.3231 9.48313 14.4631 9.53358 14.6366C9.63436 14.9832 9.79425 15.466 10.0344 16.0277C10.1748 16.356 10.3434 16.7134 10.5449 17.0877C11.0304 17.9898 11.7063 18.9901 12.6357 19.9195L12.6357 19.9195C13.9509 21.2346 15.4057 22.0399 16.5235 22.5162C17.0843 22.7552 17.566 22.9139 17.9119 23.0137C18.0851 23.0637 18.2248 23.0991 18.3241 23.1226C18.3738 23.1343 18.4134 23.1431 18.442 23.1492L18.4768 23.1564L18.4878 23.1586L18.4917 23.1594L18.4932 23.1597L18.4939 23.1598C18.4942 23.1599 18.4945 23.1599 18.6684 22.2534L18.4945 23.1599C18.6936 23.1981 18.8998 23.1697 19.0812 23.079L23.069 21.0851L23.0691 21.0851C23.2962 20.9715 23.5648 20.9774 23.7868 21.1008L27.5262 23.1798L27.5263 23.1798C27.7704 23.3155 27.9217 23.5728 27.9217 23.8521V28.145C27.9217 29.7542 26.4603 30.8166 25.0378 30.3366L25.0378 30.3366C20.8027 28.9076 14.3761 26.2289 10.3513 22.204L10.3512 22.2039C10.0778 21.9305 9.81055 21.646 9.54949 21.3518C5.96813 17.316 3.55049 11.4648 2.21858 7.51744ZM11.3063 14.1212C11.2923 14.0729 11.2797 14.0282 11.2686 13.9874L13.1117 10.3013L13.1117 10.3012C13.4977 9.52927 13.478 8.61665 13.0591 7.86217L13.0591 7.86215L10.9891 4.13332L10.989 4.13325C10.5279 3.3027 9.65258 2.78735 8.70245 2.78735H4.41016C1.64694 2.78735 -0.448603 5.38724 0.469318 8.10767L1.25752 7.84172L0.469318 8.10768C1.91134 12.3813 4.69904 19.1627 9.04582 23.5094L9.04583 23.5094C13.3925 27.8562 20.1738 30.6439 24.4475 32.0859C27.168 33.0039 29.7679 30.9083 29.7679 28.145V23.8521C29.7679 22.9026 29.2533 22.0276 28.4233 21.5662L24.6839 19.4872L24.2354 20.294L24.6839 19.4872C23.9292 19.0676 23.0159 19.0476 22.2434 19.4339L22.2433 19.4339L18.5568 21.2771C18.5163 21.2662 18.4719 21.2538 18.4239 21.24C18.139 21.1577 17.7292 21.0232 17.2473 20.8179C16.2799 20.4056 15.0447 19.7176 13.9411 18.6141C12.8375 17.5104 12.1469 16.2725 11.7319 15.302C11.5253 14.8185 11.3895 14.4073 11.3063 14.1212Z" fill="white"/>
</svg>
