<svg width="30" height="28" viewBox="0 0 30 28" fill="none" xmlns="http://www.w3.org/2000/svg">
<path d="M15 27.9876C14.0325 27.0982 12.939 26.1732 11.7825 25.189H11.7675C7.69502 21.7374 3.07953 17.8318 1.04103 13.152C0.37131 11.6621 0.0163902 10.0411 1.71089e-05 8.39749C-0.00445557 6.14228 0.868188 3.98038 2.42074 2.40039C3.97329 0.820409 6.0747 -0.0442817 8.25002 0.00174799C10.021 0.00464732 11.7538 0.53516 13.242 1.53008C13.896 1.97004 14.4876 2.50221 15 3.11128C15.5152 2.5046 16.1071 1.97274 16.7595 1.53008C18.2471 0.534963 19.9795 0.00441994 21.75 0.00174799C23.9253 -0.0442817 26.0267 0.820409 27.5793 2.40039C29.1318 3.98038 30.0045 6.14228 30 8.39749C29.9847 10.0437 29.6297 11.6675 28.959 13.1597C26.9205 17.8396 22.3065 21.7436 18.234 25.189L18.219 25.2014C17.061 26.1794 15.969 27.1045 15.0015 28L15 27.9876Z" fill="#00AA65"/>
</svg>
