<svg width="50" height="54" viewBox="0 0 50 54" fill="none" xmlns="http://www.w3.org/2000/svg">
<path fill-rule="evenodd" clip-rule="evenodd" d="M49.2494 17.6195C49.2494 14.7614 47.7246 12.1203 45.2494 10.6913L29.0007 1.31008C26.5255 -0.118984 23.4759 -0.118985 21.0007 1.31008L4.75195 10.6913C2.27674 12.1203 0.751953 14.7614 0.751953 17.6195V36.3819C0.751953 39.24 2.27674 41.881 4.75195 43.3101L21.0007 52.6913C23.4759 54.1203 26.5255 54.1203 29.0007 52.6913L45.2494 43.3101C47.7246 41.881 49.2494 39.24 49.2494 36.3819V17.6195ZM37 24.5956C37 21.7503 35.4887 19.1191 33.031 17.6854L29.031 15.3521C26.5401 13.8991 23.4599 13.899 20.969 15.3521L16.969 17.6854C14.5113 19.1191 13 21.7503 13 24.5956V29.4057C13 32.2511 14.5113 34.8823 16.969 36.3159L20.969 38.6493C23.4599 40.1023 26.5401 40.1023 29.031 38.6493L33.031 36.3159C35.4887 34.8823 37 32.2511 37 29.4057V24.5956Z" fill="#D9D9D9"/>
</svg>
