<svg width="222" height="195" viewBox="0 0 222 195" fill="none" xmlns="http://www.w3.org/2000/svg">
<path d="M75.5841 32C75.5841 32 29.3364 50.9304 23.9409 91.0229C18.5453 131.115 0 137.686 0 137.686C0 137.686 56.2295 151.131 84.3403 130.55C112.451 109.969 141.826 124.242 149.449 98.33C157.073 72.4179 159.632 57.7261 138.566 48.8382C117.5 39.9503 75.5841 32 75.5841 32Z" fill="#26355E"/>
<path opacity="0.2" d="M57.534 60.4238C57.534 60.4238 41.5605 69.6279 39.9916 89.6035C38.4227 109.579 33.1238 136.937 0 137.585C0 137.585 48.9204 149.461 77.9528 134.257C106.985 119.054 145.246 115.1 147.453 100.908C149.661 86.7157 144.469 53.4281 144.469 53.4281L124.097 47.5443L89.335 46L57.534 60.4238Z" fill="#929AAE"/>
<path d="M132.686 32C132.686 32 162.637 46.663 169.258 71.5452C175.878 96.4274 136.039 115 136.039 115L130.654 107.978C130.654 107.978 166.686 73.3413 132.686 61.086C104.142 50.7894 132.686 32 132.686 32Z" fill="#F4A28C"/>
<path d="M134.865 34C134.865 34 154.979 43 164 60.9231L144.829 74C144.829 74 143.282 67.7923 133.294 64.7154C123.307 61.6385 124.011 58.0231 124.011 58.0231L134.865 34Z" fill="#40D76E"/>
<path opacity="0.34" d="M134.865 34C134.865 34 154.979 43 164 60.9231L144.829 74C144.829 74 143.282 67.7923 133.294 64.7154C123.307 61.6385 124.011 58.0231 124.011 58.0231L134.865 34Z" fill="white"/>
<path d="M109.7 6.75493C109.7 6.75493 110.375 11.6663 109.7 15.0156C109.63 15.3369 109.495 15.6418 109.302 15.9128C109.109 16.1839 108.861 16.4157 108.574 16.595C108.287 16.7743 107.966 16.8976 107.63 16.9578C107.293 17.0179 106.947 17.0138 106.612 16.9456C104.879 16.5776 102.637 15.5938 101.908 13.003L100.168 8.745C99.9115 7.85694 99.9496 6.91456 100.277 6.04817C100.604 5.18179 101.204 4.43419 101.994 3.90876C104.809 1.74597 109.45 3.74354 109.7 6.75493Z" fill="#F4A28C"/>
<path d="M100.052 10L98 26.6133L108 27L105.479 14.7566L100.052 10Z" fill="#F4A28C"/>
<path d="M109.687 10L110.862 12.0763C110.929 12.1949 110.973 12.3354 110.991 12.4846C111.009 12.6338 111 12.787 110.964 12.9298C110.929 13.0727 110.868 13.2006 110.788 13.3018C110.708 13.403 110.611 13.474 110.507 13.5085L109 14L109.687 10Z" fill="#F4A28C"/>
<path d="M78 106L131 107.686L129.11 117H80.0537L78 106Z" fill="#FFD200"/>
<path opacity="0.31" d="M106.292 16.6706C105.046 16.4351 103.901 15.8539 103 15C103 15 103.288 18.0902 107 21L106.292 16.6706Z" fill="#CE8172"/>
<path d="M108.502 7.45022C108.13 7.5769 107.75 7.6781 107.364 7.75314C106.817 7.87563 106.284 8.05792 105.775 8.29685L105.363 8.4755C105.069 8.608 104.82 8.8265 104.649 9.10316C104.478 9.37982 104.391 9.7021 104.4 10.0289C104.4 11.6601 103.896 14.6893 100.009 15C100.009 15 96.0522 8.98037 99.2448 4.35108C100.167 3.07062 101.359 2.01567 102.733 1.26317C104.107 0.510672 105.629 0.079604 107.188 0.00140989C111.397 -0.107332 112.527 6.10648 108.502 7.45022Z" fill="#F2C94C"/>
<path d="M103.784 12.5366C103.89 12.3766 103.961 12.1839 103.988 11.9784C104.015 11.7728 103.997 11.5619 103.938 11.3675C103.727 10.7291 103.318 9.88999 102.635 10.0119C101.951 10.1338 101.798 11.554 102.282 12.4863C102.366 12.6405 102.478 12.7673 102.609 12.8565C102.74 12.9457 102.886 12.9947 103.034 12.9996C103.183 13.0045 103.33 12.9651 103.465 12.8846C103.599 12.8042 103.716 12.6849 103.807 12.5366H103.784Z" fill="#F4A28C"/>
<path d="M98.4123 26.037L107.606 26.423C107.606 26.423 152.463 24.6009 142.577 61.2357C132.691 97.8704 130.681 108 130.681 108L78.1934 106.317C78.1934 106.317 42.5754 24.0064 98.4123 26.037Z" fill="#40D76E"/>
<path d="M105 74C111.627 74 117 68.4036 117 61.5C117 54.5964 111.627 49 105 49C98.3726 49 93 54.5964 93 61.5C93 68.4036 98.3726 74 105 74Z" fill="#26355E"/>
<path d="M75.5594 32C75.5594 32 46.199 46.663 39.7247 71.5452C33.2504 96.4274 72.2877 115 72.2877 115L77.5668 107.978C77.5668 107.978 42.2454 73.3413 75.5747 61.086C103.541 50.7894 75.5594 32 75.5594 32Z" fill="#F4A28C"/>
<path opacity="0.08" d="M86.9066 57.1521C86.9066 57.1521 80.27 87.7908 98 117H80.2999L78.2925 106.137C78.2925 106.137 68.8095 81.5836 68.023 68.2135C67.2365 54.8435 86.9066 57.1521 86.9066 57.1521Z" fill="black"/>
<path d="M76.0565 32C76.0565 32 60.5362 39.767 52 48.8777L66.364 68C66.364 68 90.8318 62.7806 89.9782 48.8777C89.1246 34.9748 76.0565 32 76.0565 32Z" fill="#40D76E"/>
<path opacity="0.34" d="M76.0565 32C76.0565 32 60.5362 39.767 52 48.8777L66.364 68C66.364 68 90.8318 62.7806 89.9782 48.8777C89.1246 34.9748 76.0565 32 76.0565 32Z" fill="white"/>
<path d="M80.6531 117L73 189H78.602C78.602 189 91.6122 132.414 104.5 129.255C117.388 126.097 129.365 189 129.365 189H136L128.89 117H80.6531Z" fill="#24285B"/>
<path d="M76 32.2345C76 32.2345 101.908 13.0098 135 33.3094C135 33.3094 93.3516 55.8131 76 32.2345Z" fill="#26355E"/>
<path d="M61 108.129L69.5747 98L81.6379 111.351C82.4804 112.282 83.1243 113.395 83.5256 114.614C83.9269 115.834 84.0763 117.131 83.9635 118.417C83.6559 121.775 82.6056 125.85 79.3048 125.994C73.6558 126.249 75.5538 118.489 75.5538 118.489L61 108.129Z" fill="#40D76E"/>
<path d="M148 108.129L138.986 98L127.349 110.234C125.898 111.729 124.865 113.585 124.357 115.614C123.849 117.643 123.884 119.772 124.458 121.783C125.137 124.024 126.401 125.898 128.74 125.994C134.688 126.249 132.69 118.489 132.69 118.489L148 108.129Z" fill="#40D76E"/>
<path d="M74.1577 173L85 174.537L78.4394 191.543L63 195L71.8789 187.828L74.1577 173Z" fill="#40D76E"/>
<path d="M135.376 173L123 174.732L129.555 191.576L145 195L136.118 187.896L135.376 173Z" fill="#40D76E"/>
<path d="M215.464 19.2058C216.261 19.3282 216.592 20.2955 216.038 20.8814L211.355 25.8324C211.14 26.059 211.044 26.3728 211.094 26.6807L212.192 33.407C212.322 34.203 211.504 34.8174 210.776 34.4713L204.62 31.5469C204.338 31.413 204.01 31.4183 203.733 31.5613L197.675 34.684C196.958 35.0535 196.121 34.466 196.225 33.6661L197.104 26.9078C197.144 26.5984 197.038 26.2879 196.816 26.0684L191.974 21.272C191.401 20.7044 191.702 19.7268 192.494 19.5786L199.194 18.3261C199.5 18.2688 199.763 18.0716 199.903 17.793L202.968 11.706C203.331 10.9856 204.354 10.969 204.74 11.6772L208.001 17.6615C208.15 17.9355 208.419 18.124 208.727 18.1714L215.464 19.2058Z" fill="#00AA65"/>
<path d="M215.464 57.5997C216.261 57.7221 216.592 58.6894 216.038 59.2753L211.355 64.2263C211.14 64.4529 211.044 64.7667 211.094 65.0746L212.192 71.8009C212.322 72.5969 211.504 73.2113 210.776 72.8652L204.62 69.9408C204.338 69.8069 204.01 69.8122 203.733 69.9552L197.675 73.0779C196.958 73.4474 196.121 72.8599 196.225 72.0601L197.104 65.3017C197.144 64.9923 197.038 64.6819 196.816 64.4623L191.974 59.6659C191.401 59.0983 191.702 58.1208 192.494 57.9725L199.194 56.7201C199.5 56.6627 199.763 56.4655 199.903 56.1869L202.968 50.0999C203.331 49.3795 204.354 49.3629 204.74 50.0711L208.001 56.0554C208.15 56.3294 208.419 56.518 208.727 56.5653L215.464 57.5997Z" fill="#00AA65"/>
<path d="M215.464 95.9936C216.261 96.116 216.592 97.0833 216.038 97.6692L211.355 102.62C211.14 102.847 211.044 103.161 211.094 103.469L212.192 110.195C212.322 110.991 211.504 111.605 210.776 111.259L204.62 108.335C204.338 108.201 204.01 108.206 203.733 108.349L197.675 111.472C196.958 111.841 196.121 111.254 196.225 110.454L197.104 103.696C197.144 103.386 197.038 103.076 196.816 102.856L191.974 98.0599C191.401 97.4922 191.702 96.5147 192.494 96.3665L199.194 95.114C199.5 95.0566 199.763 94.8595 199.903 94.5808L202.968 88.4938C203.331 87.7734 204.354 87.7568 204.74 88.465L208.001 94.4493C208.15 94.7233 208.419 94.9119 208.727 94.9592L215.464 95.9936Z" fill="#00AA65"/>
<path d="M215.464 135.206C216.261 135.328 216.593 136.295 216.038 136.881L211.355 141.832C211.14 142.059 211.044 142.373 211.094 142.681L212.192 149.407C212.322 150.203 211.505 150.817 210.776 150.471L204.62 147.547C204.338 147.413 204.01 147.418 203.733 147.561L197.675 150.684C196.958 151.054 196.121 150.466 196.225 149.666L197.104 142.908C197.145 142.598 197.038 142.288 196.816 142.068L191.975 137.272C191.402 136.704 191.702 135.727 192.495 135.579L199.194 134.326C199.5 134.269 199.763 134.072 199.903 133.793L202.969 127.706C203.331 126.986 204.354 126.969 204.74 127.677L208.001 133.662C208.15 133.935 208.419 134.124 208.727 134.171L215.464 135.206Z" fill="#00AA65"/>
<path d="M215.464 172.096C216.261 172.218 216.593 173.186 216.038 173.772L211.355 178.723C211.14 178.949 211.044 179.263 211.094 179.571L212.192 186.297C212.322 187.093 211.504 187.708 210.776 187.362L204.62 184.437C204.338 184.303 204.01 184.308 203.733 184.451L197.675 187.574C196.958 187.943 196.121 187.356 196.225 186.556L197.104 179.798C197.144 179.488 197.038 179.178 196.816 178.958L191.975 174.162C191.402 173.594 191.702 172.617 192.495 172.468L199.194 171.216C199.5 171.159 199.763 170.962 199.903 170.683L202.969 164.596C203.331 163.876 204.354 163.859 204.74 164.567L208.001 170.552C208.15 170.826 208.419 171.014 208.727 171.062L215.464 172.096Z" fill="#00AA65"/>
</svg>
