<svg width="266" height="186" viewBox="0 0 266 186" fill="none" xmlns="http://www.w3.org/2000/svg">
<path d="M39.0092 50C39.0092 50 6.55296 71.4894 14.1531 99.2327C21.7533 126.976 44.5358 136 44.5358 136L51 120.179L39.0092 50Z" fill="#F4A28C"/>
<path opacity="0.1" d="M39.0092 50C39.0092 50 6.55296 71.4894 14.1531 99.2327C21.7533 126.976 44.5358 136 44.5358 136L51 120.179L39.0092 50Z" fill="black"/>
<path d="M228.27 6.25916H110.631V156.766H228.27V6.25916Z" fill="#E6E6E6"/>
<path opacity="0.1" d="M159.509 86.6534L161.578 90.7606H156.895L151.677 87.56C151.677 87.56 145.324 128.496 110.631 134.625V116.909L147.575 79.0011L158.801 85.1664L159.509 86.6534Z" fill="black"/>
<path d="M67.8828 28.2004L68 42.7661L57 46L60.1747 22L67.8828 28.2004Z" fill="#F4A28C"/>
<path d="M45.0939 111.874L0.458252 131.617L14.8888 164.182L59.5245 144.439L45.0939 111.874Z" fill="#E6E6E6"/>
<path d="M71.835 17.0486C72.7653 16.7647 73.7517 16.717 74.7051 16.9097C75.6585 17.1023 76.5488 17.5294 77.2956 18.1521C78.0423 18.7749 78.622 19.5738 78.9821 20.4765C79.3422 21.3793 79.4714 22.3575 79.3581 23.3227C78.859 27.9195 77.2618 34.2934 72.2433 32.9334C64.5568 30.839 66.9436 20.8112 66.9436 20.8112C68.1694 19.1049 69.8704 17.7964 71.835 17.0486Z" fill="#F4A28C"/>
<path d="M58.7593 30.0492L64.2774 29.4207L67.7769 28.1306C67.7769 28.1306 70.1159 28.3422 70.2676 21.7425C70.2676 21.7425 80.8892 28.0797 83.5646 20.5505C86.5611 12.3874 78.7124 7.26878 72.6436 7.07209C70.8586 7.03204 69.0767 7.55187 67.4914 8.57508C65.9061 9.59829 64.5782 11.0857 63.6519 12.8757C63.6519 12.8757 54.5678 9.6313 58.7593 30.0492Z" fill="#24285B"/>
<path d="M83.4999 48.5C76.9239 40.8091 76.7233 42.3146 66.9169 39.7995C57.1105 37.2844 53.9708 38.9246 44.5 42.5C36.0693 45.7187 28.9817 56.7121 28.9998 68.0001C28.9998 94.4657 36.8598 109.492 32.2224 131.66L78.4051 139.394L85.1479 111.052C85.7728 108.367 86.9478 105.841 88.5988 103.633C90.2498 101.425 88.6006 103.36 90.9999 102C95.8278 99.28 84.2531 89.3038 83.4999 80.5C82.8283 72.6755 90.7054 57.0046 83.4999 48.5Z" fill="#40D76E"/>
<path d="M70.61 24.4559C70.61 24.4559 70.61 22.2527 68.559 22.9781C66.5081 23.7034 67.7423 26.6047 69.0944 26.6047C70.4466 26.6047 70.61 24.4559 70.61 24.4559Z" fill="#F4A28C"/>
<path opacity="0.28" d="M210.946 60.4507H130.596V139.177H210.946V60.4507Z" fill="#878787"/>
<path opacity="0.1" d="M80.8247 64.7367C80.8247 64.7367 94.1068 71.8233 86.2505 84.6279C78.3941 97.4325 84.5 115 84.5 115L81.5 125C81.5 125 76.5301 115.346 57.5691 97.8051C38.6081 80.2647 66.2466 42.8755 66.2466 42.8755L80.8247 64.7367Z" fill="black"/>
<path d="M59.602 52.2544C63.0414 41.048 78.115 38.5547 84.7125 48.247C86.8706 51.5823 88.2393 55.3652 88.7146 59.3083C91.7275 80.0619 91.5097 107.507 104.242 106.836C116.974 106.165 139.299 82.4011 139.299 82.4011L145.216 87.56C145.216 87.56 118.19 139.313 86.3642 119.565C60.809 103.699 53.0862 73.5067 59.602 52.2544Z" fill="#F4A28C"/>
<path d="M169.192 15.6342C173.397 15.6342 176.806 12.2284 176.806 8.02722C176.806 3.82603 173.397 0.420288 169.192 0.420288C164.987 0.420288 161.578 3.82603 161.578 8.02722C161.578 12.2284 164.987 15.6342 169.192 15.6342Z" fill="#878787"/>
<path d="M225.738 180.466C247.47 180.466 265.087 162.865 265.087 141.153C265.087 119.441 247.47 101.84 225.738 101.84C204.006 101.84 186.389 119.441 186.389 141.153C186.389 162.865 204.006 180.466 225.738 180.466Z" fill="#24285B"/>
<path d="M32.259 130.5L28.4021 185.806H93.7421L78.4144 139.421C78.4144 139.421 55.2187 135.142 32.259 130.5Z" fill="#24285B"/>
<path d="M138.91 72.1289L139.091 71.8471C139.368 71.4168 139.805 71.1141 140.305 71.0054C140.805 70.8968 141.328 70.9911 141.759 71.2677L159.978 82.9692L157.719 86.4801L139.5 74.7787C139.072 74.5038 138.77 74.0712 138.659 73.575C138.549 73.0788 138.639 72.559 138.91 72.1289Z" fill="#40D76E"/>
<path d="M158.02 86.4085L163.52 87.4511L160.289 82.8906L158.02 86.4085Z" fill="#24285B"/>
<path d="M138.8 84.6858C138.8 84.6858 141.141 73.8058 148.183 72.6362C155.225 71.4666 150.298 85.7466 145.216 87.56L138.8 84.6858Z" fill="#F4A28C"/>
<path opacity="0.28" d="M210.946 31.0747H130.596V45.264H210.946V31.0747Z" fill="#878787"/>
<path d="M226.119 120.146H228.343C231.885 120.146 235.283 121.552 237.788 124.055C240.294 126.558 241.701 129.952 241.701 133.492V149.095H212.761V133.492C212.761 129.952 214.168 126.558 216.673 124.055C219.179 121.552 222.576 120.146 226.119 120.146Z" fill="#FFD200"/>
<path d="M227.498 162.723C230.796 162.723 233.47 160.052 233.47 156.757C233.47 153.462 230.796 150.791 227.498 150.791C224.201 150.791 221.527 153.462 221.527 156.757C221.527 160.052 224.201 162.723 227.498 162.723Z" fill="#FFD200"/>
<path opacity="0.1" d="M227.498 162.723C230.796 162.723 233.47 160.052 233.47 156.757C233.47 153.462 230.796 150.791 227.498 150.791C224.201 150.791 221.527 153.462 221.527 156.757C221.527 160.052 224.201 162.723 227.498 162.723Z" fill="black"/>
<path d="M241.147 145.442H213.178C210.632 145.442 208.568 147.504 208.568 150.048V150.818C208.568 153.362 210.632 155.424 213.178 155.424H241.147C243.693 155.424 245.758 153.362 245.758 150.818V150.048C245.758 147.504 243.693 145.442 241.147 145.442Z" fill="#FFD200"/>
<path opacity="0.63" d="M241.147 145.442H213.178C210.632 145.442 208.568 147.504 208.568 150.048V150.818C208.568 153.362 210.632 155.424 213.178 155.424H241.147C243.693 155.424 245.758 153.362 245.758 150.818V150.048C245.758 147.504 243.693 145.442 241.147 145.442Z" fill="white"/>
<path d="M227.499 122.05C229.789 122.05 231.646 120.195 231.646 117.906C231.646 115.618 229.789 113.763 227.499 113.763C225.208 113.763 223.351 115.618 223.351 117.906C223.351 120.195 225.208 122.05 227.499 122.05Z" fill="#FFD200"/>
<path opacity="0.1" d="M227.499 122.05C229.789 122.05 231.646 120.195 231.646 117.906C231.646 115.618 229.789 113.763 227.499 113.763C225.208 113.763 223.351 115.618 223.351 117.906C223.351 120.195 225.208 122.05 227.499 122.05Z" fill="black"/>
<path opacity="0.1" d="M53.1224 134.625L58.6944 185.779H28.4021L32.259 130.5L53.1224 134.625Z" fill="black"/>
</svg>
