<svg width="263" height="237" viewBox="0 0 263 237" fill="none" xmlns="http://www.w3.org/2000/svg">
<path d="M96.7499 226.44C96.7499 226.44 99.8999 229.39 103.3 227.99C106.7 226.59 109.2 229.36 106.69 231.69C104.18 234.02 94.6899 234.13 94.6899 234.13L91.8799 228L96.7499 226.44Z" fill="#40D76E"/>
<path d="M43.7501 225.07C43.7501 225.07 42.2001 229.07 44.7501 231.73C47.3001 234.39 45.7501 237.73 42.6001 236.26C39.4501 234.79 35.8501 226 35.8501 226L40.4601 221.11L43.7501 225.07Z" fill="#40D76E"/>
<path d="M262.94 0.280029H105.83V181.4H262.94V0.280029Z" fill="#E6E6E6"/>
<path d="M242.59 38.0699H129.49V71.3999H242.59V38.0699Z" fill="#24285B"/>
<path d="M117.32 10.1801H131.6" stroke="#A8A8A8" stroke-width="2" stroke-miterlimit="10"/>
<path d="M117.32 15.76H131.6" stroke="#A8A8A8" stroke-width="2" stroke-miterlimit="10"/>
<path d="M117.32 21.34H131.6" stroke="#A8A8A8" stroke-width="2" stroke-miterlimit="10"/>
<path d="M242.59 10.1801H150.79V22.3201H242.59V10.1801Z" fill="white"/>
<path d="M150.07 66.88C156.692 66.88 162.06 61.5119 162.06 54.89C162.06 48.2681 156.692 42.9 150.07 42.9C143.448 42.9 138.08 48.2681 138.08 54.89C138.08 61.5119 143.448 66.88 150.07 66.88Z" fill="#FFD200"/>
<path d="M145.65 55.01L148.7 59.46L155.04 51.25" stroke="white" stroke-width="4" stroke-linecap="round" stroke-linejoin="round"/>
<path opacity="0.17" d="M218.76 47.42H171.11V52.7H218.76V47.42Z" fill="white"/>
<path opacity="0.17" d="M200.97 57.98H171.11V63.26H200.97V57.98Z" fill="white"/>
<path d="M242.59 81.09H129.49V114.42H242.59V81.09Z" fill="#24285B"/>
<path opacity="0.17" d="M150.07 109.89C156.692 109.89 162.06 104.522 162.06 97.9C162.06 91.2781 156.692 85.91 150.07 85.91C143.448 85.91 138.08 91.2781 138.08 97.9C138.08 104.522 143.448 109.89 150.07 109.89Z" fill="white"/>
<path opacity="0.17" d="M218.76 90.4399H171.11V95.7199H218.76V90.4399Z" fill="white"/>
<path opacity="0.17" d="M200.97 101H171.11V106.28H200.97V101Z" fill="white"/>
<path d="M242.59 124.11H129.49V157.44H242.59V124.11Z" fill="#24285B"/>
<path opacity="0.17" d="M150.07 152.91C156.692 152.91 162.06 147.542 162.06 140.92C162.06 134.298 156.692 128.93 150.07 128.93C143.448 128.93 138.08 134.298 138.08 140.92C138.08 147.542 143.448 152.91 150.07 152.91Z" fill="white"/>
<path opacity="0.17" d="M218.76 133.46H171.11V138.74H218.76V133.46Z" fill="white"/>
<path opacity="0.17" d="M200.97 144.01H171.11V149.29H200.97V144.01Z" fill="white"/>
<path d="M35.3001 149.37C35.3001 149.37 32.0001 162.52 37.7601 169C43.5201 175.48 52.4001 206.11 37.7601 221.43L43.5501 226.88C43.5501 226.88 68.9001 213.94 61.6701 167.3L79.7701 149.39L35.3001 149.37Z" fill="#24285B"/>
<path opacity="0.09" d="M141.26 92.8101C141.26 92.8101 150.14 107.72 137.2 112.1C137.2 112.1 133.2 156.82 105.83 164.65V149.37L127.33 103.59L141.26 92.8101Z" fill="black"/>
<path d="M79.77 74.52C79.77 74.52 97.68 79.09 97.77 93.92C97.86 108.75 89.82 134.7 101.34 136.82C112.86 138.94 119.75 106.89 119.75 106.89L128 110.2C128 110.2 119.26 164.95 89.07 155.92C58.88 146.89 79.77 74.52 79.77 74.52Z" fill="#40D76E"/>
<path opacity="0.44" d="M79.77 74.52C79.77 74.52 97.68 79.09 97.77 93.92C97.86 108.75 89.82 134.7 101.34 136.82C112.86 138.94 119.75 106.89 119.75 106.89L128 110.2C128 110.2 119.26 164.95 89.07 155.92C58.88 146.89 79.77 74.52 79.77 74.52Z" fill="white"/>
<path d="M63.66 50.17L58.21 69.41L69.02 71.66L68.6499 56.76L63.66 50.17Z" fill="#F4A28C"/>
<path opacity="0.31" d="M68.8701 60C67.5468 59.4917 66.4002 58.6091 65.5701 57.46C65.5701 57.46 65.3001 61.11 68.8601 65.17L68.8701 60Z" fill="#CE8172"/>
<path d="M58.2099 69.41L64.6199 70.74C64.6199 70.74 93.9699 73.91 95.1599 90.47C96.3499 107.03 79.7699 149.37 79.7699 149.37H35.2999C35.2999 149.37 -0.330105 65 58.2099 69.41Z" fill="#40D76E"/>
<path opacity="0.09" d="M54.3601 84.76C54.3601 84.76 57.9501 95.11 48.5501 101.86C39.1501 108.61 43.7301 134 54.0001 138.14C64.2701 142.28 47.5701 151.03 40.4401 147.44C33.3101 143.85 32.3101 141.44 32.3101 141.44C32.3101 141.44 25.7001 122.32 25.0001 110.11C24.3001 97.9 54.3601 84.76 54.3601 84.76Z" fill="black"/>
<path d="M61.3486 136.641L35.29 130.211L26.7093 164.988L52.7679 171.418L61.3486 136.641Z" fill="#FFD200"/>
<path opacity="0.09" d="M50.62 152.62C50.62 152.62 52.29 156.72 46.5 157.57C40.71 158.42 28.5 157.57 28.5 157.57L30.5 149.37L50.62 152.62Z" fill="black"/>
<path d="M54.3599 84.76C54.3599 75.65 45.1399 69.43 36.4799 72.27C28.9499 74.74 19.7699 79.27 14.1899 87.69C3.4599 103.78 -21.0501 150.8 41.1899 152.62L43.0199 145.69C43.0199 145.69 5.6799 135.36 22.1599 113.51C34.9999 96.52 54.3999 97.66 54.3599 84.76Z" fill="#40D76E"/>
<path opacity="0.44" d="M54.3599 84.76C54.3599 75.65 45.1399 69.43 36.4799 72.27C28.9499 74.74 19.7699 79.27 14.1899 87.69C3.4599 103.78 -21.0501 150.8 41.1899 152.62L43.0199 145.69C43.0199 145.69 5.6799 135.36 22.1599 113.51C34.9999 96.52 54.3999 97.66 54.3599 84.76Z" fill="white"/>
<path d="M121.71 107.67C121.71 107.67 122.17 99.74 125.35 97.49C128.53 95.24 128 100.94 128 100.94C128 100.94 131.18 97.23 133.83 98.94C136.48 100.65 128 110.2 128 110.2L121.71 107.67Z" fill="#F4A28C"/>
<path d="M74.8601 50.74C74.8601 50.74 74.3201 56.81 72.6001 60.62C72.4329 60.9872 72.1949 61.3179 71.8998 61.5931C71.6047 61.8682 71.2582 62.0826 70.8802 62.2237C70.5022 62.3649 70.1001 62.4302 69.6968 62.4158C69.2936 62.4014 68.8971 62.3077 68.5301 62.14C67.3163 61.6684 66.2636 60.8577 65.4977 59.8045C64.7317 58.7513 64.2848 57.5001 64.2101 56.2L63.3501 50.63C63.2933 49.4973 63.59 48.3749 64.1991 47.4182C64.8083 46.4615 65.6997 45.7178 66.7501 45.29C70.5701 43.45 75.3801 47.05 74.8601 50.74Z" fill="#F4A28C"/>
<path d="M74.3201 54.55L75.5801 57.16C75.6449 57.3079 75.673 57.4693 75.6619 57.6304C75.6508 57.7915 75.6009 57.9474 75.5163 58.085C75.4318 58.2226 75.3153 58.3377 75.1766 58.4204C75.0379 58.5031 74.8813 58.551 74.7201 58.56H72.3401L74.3201 54.55Z" fill="#F4A28C"/>
<path d="M129.27 104.8C135.892 104.8 141.26 99.4318 141.26 92.8099C141.26 86.188 135.892 80.8199 129.27 80.8199C122.648 80.8199 117.28 86.188 117.28 92.8099C117.28 99.4318 122.648 104.8 129.27 104.8Z" fill="#FFD200"/>
<path d="M124.86 92.9301L127.91 97.3901L134.24 89.1801" stroke="white" stroke-width="4" stroke-linecap="round" stroke-linejoin="round"/>
<path d="M79.77 149.37L98.36 226.86L89.07 228.22C89.07 228.22 70.48 175.11 58.21 164.22L79.77 149.37Z" fill="#24285B"/>
<path d="M42.7299 146.65C42.7299 146.65 49.3699 145.59 51.5899 150.18C53.8099 154.77 41.1599 152.62 41.1599 152.62L42.7299 146.65Z" fill="#F4A28C"/>
<path d="M61.85 56.57L65.57 55.6601L67.83 54.5501C67.83 54.5501 69.46 54.45 68.83 50.49C68.83 50.49 76.83 53.25 77.83 48.49C78.98 43.32 73.02 41.02 68.83 41.49C67.5996 41.6389 66.4336 42.1222 65.4586 42.8874C64.4836 43.6525 63.737 44.6703 63.3 45.8301C63.3 45.8301 56.7 44.77 61.85 56.57Z" fill="#24285B"/>
<path d="M67.56 54.7401C67.56 54.7401 67.93 52.4201 66.16 52.2901C64.39 52.1601 63.84 55.5101 66.16 56.2401L67.56 54.7401Z" fill="#F4A28C"/>
</svg>
