<svg width="181" height="29" viewBox="0 0 181 29" fill="none" xmlns="http://www.w3.org/2000/svg">
<path d="M13.1692 1.68994C13.5436 0.975565 14.5662 0.975565 14.9406 1.68994L18.1044 7.72639C18.2493 8.00273 18.5148 8.19564 18.8224 8.24799L25.541 9.39156C26.3361 9.5269 26.6521 10.4995 26.0884 11.0763L21.3251 15.9506C21.107 16.1737 21.0056 16.4859 21.0509 16.7946L22.0394 23.5378C22.1564 24.3358 21.3291 24.9369 20.6063 24.579L14.4986 21.5551C14.219 21.4166 13.8908 21.4166 13.6112 21.5551L7.50353 24.579C6.78073 24.9369 5.95341 24.3358 6.07041 23.5378L7.05899 16.7946C7.10424 16.4859 7.00283 16.1737 6.78476 15.9506L2.02142 11.0763C1.45771 10.4995 1.77372 9.5269 2.56883 9.39156L9.28749 8.24799C9.59507 8.19564 9.86059 8.00273 10.0054 7.72639L13.1692 1.68994Z" fill="#00AA65"/>
<path d="M51.5632 1.68994C51.9377 0.975565 52.9603 0.975565 53.3347 1.68994L56.4985 7.72639C56.6433 8.00273 56.9088 8.19564 57.2164 8.24799L63.9351 9.39156C64.7302 9.5269 65.0462 10.4995 64.4825 11.0763L59.7191 15.9506C59.5011 16.1737 59.3996 16.4859 59.4449 16.7946L60.4335 23.5378C60.5505 24.3358 59.7232 24.9369 59.0004 24.579L52.8927 21.5551C52.6131 21.4166 52.2849 21.4166 52.0053 21.5551L45.8976 24.579C45.1748 24.9369 44.3475 24.3358 44.4644 23.5378L45.453 16.7946C45.4983 16.4859 45.3969 16.1737 45.1788 15.9506L40.4155 11.0763C39.8518 10.4995 40.1678 9.5269 40.9629 9.39156L47.6815 8.24799C47.9891 8.19564 48.2546 8.00273 48.3995 7.72639L51.5632 1.68994Z" fill="#00AA65"/>
<path d="M89.957 1.68994C90.3315 0.975565 91.3541 0.975565 91.7285 1.68994L94.8923 7.72639C95.0371 8.00273 95.3026 8.19564 95.6102 8.24799L102.329 9.39156C103.124 9.5269 103.44 10.4995 102.876 11.0763L98.1129 15.9506C97.8949 16.1737 97.7934 16.4859 97.8387 16.7946L98.8273 23.5378C98.9443 24.3358 98.117 24.9369 97.3942 24.579L91.2865 21.5551C91.0069 21.4166 90.6787 21.4166 90.3991 21.5551L84.2914 24.579C83.5686 24.9369 82.7413 24.3358 82.8582 23.5378L83.8468 16.7946C83.8921 16.4859 83.7907 16.1737 83.5726 15.9506L78.8093 11.0763C78.2456 10.4995 78.5616 9.5269 79.3567 9.39156L86.0753 8.24799C86.3829 8.19564 86.6484 8.00273 86.7933 7.72639L89.957 1.68994Z" fill="#00AA65"/>
<path d="M128.351 1.68994C128.726 0.975565 129.748 0.975565 130.123 1.68994L133.286 7.72639C133.431 8.00273 133.697 8.19564 134.004 8.24799L140.723 9.39156C141.518 9.5269 141.834 10.4995 141.27 11.0763L136.507 15.9506C136.289 16.1737 136.187 16.4859 136.233 16.7946L137.221 23.5378C137.338 24.3358 136.511 24.9369 135.788 24.579L129.681 21.5551C129.401 21.4166 129.073 21.4166 128.793 21.5551L122.685 24.579C121.963 24.9369 121.135 24.3358 121.252 23.5378L122.241 16.7946C122.286 16.4859 122.185 16.1737 121.967 15.9506L117.203 11.0763C116.64 10.4995 116.956 9.5269 117.751 9.39156L124.469 8.24799C124.777 8.19564 125.042 8.00273 125.187 7.72639L128.351 1.68994Z" fill="#00AA65"/>
<path d="M166.059 1.68994C166.434 0.975565 167.456 0.975565 167.831 1.68994L170.995 7.72639C171.139 8.00273 171.405 8.19564 171.712 8.24799L178.431 9.39156C179.226 9.5269 179.542 10.4995 178.979 11.0763L174.215 15.9506C173.997 16.1737 173.896 16.4859 173.941 16.7946L174.93 23.5378C175.047 24.3358 174.219 24.9369 173.496 24.579L167.389 21.5551C167.109 21.4166 166.781 21.4166 166.501 21.5551L160.394 24.579C159.671 24.9369 158.844 24.3358 158.961 23.5378L159.949 16.7946C159.994 16.4859 159.893 16.1737 159.675 15.9506L154.912 11.0763C154.348 10.4995 154.664 9.5269 155.459 9.39156L162.178 8.24799C162.485 8.19564 162.751 8.00273 162.896 7.72639L166.059 1.68994Z" fill="#00AA65"/>
</svg>
