<svg width="45" height="63" viewBox="0 0 45 63" fill="none" xmlns="http://www.w3.org/2000/svg">
<path d="M44.5503 1.71434L42.4481 2.97138C42.0171 3.22941 41.4439 3.09628 41.1784 2.65454C40.9155 2.21747 41.0577 1.6506 41.4961 1.38851L43.5983 0.131458C44.0369 -0.130509 44.6051 0.0112411 44.8681 0.448304C45.131 0.885244 44.9887 1.45212 44.5503 1.71434ZM41.9721 5.53716H44.0743C44.5854 5.53716 44.9998 5.95035 44.9998 6.46001C44.9998 6.96967 44.5854 7.38287 44.0743 7.38287H41.972C41.4608 7.38287 41.0464 6.96967 41.0464 6.46001C41.0464 5.95035 41.4608 5.53716 41.9721 5.53716ZM42.4481 9.94852L44.5503 11.2057C44.9887 11.4678 45.131 12.0347 44.8681 12.4718C44.6025 12.9133 44.0304 13.0475 43.5983 12.7887L41.496 11.5316C41.0577 11.2696 40.9154 10.7027 41.1782 10.2656C41.4412 9.8283 42.0096 9.68643 42.4481 9.94852ZM3.45898 2.47427H31.488C31.6386 1.43256 32.5372 0.628568 33.6229 0.628568H34.8569C36.0478 0.628568 37.0165 1.59461 37.0165 2.78189V9.65407C37.0165 10.8413 36.0478 11.8074 34.8569 11.8074H33.6229C32.5372 11.8074 31.6385 11.0034 31.488 9.96169H29.9348C30.2478 12.1596 30.8314 14.2972 31.6746 16.3292C32.092 17.3331 32.5803 18.3267 33.1254 19.2819C33.4635 19.8729 33.5475 20.5581 33.362 21.2111C33.0577 22.2825 32.0388 23.0402 30.9285 23.0401C30.2632 23.04 29.6059 22.7778 29.1229 22.2783C28.4497 21.5821 27.8176 20.8319 27.2439 20.0485C25.8044 18.0838 24.7139 15.8953 23.9896 13.5276C23.7576 13.6275 23.5094 13.6969 23.2504 13.7316V17.3125C23.9957 17.6524 24.5158 18.401 24.5158 19.2702V22.3464C24.5158 23.0513 24.1729 23.6763 23.6462 24.0693C26.8839 27.3365 28.7115 31.7331 28.7115 36.3823V57.1553C28.7115 60.378 26.0819 63 22.8499 63H6.93091C3.69887 63 1.06929 60.378 1.06929 57.1553V49.7358C1.06929 49.2261 1.48367 48.8129 1.9948 48.8129C2.50594 48.8129 2.92033 49.2261 2.92033 49.7358V57.1553C2.92033 59.3604 4.71954 61.1543 6.93091 61.1543H22.8499C25.0612 61.1543 26.8604 59.3604 26.8604 57.1553V36.3823C26.8604 31.7965 24.8737 27.4849 21.3991 24.4997H8.38163C4.90711 27.4851 2.92033 31.7966 2.92033 36.3823V46.0444C2.92033 46.5541 2.50594 46.9672 1.9948 46.9672C1.48367 46.9672 1.06929 46.5541 1.06929 46.0444V36.3823C1.06929 31.7331 2.89688 27.3364 6.13459 24.0693C5.60791 23.6763 5.26498 23.0513 5.26498 22.3464V19.2702C5.26498 18.401 5.78512 17.6524 6.53035 17.3125V13.0526L5.90877 11.8131C5.33581 10.6706 4.23666 9.88035 2.96857 9.69935C1.18023 9.44403 0 7.75496 0 5.92316C0.000247955 4.02134 1.55179 2.47427 3.45898 2.47427ZM33.3145 9.65407C33.3145 9.82363 33.453 9.96169 33.623 9.96169H34.8571C35.0271 9.96169 35.1656 9.82363 35.1656 9.65407V2.78189C35.1656 2.61233 35.0271 2.47427 34.8571 2.47427H33.623C33.453 2.47427 33.3145 2.61233 33.3145 2.78189V9.65407ZM28.7389 18.96C29.2632 19.676 29.8409 20.3615 30.4557 20.9974C30.9857 21.5456 31.8832 20.837 31.5172 20.1958C30.9337 19.1735 30.4115 18.1105 29.9645 17.0357C29.0284 14.78 28.3921 12.404 28.067 9.96181H26.679C26.1398 9.96181 25.7011 10.3992 25.7011 10.937C25.7011 11.3177 25.6246 11.6809 25.4869 12.0126C26.1346 14.5601 27.227 16.8964 28.7389 18.96ZM7.11614 22.3464C7.11614 22.5159 7.2546 22.654 7.42464 22.654H22.3564C22.5264 22.654 22.6649 22.5159 22.6649 22.3464V19.2702C22.6649 19.1006 22.5264 18.9626 22.3564 18.9626H19.1836C18.6724 18.9626 18.258 18.5494 18.258 18.0397C18.258 17.5301 18.6724 17.1169 19.1836 17.1169H21.3996V13.7577H8.38163V17.1169H15.4816C15.9927 17.1169 16.4071 17.5301 16.4071 18.0397C16.4071 18.5494 15.9927 18.9626 15.4816 18.9626H7.42477C7.25472 18.9626 7.11626 19.1006 7.11626 19.2702V22.3464H7.11614ZM3.23117 7.87222C5.10023 8.13899 6.72014 9.30363 7.56458 10.9877L8.02808 11.912H22.8722C23.4115 11.912 23.8502 11.4745 23.8502 10.9368C23.8502 9.3814 25.1192 8.11598 26.6792 8.11598H31.4635V4.31998H3.4591C2.57258 4.31998 1.85141 5.03919 1.85141 5.92304C1.85129 6.81808 2.2653 7.73441 3.23117 7.87222ZM14.8905 33.042C20.3016 33.042 24.7037 37.4316 24.7037 42.8269C24.7037 48.2223 20.3015 52.6119 14.8905 52.6119C9.47942 52.6119 5.07728 48.2223 5.07728 42.8269C5.07728 37.4316 9.47955 33.042 14.8905 33.042ZM14.8905 50.7663C19.2809 50.7663 22.8527 47.2048 22.8527 42.8271C22.8527 38.4493 19.2808 34.8878 14.8905 34.8878C10.5001 34.8878 6.92832 38.4493 6.92832 42.8271C6.92832 47.2048 10.5002 50.7663 14.8905 50.7663ZM10.4702 41.3838L12.6427 40.5858L13.4431 38.4196C13.6689 37.8083 14.2371 37.4132 14.8905 37.4132C14.8905 37.4132 14.8905 37.4132 14.8906 37.4132C15.5439 37.4132 16.1121 37.8082 16.338 38.4196L17.1384 40.5858L19.3109 41.3838C19.924 41.609 20.3201 42.1756 20.3201 42.8271C20.3201 43.4786 19.924 44.0451 19.3108 44.2703L17.1384 45.0684L16.338 47.2345C16.1121 47.8459 15.5438 48.241 14.8905 48.2409C14.2372 48.2409 13.6691 47.8458 13.4431 47.2345L12.6427 45.0684L10.4702 44.2703C9.85716 44.0451 9.46104 43.4785 9.46104 42.8271C9.46091 42.1755 9.85704 41.609 10.4702 41.3838ZM13.4161 43.3854C13.8407 43.5413 14.174 43.8736 14.3305 44.297L14.8906 45.8129L15.4508 44.2969C15.6072 43.8736 15.9404 43.5413 16.3649 43.3856L17.8854 42.8269L16.365 42.2685C15.9405 42.1125 15.6072 41.7804 15.4508 41.357L14.8906 39.8411L14.3305 41.3571C14.174 41.7804 13.8407 42.1128 13.4163 42.2684L11.896 42.8271L13.4161 43.3854Z" fill="#26355E"/>
</svg>
