<svg width="12" height="13" viewBox="0 0 12 13" fill="none" xmlns="http://www.w3.org/2000/svg">
<path d="M1.57222 3.73504C2.09816 3.73504 2.56634 3.73504 3.03452 3.73504C3.17532 3.73504 3.31613 3.73504 3.50796 3.73504C3.50496 2.84511 3.31448 1.80937 4.76661 2.10917C4.79645 1.99169 4.82676 1.92005 4.83135 1.84681C4.86981 1.23447 4.86838 1.23356 4.23938 1.23456C3.85644 1.23518 3.49709 1.19372 3.17313 1.54225C2.88591 1.85126 2.33308 1.72345 2.05572 1.38804C1.78431 1.05984 1.81522 0.546529 2.12407 0.252475C2.44631 -0.0543223 2.94967 -0.100843 3.25695 0.220376C3.47938 0.452897 3.71159 0.471226 3.98868 0.46963C4.94361 0.464126 5.89871 0.47523 6.85341 0.459642C7.00149 0.457219 7.176 0.380682 7.28989 0.282883C7.70574 -0.0742693 8.20152 -0.0840581 8.5489 0.286363C8.85421 0.611925 8.84291 1.13231 8.5236 1.45035C8.18453 1.78808 7.68084 1.76738 7.28976 1.42758C7.17607 1.3288 7.00794 1.27998 6.85628 1.23996C6.7463 1.21094 6.62232 1.23415 6.50459 1.23413C5.74926 1.234 5.74926 1.234 5.83461 2.05334C6.224 2.15701 6.80206 1.91053 7.00411 2.41985C7.15509 2.80042 7.12967 3.24994 7.1912 3.73504C7.64 3.73504 8.11819 3.73909 8.59629 3.73407C9.27755 3.7269 9.95088 3.73176 10.5566 4.12125C11.2879 4.59148 11.6915 5.24804 11.7645 6.10763C11.7666 6.13346 11.7747 6.16355 11.765 6.18491C11.5924 6.56449 11.5281 6.88632 11.9266 7.221C12.1263 7.38867 11.889 7.78452 11.5689 7.79385C10.6806 7.81974 9.79054 7.81855 8.90239 7.79045C8.76842 7.78622 8.56629 7.59953 8.5315 7.46311C8.49702 7.32794 8.62442 7.14488 8.69956 6.99188C8.75038 6.88839 8.83361 6.80059 8.90234 6.70577C8.78647 6.67232 8.6718 6.61617 8.55447 6.61C8.28052 6.59561 8.00514 6.611 7.73062 6.60379C7.31275 6.59281 6.96292 6.62966 6.59827 6.952C5.92021 7.55141 4.45334 7.40254 3.80483 6.7761C3.7274 6.70131 3.61571 6.61682 3.51806 6.61455C2.89222 6.59998 2.26586 6.60711 1.57202 6.60711C1.57202 6.82821 1.57957 7.01743 1.57052 7.20586C1.54866 7.66046 1.23677 7.98561 0.818766 7.99952C0.380465 8.01412 0.0150803 7.69227 0.0103132 7.22403C-0.00370867 5.84785 -0.00378765 4.47131 0.0122631 3.09517C0.0174174 2.65319 0.389917 2.33095 0.80487 2.34156C1.22968 2.35242 1.54599 2.67145 1.57052 3.12491C1.58078 3.31468 1.57222 3.50547 1.57222 3.73504Z" fill="#26355E"/>
<path d="M9.99846 9C10.3078 9.75756 10.6563 10.5262 10.9374 11.3303C11.1133 11.8335 10.896 12.5197 10.564 12.8032C10.2498 13.0714 9.71124 13.0645 9.40282 12.7883C9.08142 12.5005 8.88741 11.7503 9.07116 11.2537C9.35703 10.4812 9.69245 9.73633 9.99846 9Z" fill="#26355E"/>
</svg>
