<svg width="47" height="47" viewBox="0 0 47 47" fill="none" xmlns="http://www.w3.org/2000/svg">
<path d="M25.8499 23.4999C25.8499 22.2021 24.7977 21.1499 23.4999 21.1499C22.2021 21.1499 21.1499 22.2021 21.1499 23.4999C21.1499 24.7977 22.2021 25.8499 23.4999 25.8499C24.7977 25.8499 25.8499 24.7977 25.8499 23.4999ZM23.4999 24.2832C23.0673 24.2832 22.7166 23.9325 22.7166 23.4999C22.7166 23.0673 23.0673 22.7166 23.4999 22.7166C23.9325 22.7166 24.2832 23.0673 24.2832 23.4999C24.2832 23.9325 23.9325 24.2832 23.4999 24.2832Z" fill="#26355E"/>
<path d="M40.9524 30.8631L28.9676 23.9401C28.9787 23.7959 28.9871 23.6502 28.9871 23.4975C28.9829 22.1718 28.499 20.8924 27.6243 19.8964C28.5212 18.0961 28.9867 16.1113 28.9833 14.0998C28.9833 8.77332 25.6227 3.9165 21.9333 3.9165C21.5007 3.9165 21.1499 4.26724 21.1499 4.69984V18.5577C19.8162 19.193 18.7942 20.3378 18.3142 21.735C16.3084 21.8563 14.3585 22.443 12.6186 23.449C12.5895 23.4654 12.5623 23.4849 12.5333 23.5021C12.5325 19.478 14.7356 15.7763 18.2736 13.8585L17.5255 12.4823C13.4838 14.674 10.9666 18.9023 10.9666 23.4998C10.9666 23.849 10.9907 24.1929 11.019 24.5352C10.2514 25.1422 9.556 25.8357 8.94708 26.6018C7.40642 19.4179 11.3437 12.1859 18.214 9.58152L17.6578 8.11736C9.53573 11.2067 5.21401 20.0777 7.78776 28.3777C7.70476 28.5341 7.61717 28.691 7.54182 28.8478C6.52747 31.0161 6.44906 33.1293 7.32648 34.6444C7.54259 35.0188 8.02184 35.1473 8.39668 34.9308L10.5899 33.6629C15.6356 40.0959 24.6451 41.8374 31.7249 37.7486L30.9416 36.3935C24.6095 40.0458 16.562 38.5557 11.9576 32.878L14.0288 31.6824C17.3771 35.5719 22.7606 37.0234 27.6101 35.3439L27.0969 33.8626C22.958 35.2992 18.3608 34.128 15.4134 30.886L20.4033 28.004C21.3125 28.6366 22.3923 28.9782 23.4999 28.9832C23.858 28.979 24.2148 28.94 24.5652 28.8673C25.6736 30.546 27.1569 31.944 28.898 32.9515C30.8039 34.0657 32.9676 34.6631 35.1754 34.6849C35.489 34.6849 35.8023 34.6727 36.1155 34.6459C38.5007 34.4397 40.3699 33.4522 41.2439 31.9356C41.3483 31.7547 41.3762 31.5401 41.3215 31.3389C41.2668 31.1373 41.1341 30.9664 40.9524 30.8631ZM22.7166 5.59753C25.0383 6.26038 27.4166 9.7414 27.4166 14.0998C27.4201 15.7357 27.0728 17.3533 26.3984 18.8438C26.2064 18.7268 26.0079 18.6224 25.8029 18.5302C25.7528 18.5069 25.7027 18.4851 25.6526 18.4629C25.4483 18.3745 25.2391 18.2984 25.0261 18.2349H25.018C24.8004 18.1745 24.5789 18.1274 24.3552 18.0949C24.3001 18.0861 24.2443 18.0781 24.1884 18.0712C23.9605 18.0387 23.7302 18.0203 23.4999 18.0165C23.2379 18.0165 22.9759 18.0352 22.7166 18.0727V5.59753ZM8.39324 33.127C8.21691 32.2263 8.2892 31.2942 8.60246 30.4317C8.9161 31.1064 9.27525 31.7589 9.67725 32.385L8.39324 33.127ZM11.0324 31.6028C10.4078 30.6405 9.89679 29.6089 9.50972 28.5288C10.0135 27.7305 10.6189 27.0015 11.3112 26.3597C11.6493 27.8101 12.2441 29.1882 13.0676 30.4294L11.0324 31.6028ZM14.4228 29.6445C13.5308 28.3264 12.9383 26.829 12.6874 25.2577C12.92 25.1009 13.1583 24.951 13.4019 24.8079C14.8163 23.9883 16.3899 23.4811 18.0166 23.3205V23.4998C18.0189 23.7737 18.0422 24.0468 18.0855 24.3168C18.095 24.3803 18.1042 24.4423 18.1161 24.505C18.1639 24.767 18.2304 25.0256 18.315 25.278C18.3253 25.3079 18.3394 25.3362 18.3501 25.3656C18.4339 25.594 18.5326 25.8158 18.6458 26.0308C18.6737 26.0847 18.7005 26.139 18.7303 26.1922C18.86 26.422 19.0057 26.6424 19.1664 26.8516C19.1759 26.8642 19.182 26.8783 19.1916 26.891L14.4228 29.6445ZM20.9549 26.4764C20.0855 25.7316 19.5848 24.6446 19.5833 23.4998C19.5833 23.2183 19.6143 22.9372 19.6758 22.6626C19.9669 21.3384 20.9224 20.2594 22.201 19.8096C22.3854 19.745 22.5739 19.6945 22.766 19.6593C22.8535 19.6428 22.9423 19.634 23.0306 19.6237C23.1308 19.6115 23.2322 19.6019 23.3347 19.5973C23.4372 19.5927 23.5516 19.5973 23.6598 19.5973C23.7677 19.5973 23.8526 19.613 23.949 19.6237C24.1704 19.6497 24.3896 19.6945 24.6038 19.7572C24.6696 19.7759 24.7361 19.7901 24.8004 19.8127C24.9067 19.8494 25.0085 19.8972 25.1137 19.9427C25.2185 19.9882 25.3164 20.0383 25.4143 20.0938C25.4927 20.1355 25.5658 20.1783 25.6384 20.2254C25.8163 20.3393 25.9842 20.4679 26.1406 20.6094C26.9534 21.3506 27.4166 22.3998 27.4166 23.4998C27.4185 23.7404 27.3967 23.9802 27.3516 24.2166C27.0957 25.5924 26.1253 26.7273 24.8058 27.1931C23.4862 27.6594 22.0182 27.3863 20.9549 26.4764ZM35.9771 33.0838C33.7774 33.2276 31.585 32.709 29.6828 31.5956C28.2669 30.7767 27.0422 29.6648 26.0905 28.3345C26.1406 28.3073 26.1827 28.2695 26.232 28.2415C26.4141 28.1363 26.5901 28.0212 26.7587 27.8958C26.8299 27.8434 26.901 27.7917 26.9695 27.7393C27.1707 27.5749 27.36 27.3966 27.5363 27.2058C27.5551 27.1855 27.5773 27.1683 27.5952 27.1469C27.7869 26.9292 27.9609 26.6967 28.1162 26.4515C28.156 26.3888 28.1889 26.3237 28.2267 26.2602C28.3388 26.0682 28.4394 25.8697 28.5274 25.6659C28.5461 25.6219 28.5736 25.5836 28.5916 25.5396L39.39 31.7749C38.4276 32.5759 37.2278 33.0364 35.9771 33.0846V33.0838Z" fill="#26355E"/>
<path d="M23.5 0C10.5215 0 0 10.5215 0 23.5C0 36.4785 10.5215 47 23.5 47C36.4785 47 47 36.4785 47 23.5C46.9855 10.5276 36.4724 0.0145346 23.5 0ZM23.5 45.4333C11.3866 45.4333 1.56667 35.6134 1.56667 23.5C1.56667 11.3866 11.3866 1.56667 23.5 1.56667C35.6134 1.56667 45.4333 11.3866 45.4333 23.5C45.4196 35.6076 35.6076 45.4196 23.5 45.4333Z" fill="#26355E"/>
<path d="M38.3833 23.5C38.3833 24.5079 38.282 25.5127 38.0808 26.5002L39.6165 26.8135C41.0351 19.8717 37.8574 12.7999 31.725 9.25122L30.9417 10.6064C35.5388 13.2746 38.3726 18.1846 38.3833 23.5Z" fill="#26355E"/>
<path d="M34.4666 23.5001H36.0333C36.0314 19.9341 34.5125 16.5369 31.8557 14.1582L30.8108 15.3252C33.1355 17.407 34.4647 20.3794 34.4666 23.5001Z" fill="#26355E"/>
</svg>
