<svg width="47" height="37" viewBox="0 0 47 37" fill="none" xmlns="http://www.w3.org/2000/svg">
<path d="M46.2167 32.9764V27.7504C46.2067 19.2405 39.1984 12.3442 30.55 12.3345H26.4892C26.1584 11.4139 25.2757 10.7969 24.2833 10.7929H21.9333V7.70969H22.7167C23.2739 7.70804 23.7879 7.41428 24.0656 6.93889H30.55C31.8255 6.95822 32.8764 5.95856 32.9 4.70358V2.23703C32.8989 1.55388 32.5746 0.910195 32.0227 0.495798C31.4316 0.0453286 30.6611 -0.108805 29.9382 0.0787963L23.6058 1.69285C22.8775 0.635918 21.6644 0.00258539 20.3667 0.00171656H17.2333C15.9356 0.00258539 14.7225 0.635918 13.9943 1.69285L7.66022 0.0787963C6.93806 -0.109579 6.16794 0.0440329 5.57733 0.494256C5.02496 0.908983 4.70058 1.55334 4.7 2.23703V4.70358C4.72359 5.95856 5.77455 6.95822 7.05 6.93889H13.5344C13.8121 7.41428 14.3261 7.70804 14.8833 7.70969H15.6667V10.7929H13.3167C12.3244 10.7969 11.4416 11.4139 11.1108 12.3345H1.56667C0.701421 12.3345 0 13.0247 0 13.8761V24.6672C0 25.5186 0.701421 26.2088 1.56667 26.2088H11.1108C11.4416 27.1294 12.3244 27.7464 13.3167 27.7504H24.2833C25.2757 27.7464 26.1584 27.1294 26.4892 26.2088H32.1167V32.9764C31.3904 33.6136 31.1403 34.6263 31.4884 35.5204C31.8366 36.4144 32.7103 37.0035 33.6833 37H44.65C45.623 37.0035 46.4968 36.4144 46.8449 35.5204C47.193 34.6263 46.9429 33.6136 46.2167 32.9764ZM6.26667 4.70358V2.23703C6.269 2.03071 6.36928 1.83735 6.5377 1.71443C6.74567 1.55793 7.01578 1.50551 7.26855 1.5726L13.395 3.13192C13.3458 3.37022 13.3196 3.61256 13.3167 3.8557V5.3973H7.05C6.63958 5.41699 6.28984 5.10727 6.26667 4.70358ZM30.3299 1.5726C30.5831 1.50488 30.854 1.55733 31.0623 1.71443C31.2307 1.83735 31.331 2.03071 31.3333 2.23703V4.70358C31.3102 5.10727 30.9604 5.41699 30.55 5.3973H24.2833V3.8557C24.2817 3.61268 24.2568 3.37035 24.2089 3.13192L30.3299 1.5726ZM14.8833 3.8557C14.8833 2.5786 15.9355 1.54331 17.2333 1.54331H20.3667C21.6645 1.54331 22.7167 2.5786 22.7167 3.8557V6.16809H14.8833V3.8557ZM17.2333 7.70969H20.3667V10.7929H17.2333V7.70969ZM1.56667 13.8761H10.9667V24.6672H1.56667V13.8761ZM24.2833 26.2088H13.3167C12.884 26.2088 12.5333 25.8637 12.5333 25.438V13.1053C12.5333 12.6796 12.884 12.3345 13.3167 12.3345H24.2833C24.716 12.3345 25.0667 12.6796 25.0667 13.1053V25.438C25.0667 25.8637 24.716 26.2088 24.2833 26.2088ZM32.1167 24.6672H26.6333V13.8761H30.55C38.3335 13.885 44.6409 20.0915 44.65 27.7504V32.3752H33.6833V26.2088C33.6833 25.3574 32.9819 24.6672 32.1167 24.6672ZM44.65 35.4584H33.6833C33.2507 35.4584 32.9 35.1133 32.9 34.6876C32.9 34.2619 33.2507 33.9168 33.6833 33.9168H44.65C45.0826 33.9168 45.4333 34.2619 45.4333 34.6876C45.4333 35.1133 45.0826 35.4584 44.65 35.4584Z" fill="#26355E"/>
</svg>
