<svg width="50" height="50" viewBox="0 0 50 50" fill="none" xmlns="http://www.w3.org/2000/svg">
<path d="M47.1994 46.0527C46.9803 45.9502 46.7728 45.8527 46.5911 45.7552C45.4044 45.1244 44.2195 44.4869 43.0645 43.8386C42.346 43.4154 41.6005 43.0399 40.8328 42.7144V42.3169C40.833 41.5517 40.312 40.8847 39.5695 40.6995L37.9029 40.2828C37.2032 40.0995 36.4665 40.3999 36.0946 41.0203C35.4118 40.6139 34.7665 40.1476 34.1663 39.627V37.3428C36.9246 34.5987 36.9087 32.0621 36.7987 29.6096C38.4437 28.4527 39.5533 26.682 39.877 24.6972C40.1587 22.0747 39.9804 20.3847 39.3604 19.6356C39.4984 19.4433 39.6138 19.2358 39.7045 19.0172C40.3712 17.4148 39.782 15.2015 39.0787 13.794C39.0179 13.6723 38.9362 13.5532 38.8604 13.4332C38.9703 10.9704 38.4726 8.51833 37.4112 6.29325C35.4996 2.46997 30.6238 0 24.9997 0C19.3756 0 14.504 2.46997 12.5874 6.29408C11.5266 8.51904 11.0292 10.9707 11.1391 13.4332C11.0632 13.5532 10.9816 13.6723 10.9207 13.794C10.2174 15.2015 9.63076 17.4148 10.2949 19.0172C10.3861 19.236 10.5018 19.4438 10.6399 19.6364C10.0191 20.3864 9.84159 22.0797 10.1258 24.7197C10.4543 26.6949 11.5622 28.4554 13.2007 29.6063C13.0907 32.0596 13.0749 34.5954 15.8332 37.3395V39.6245C15.2326 40.1449 14.5871 40.6109 13.904 41.017C13.5321 40.3966 12.7954 40.0961 12.0957 40.2795L10.4291 40.6961C9.6857 40.8819 9.1648 41.5507 9.1666 42.3169V42.7144C8.40091 43.0379 7.65736 43.4115 6.94079 43.8328C5.77998 44.4877 4.59499 45.1261 3.40751 45.7569C3.22751 45.8527 3.02001 45.9502 2.80168 46.0527C1.82378 46.401 0.968425 47.0264 0.340049 47.8527C0.117454 48.2468 0.000346043 48.6917 5.31224e-05 49.1443C-0.00247688 49.37 0.0854548 49.5873 0.244217 49.7477C0.404935 49.9082 0.62291 49.9981 0.850042 49.9977H49.1661C49.3909 49.9977 49.6062 49.907 49.7631 49.746C49.92 49.585 50.0052 49.3674 49.9994 49.1427C49.9994 48.6911 49.8832 48.2471 49.6619 47.8535C49.0336 47.0266 48.1779 46.4009 47.1994 46.0527ZM24.9997 48.3327C17.704 48.3327 17.4998 43.3503 17.4998 43.2994V39.1961C17.944 39.7795 18.3156 40.3478 18.6606 40.8786C19.8065 42.6428 20.7964 44.1661 23.3247 44.1661H26.6747C29.203 44.1661 30.193 42.6428 31.3413 40.8786C31.6863 40.3478 32.058 39.7803 32.5021 39.1961V43.2994C32.4996 43.3503 32.2955 48.3327 24.9997 48.3327ZM12.7632 19.2089C12.3416 19.0922 11.9983 18.7856 11.8349 18.3798C11.4182 17.3706 11.8407 15.6815 12.4124 14.539C13.4832 12.3965 19.094 9.99987 24.9997 9.99987C30.9055 9.99987 36.5162 12.3965 37.5829 14.539C38.1545 15.6815 38.5829 17.3723 38.1604 18.3798C37.9969 18.7856 37.6537 19.0922 37.2321 19.2089C35.7054 19.7189 33.9271 18.8706 31.8705 17.8881C29.8597 16.9248 27.5747 15.8331 24.9997 15.8331C22.4248 15.8331 20.1398 16.9248 18.1248 17.8881C16.0682 18.8706 14.2915 19.7189 12.7632 19.2089ZM24.9997 1.80748C27.3667 3.44697 29.0104 5.93595 29.5888 8.75655C26.5555 8.19205 23.444 8.19205 20.4106 8.75655C20.9891 5.93595 22.6328 3.44697 24.9997 1.80748ZM38.2237 24.4897C38.0114 25.6037 37.5031 26.6399 36.7521 27.4896C36.7889 26.6635 36.8906 25.8415 37.0562 25.0313C37.2875 23.8142 37.4508 22.5851 37.5454 21.3497C37.7027 21.1217 37.9117 20.9341 38.1554 20.8022C38.3747 22.0199 38.3978 23.2647 38.2237 24.4897ZM35.9204 7.03907C36.6284 8.49607 37.0467 10.0767 37.1521 11.6932C35.3983 10.5054 33.4432 9.64643 31.3821 9.15821C30.9103 6.42617 29.64 3.89504 27.7314 1.88414C31.5171 2.49997 34.5929 4.38911 35.9204 7.03907ZM22.2681 1.88414C20.3594 3.89504 19.0891 6.42617 18.6173 9.15821C16.5562 9.64643 14.6011 10.5054 12.8474 11.6932C12.9527 10.0771 13.3707 8.49676 14.0782 7.03991C15.4065 4.38911 18.4823 2.49997 22.2681 1.88414ZM11.7799 24.5188C11.6053 23.284 11.6275 22.0293 11.8457 20.8014C12.0881 20.9362 12.2963 21.1249 12.4541 21.3531C12.549 22.5881 12.7123 23.8169 12.9432 25.0338C13.1088 25.844 13.2105 26.666 13.2474 27.4921C12.5019 26.6496 11.9953 25.623 11.7799 24.5188ZM14.584 24.7397C14.3474 23.5076 14.1857 22.2622 14.0999 21.0106C15.7667 20.767 17.3743 20.2184 18.8423 19.3922C20.7898 18.4614 22.8022 17.4998 24.9997 17.4998C27.1972 17.4998 29.2097 18.4614 31.1571 19.3922C32.6254 20.2178 34.2334 20.7653 35.9004 21.0072C35.8141 22.26 35.6521 23.5064 35.4154 24.7397C35.2031 25.7519 35.0889 26.7822 35.0746 27.8163C35.0746 28.3705 35.0988 28.9121 35.1229 29.4446C35.2388 31.9612 35.3296 33.9496 32.8163 36.3379C31.7123 37.4259 30.7467 38.6459 29.9413 39.9703C28.8022 41.7244 28.233 42.4994 26.6747 42.4994H23.3247C21.7664 42.4994 21.1973 41.7244 20.0581 39.9703C19.2525 38.6456 18.2866 37.4253 17.1823 36.337C14.6699 33.9496 14.7607 31.9612 14.8765 29.4446C14.9007 28.9121 14.9249 28.3705 14.9249 27.8163C14.9102 26.7822 14.7958 25.7518 14.5832 24.7397H14.584ZM3.51084 47.5602C3.75667 47.4452 3.99 47.3344 4.19083 47.2269C5.38915 46.5902 6.58663 45.9452 7.76495 45.2802C8.28244 44.9836 8.73994 44.7411 9.1666 44.5377V48.3327H2.11669C2.55365 48.028 3.02084 47.7692 3.51084 47.5602ZM10.8332 48.3327V42.3169L12.4999 41.9003V48.3327H10.8332ZM14.1665 48.3327V42.7836C14.2699 42.7303 14.3724 42.6761 14.4674 42.6219C14.9401 42.3594 15.3962 42.068 15.8332 41.7494V43.2994C15.9614 45.3407 17.0392 47.2038 18.7448 48.3327H14.1665ZM34.1663 43.2994V41.7494C34.599 42.0655 35.051 42.3544 35.5196 42.6144C35.6187 42.6711 35.7287 42.7203 35.8329 42.7753V48.3327H31.2546C32.9602 47.2038 34.038 45.3407 34.1663 43.2994ZM37.4996 48.3327V41.9003L39.1662 42.3169V48.3327H37.4996ZM40.8328 48.3327V44.5377C41.2603 44.7419 41.7195 44.9844 42.2395 45.2877C43.4128 45.9494 44.6103 46.5944 45.8069 47.2302C46.0103 47.3385 46.2428 47.4494 46.4894 47.5635C46.9788 47.7713 47.4455 48.029 47.8819 48.3327H40.8328Z" fill="#26355E"/>
</svg>
