<svg width="42" height="68" viewBox="0 0 42 68" fill="none" xmlns="http://www.w3.org/2000/svg">
<path d="M3.3158 60.5265H6.6316V64.9475C6.6316 66.1684 7.62129 67.1581 8.84214 67.1581H11.0527C12.2735 67.1581 13.2632 66.1684 13.2632 64.9475V60.5265H28.737V64.9475C28.737 66.1684 29.7266 67.1581 30.9475 67.1581H33.158C34.3789 67.1581 35.3686 66.1684 35.3686 64.9475V60.5265H38.6844C40.5156 60.5265 42.0002 59.0419 42.0002 57.2107V8.57891C42.0002 6.74765 40.5156 5.26311 38.6844 5.26311H26.2833L25.5969 2.51652C25.3509 1.53255 24.4669 0.842195 23.4527 0.842041H18.5475C17.5332 0.842195 16.6492 1.53255 16.4033 2.51652L15.7169 5.26311H3.3158C1.48454 5.26311 0 6.74765 0 8.57891V57.2107C0 59.0419 1.48454 60.5265 3.3158 60.5265ZM11.0527 64.9475H8.84214V60.5265H11.0527V64.9475ZM33.158 64.9475H30.9475V60.5265H33.158V64.9475ZM18.5475 3.05258H23.4527L24.0053 5.26311H17.9949L18.5475 3.05258ZM3.3158 7.47364H38.6844C39.2948 7.47364 39.7896 7.96849 39.7896 8.57891V49.4738H32.0528C31.4423 49.4738 30.9475 49.9686 30.9475 50.5791C30.9475 51.1895 31.4423 51.6843 32.0528 51.6843H39.7896V57.2107C39.7896 57.8211 39.2948 58.3159 38.6844 58.3159H3.3158C2.70538 58.3159 2.21053 57.8211 2.21053 57.2107V51.6843H27.6317C28.2421 51.6843 28.737 51.1895 28.737 50.5791C28.737 49.9686 28.2421 49.4738 27.6317 49.4738H2.21053V8.57891C2.21053 7.96849 2.70538 7.47364 3.3158 7.47364Z" fill="#26355E"/>
<path d="M5.52641 56.1053C6.13683 56.1053 6.63168 55.6105 6.63168 55C6.63168 54.3896 6.13683 53.8948 5.52641 53.8948C4.91599 53.8948 4.42114 54.3896 4.42114 55C4.42114 55.6105 4.91599 56.1053 5.52641 56.1053Z" fill="#26355E"/>
<path d="M19.8949 53.8948H11.0528C10.4424 53.8948 9.94751 54.3896 9.94751 55C9.94751 55.6105 10.4424 56.1053 11.0528 56.1053H19.8949C20.5053 56.1053 21.0002 55.6105 21.0002 55C21.0002 54.3896 20.5053 53.8948 19.8949 53.8948Z" fill="#26355E"/>
<path d="M5.52641 12.9999C6.13683 12.9999 6.63168 12.505 6.63168 11.8946V10.7893C6.63168 10.1789 6.13683 9.68408 5.52641 9.68408C4.91599 9.68408 4.42114 10.1789 4.42114 10.7893V11.8946C4.42114 12.505 4.91599 12.9999 5.52641 12.9999Z" fill="#26355E"/>
<path d="M5.52641 34C6.13683 34 6.63168 33.5052 6.63168 32.8947V16.3157C6.63168 15.7053 6.13683 15.2104 5.52641 15.2104C4.91599 15.2104 4.42114 15.7053 4.42114 16.3157V32.8947C4.42114 33.5052 4.91599 34 5.52641 34Z" fill="#26355E"/>
</svg>
