<svg width="48" height="44" viewBox="0 0 48 44" fill="none" xmlns="http://www.w3.org/2000/svg">
<path d="M46.4 38.5466V27.9994C46.3958 26.986 45.7555 26.0844 44.8 25.7466V24.7994C44.8 23.4739 43.7255 22.3994 42.4 22.3994H5.6C4.27452 22.3994 3.2 23.4739 3.2 24.7994V25.7466C2.24452 26.0844 1.6042 26.986 1.6 27.9994V38.5466C0.644519 38.8844 0.00420111 39.786 0 40.7994V42.3994C0 42.8412 0.358172 43.1994 0.8 43.1994H47.2C47.6418 43.1994 48 42.8412 48 42.3994V40.7994C47.9958 39.786 47.3555 38.8844 46.4 38.5466ZM4.8 24.7994C4.8 24.3576 5.15817 23.9994 5.6 23.9994H42.4C42.8418 23.9994 43.2 24.3576 43.2 24.7994V25.5994H4.8V24.7994ZM3.2 27.9994C3.2 27.5576 3.55817 27.1994 4 27.1994H44C44.4418 27.1994 44.8 27.5576 44.8 27.9994V38.3994H3.2V27.9994ZM46.4 41.5994H1.6V40.7994C1.6 40.3576 1.95817 39.9994 2.4 39.9994H45.6C46.0418 39.9994 46.4 40.3576 46.4 40.7994V41.5994Z" fill="#26355E"/>
<path d="M42.4001 28.7996H5.60005C5.15822 28.7996 4.80005 29.1577 4.80005 29.5996C4.80005 30.0414 5.15822 30.3996 5.60005 30.3996H42.4001C42.8419 30.3996 43.2001 30.0414 43.2001 29.5996C43.2001 29.1577 42.8419 28.7996 42.4001 28.7996Z" fill="#26355E"/>
<path d="M21.6001 18.3995C21.6001 19.725 22.6746 20.7995 24.0001 20.7995C25.3256 20.7995 26.4001 19.725 26.4001 18.3995C26.4001 17.074 25.3256 15.9995 24.0001 15.9995C22.6746 15.9995 21.6001 17.074 21.6001 18.3995ZM24.8001 18.3995C24.8001 18.8413 24.4419 19.1995 24.0001 19.1995C23.5583 19.1995 23.2001 18.8413 23.2001 18.3995C23.2001 17.9577 23.5583 17.5995 24.0001 17.5995C24.4419 17.5995 24.8001 17.9577 24.8001 18.3995Z" fill="#26355E"/>
<path d="M29.0506 15.9857C29.4515 16.8183 30.2929 17.3487 31.217 17.3513C31.5748 17.3519 31.9281 17.2718 32.2506 17.1169C33.4466 16.5456 33.953 15.1129 33.3818 13.9169C31.6558 10.3018 28.0062 8 24.0002 8C19.9942 8 16.3446 10.3018 14.6186 13.9169C14.2431 14.6914 14.3111 15.6077 14.7969 16.3183C15.2827 17.0289 16.1118 17.4249 16.9698 17.3562C17.8278 17.2875 18.5833 16.7645 18.9498 15.9857C19.8787 14.0392 21.8434 12.7998 24.0002 12.7998C26.1569 12.7998 28.1217 14.0392 29.0506 15.9857ZM17.5058 15.2969C17.2999 15.666 16.8424 15.8113 16.4613 15.6286C16.0801 15.4458 15.9069 14.9982 16.0658 14.6065C17.5257 11.5473 20.6137 9.59944 24.0034 9.59944C27.393 9.59944 30.481 11.5473 31.941 14.6065C32.0327 14.7979 32.0445 15.0178 31.974 15.218C31.9035 15.4181 31.7564 15.582 31.565 15.6737C31.1657 15.8544 30.695 15.6882 30.4978 15.2969C29.3033 12.7939 26.7768 11.2001 24.0034 11.2001C21.23 11.2001 18.7034 12.7939 17.509 15.2969H17.5058Z" fill="#26355E"/>
<path d="M36.9935 13.7835C37.8181 13.7824 38.5845 13.3581 39.0231 12.6597C39.4616 11.9613 39.5108 11.0867 39.1535 10.3435C36.3599 4.50951 30.4658 0.796875 23.9975 0.796875C17.5292 0.796875 11.635 4.50951 8.84148 10.3435C8.28311 11.5361 8.79 12.9558 9.9774 13.5252C11.1648 14.0945 12.5892 13.6008 13.1695 12.4187C15.165 8.25027 19.3761 5.59745 23.9975 5.59745C28.6189 5.59745 32.83 8.25027 34.8255 12.4187C35.2273 13.2511 36.0691 13.781 36.9935 13.7835ZM23.9999 3.99946C18.7677 4.01755 14.0042 7.01841 11.7287 11.7299C11.5373 12.1278 11.0596 12.2954 10.6615 12.1043C10.2632 11.9131 10.0952 11.4354 10.2863 11.0371C12.814 5.75836 18.1472 2.39908 23.9999 2.39908C29.8526 2.39908 35.1857 5.75836 37.7135 11.0371C37.8054 11.2285 37.8174 11.4487 37.7469 11.649C37.6764 11.8494 37.5291 12.0134 37.3375 12.1051C36.9389 12.2864 36.4683 12.1208 36.2711 11.7299C33.9956 7.01841 29.232 4.01755 23.9999 3.99946Z" fill="#26355E"/>
</svg>
