<svg width="47" height="45" viewBox="0 0 47 45" fill="none" xmlns="http://www.w3.org/2000/svg">
<path d="M25.0375 1.19966C23.7981 0.0831848 21.8462 0.0831848 20.6068 1.19966C19.5837 2.15649 19.3936 3.65105 20.1478 4.80869C15.7868 9.338 15.5423 16.176 19.5696 20.9718L18.3907 22.0793C17.9979 22.4516 17.8456 22.9931 17.9912 23.4999L0.917789 39.5958C-0.30593 40.7492 -0.30593 42.6192 0.917789 43.7726C2.14151 44.926 4.12555 44.926 5.34927 43.7726L22.4219 27.6804C22.5522 27.7149 22.6868 27.7335 22.8221 27.7358C23.2376 27.7365 23.6363 27.581 23.9298 27.3038L25.1049 26.1926C30.1931 29.9886 37.448 29.758 42.2534 25.6477C43.6073 26.4194 45.3593 26.1167 46.3347 24.9426C47.3102 23.7685 47.2019 22.0928 46.0825 21.039L25.0375 1.19966ZM4.24159 42.7286C3.84572 43.1017 3.26872 43.2474 2.72795 43.1109C2.18717 42.9743 1.76478 42.5762 1.61988 42.0665C1.47498 41.5568 1.62959 41.0129 2.02546 40.6398L18.9461 24.6916L21.1622 26.7804L4.24159 42.7286ZM22.8221 26.2635L19.4983 23.127L20.6052 22.083L23.9298 25.2165L22.8221 26.2635ZM33.3466 27.419C30.2283 27.4272 27.2362 26.2589 25.0375 24.1747L21.7145 21.0427C17.3398 16.9202 17.1055 10.3068 21.1787 5.91843L41.0839 24.6798C38.9455 26.4513 36.1935 27.4242 33.3466 27.4153V27.419ZM44.9788 24.1747C44.359 24.7328 43.3832 24.7328 42.7634 24.1747L21.7145 4.33172C21.3072 3.96096 21.1439 3.41193 21.2872 2.89563C21.4306 2.37934 21.8584 1.97613 22.4062 1.84099C22.9539 1.70585 23.5365 1.85981 23.9298 2.24368L44.9788 22.083C45.5904 22.6597 45.5904 23.5944 44.9788 24.171V24.1747Z" fill="#26355E"/>
<path d="M36.6704 24.6932C36.9778 24.973 37.4664 24.969 37.7685 24.6842C38.0707 24.3994 38.075 23.9389 37.7781 23.6492L37.2242 23.1271C37.0264 22.9405 36.7379 22.8676 36.4675 22.9358C36.1971 23.004 35.9858 23.2029 35.9133 23.4578C35.8407 23.7126 35.9179 23.9845 36.1158 24.1712L36.6704 24.6932Z" fill="#26355E"/>
<path d="M33.9003 22.0832C34.097 22.2751 34.3883 22.3521 34.6622 22.2845C34.9361 22.2169 35.15 22.0153 35.2216 21.7572C35.2933 21.499 35.2117 21.2245 35.008 21.0391L29.4689 15.8183C29.271 15.6317 28.9825 15.5587 28.7121 15.6269C28.4417 15.6951 28.2304 15.8941 28.1579 16.1489C28.0853 16.4038 28.1625 16.6757 28.3604 16.8623L33.9003 22.0832Z" fill="#26355E"/>
</svg>
