<svg width="48" height="47" viewBox="0 0 48 47" fill="none" xmlns="http://www.w3.org/2000/svg">
<path d="M33.6833 10.1833C27.8401 10.1908 22.6819 14.0006 20.9565 19.5833H18.0167C17.584 19.5833 17.2333 19.2326 17.2333 18.8V4.7C18.0986 4.7 18.8 3.99858 18.8 3.13333V1.56667C18.8 0.701421 18.0986 0 17.2333 0H1.56667C0.701421 0 0 0.701421 0 1.56667V3.13333C0 3.99858 0.701421 4.7 1.56667 4.7V42.3C0.701421 42.3 0 43.0014 0 43.8667V45.4333C0 46.2986 0.701421 47 1.56667 47H17.2333C18.0986 47 18.8 46.2986 18.8 45.4333V43.8667C18.8 43.0014 18.0986 42.3 17.2333 42.3V28.2C17.2333 27.7674 17.584 27.4167 18.0167 27.4167H20.9565C22.969 33.9564 29.61 37.9067 36.3173 36.5537C43.0246 35.2008 47.615 28.985 46.9349 22.1765C46.2549 15.368 40.5257 10.1829 33.6833 10.1833ZM1.56667 1.56667H17.2333V3.13333H1.56667V1.56667ZM17.2333 45.4333H1.56667V43.8667H17.2333V45.4333ZM18.0167 25.85C16.7188 25.85 15.6667 26.9021 15.6667 28.2V42.3H3.13333V4.7H15.6667V18.8C15.6667 20.0979 16.7188 21.15 18.0167 21.15H20.5868C20.2933 22.7029 20.2933 24.2971 20.5868 25.85H18.0167ZM33.6833 35.25C27.194 35.25 21.9333 29.9893 21.9333 23.5C21.9333 17.0107 27.194 11.75 33.6833 11.75C40.1727 11.75 45.4333 17.0107 45.4333 23.5C45.426 29.9863 40.1696 35.2427 33.6833 35.25Z" fill="#26355E"/>
<path d="M33.6838 13.3167C28.0597 13.3167 23.5005 17.8759 23.5005 23.5C23.5005 29.1241 28.0597 33.6833 33.6838 33.6833C39.3079 33.6833 43.8671 29.1241 43.8671 23.5C43.8607 17.8786 39.3052 13.3231 33.6838 13.3167ZM33.6838 32.1166C28.925 32.1166 25.0672 28.2588 25.0672 23.5C25.0672 18.7411 28.925 14.8833 33.6838 14.8833C38.4427 14.8833 42.3005 18.7411 42.3005 23.5C42.2949 28.2565 38.4403 32.111 33.6838 32.1166Z" fill="#26355E"/>
<path d="M34.4671 21.2941V18.0166C34.4671 17.584 34.1164 17.2333 33.6837 17.2333C33.2511 17.2333 32.9004 17.584 32.9004 18.0166V21.2941C31.9619 21.621 31.333 22.5061 31.333 23.4999C31.333 24.4938 31.9619 25.3788 32.9004 25.7058V27.4166C32.9004 27.8492 33.2511 28.1999 33.6837 28.1999C34.1164 28.1999 34.4671 27.8492 34.4671 27.4166V25.7058C35.4056 25.3788 36.0345 24.4938 36.0345 23.4999C36.0345 22.5061 35.4056 21.621 34.4671 21.2941ZM33.6837 24.2833C33.2511 24.2833 32.9004 23.9326 32.9004 23.4999C32.9004 23.0673 33.2511 22.7166 33.6837 22.7166C34.1164 22.7166 34.4671 23.0673 34.4671 23.4999C34.4671 23.9326 34.1164 24.2833 33.6837 24.2833Z" fill="#26355E"/>
<path d="M5.48377 6.2666C5.05115 6.2666 4.70044 6.61731 4.70044 7.04994V8.6166C4.70044 9.04923 5.05115 9.39994 5.48377 9.39994C5.9164 9.39994 6.26711 9.04923 6.26711 8.6166V7.04994C6.26711 6.61731 5.9164 6.2666 5.48377 6.2666Z" fill="#26355E"/>
<path d="M5.48377 10.9667C5.05115 10.9667 4.70044 11.3174 4.70044 11.75V18.8C4.70044 19.2326 5.05115 19.5833 5.48377 19.5833C5.9164 19.5833 6.26711 19.2326 6.26711 18.8V11.75C6.26711 11.3174 5.9164 10.9667 5.48377 10.9667Z" fill="#26355E"/>
</svg>
