<svg width="47" height="54" viewBox="0 0 47 54" fill="none" xmlns="http://www.w3.org/2000/svg">
<path d="M46.9997 35.306C46.9997 34.8764 46.6515 34.5284 46.222 34.5284C45.7925 34.5284 45.4443 34.8764 45.4443 35.306V41.0599H43.6484V9.08237C43.6484 8.87613 43.5664 8.67828 43.4206 8.53239L38.0352 3.14809L39.3058 1.87745L44.4458 7.01756C45.0897 7.66065 45.4443 8.51735 45.4443 9.42984V31.6769C45.4443 32.1065 45.7925 32.4546 46.222 32.4546C46.6515 32.4546 46.9997 32.1065 46.9997 31.6769V9.42974C46.9997 8.10134 46.483 6.85393 45.5452 5.91728L39.8556 0.227707C39.7099 0.0819166 39.512 0 39.3058 0C39.0995 0 38.9017 0.0819166 38.7559 0.227707L36.3855 2.5981C36.2396 2.744 36.1577 2.94174 36.1577 3.14809C36.1577 3.35443 36.2397 3.55217 36.3855 3.69807L42.093 9.40454V36.0325H41.5088C40.7825 36.0325 40.1916 35.4417 40.1916 34.7153V31.2586C40.1916 29.6747 38.9029 28.3861 37.319 28.3861H36.1214V24.9369C36.1214 24.5073 35.7732 24.1592 35.3437 24.1592C34.9142 24.1592 34.566 24.5073 34.566 24.9369V45.0406H2.60299V40.4906C2.60299 40.061 2.25479 39.713 1.8253 39.713C1.3958 39.713 1.04761 40.061 1.04761 40.4906V48.1224C1.04761 50.8617 3.27574 53.0902 6.01445 53.0902H31.1535C33.8928 53.0902 36.1214 50.8617 36.1214 48.1224V29.9414H37.3189C38.0452 29.9414 38.6361 30.5323 38.6361 31.2586V34.7153C38.6361 36.2992 39.9248 37.5879 41.5087 37.5879H42.0929V41.0602H39.4138C38.9843 41.0602 38.6361 41.4083 38.6361 41.8379V52.3125C38.6361 52.7421 38.9843 53.0902 39.4138 53.0902C39.8433 53.0902 40.1915 52.7421 40.1915 52.3125V42.6156H42.0927V52.3125C42.0927 52.7421 42.4409 53.0902 42.8704 53.0902H46.2222C46.6517 53.0902 46.9999 52.7421 46.9999 52.3125L46.9997 35.306ZM31.1535 51.5349H6.01445C4.13337 51.5349 2.60299 50.004 2.60299 48.1224V46.596H34.566V48.1224C34.566 50.004 33.0352 51.5349 31.1535 51.5349ZM45.4446 51.5349H43.6482V42.6156H45.4446V51.5349Z" fill="#26355E"/>
<path d="M3.5614 4.90722V13.5346C2.0616 14.3906 1.0477 16.0043 1.0477 17.8516V36.8614C1.0477 37.291 1.3959 37.6391 1.82539 37.6391C2.25488 37.6391 2.60308 37.291 2.60308 36.8614V17.8516C2.60308 15.97 4.13347 14.4391 6.01454 14.4391H31.1536C33.0353 14.4391 34.5661 15.97 34.5661 17.8516V21.3076C34.5661 21.7372 34.9143 22.0853 35.3438 22.0853C35.7733 22.0853 36.1215 21.7372 36.1215 21.3076V17.8516C36.1215 15.1123 33.8929 12.8837 31.1536 12.8837H27.0447L24.8235 7.88597C24.3629 6.84968 23.3325 6.18004 22.1986 6.18004H14.9705C13.8364 6.18004 12.8061 6.84968 12.3456 7.88597L10.1244 12.8837H8.46872V4.90722H10.2049C11.2114 4.90722 12.0301 4.08847 12.0301 3.08203V1.82518C12.03 0.818751 11.2113 0 10.2049 0H1.82518C0.818751 0 0 0.818751 0 1.82518V3.08214C0 4.08847 0.818751 4.90732 1.82518 4.90732H3.5614V4.90722ZM15.4933 12.8837L16.2926 11.0873H20.8765L21.6758 12.8837H15.4933ZM13.7669 8.51766C13.9781 8.04244 14.4505 7.73541 14.9705 7.73541H22.1986C22.7186 7.73541 23.191 8.04244 23.4022 8.51766L25.3427 12.8837H23.3781L22.0922 9.99341C21.9672 9.71271 21.6888 9.53188 21.3816 9.53188H15.7873C15.4801 9.53188 15.2016 9.71271 15.0767 9.99341L13.7908 12.8837H11.8262L13.7669 8.51766ZM6.91335 12.8837H6.01454C5.70793 12.8837 5.40826 12.9131 5.11678 12.9666V4.90722H6.91324V12.8837H6.91335ZM1.55548 3.08214V1.82518C1.55548 1.67639 1.67649 1.55538 1.82529 1.55538H10.2049C10.3537 1.55538 10.4747 1.67639 10.4747 1.82518V3.08214C10.4747 3.23094 10.3537 3.35194 10.2049 3.35194H1.82518C1.67649 3.35184 1.55548 3.23083 1.55548 3.08214Z" fill="#26355E"/>
<path d="M23.552 22.2505V18.8987C23.552 17.2611 21.4164 16.0261 18.5845 16.0261C15.7525 16.0261 13.6169 17.2611 13.6169 18.8987V22.2505C13.6169 23.8881 15.7525 25.1231 18.5845 25.1231C21.4164 25.1231 23.552 23.8881 23.552 22.2505ZM18.5845 17.5815C20.6358 17.5815 21.9966 18.3743 21.9966 18.8987C21.9966 19.4231 20.6356 20.2159 18.5845 20.2159C16.5333 20.2159 15.1723 19.4231 15.1723 18.8987C15.1723 18.3743 16.5332 17.5815 18.5845 17.5815ZM15.1723 22.2505V21.0226C16.0494 21.4916 17.2378 21.7713 18.5845 21.7713C19.9312 21.7713 21.1197 21.4916 21.9966 21.0226V22.2505C21.9966 22.775 20.6356 23.5677 18.5845 23.5677C16.5332 23.5677 15.1723 22.775 15.1723 22.2505Z" fill="#26355E"/>
<path d="M16.339 42.5109H20.8305C21.26 42.5109 21.6082 42.1628 21.6082 41.7332V37.7386H25.6027C26.0322 37.7386 26.3804 37.3905 26.3804 36.9609V32.4695C26.3804 32.0399 26.0322 31.6918 25.6027 31.6918H21.6082V27.6972C21.6082 27.2676 21.26 26.9196 20.8305 26.9196H16.339C15.9095 26.9196 15.5613 27.2676 15.5613 27.6972V31.6918H11.5668C11.1373 31.6918 10.7891 32.0399 10.7891 32.4695V36.9609C10.7891 37.3905 11.1373 37.7386 11.5668 37.7386H15.5613V41.7331C15.5613 42.1627 15.9094 42.5109 16.339 42.5109ZM12.3444 36.1832V33.2471H16.339C16.7685 33.2471 17.1167 32.8991 17.1167 32.4695V28.4749H20.0528V32.4695C20.0528 32.8991 20.401 33.2471 20.8305 33.2471H24.825V36.1832H20.8305C20.401 36.1832 20.0528 36.5313 20.0528 36.9609V40.9554H17.1167V36.9609C17.1167 36.5313 16.7685 36.1832 16.339 36.1832H12.3444Z" fill="#26355E"/>
</svg>
