<svg width="48" height="48" viewBox="0 0 48 48" fill="none" xmlns="http://www.w3.org/2000/svg">
<path fill-rule="evenodd" clip-rule="evenodd" d="M47.3334 23.998C47.3334 20.0722 44.6958 16.998 40.3334 16.998H33.163C33.1839 16.9407 33.2055 16.8819 33.2279 16.8213C33.2928 16.6459 33.4756 16.1642 33.6531 15.6963C33.8102 15.2823 33.9632 14.8791 34.0266 14.7088C34.4703 13.518 34.794 12.5585 35.0559 11.6083C35.4519 10.1722 35.6667 8.87827 35.6667 7.66468C35.6667 4.22999 33.5478 2.09668 30.4127 1.18381C28.9987 0.772073 27.7679 0.66446 26.3334 0.664673H25.2146L24.514 1.53707C23.7227 2.52256 22.1684 4.29867 20.3764 6.34633L20.3764 6.34635C17.0707 10.1238 12.9562 14.8254 11.3309 17.1926C10.9092 17.0673 10.4625 17.0001 10.0001 17.0001H5.33342C2.75609 17.0001 0.666748 19.0894 0.666748 21.6667V42.6667C0.666748 45.244 2.75609 47.3334 5.33342 47.3334H10.0001C11.6034 47.3334 13.0178 46.5249 13.8579 45.2933C14.5658 45.7512 15.3556 46.1333 16.214 46.4404C18.1794 47.1436 20.1287 47.3596 21.747 47.33L38.0001 47.3313C44.4287 47.3313 47.3334 37.8663 47.3334 23.998ZM17.7861 42.0465C15.7213 41.3078 14.6667 40.1032 14.6667 37.998V21.6667V21.6647C14.6667 21.1042 14.7704 20.6079 14.9974 20.078C15.4051 19.126 19.1046 14.9053 22.611 10.9049C24.4207 8.84029 26.1789 6.83431 27.4067 5.36666C27.9933 5.41066 28.5463 5.50082 29.1081 5.6644C30.4452 6.05375 31.0001 6.61242 31.0001 7.66469C31.0001 8.40338 30.8506 9.30342 30.5571 10.3681C30.3378 11.1637 30.0537 12.0055 29.6536 13.0796C29.5969 13.2318 29.4555 13.6044 29.3051 14.0008L29.3046 14.0022L29.304 14.0037C29.1205 14.4873 28.9238 15.0058 28.851 15.2026C28.5476 16.0231 28.3477 16.6272 28.2109 17.1761C27.6297 19.5095 28.2128 21.6647 31.0001 21.6647H40.3334C41.9463 21.6647 42.6667 22.5044 42.6667 23.998C42.6667 35.1764 40.3687 42.6647 38.0001 42.6647H21.6667L21.5806 42.6661C20.5593 42.6844 19.1249 42.5255 17.7861 42.0465ZM5.33341 42.6667V21.6667H10.0001V42.6667H5.33341Z" fill="#00AA65"/>
</svg>
