<svg width="18" height="12" viewBox="0 0 18 12" fill="none" xmlns="http://www.w3.org/2000/svg">
<path d="M17.9046 10.1398C17.8828 10.0928 17.8625 10.0538 17.8436 10.0226C17.5313 9.46014 16.9345 8.76976 16.0536 7.95127L16.0349 7.93252L16.0256 7.92333L16.0162 7.91391H16.0068C15.6069 7.53278 15.3538 7.27651 15.2477 7.14531C15.0537 6.89537 15.0103 6.64239 15.1163 6.38606C15.1912 6.19239 15.4726 5.78339 15.9598 5.15849C16.216 4.82732 16.419 4.56189 16.5689 4.36192C17.6499 2.92483 18.1185 2.00651 17.9747 1.6066L17.9189 1.51315C17.8814 1.45688 17.7845 1.40541 17.6285 1.35847C17.4721 1.31163 17.2723 1.30388 17.0285 1.3351L14.3295 1.35375C14.2858 1.33825 14.2234 1.3397 14.142 1.35847C14.0608 1.37725 14.0201 1.38667 14.0201 1.38667L13.9732 1.41014L13.9359 1.43834C13.9046 1.45698 13.8703 1.48977 13.8327 1.53665C13.7954 1.58336 13.7642 1.63818 13.7392 1.70064C13.4454 2.45664 13.1113 3.15953 12.7363 3.80927C12.5051 4.19671 12.2928 4.53248 12.0989 4.81678C11.9053 5.10098 11.7428 5.31037 11.6117 5.4446C11.4804 5.57895 11.3619 5.68658 11.2555 5.76789C11.1493 5.84923 11.0682 5.8836 11.012 5.87103C10.9557 5.85846 10.9027 5.84598 10.8525 5.83351C10.7651 5.77725 10.6948 5.70073 10.6418 5.6039C10.5885 5.50706 10.5527 5.38518 10.5339 5.23835C10.5153 5.09143 10.5043 4.96505 10.5011 4.8588C10.4982 4.75267 10.4995 4.60256 10.5059 4.40889C10.5124 4.21513 10.5153 4.08402 10.5153 4.01529C10.5153 3.77783 10.5199 3.52012 10.5292 3.24209C10.5387 2.96406 10.5463 2.74376 10.5527 2.58148C10.5591 2.41902 10.562 2.24715 10.562 2.06596C10.562 1.88476 10.551 1.74266 10.5292 1.63952C10.5077 1.53652 10.4746 1.43653 10.4311 1.3396C10.3872 1.24276 10.3231 1.16786 10.2389 1.11468C10.1546 1.06157 10.0498 1.01942 9.92498 0.988105C9.59381 0.913165 9.1721 0.872626 8.65967 0.866324C7.49762 0.85385 6.75094 0.928889 6.4198 1.09134C6.2886 1.15998 6.16987 1.25376 6.06371 1.37239C5.95122 1.5099 5.93553 1.58493 6.01674 1.59728C6.39167 1.65344 6.6571 1.78779 6.81331 2.00021L6.86961 2.11276C6.9134 2.19397 6.95712 2.33775 7.00088 2.54389C7.04457 2.75003 7.07276 2.97807 7.08517 3.22787C7.11635 3.68405 7.11635 4.07453 7.08517 4.39937C7.05389 4.72434 7.02435 4.97733 6.99615 5.15852C6.96795 5.33972 6.9258 5.48655 6.86961 5.59897C6.81331 5.71143 6.77586 5.78017 6.75708 5.80512C6.73834 5.83006 6.72271 5.84579 6.71031 5.85196C6.6291 5.88308 6.54464 5.89893 6.45722 5.89893C6.36968 5.89893 6.26352 5.85514 6.13859 5.76763C6.01369 5.68012 5.88406 5.55991 5.74971 5.40681C5.61535 5.25368 5.46383 5.0397 5.29508 4.76482C5.12645 4.48994 4.9515 4.16507 4.7703 3.7902L4.62039 3.51834C4.52667 3.34345 4.39865 3.08879 4.2362 2.7546C4.07365 2.42027 3.92997 2.09688 3.80507 1.78448C3.75515 1.65328 3.68014 1.55339 3.58019 1.48465L3.53328 1.45646C3.5021 1.43151 3.45204 1.40502 3.38337 1.37679C3.3146 1.34859 3.24284 1.32837 3.1678 1.31593L0.599915 1.33458C0.337509 1.33458 0.159465 1.39402 0.0657162 1.51275L0.0281969 1.56892C0.00945368 1.6002 0 1.65016 0 1.71893C0 1.78766 0.0187432 1.87202 0.0562625 1.97191C0.431127 2.85294 0.838784 3.70262 1.27923 4.52109C1.71968 5.33955 2.10243 5.99885 2.42723 6.49839C2.7521 6.99828 3.08325 7.47008 3.42066 7.91355C3.75807 8.35718 3.98141 8.64148 4.09069 8.76638C4.20009 8.89151 4.28603 8.98506 4.3485 9.04753L4.58284 9.27242C4.73278 9.42239 4.95297 9.60201 5.24351 9.81128C5.53411 10.0207 5.85583 10.2268 6.20883 10.43C6.5619 10.6329 6.97265 10.7985 7.44129 10.9265C7.90987 11.0547 8.36595 11.1062 8.80958 11.0814H9.88737C10.1059 11.0625 10.2716 10.9937 10.3841 10.8751L10.4214 10.8281C10.4465 10.7908 10.4699 10.7329 10.4916 10.655C10.5135 10.5769 10.5244 10.4908 10.5244 10.3972C10.518 10.1286 10.5385 9.88654 10.5852 9.67101C10.6319 9.45555 10.6852 9.2931 10.7447 9.18369C10.8042 9.07438 10.8714 8.98214 10.9461 8.90737C11.0211 8.83243 11.0744 8.78703 11.1057 8.7714C11.1369 8.75568 11.1617 8.74501 11.1805 8.73861C11.3304 8.68865 11.5069 8.73704 11.7101 8.88399C11.9132 9.03082 12.1037 9.21212 12.2819 9.42758C12.4599 9.64324 12.6739 9.8852 12.9238 10.1538C13.1738 10.4225 13.3924 10.6223 13.5798 10.7537L13.7671 10.8661C13.8923 10.9412 14.0547 11.0099 14.2547 11.0724C14.4543 11.1348 14.6292 11.1504 14.7794 11.1192L17.1785 11.0818C17.4158 11.0818 17.6004 11.0425 17.7314 10.9645C17.8626 10.8864 17.9406 10.8004 17.9657 10.7068C17.9908 10.6131 17.9922 10.5068 17.9705 10.388C17.9483 10.2695 17.9264 10.1866 17.9046 10.1398Z" fill="#929AAE"/>
</svg>
