<svg width="30" height="40" viewBox="0 0 30 40" fill="none" xmlns="http://www.w3.org/2000/svg">
<path d="M28.8401 12.5475L26.962 10.2691C26.7042 9.9563 26.5473 9.57788 26.5088 9.17475L26.2256 6.23561C26.0785 4.70852 24.8633 3.49332 23.3363 3.34622L20.3971 3.06333C19.994 3.02457 19.6156 2.86771 19.3028 2.61014L17.0243 0.731793C15.8406 -0.24385 14.1221 -0.24385 12.9383 0.731793L10.6599 2.61014C10.3474 2.86771 9.969 3.02457 9.56556 3.06333L6.62642 3.34622C5.09933 3.49332 3.88443 4.70852 3.73703 6.23561L3.45413 9.17475C3.41538 9.57788 3.25852 9.9563 3.00095 10.2691L1.1226 12.5475C0.146958 13.7313 0.146958 15.4497 1.1226 16.6335L3.00095 18.9119C3.25852 19.2248 3.41538 19.6032 3.45413 20.0063L3.73703 22.9454C3.88412 24.4725 5.09933 25.6874 6.62642 25.8348L8.42299 26.0079L4.15451 36.2077C4.03885 36.4854 4.09103 36.7979 4.29092 37.0231C4.49081 37.248 4.79446 37.3372 5.08316 37.2551L8.78645 36.2095C8.80262 36.205 8.81819 36.212 8.82551 36.2251L10.6801 39.5973C10.818 39.8484 11.0759 39.9998 11.3597 39.9998C11.3731 39.9998 11.3865 39.9995 11.4003 39.9989C11.7003 39.9836 11.9597 39.8024 12.0784 39.5228L16.5849 28.7532C16.7378 28.6653 16.8849 28.5643 17.0246 28.4493L19.3031 26.5712C19.5915 26.3332 19.9366 26.1827 20.305 26.1302L24.3867 35.8833L21.4982 35.0679C20.9489 34.9132 20.3736 35.1539 20.098 35.6535L18.6518 38.2832L16.7356 33.7041C16.609 33.4016 16.2617 33.2594 15.9593 33.3858C15.6571 33.5121 15.5146 33.8597 15.6413 34.1618L17.8858 39.5259C18.0033 39.8024 18.2624 39.9836 18.5627 39.9989C18.5764 39.9995 18.5899 40.0001 18.6033 40.0001C18.8871 40.0001 19.145 39.8484 19.2829 39.5973L21.1372 36.2257C21.1448 36.212 21.1607 36.2056 21.1762 36.2095L24.8789 37.2551C25.1682 37.3369 25.4722 37.248 25.6718 37.0231C25.8716 36.7979 25.9238 36.4857 25.8079 36.2071L21.5397 26.0076L23.3363 25.8345C24.8633 25.6874 26.0785 24.4725 26.2256 22.9454L26.5088 20.006C26.5473 19.6029 26.7042 19.2248 26.962 18.9119L28.8401 16.6335C29.816 15.4497 29.816 13.7313 28.8401 12.5475ZM11.3112 38.2832L9.86463 35.6529C9.58936 35.1536 9.0135 34.9129 8.46449 35.0679L5.57632 35.883L9.65772 26.1302C10.0264 26.1827 10.3715 26.3332 10.6599 26.5709L12.9383 28.4493C13.5304 28.9372 14.2558 29.1811 14.9815 29.1811C15.0282 29.1811 15.0746 29.1798 15.1213 29.1777L11.3112 38.2832ZM27.9249 15.8791L26.0468 18.1576C25.6379 18.6532 25.3895 19.2531 25.3278 19.8925L25.0449 22.8316C24.9522 23.7947 24.1859 24.561 23.2227 24.6538L20.6409 24.9025C20.6309 24.9031 20.6205 24.904 20.6104 24.9056L20.2836 24.937C19.6439 24.9987 19.044 25.2471 18.5484 25.6557L16.2699 27.5337C15.5235 28.1493 14.4395 28.1493 13.693 27.5337L11.4146 25.6557C10.919 25.2471 10.319 24.9983 9.67939 24.937L9.35102 24.9053C9.34187 24.904 9.33302 24.9034 9.32386 24.9028L6.74025 24.6538C5.77712 24.561 5.01083 23.7947 4.91806 22.8316L4.63516 19.8928C4.57351 19.2531 4.3251 18.6532 3.91617 18.1576L2.03812 15.8791C1.42259 15.1324 1.42259 14.0484 2.03812 13.3019L3.91617 11.0235C4.3251 10.5279 4.57351 9.92792 4.63516 9.28827L4.91806 6.34914C5.01083 5.38601 5.77712 4.61972 6.74025 4.52694L9.67939 4.24405C10.319 4.1824 10.919 3.93399 11.4146 3.52536L13.693 1.64732C14.0663 1.3397 14.524 1.18559 14.9815 1.18559C15.4389 1.18559 15.8967 1.3394 16.2699 1.64732L18.5484 3.52536C19.044 3.93399 19.6439 4.18271 20.2836 4.24405L23.2227 4.52694C24.1859 4.61972 24.9522 5.38601 25.0449 6.34914L25.3278 9.28827C25.3895 9.92792 25.6379 10.5279 26.0468 11.0235L27.9249 13.3019C28.5401 14.0487 28.5401 15.1324 27.9249 15.8791Z" fill="#26355E"/>
<path d="M14.9813 5.32471C14.5852 5.32471 14.1867 5.34973 13.796 5.39978C13.4713 5.44128 13.2415 5.73852 13.283 6.06323C13.3245 6.38824 13.6221 6.61773 13.9465 6.57653C14.2871 6.53289 14.6353 6.51092 14.9813 6.51092C19.4366 6.51092 23.0611 10.1355 23.0611 14.5907C23.0611 19.0459 19.4363 22.6702 14.9813 22.6702C10.5261 22.6702 6.90154 19.0456 6.90154 14.5904C6.90154 11.4126 8.77531 8.51805 11.6751 7.21587C11.9738 7.0819 12.1075 6.73064 11.9732 6.43188C11.839 6.13281 11.4877 5.99945 11.1892 6.13372C7.86376 7.62694 5.71533 10.9463 5.71533 14.5904C5.71533 19.6999 9.87211 23.8564 14.9813 23.8564C20.0906 23.8564 24.2473 19.6999 24.2473 14.5904C24.2473 9.48118 20.0906 5.32471 14.9813 5.32471Z" fill="#26355E"/>
<path d="M9.09062 13.9034C8.38353 14.6105 8.38353 15.7613 9.09062 16.4684L11.6813 19.0594C12.024 19.4018 12.4793 19.5904 12.9639 19.5904C13.4482 19.5904 13.9039 19.4018 14.2466 19.0594L19.9018 13.4039C20.6089 12.6965 20.6089 11.5459 19.9018 10.8385C19.1947 10.1315 18.0439 10.1315 17.3365 10.8385L12.9639 15.2114L11.6556 13.9034C10.9485 13.1963 9.79771 13.1963 9.09062 13.9034ZM12.9639 16.6436C13.1211 16.6436 13.2718 16.581 13.3832 16.4697L18.1754 11.6775C18.4202 11.4327 18.8181 11.433 19.0629 11.6775C19.3076 11.9222 19.3076 12.3205 19.0629 12.5649L13.4076 18.2204C13.2892 18.3389 13.1315 18.4042 12.9639 18.4042C12.7961 18.4042 12.6386 18.3389 12.5202 18.2204L9.92924 15.6298C9.6848 15.3851 9.6848 14.9868 9.92924 14.7424C10.0516 14.62 10.2124 14.5586 10.3733 14.5586C10.5338 14.5586 10.6946 14.62 10.8167 14.7421L12.5443 16.4697C12.6557 16.581 12.8064 16.6436 12.9639 16.6436Z" fill="#26355E"/>
</svg>
