<svg width="40" height="40" viewBox="0 0 40 40" fill="none" xmlns="http://www.w3.org/2000/svg">
<path d="M1.99997 0.000305176H21.9997C23.1042 0.000305176 23.9996 0.895682 23.9996 2.00027V14.6667H29.9995V12.0001C29.9993 11.7351 30.1561 11.4951 30.3988 11.3888C30.6416 11.2826 30.9243 11.3301 31.1188 11.51L39.7854 19.51C39.9222 19.6362 40 19.8138 40 20C40 20.1862 39.9222 20.3637 39.7854 20.49L31.1189 28.4899C30.9956 28.6036 30.834 28.6667 30.6662 28.6665C30.5744 28.6667 30.4836 28.6475 30.3996 28.6105C30.1568 28.5045 29.9998 28.2648 29.9996 27.9998V25.3332H23.9997V37.9996C23.9997 39.1042 23.1042 39.9996 21.9997 39.9996H2.00005C0.895531 39.9996 7.62939e-05 39.1042 7.62939e-05 37.9996V2.0002C0 0.895682 0.895454 0.000305176 1.99997 0.000305176ZM1.33334 5.33358H16.6664C17.0346 5.33358 17.333 5.63202 17.333 6.00021C17.333 6.36841 17.0346 6.66684 16.6664 6.66684H1.33326V32.6664H3.33323C3.70143 32.6664 3.99986 32.9649 3.99986 33.3331C3.99986 33.7013 3.70143 33.9997 3.33323 33.9997H1.33326V37.9996C1.33326 38.3678 1.63169 38.6663 1.99989 38.6663H21.9996C22.3678 38.6663 22.6662 38.3678 22.6662 37.9996V33.9997H7.33309C6.96489 33.9997 6.66646 33.7013 6.66646 33.3331C6.66646 32.9649 6.96489 32.6664 7.33309 32.6664H22.6663V25.3332H19.333C18.9648 25.3332 18.6663 25.0348 18.6663 24.6666C18.6663 24.2984 18.9649 23.9999 19.333 23.9999H30.6662C31.0344 23.9999 31.3328 24.2984 31.3328 24.6666V26.4772L38.3493 20L31.3328 13.5228V15.3334C31.3328 15.7016 31.0344 16.0001 30.6662 16.0001H19.333C18.9648 16.0001 18.6663 15.7016 18.6663 15.3334C18.6663 14.9652 18.9649 14.6668 19.333 14.6668H22.6663V6.66692H20.6663C20.2981 6.66692 19.9997 6.36849 19.9997 6.00029C19.9997 5.63209 20.2981 5.33366 20.6663 5.33366H22.6663V2.00027C22.6663 1.63208 22.3679 1.33364 21.9997 1.33364H1.99997C1.63177 1.33364 1.33334 1.63208 1.33334 2.00027V5.33358Z" fill="#26355E"/>
<path d="M11.3333 35.9998H12.6666C13.0348 35.9998 13.3333 36.2982 13.3333 36.6664C13.3333 37.0346 13.0348 37.333 12.6666 37.333H11.3333C10.9651 37.333 10.6667 37.0346 10.6667 36.6664C10.6667 36.2982 10.9651 35.9998 11.3333 35.9998Z" fill="#26355E"/>
<path d="M11.3743 22.8606C11.4464 22.8927 11.5259 22.905 11.6043 22.8959L13.4416 22.7386C14.1235 22.6332 14.787 23.0161 15.0369 23.6592L15.4569 25.0939L15.9576 26.8065C16.0429 27.0999 15.9974 27.4157 15.8329 27.6731C15.6018 28.0142 15.237 28.2415 14.8289 28.2984L12.9823 28.6144C12.7784 28.6489 12.5719 28.6663 12.365 28.6665C11.9531 28.6691 11.5442 28.5954 11.159 28.4491C9.10974 27.6512 6.66642 25.5372 6.66642 20C6.66642 14.4628 9.10966 12.3488 11.1596 11.5508C11.7419 11.3347 12.3712 11.2775 12.983 11.3855L14.8289 11.7015C15.237 11.7585 15.6018 11.9857 15.8329 12.3268C15.9971 12.5844 16.0425 12.9001 15.9576 13.1934L15.0369 16.3387C14.7856 16.9807 14.1233 17.3632 13.4416 17.26L11.6043 17.1027C11.5259 17.0936 11.4464 17.1058 11.3743 17.138L11.323 17.2593C10.9462 18.1213 10.7829 19.0614 10.847 19.9999C10.7831 20.938 10.9464 21.8777 11.323 22.7392L11.3743 22.8606ZM10.163 23.4226L10.0964 23.2692C9.6484 22.2412 9.44833 21.1222 9.51239 20.0026C9.44833 18.883 9.6484 17.7641 10.0964 16.736L10.163 16.5821C10.4569 16.01 11.081 15.687 11.7177 15.7774L13.555 15.934C13.6302 15.9425 13.7064 15.9317 13.7763 15.9027L14.6197 13.0188H14.6036L12.7584 12.7035C12.3852 12.6355 12.0006 12.6675 11.6437 12.7961C9.98105 13.4401 7.99976 15.2161 7.99976 20C7.99976 24.7839 9.98105 26.5599 11.6431 27.2072C12.0001 27.3353 12.3845 27.3673 12.7577 27.2999L14.6037 26.9845H14.6197L13.7764 24.1026C13.7065 24.0736 13.6303 24.0628 13.5551 24.0712L11.7177 24.2279C11.0808 24.318 10.4568 23.9948 10.163 23.4226Z" fill="#26355E"/>
</svg>
