<svg width="40" height="34" viewBox="0 0 40 34" fill="none" xmlns="http://www.w3.org/2000/svg">
<path d="M6.66661 17C6.66661 25.5407 3.18394 30.1287 0.26261 32.4733C0.0117047 32.6767 -0.0573934 33.0306 0.0986096 33.3133C0.256931 33.5965 0.594768 33.7263 0.901942 33.622C4.95318 32.3456 9.19999 31.8037 13.4419 32.022C15.2678 32.1721 17.0727 32.5147 18.8266 33.044C20.2931 33.4577 21.8096 33.6672 23.3333 33.6667C23.5835 33.6667 23.8346 33.6611 24.0866 33.65C32.4756 33.1912 39.2443 26.6216 39.9533 18.25C40.3166 13.6188 38.7148 9.04848 35.5399 5.65734C30.8754 0.639828 23.6157 -1.01228 17.2393 1.49264C10.8629 3.99756 6.66876 10.1492 6.66661 17ZM23.3333 1.66667C27.5935 1.67365 31.6601 3.44664 34.5646 6.56334C37.4852 9.6842 38.9589 13.8894 38.6253 18.1507C37.974 25.8524 31.747 31.8966 24.0293 32.318C22.3965 32.393 20.7622 32.2059 19.1886 31.764C17.3429 31.2086 15.4433 30.8511 13.5219 30.6973C12.8406 30.6553 12.1719 30.6367 11.5173 30.6367C8.67828 30.6456 5.84958 30.9782 3.08594 31.628C5.63527 28.7793 7.99994 24.2 7.99994 17C8.00949 8.5356 14.8689 1.67622 23.3333 1.66667Z" fill="#26355E"/>
<path d="M13.076 25.096C13.3265 25.0959 13.5558 24.9553 13.6695 24.7321C13.7833 24.5089 13.7624 24.2408 13.6153 24.038C10.1613 19.2632 10.6855 12.687 14.8524 8.5197C19.0194 4.35245 25.5956 3.82767 30.3706 7.28133C30.5638 7.42126 30.8169 7.44751 31.0347 7.35019C31.2525 7.25288 31.4018 7.04677 31.4264 6.80953C31.451 6.57228 31.3471 6.33993 31.154 6.2C25.8483 2.35437 18.5346 2.93415 13.901 7.5677C9.26746 12.2013 8.68768 19.5149 12.5333 24.8207C12.6593 24.9945 12.8613 25.0969 13.076 25.096Z" fill="#26355E"/>
<path d="M31.8185 25.4853C27.6611 29.6783 21.0632 30.2025 16.2959 26.7187C16.1027 26.5788 15.8496 26.5525 15.6318 26.6498C15.414 26.7471 15.2647 26.9532 15.2401 27.1905C15.2155 27.4277 15.3194 27.6601 15.5125 27.8C20.8183 31.6457 28.132 31.0659 32.7655 26.4323C37.3991 21.7988 37.9788 14.4851 34.1332 9.17934C33.9154 8.88633 33.5024 8.82304 33.2068 9.03738C32.9112 9.25171 32.8431 9.66392 33.0539 9.96201C36.5385 14.7297 36.0133 21.3288 31.8185 25.4853Z" fill="#26355E"/>
<path d="M18.6668 17C18.6668 15.5272 17.4729 14.3333 16.0002 14.3333C14.5274 14.3333 13.3335 15.5272 13.3335 17C13.3335 18.4728 14.5274 19.6667 16.0002 19.6667C17.4729 19.6667 18.6668 18.4728 18.6668 17ZM14.6668 17C14.6668 16.2636 15.2638 15.6667 16.0002 15.6667C16.7365 15.6667 17.3335 16.2636 17.3335 17C17.3335 17.7364 16.7365 18.3333 16.0002 18.3333C15.2638 18.3333 14.6668 17.7364 14.6668 17Z" fill="#26355E"/>
<path d="M26.0001 17C26.0001 15.5272 24.8062 14.3333 23.3334 14.3333C21.8607 14.3333 20.6667 15.5272 20.6667 17C20.6667 18.4728 21.8607 19.6667 23.3334 19.6667C24.8062 19.6667 26.0001 18.4728 26.0001 17ZM22.0001 17C22.0001 16.2636 22.597 15.6667 23.3334 15.6667C24.0698 15.6667 24.6668 16.2636 24.6668 17C24.6668 17.7364 24.0698 18.3333 23.3334 18.3333C22.597 18.3333 22.0001 17.7364 22.0001 17Z" fill="#26355E"/>
<path d="M28 17C28 18.4728 29.1939 19.6667 30.6667 19.6667C32.1394 19.6667 33.3333 18.4728 33.3333 17C33.3333 15.5272 32.1394 14.3333 30.6667 14.3333C29.1939 14.3333 28 15.5272 28 17ZM32 17C32 17.7364 31.403 18.3333 30.6667 18.3333C29.9303 18.3333 29.3333 17.7364 29.3333 17C29.3333 16.2636 29.9303 15.6667 30.6667 15.6667C31.403 15.6667 32 16.2636 32 17Z" fill="#26355E"/>
</svg>
