<svg width="40" height="40" viewBox="0 0 40 40" fill="none" xmlns="http://www.w3.org/2000/svg">
<path d="M4.65527 4.6643V39.3135C4.65527 39.6816 4.95362 39.9799 5.32168 39.9799H30.6423C31.0101 39.9799 31.3084 39.6816 31.3084 39.3135V11.3278C31.3084 11.313 31.3013 11.3004 31.2999 11.2858C31.2966 11.2273 31.2851 11.1697 31.2659 11.1145C31.2585 11.0931 31.2533 11.0726 31.2439 11.0517C31.2116 10.9792 31.1665 10.9131 31.1106 10.8565L24.4473 4.19331C24.3908 4.13705 24.3244 4.09204 24.2514 4.05992C24.2313 4.05142 24.211 4.04428 24.1902 4.03797C24.1344 4.01875 24.0765 4.00723 24.0175 4.00338C24.0063 4.00531 23.9931 3.99817 23.9791 3.99817H5.32168C4.95362 3.99817 4.65527 4.29624 4.65527 4.6643ZM29.0337 10.6614H24.6452V6.27295L29.0337 10.6614ZM5.98781 5.33071H23.3127V11.3278C23.3127 11.6956 23.611 11.9939 23.9788 11.9939H29.9759V38.6474H5.98781V5.33071Z" fill="#26355E"/>
<path d="M32.6412 34.6492V35.9817H34.6401C35.0082 35.9817 35.3065 35.6837 35.3065 35.3156V0.666405C35.3065 0.298345 35.0082 0 34.6401 0H9.31948C8.95142 0 8.65308 0.298345 8.65308 0.666405V2.66534H9.98589V1.33254H33.9737V34.6492H32.6412Z" fill="#26355E"/>
<path d="M9.98584 13.3267H25.9776V14.6593H9.98584V13.3267Z" fill="#26355E"/>
<path d="M9.98584 9.32861H15.3165V10.6614H9.98584V9.32861Z" fill="#26355E"/>
<path d="M9.98584 17.3246H20.6472V18.6574H9.98584V17.3246Z" fill="#26355E"/>
<path d="M21.9797 17.3246H25.9776V18.6574H21.9797V17.3246Z" fill="#26355E"/>
<path d="M9.98584 21.3225H25.9776V22.6553H9.98584V21.3225Z" fill="#26355E"/>
<path d="M9.98584 29.3185H25.9776V30.6514H9.98584V29.3185Z" fill="#26355E"/>
<path d="M15.9827 25.3207H25.9776V26.6532H15.9827V25.3207Z" fill="#26355E"/>
<path d="M9.98584 25.3207H14.6501V26.6532H9.98584V25.3207Z" fill="#26355E"/>
<path d="M9.98584 33.3167H12.6512V34.6492H9.98584V33.3167Z" fill="#26355E"/>
<path d="M13.9836 33.3167H25.9776V34.6492H13.9836V33.3167Z" fill="#26355E"/>
</svg>
