<svg width="40" height="40" viewBox="0 0 40 40" fill="none" xmlns="http://www.w3.org/2000/svg">
<path d="M12.9999 10.6667H4.99992C4.63173 10.6667 4.33325 10.9652 4.33325 11.3334C4.33325 11.7015 4.63173 12 4.99992 12H12.9999C13.3681 12 13.6666 11.7015 13.6666 11.3334C13.6666 10.9652 13.3681 10.6667 12.9999 10.6667Z" fill="#26355E"/>
<path d="M39.1566 9.57C39.0279 9.53867 36.3073 8.90333 34.1226 9.964C33.5842 8.4666 32.6466 7.14493 31.4113 6.142C31.1699 5.95298 30.8307 5.95298 30.5893 6.142C30.4699 6.23533 27.6666 8.46133 27.6666 11.3333C27.6791 12.0844 27.8556 12.8237 28.1839 13.4993C26.7419 12.9474 25.2107 12.6652 23.6666 12.6667H16.9999C16.6317 12.6667 16.3333 12.3682 16.3333 12V5.33333C17.0696 5.33333 17.6666 4.73638 17.6666 4V1.33333C17.6666 0.596954 17.0696 0 16.3333 0H1.66659C0.930206 0 0.333252 0.596954 0.333252 1.33333V4C0.333252 4.73638 0.930206 5.33333 1.66659 5.33333V14.6667C1.6743 21.6591 7.34084 27.3256 14.3333 27.3333L21.0613 27.3373C21.4038 27.369 21.666 27.656 21.6666 28V34.6667C20.9302 34.6667 20.3333 35.2636 20.3333 36V38.6667C20.3333 39.403 20.9302 40 21.6666 40H36.3333C37.0696 40 37.6666 39.403 37.6666 38.6667V36C37.6666 35.2636 37.0696 34.6667 36.3333 34.6667V25.3333C36.3366 22.1998 35.1741 19.1771 33.0719 16.8533C33.2306 16.8613 33.3946 16.8673 33.5679 16.8673C34.9364 16.9216 36.2842 16.5202 37.3999 15.726C39.6506 13.948 39.6666 10.3673 39.6666 10.2153C39.6654 9.90849 39.4548 9.64211 39.1566 9.57ZM30.9999 7.55733C31.9484 8.40497 32.6246 9.51451 32.9433 10.746L32.9999 10.7333C31.6086 12.0313 31.1879 14.036 31.0633 15.1627C30.9686 15.0747 30.8633 14.9747 30.7466 14.8527L30.7399 14.846C30.0886 14.178 28.9999 12.828 28.9999 11.3333C28.9999 9.68933 30.3119 8.21667 30.9999 7.55733ZM23.9259 14.0093C25.9773 14.0526 27.9777 14.6569 29.7099 15.7567C23.3366 17.4433 21.2146 23.4193 20.5879 26H19.6873C19.8779 18.5813 23.1333 14.8113 23.9259 14.0093ZM22.8506 27.2513C22.6699 26.805 22.3366 26.4373 21.9099 26.214C22.5419 23.6807 24.6879 17.8973 31.1353 16.8253C32.6842 18.1795 33.8332 19.9317 34.4579 21.892C27.6826 21.5153 24.3719 24.7873 22.8506 27.2513ZM1.66659 1.33333H16.3333V4H1.66659V1.33333ZM2.99992 14.6667V5.33333H14.9999V12C14.9999 13.1046 15.8954 14 16.9999 14H22.1619C20.7666 15.7667 18.5066 19.6127 18.3539 26H14.3333C8.07692 25.993 3.0069 20.923 2.99992 14.6667ZM36.3333 38.6667H21.6666V36H36.3333V38.6667ZM22.9999 34.6667V30.0827C23.2053 29.2873 25.2513 22.5067 34.7946 23.2573C34.9265 23.9416 34.9953 24.6365 34.9999 25.3333V34.6667H22.9999ZM36.5753 14.6793C35.2873 15.6947 33.3186 15.5793 32.3753 15.4473C32.4666 14.4973 32.8113 12.556 34.0993 11.5393C35.3873 10.5227 37.3606 10.6393 38.3033 10.7707C38.2113 11.7187 37.8706 13.6567 36.5753 14.6793Z" fill="#26355E"/>
</svg>
