<svg width="40" height="30" viewBox="0 0 40 30" fill="none" xmlns="http://www.w3.org/2000/svg">
<path d="M38.6752 6.09381L3.44828 0.457947V3.44415L1.37931 3.27864V6.0945H0V29.5428H40V6.0945H38.6752V6.09381ZM4.82759 2.07519L23.3117 5.03243L4.82759 3.55381V2.07519ZM2.75862 4.77174L3.44828 4.82691V4.8276L8.10828 5.20002L19.2828 6.09381H2.75862V4.77174ZM38.6207 28.1628H1.37931V7.47312H36.5517H38.6207V28.1628Z" fill="#26355E"/>
<path d="M4.48264 12.9904C5.81368 12.9904 6.89643 11.9076 6.89643 10.5766C6.89643 9.24554 5.81368 8.16278 4.48264 8.16278C3.15161 8.16278 2.06885 9.24554 2.06885 10.5766C2.06885 11.9076 3.15161 12.9904 4.48264 12.9904ZM4.48264 9.54209C5.05299 9.54209 5.51712 10.0062 5.51712 10.5766C5.51712 11.1469 5.05299 11.6111 4.48264 11.6111C3.9123 11.6111 3.44816 11.1476 3.44816 10.5766C3.44816 10.0055 3.9123 9.54209 4.48264 9.54209Z" fill="#26355E"/>
<path d="M33.1035 10.5766C33.1035 11.9076 34.1863 12.9904 35.5173 12.9904C36.8483 12.9904 37.9311 11.9076 37.9311 10.5766C37.9311 9.24554 36.8483 8.16278 35.5173 8.16278C34.1863 8.16278 33.1035 9.24623 33.1035 10.5766ZM36.5518 10.5766C36.5518 11.1469 36.0877 11.6111 35.5173 11.6111C34.947 11.6111 34.4828 11.1469 34.4828 10.5766C34.4828 10.0062 34.947 9.54209 35.5173 9.54209C36.0877 9.54209 36.5518 10.0062 36.5518 10.5766Z" fill="#26355E"/>
<path d="M4.48264 22.6455C3.15161 22.6455 2.06885 23.7283 2.06885 25.0593C2.06885 26.3904 3.15161 27.4731 4.48264 27.4731C5.81368 27.4731 6.89643 26.3904 6.89643 25.0593C6.89643 23.7283 5.81368 22.6455 4.48264 22.6455ZM4.48264 26.0938C3.9123 26.0938 3.44816 25.6297 3.44816 25.0593C3.44816 24.489 3.9123 24.0248 4.48264 24.0248C5.05299 24.0248 5.51712 24.489 5.51712 25.0593C5.51712 25.6297 5.05299 26.0938 4.48264 26.0938Z" fill="#26355E"/>
<path d="M35.5173 22.6455C34.1863 22.6455 33.1035 23.7283 33.1035 25.0593C33.1035 26.3904 34.1863 27.4731 35.5173 27.4731C36.8483 27.4731 37.9311 26.3904 37.9311 25.0593C37.9311 23.7283 36.8483 22.6455 35.5173 22.6455ZM35.5173 26.0938C34.947 26.0938 34.4828 25.6297 34.4828 25.0593C34.4828 24.489 34.947 24.0248 35.5173 24.0248C36.0877 24.0248 36.5518 24.489 36.5518 25.0593C36.5518 25.6297 36.0877 26.0938 35.5173 26.0938Z" fill="#26355E"/>
<path d="M21.7572 27.3055C21.842 27.2897 21.9276 27.2773 22.0117 27.2593C22.2655 27.2049 22.5172 27.14 22.7655 27.0648C22.88 27.0304 22.9917 26.9904 23.1041 26.9517C23.2503 26.9014 23.3958 26.849 23.54 26.7917C23.6641 26.7428 23.7875 26.6924 23.9089 26.6386C24.0455 26.5773 24.18 26.5104 24.3144 26.4428C24.502 26.3483 24.6855 26.249 24.8662 26.1428C24.8938 26.1269 24.9213 26.1104 24.9489 26.0938H32.4944L32.4276 25.3435C32.4207 25.2497 32.4138 25.1559 32.4138 25.0593C32.4138 23.3483 33.8062 21.9559 35.5172 21.9559C35.6124 21.9559 35.7055 21.9621 35.7986 21.9704L36.5517 22.0393V13.5966L35.7986 13.6655C35.7055 13.6738 35.6117 13.68 35.5172 13.68C33.8062 13.68 32.4138 12.2876 32.4138 10.5766C32.4138 10.4807 32.4207 10.3862 32.4282 10.2924L32.4951 9.54209H24.9476C23.4986 8.67244 21.8096 8.16278 20 8.16278C18.1903 8.16278 16.5013 8.67244 15.0524 9.54209H7.50272L7.57169 10.2945C7.57997 10.3883 7.58617 10.4814 7.58617 10.5766C7.58617 12.2876 6.19376 13.68 4.48272 13.68C4.38755 13.68 4.29376 13.6738 4.20066 13.6655L3.44824 13.5966V22.0393L4.20066 21.9704C4.29376 21.9621 4.38755 21.9559 4.48272 21.9559C6.19376 21.9559 7.58617 23.3483 7.58617 25.0593C7.58617 25.1545 7.57997 25.2483 7.57169 25.3414L7.50272 26.0938H15.0358C15.1455 26.16 15.2558 26.2242 15.3676 26.2855C15.402 26.3048 15.4379 26.3221 15.4731 26.3407C15.6972 26.46 15.9248 26.5697 16.1565 26.6704C16.2096 26.6931 16.262 26.7166 16.3151 26.7386C16.5779 26.8476 16.8441 26.9469 17.1158 27.0324C17.1227 27.0345 17.1296 27.0373 17.1365 27.0393C17.4172 27.1262 17.7027 27.1986 17.991 27.2593C18.0586 27.2738 18.1276 27.2849 18.1958 27.2973C18.4186 27.3393 18.6427 27.3738 18.8689 27.4C18.951 27.4097 19.0324 27.42 19.1151 27.4276C19.4082 27.4545 19.7027 27.4724 20 27.4724C20.291 27.4724 20.58 27.4545 20.8682 27.4283C20.9579 27.42 21.0469 27.4097 21.1358 27.3993C21.3441 27.3759 21.551 27.3435 21.7572 27.3055ZM18.0903 25.8628C18.0469 25.8524 18.0034 25.84 17.96 25.829C17.7351 25.7731 17.5138 25.7055 17.2944 25.6304C17.1931 25.5952 17.0924 25.5586 16.9924 25.52C16.8344 25.4593 16.6807 25.3904 16.5269 25.32C16.4517 25.2849 16.3772 25.249 16.3027 25.2117L18.1317 24.3111C18.5276 24.1159 18.7738 23.72 18.7738 23.2786V22.1373L18.3572 21.958C17.4731 21.5773 16.8979 20.8476 16.5986 19.7269L16.5 19.3593L16.1365 19.2462C15.9186 19.1786 15.7724 18.9842 15.7724 18.7628V18.1621C15.7724 17.9414 15.9158 17.7862 16.0496 17.7152L16.3738 17.5428L16.4117 17.178C16.4689 16.6235 16.5931 16.1124 16.7786 15.6593C16.8579 15.4655 16.9255 15.3207 16.98 15.2035C17.1634 14.809 17.2455 14.5752 17.2269 14.1966C17.9186 14.5524 18.7331 14.7035 19.6089 14.6338C19.6993 14.6262 19.7924 14.6228 19.8862 14.6228C22.0793 14.6228 23.1496 15.4131 23.3579 17.1848L23.4 17.5448L23.7207 17.7145C23.8558 17.7862 24 17.9414 24 18.1628V18.7635C24 18.9848 23.8538 19.1793 23.6358 19.2469L23.2724 19.36L23.1738 19.7276C22.8744 20.8483 22.2993 21.5786 21.4151 21.9586L20.9986 22.138V23.2842C20.9986 23.718 21.2386 24.1104 21.6262 24.3097L23.5413 25.2883C23.5158 25.3007 23.491 25.3131 23.4648 25.3249C23.2262 25.4352 22.9834 25.5345 22.7358 25.6207C22.7062 25.6311 22.6772 25.6428 22.6476 25.6531C21.1827 26.1428 19.5869 26.209 18.0903 25.8628ZM26.7496 10.9214H31.0476C31.2158 13.1193 32.9744 14.878 35.1724 15.0462V20.5897C32.9744 20.758 31.2158 22.5166 31.0476 24.7145H26.7496C26.76 24.7042 26.7689 24.6931 26.7793 24.6828C26.8972 24.5662 27.0062 24.4414 27.1179 24.3186C27.2255 24.2014 27.3372 24.0883 27.4379 23.9662C27.4765 23.9193 27.5103 23.8683 27.5482 23.8207C28.6793 22.4069 29.3958 20.7014 29.5944 18.8697C29.5972 18.8469 29.602 18.8249 29.6048 18.8021C29.6379 18.478 29.6551 18.1497 29.6551 17.818C29.6551 17.4862 29.6379 17.158 29.6055 16.8331C29.6034 16.8104 29.5979 16.7883 29.5951 16.7655C29.3965 14.9345 28.6793 13.2283 27.5489 11.8145C27.511 11.7669 27.4772 11.7159 27.4386 11.669C27.3372 11.5476 27.2262 11.4338 27.1186 11.3166C27.0069 11.1945 26.8979 11.069 26.78 10.9524C26.7689 10.9435 26.76 10.9317 26.7496 10.9214ZM24.422 10.8352C24.9917 11.1966 25.5041 11.62 25.9593 12.0904C26.0213 12.1545 26.0793 12.2221 26.1393 12.2883C26.2876 12.4517 26.4276 12.6214 26.562 12.7952C26.6317 12.8862 26.702 12.9773 26.7682 13.0711C26.8938 13.249 27.0089 13.4338 27.12 13.6207C27.1689 13.7028 27.2227 13.7814 27.2689 13.8655C27.4103 14.1248 27.5365 14.3931 27.6489 14.6669C27.6917 14.7704 27.7262 14.8773 27.7648 14.9821C27.8351 15.1752 27.9007 15.3697 27.9572 15.5683C27.9896 15.6821 28.0186 15.7966 28.0455 15.9117C28.0951 16.1214 28.1351 16.3338 28.1682 16.5476C28.1841 16.649 28.2027 16.7497 28.2151 16.8524C28.2517 17.1711 28.2758 17.4924 28.2758 17.818C28.2758 18.1435 28.2517 18.4649 28.2144 18.7828C28.2027 18.8855 28.1834 18.9855 28.1675 19.0876C28.1344 19.3021 28.0944 19.5145 28.0448 19.7235C28.0172 19.8386 27.9882 19.9538 27.9565 20.0669C27.9007 20.2655 27.8351 20.46 27.7641 20.6531C27.7255 20.7586 27.691 20.8655 27.6482 20.9683C27.5351 21.2421 27.4096 21.5104 27.2682 21.7697C27.222 21.8538 27.1682 21.9324 27.1193 22.0145C27.0082 22.2014 26.8931 22.3862 26.7676 22.5642C26.7013 22.658 26.631 22.749 26.5613 22.84C26.4276 23.0138 26.2869 23.1835 26.1386 23.3469C26.0786 23.4131 26.0207 23.4807 25.9586 23.5448C25.6324 23.8821 25.2675 24.1862 24.8813 24.469C24.7641 24.3835 24.6448 24.3 24.5144 24.2345L22.3765 23.1428V23.0173C23.3413 22.4752 24.0234 21.5993 24.4103 20.4055C25.002 20.0766 25.3786 19.4559 25.3786 18.7614V18.1607C25.3786 17.5883 25.1179 17.0566 24.68 16.7014C24.3917 15.0524 23.2972 13.2407 19.8855 13.2407C19.7524 13.2407 19.622 13.2455 19.4965 13.2559C18.9917 13.2959 18.2538 13.2538 17.6179 12.8255C17.38 12.6655 17.2013 12.5111 17.0882 12.3669C16.8607 12.078 16.4813 11.978 16.1413 12.118C15.8034 12.2573 15.6048 12.5959 15.6469 12.9586C15.6731 13.1855 15.711 13.4497 15.7682 13.7386C15.8793 14.2959 15.8793 14.2959 15.7282 14.6193C15.6669 14.7517 15.5903 14.9159 15.5007 15.1345C15.3027 15.618 15.1607 16.1469 15.0786 16.7104C14.6476 17.0655 14.3917 17.5938 14.3917 18.1607V18.7614C14.3917 19.4559 14.7682 20.0773 15.36 20.4055C15.7469 21.5993 16.4289 22.4752 17.3938 23.0173V23.1352L15.1772 24.2276C15.1069 24.2662 15.0407 24.3186 14.9731 24.3655C14.6407 24.1111 14.3248 23.84 14.0386 23.5442C13.9765 23.48 13.9186 23.4124 13.8586 23.3462C13.7103 23.1828 13.5703 23.0131 13.4358 22.8393C13.3662 22.7483 13.2958 22.6573 13.2296 22.5635C13.1041 22.3855 12.9889 22.2007 12.8779 22.0138C12.8289 21.9317 12.7751 21.8531 12.7289 21.769C12.5876 21.5097 12.4613 21.2414 12.3489 20.9676C12.3062 20.8642 12.2717 20.7573 12.2331 20.6524C12.1627 20.4593 12.0972 20.2648 12.0407 20.0662C12.0082 19.9524 11.9793 19.838 11.9524 19.7228C11.9027 19.5131 11.8627 19.3007 11.8296 19.0869C11.8138 18.9855 11.7951 18.8849 11.7827 18.7821C11.7482 18.4649 11.7241 18.1442 11.7241 17.818C11.7241 17.4917 11.7482 17.1711 11.7855 16.8531C11.7972 16.7504 11.8165 16.6504 11.8324 16.5483C11.8655 16.3338 11.9055 16.1214 11.9551 15.9124C11.9827 15.7973 12.0117 15.6821 12.0434 15.569C12.0993 15.3704 12.1648 15.1759 12.2358 14.9828C12.2744 14.8773 12.3089 14.7704 12.3517 14.6676C12.4648 14.3938 12.5903 14.1255 12.7317 13.8662C12.7779 13.7821 12.8317 13.7035 12.8807 13.6214C12.9917 13.4345 13.1069 13.2497 13.2324 13.0717C13.2986 12.978 13.3689 12.8869 13.4386 12.7959C13.5724 12.6221 13.7131 12.4524 13.8613 12.289C13.9213 12.2228 13.9793 12.1552 14.0413 12.0911C14.4965 11.6207 15.0089 11.1973 15.5786 10.8359C16.8593 10.0214 18.3738 9.54278 20.0007 9.54278C21.6276 9.54278 23.1413 10.0207 24.422 10.8352ZM8.95238 24.7145C8.7841 22.5173 7.02548 20.758 4.82755 20.5897V15.0462C7.02548 14.878 8.7841 13.1193 8.95238 10.9214H13.2503C13.24 10.9317 13.231 10.9428 13.2207 10.9531C13.1027 11.0697 12.9938 11.1945 12.882 11.3173C12.7744 11.4345 12.6627 11.5476 12.562 11.6697C12.5234 11.7166 12.4896 11.7676 12.4517 11.8152C11.3207 13.229 10.6041 14.9345 10.4055 16.7662C10.4027 16.789 10.3979 16.8111 10.3951 16.8338C10.362 17.158 10.3448 17.4869 10.3448 17.818C10.3448 18.149 10.362 18.478 10.3944 18.8028C10.3965 18.8255 10.402 18.8476 10.4048 18.8704C10.6034 20.7014 11.3207 22.4076 12.451 23.8214C12.4889 23.869 12.5227 23.92 12.5613 23.9669C12.6627 24.0883 12.7738 24.2021 12.8813 24.3193C12.9931 24.4414 13.102 24.5669 13.22 24.6835C13.2303 24.6938 13.2393 24.7049 13.2496 24.7152H8.95238V24.7145Z" fill="#26355E"/>
</svg>
