<svg width="42" height="41" viewBox="0 0 42 41" fill="none" xmlns="http://www.w3.org/2000/svg">
<path d="M18.271 1.97735C19.3387 -0.361366 22.6613 -0.361364 23.729 1.97735L27.5859 10.425C28.0227 11.3817 28.9285 12.0398 29.9733 12.1596L39.1994 13.2172C41.7536 13.51 42.7803 16.6699 40.886 18.4081L34.0436 24.6867C33.2687 25.3977 32.9227 26.4626 33.1317 27.4932L34.9768 36.5946C35.4877 39.1143 32.7997 41.0672 30.5612 39.8027L22.4755 35.2354C21.5598 34.7182 20.4402 34.7182 19.5245 35.2354L11.4388 39.8027C9.2003 41.0672 6.51233 39.1143 7.02315 36.5946L8.8683 27.4932C9.07725 26.4626 8.73127 25.3977 7.95641 24.6867L1.11401 18.4081C-0.78028 16.6699 0.246437 13.51 2.80064 13.2172L12.0267 12.1596C13.0715 12.0398 13.9773 11.3817 14.4141 10.4251L18.271 1.97735Z" fill="#00AA65"/>
</svg>
