<svg width="16" height="12" viewBox="0 0 16 12" fill="none" xmlns="http://www.w3.org/2000/svg">
<path fill-rule="evenodd" clip-rule="evenodd" d="M14.2602 0.7489C14.9455 0.933469 15.4859 1.47375 15.6703 2.15917C16.0131 3.41112 15.9999 6.02073 15.9999 6.02073C15.9999 6.02073 15.9999 8.61703 15.6705 9.8691C15.4859 10.5544 14.9456 11.0948 14.2602 11.2793C13.0081 11.6088 7.99997 11.6088 7.99997 11.6088C7.99997 11.6088 3.00487 11.6088 1.73974 11.2662C1.05432 11.0816 0.514036 10.5412 0.329466 9.85592C0 8.61703 0 6.00754 0 6.00754C0 6.00754 0 3.41112 0.329466 2.15917C0.513914 1.47387 1.0675 0.920286 1.73962 0.735838C2.99169 0.40625 7.99984 0.40625 7.99984 0.40625C7.99984 0.40625 13.0081 0.40625 14.2602 0.7489ZM10.5699 6.00757L6.40527 8.40625V3.60889L10.5699 6.00757Z" fill="#929AAE"/>
</svg>
